G04 This is an RS-274x file exported by *
G04 gerbv version 2.6A *
G04 More information is available about gerbv at *
G04 http://gerbv.geda-project.org/ *
G04 --End of header info--*
%MOIN*%
%FSLAX34Y34*%
%IPPOS*%
G04 --Define apertures--*
%ADD10O,0.0669X0.0669*%
%ADD11R,0.0669X0.0669*%
%ADD12O,0.0630X0.0945*%
%ADD13R,0.0630X0.0945*%
%ADD14O,0.0551X0.0551*%
%ADD15C,0.0551*%
%ADD16O,0.0709X0.0709*%
%ADD17R,0.0709X0.0709*%
%ADD18R,0.0591X0.0591*%
%ADD19C,0.0591*%
%ADD20C,0.0315*%
%ADD21C,0.0394*%
%ADD22C,0.0197*%
%ADD23C,0.0295*%
%ADD24C,0.0100*%
G04 --Start main section--*
G54D10*
G01X0019882Y-004094D03*
G54D11*
G01X0019882Y-005094D03*
G54D12*
G01X0007709Y-004134D03*
G01X0010709Y-007134D03*
G01X0008709Y-004134D03*
G01X0009709Y-007134D03*
G01X0009709Y-004134D03*
G01X0008709Y-007134D03*
G01X0010709Y-004134D03*
G54D13*
G01X0007709Y-007134D03*
G54D14*
G01X0017953Y-007362D03*
G54D15*
G01X0018953Y-007362D03*
G54D14*
G01X0014724Y-010236D03*
G54D15*
G01X0015724Y-010236D03*
G54D14*
G01X0014709Y-008898D03*
G54D15*
G01X0015709Y-008898D03*
G54D14*
G01X0015906Y-005087D03*
G54D15*
G01X0015906Y-002087D03*
G54D14*
G01X0002638Y-003504D03*
G54D15*
G01X0002638Y-002504D03*
G54D14*
G01X0004724Y-010591D03*
G54D15*
G01X0004724Y-009591D03*
G54D14*
G01X0004724Y-000417D03*
G54D15*
G01X0004724Y-001417D03*
G54D14*
G01X0018992Y-008346D03*
G54D15*
G01X0017992Y-008346D03*
G54D11*
G01X0016102Y-007598D03*
G54D16*
G01X0012969Y-006260D03*
G54D17*
G01X0011969Y-006260D03*
G54D16*
G01X0012969Y-005000D03*
G54D17*
G01X0011969Y-005000D03*
G54D14*
G01X0005984Y-008780D03*
G54D15*
G01X0005984Y-009780D03*
G54D14*
G01X0005984Y-002244D03*
G54D15*
G01X0005984Y-001244D03*
G54D14*
G01X0004724Y-007701D03*
G54D15*
G01X0004724Y-008701D03*
G54D14*
G01X0004724Y-005890D03*
G54D15*
G01X0004724Y-006890D03*
G54D14*
G01X0004724Y-005094D03*
G54D15*
G01X0004724Y-004094D03*
G54D14*
G01X0004724Y-003283D03*
G54D15*
G01X0004724Y-002283D03*
G54D12*
G01X0017008Y-009488D03*
G01X0018008Y-009488D03*
G01X0019008Y-009488D03*
G01X0020008Y-009488D03*
G01X0000622Y-009480D03*
G01X0001622Y-009480D03*
G01X0002622Y-009480D03*
G01X0003622Y-009480D03*
G01X0020008Y-001457D03*
G01X0019008Y-001457D03*
G01X0018008Y-001457D03*
G54D13*
G01X0017008Y-001457D03*
G54D12*
G01X0003622Y-001496D03*
G01X0002622Y-001496D03*
G01X0001622Y-001496D03*
G54D13*
G01X0000622Y-001496D03*
G54D14*
G01X0015039Y-005087D03*
G54D15*
G01X0015039Y-002087D03*
G54D14*
G01X0014173Y-005087D03*
G54D15*
G01X0014173Y-002087D03*
G54D14*
G01X0008465Y-008189D03*
G54D15*
G01X0011465Y-008189D03*
G54D14*
G01X0008465Y-003110D03*
G54D15*
G01X0011465Y-003110D03*
G54D18*
G01X0012598Y-007189D03*
G54D19*
G01X0012598Y-009189D03*
G01X0012598Y-008189D03*
G54D18*
G01X0012913Y-004110D03*
G54D19*
G01X0012913Y-002110D03*
G01X0012913Y-003110D03*
G54D18*
G01X0005984Y-005984D03*
G54D19*
G01X0005984Y-007984D03*
G01X0005984Y-006984D03*
G54D18*
G01X0005984Y-003039D03*
G54D19*
G01X0005984Y-005039D03*
G01X0005984Y-004039D03*
G54D11*
G01X0016102Y-006181D03*
G01X0014685Y-007598D03*
G54D10*
G01X0000709Y-007386D03*
G01X0000709Y-006386D03*
G01X0000709Y-005386D03*
G01X0000709Y-004386D03*
G54D11*
G01X0000709Y-003386D03*
G54D10*
G01X0011165Y-000748D03*
G01X0010165Y-000748D03*
G01X0009165Y-000748D03*
G01X0008165Y-000748D03*
G54D11*
G01X0007165Y-000748D03*
G54D10*
G01X0011087Y-010236D03*
G01X0010087Y-010236D03*
G01X0009087Y-010236D03*
G01X0008087Y-010236D03*
G54D11*
G01X0007087Y-010236D03*
G54D20*
G01X0004055Y-002618D03*
G01X0003937Y-003504D03*
G01X0013062Y-001054D03*
G01X0012402Y-000394D03*
G01X0011210Y-006406D03*
G01X0007717Y-002008D03*
G01X0010906Y-008701D03*
G01X0007118Y-007488D03*
G01X0009685Y-001929D03*
G01X0003622Y-004370D03*
G01X0017008Y-006772D03*
G01X0001850Y-002795D03*
G54D21*
G01X0012969Y-006260D02*
G01X0012969Y-005000D01*
G01X0012894Y-008894D02*
G01X0012598Y-009189D01*
G01X0013169Y-008618D02*
G01X0012894Y-008894D01*
G01X0012969Y-006260D02*
G01X0013169Y-006461D01*
G01X0013169Y-006461D02*
G01X0013169Y-008618D01*
G54D22*
G01X0012969Y-005000D02*
G01X0012535Y-004567D01*
G01X0012535Y-004567D02*
G01X0012520Y-004567D01*
G01X0012520Y-004567D02*
G01X0012323Y-004370D01*
G01X0012323Y-002701D02*
G01X0012913Y-002110D01*
G01X0012323Y-004370D02*
G01X0012323Y-002701D01*
G54D21*
G01X0000827Y-003504D02*
G01X0002638Y-003504D01*
G01X0000709Y-003386D02*
G01X0000827Y-003504D01*
G54D22*
G01X0009165Y-000748D02*
G01X0008614Y-000197D01*
G01X0008614Y-000197D02*
G01X0005827Y-000197D01*
G01X0005059Y-000965D02*
G01X0004507Y-000965D01*
G01X0004272Y-002402D02*
G01X0004055Y-002618D01*
G01X0005827Y-000197D02*
G01X0005059Y-000965D01*
G01X0004507Y-000965D02*
G01X0004272Y-001200D01*
G01X0004272Y-001200D02*
G01X0004272Y-002402D01*
G01X0003937Y-003504D02*
G01X0002638Y-003504D01*
G01X0013062Y-001961D02*
G01X0012913Y-002110D01*
G01X0013062Y-001054D02*
G01X0013062Y-001961D01*
G01X0012244Y-000236D02*
G01X0012402Y-000394D01*
G01X0009165Y-000748D02*
G01X0009677Y-000236D01*
G01X0009677Y-000236D02*
G01X0012244Y-000236D01*
G54D21*
G01X0019008Y-005386D02*
G01X0019008Y-002323D01*
G01X0019008Y-002323D02*
G01X0019008Y-001457D01*
G01X0020008Y-009488D02*
G01X0020008Y-006386D01*
G01X0020008Y-006386D02*
G01X0019008Y-005386D01*
G54D22*
G01X0010575Y-010748D02*
G01X0010752Y-010571D01*
G01X0005272Y-010748D02*
G01X0010575Y-010748D01*
G01X0010752Y-010571D02*
G01X0011087Y-010236D01*
G01X0004724Y-010591D02*
G01X0005114Y-010591D01*
G01X0005114Y-010591D02*
G01X0005272Y-010748D01*
G54D21*
G01X0011087Y-010236D02*
G01X0014724Y-010236D01*
G54D22*
G01X0011087Y-010236D02*
G01X0010461Y-009610D01*
G01X0011210Y-007486D02*
G01X0011210Y-006406D01*
G01X0010461Y-009610D02*
G01X0010461Y-008235D01*
G01X0010461Y-008235D02*
G01X0011210Y-007486D01*
G54D21*
G01X0010087Y-007756D02*
G01X0010709Y-007134D01*
G01X0010087Y-010236D02*
G01X0010087Y-007756D01*
G01X0010709Y-006268D02*
G01X0011299Y-005677D01*
G01X0010709Y-007134D02*
G01X0010709Y-006268D01*
G01X0011299Y-005677D02*
G01X0011299Y-004827D01*
G01X0011299Y-004827D02*
G01X0011299Y-003740D01*
G01X0010165Y-000787D02*
G01X0010165Y-002528D01*
G01X0010165Y-002528D02*
G01X0010866Y-003228D01*
G54D22*
G01X0011299Y-003661D02*
G01X0011299Y-003740D01*
G01X0010866Y-003228D02*
G01X0011299Y-003661D01*
G54D21*
G01X0010776Y-001358D02*
G01X0012146Y-001358D01*
G01X0019291Y-000433D02*
G01X0020008Y-001150D01*
G01X0010165Y-000748D02*
G01X0010776Y-001358D01*
G01X0020008Y-001150D02*
G01X0020008Y-001457D01*
G01X0013071Y-000433D02*
G01X0019291Y-000433D01*
G01X0012146Y-001358D02*
G01X0013071Y-000433D01*
G01X0009476Y-009626D02*
G01X0009752Y-009902D01*
G01X0009752Y-009902D02*
G01X0010087Y-010236D01*
G01X0005984Y-009780D02*
G01X0006138Y-009626D01*
G01X0006138Y-009626D02*
G01X0009476Y-009626D01*
G01X0016299Y-009488D02*
G01X0017008Y-009488D01*
G01X0014657Y-009488D02*
G01X0016299Y-009488D01*
G01X0014385Y-009760D02*
G01X0014657Y-009488D01*
G01X0007165Y-002008D02*
G01X0007717Y-002008D01*
G01X0011890Y-009764D02*
G01X0014385Y-009760D01*
G01X0010906Y-008701D02*
G01X0011890Y-009764D01*
G54D22*
G01X0004252Y-008189D02*
G01X0004906Y-008189D01*
G54D21*
G01X0001047Y-008189D02*
G01X0004252Y-008189D01*
G01X0000622Y-009480D02*
G01X0000622Y-008614D01*
G01X0000622Y-008614D02*
G01X0001047Y-008189D01*
G01X0006402Y-001244D02*
G01X0007165Y-002008D01*
G01X0005984Y-001244D02*
G01X0006402Y-001244D01*
G54D22*
G01X0004906Y-008189D02*
G01X0005000Y-008189D01*
G01X0005000Y-008189D02*
G01X0005709Y-007480D01*
G01X0005709Y-007480D02*
G01X0006535Y-007480D01*
G01X0006535Y-007480D02*
G01X0007087Y-007480D01*
G54D21*
G01X0007913Y-001496D02*
G01X0007165Y-000748D01*
G01X0008465Y-001929D02*
G01X0009685Y-001929D01*
G01X0007913Y-001496D02*
G01X0008031Y-001496D01*
G01X0008031Y-001496D02*
G01X0008465Y-001929D01*
G01X0004228Y-006386D02*
G01X0004724Y-005890D01*
G01X0000709Y-006386D02*
G01X0004228Y-006386D01*
G01X0005551Y-005472D02*
G01X0005984Y-005039D01*
G01X0004724Y-005472D02*
G01X0005551Y-005472D01*
G01X0004724Y-005472D02*
G01X0004724Y-005094D01*
G01X0004724Y-005890D02*
G01X0004724Y-005472D01*
G01X0005551Y-005551D02*
G01X0005984Y-005984D01*
G01X0005551Y-005472D02*
G01X0005551Y-005551D01*
G01X0000709Y-005386D02*
G01X0003591Y-005386D01*
G01X0003591Y-005386D02*
G01X0004331Y-004646D01*
G54D22*
G01X0005713Y-004642D02*
G01X0005827Y-004528D01*
G01X0004503Y-004646D02*
G01X0004507Y-004642D01*
G01X0004331Y-004646D02*
G01X0004503Y-004646D01*
G01X0004507Y-004642D02*
G01X0005713Y-004642D01*
G54D21*
G01X0007732Y-005567D02*
G01X0006693Y-004528D01*
G01X0006693Y-004528D02*
G01X0006378Y-004528D01*
G54D22*
G01X0005827Y-004528D02*
G01X0006378Y-004528D01*
G54D21*
G01X0007732Y-005567D02*
G01X0009228Y-005567D01*
G01X0009709Y-006047D02*
G01X0009709Y-007134D01*
G01X0009228Y-005567D02*
G01X0009709Y-006047D01*
G01X0009228Y-005567D02*
G01X0009236Y-005567D01*
G01X0009709Y-005094D02*
G01X0009709Y-004134D01*
G01X0009236Y-005567D02*
G01X0009709Y-005094D01*
G01X0000709Y-004386D02*
G01X0003606Y-004386D01*
G01X0003606Y-004386D02*
G01X0003622Y-004370D01*
G01X0014685Y-006634D02*
G01X0014685Y-007362D01*
G01X0013622Y-005571D02*
G01X0014685Y-006634D01*
G01X0013622Y-004721D02*
G01X0013622Y-005571D01*
G01X0012913Y-004110D02*
G01X0013011Y-004110D01*
G01X0013011Y-004110D02*
G01X0013622Y-004721D01*
G01X0017992Y-008346D02*
G01X0017008Y-007362D01*
G01X0017992Y-009472D02*
G01X0018008Y-009488D01*
G01X0017992Y-008346D02*
G01X0017992Y-009472D01*
G01X0017008Y-007362D02*
G01X0017008Y-006772D01*
G01X0017008Y-006772D02*
G01X0017008Y-001457D01*
G01X0010709Y-003976D02*
G01X0010709Y-004134D01*
G01X0009213Y-002480D02*
G01X0010709Y-003976D01*
G01X0006638Y-002480D02*
G01X0009213Y-002480D01*
G01X0005945Y-002283D02*
G01X0005984Y-002244D01*
G01X0004724Y-002283D02*
G01X0005945Y-002283D01*
G01X0005984Y-002244D02*
G01X0005984Y-003039D01*
G01X0006402Y-002244D02*
G01X0005984Y-002244D01*
G01X0006638Y-002480D02*
G01X0006402Y-002244D01*
G01X0004724Y-003283D02*
G01X0004724Y-004094D01*
G01X0005929Y-004094D02*
G01X0005984Y-004039D01*
G01X0004724Y-004094D02*
G01X0005929Y-004094D01*
G01X0005906Y-008701D02*
G01X0005984Y-008780D01*
G01X0004724Y-008701D02*
G01X0005906Y-008701D01*
G01X0005984Y-008780D02*
G01X0005984Y-007984D01*
G01X0009055Y-007480D02*
G01X0008709Y-007134D01*
G01X0009055Y-008414D02*
G01X0009055Y-007480D01*
G01X0005984Y-008780D02*
G01X0008690Y-008780D01*
G01X0008690Y-008780D02*
G01X0009055Y-008414D01*
G01X0004724Y-007701D02*
G01X0004724Y-006890D01*
G01X0004819Y-006984D02*
G01X0004724Y-006890D01*
G01X0005984Y-006984D02*
G01X0004819Y-006984D01*
G01X0002622Y-009323D02*
G01X0003213Y-008732D01*
G01X0002622Y-009480D02*
G01X0002622Y-009323D01*
G01X0003213Y-008732D02*
G01X0003867Y-008732D01*
G01X0003867Y-008732D02*
G01X0004449Y-009314D01*
G01X0004449Y-009315D02*
G01X0004724Y-009591D01*
G01X0004449Y-009314D02*
G01X0004449Y-009315D01*
G01X0000622Y-001496D02*
G01X0000622Y-001567D01*
G01X0000622Y-001567D02*
G01X0001850Y-002795D01*
G54D23*
G01X0001850Y-002795D02*
G01X0002057Y-003002D01*
G01X0002057Y-003002D02*
G01X0002352Y-003002D01*
G54D22*
G01X0002352Y-003002D02*
G01X0002904Y-003002D01*
G54D23*
G01X0002904Y-003002D02*
G01X0004281Y-003002D01*
G01X0004281Y-003002D02*
G01X0004449Y-002835D01*
G01X0008465Y-003110D02*
G01X0007402Y-003110D01*
G01X0007402Y-003110D02*
G01X0006929Y-003583D01*
G01X0006929Y-003583D02*
G01X0006378Y-003583D01*
G54D22*
G01X0005232Y-002831D02*
G01X0004507Y-002831D01*
G01X0004503Y-002835D02*
G01X0004449Y-002835D01*
G01X0005354Y-002953D02*
G01X0005232Y-002831D01*
G01X0004507Y-002831D02*
G01X0004503Y-002835D01*
G01X0006417Y-003567D02*
G01X0005575Y-003567D01*
G01X0005575Y-003567D02*
G01X0005354Y-003346D01*
G01X0005354Y-003346D02*
G01X0005354Y-002953D01*
G54D21*
G01X0007709Y-007433D02*
G01X0008465Y-008189D01*
G01X0007709Y-007134D02*
G01X0007709Y-007433D01*
G01X0018260Y-010236D02*
G01X0019008Y-009488D01*
G01X0015724Y-010236D02*
G01X0018260Y-010236D01*
G01X0019008Y-007417D02*
G01X0018953Y-007362D01*
G01X0019008Y-009488D02*
G01X0019008Y-007417D01*
G01X0018008Y-006417D02*
G01X0018008Y-001457D01*
G01X0018953Y-007362D02*
G01X0018008Y-006417D01*
G54D24*
G36*
G01X0019058Y-001407D02*
G01X0019066Y-001407D01*
G01X0019066Y-001507D01*
G01X0019058Y-001507D01*
G01X0019058Y-002114D01*
G01X0019145Y-002162D01*
G01X0019178Y-002155D01*
G01X0019280Y-002112D01*
G01X0019372Y-002049D01*
G01X0019450Y-001970D01*
G01X0019509Y-001879D01*
G01X0019536Y-001930D01*
G01X0019606Y-002016D01*
G01X0019692Y-002086D01*
G01X0019791Y-002139D01*
G01X0019897Y-002171D01*
G01X0020008Y-002182D01*
G01X0020119Y-002171D01*
G01X0020225Y-002139D01*
G01X0020323Y-002086D01*
G01X0020360Y-002056D01*
G01X0020360Y-003758D01*
G01X0020336Y-003722D01*
G01X0020255Y-003640D01*
G01X0020159Y-003576D01*
G01X0020052Y-003532D01*
G01X0019939Y-003510D01*
G01X0019824Y-003510D01*
G01X0019711Y-003532D01*
G01X0019605Y-003576D01*
G01X0019509Y-003640D01*
G01X0019428Y-003722D01*
G01X0019364Y-003818D01*
G01X0019320Y-003924D01*
G01X0019297Y-004037D01*
G01X0019297Y-004152D01*
G01X0019320Y-004265D01*
G01X0019364Y-004371D01*
G01X0019428Y-004467D01*
G01X0019480Y-004519D01*
G01X0019451Y-004528D01*
G01X0019408Y-004551D01*
G01X0019370Y-004582D01*
G01X0019338Y-004620D01*
G01X0019315Y-004664D01*
G01X0019301Y-004711D01*
G01X0019296Y-004760D01*
G01X0019296Y-005429D01*
G01X0019301Y-005478D01*
G01X0019315Y-005525D01*
G01X0019338Y-005569D01*
G01X0019370Y-005607D01*
G01X0019408Y-005638D01*
G01X0019451Y-005661D01*
G01X0019498Y-005676D01*
G01X0019547Y-005680D01*
G01X0020217Y-005680D01*
G01X0020266Y-005676D01*
G01X0020313Y-005661D01*
G01X0020356Y-005638D01*
G01X0020360Y-005635D01*
G01X0020360Y-008888D01*
G01X0020280Y-008833D01*
G01X0020178Y-008790D01*
G01X0020145Y-008783D01*
G01X0020058Y-008831D01*
G01X0020058Y-009438D01*
G01X0020066Y-009438D01*
G01X0020066Y-009538D01*
G01X0020058Y-009538D01*
G01X0020058Y-010146D01*
G01X0020145Y-010194D01*
G01X0020178Y-010187D01*
G01X0020280Y-010143D01*
G01X0020360Y-010089D01*
G01X0020360Y-010715D01*
G01X0015943Y-010715D01*
G01X0015973Y-010702D01*
G01X0016002Y-010683D01*
G01X0018238Y-010683D01*
G01X0018260Y-010685D01*
G01X0018282Y-010683D01*
G01X0018282Y-010683D01*
G01X0018347Y-010677D01*
G01X0018432Y-010651D01*
G01X0018509Y-010610D01*
G01X0018577Y-010554D01*
G01X0018591Y-010537D01*
G01X0018923Y-010205D01*
G01X0019008Y-010213D01*
G01X0019119Y-010202D01*
G01X0019225Y-010170D01*
G01X0019323Y-010118D01*
G01X0019409Y-010047D01*
G01X0019480Y-009961D01*
G01X0019507Y-009911D01*
G01X0019566Y-010001D01*
G01X0019644Y-010081D01*
G01X0019736Y-010143D01*
G01X0019838Y-010187D01*
G01X0019870Y-010194D01*
G01X0019958Y-010146D01*
G01X0019958Y-009538D01*
G01X0019950Y-009538D01*
G01X0019950Y-009438D01*
G01X0019958Y-009438D01*
G01X0019958Y-008831D01*
G01X0019870Y-008783D01*
G01X0019838Y-008790D01*
G01X0019736Y-008833D01*
G01X0019644Y-008896D01*
G01X0019566Y-008975D01*
G01X0019507Y-009066D01*
G01X0019480Y-009015D01*
G01X0019455Y-008985D01*
G01X0019455Y-008600D01*
G01X0019458Y-008595D01*
G01X0019498Y-008500D01*
G01X0019518Y-008398D01*
G01X0019518Y-008295D01*
G01X0019498Y-008193D01*
G01X0019458Y-008097D01*
G01X0019455Y-008093D01*
G01X0019455Y-007524D01*
G01X0019458Y-007516D01*
G01X0019478Y-007414D01*
G01X0019478Y-007310D01*
G01X0019458Y-007209D01*
G01X0019419Y-007113D01*
G01X0019361Y-007027D01*
G01X0019288Y-006954D01*
G01X0019202Y-006896D01*
G01X0019106Y-006857D01*
G01X0019073Y-006850D01*
G01X0018455Y-006232D01*
G01X0018455Y-001960D01*
G01X0018480Y-001930D01*
G01X0018507Y-001879D01*
G01X0018566Y-001970D01*
G01X0018644Y-002049D01*
G01X0018736Y-002112D01*
G01X0018838Y-002155D01*
G01X0018870Y-002162D01*
G01X0018958Y-002114D01*
G01X0018958Y-001507D01*
G01X0018950Y-001507D01*
G01X0018950Y-001407D01*
G01X0018958Y-001407D01*
G01X0018958Y-001399D01*
G01X0019058Y-001399D01*
G01X0019058Y-001407D01*
G37*
G01X0019058Y-001407D02*
G01X0019066Y-001407D01*
G01X0019066Y-001407D02*
G01X0019066Y-001507D01*
G01X0019066Y-001507D02*
G01X0019058Y-001507D01*
G01X0019058Y-001507D02*
G01X0019058Y-002114D01*
G01X0019058Y-002114D02*
G01X0019145Y-002162D01*
G01X0019145Y-002162D02*
G01X0019178Y-002155D01*
G01X0019178Y-002155D02*
G01X0019280Y-002112D01*
G01X0019280Y-002112D02*
G01X0019372Y-002049D01*
G01X0019372Y-002049D02*
G01X0019450Y-001970D01*
G01X0019450Y-001970D02*
G01X0019509Y-001879D01*
G01X0019509Y-001879D02*
G01X0019536Y-001930D01*
G01X0019536Y-001930D02*
G01X0019606Y-002016D01*
G01X0019606Y-002016D02*
G01X0019692Y-002086D01*
G01X0019692Y-002086D02*
G01X0019791Y-002139D01*
G01X0019791Y-002139D02*
G01X0019897Y-002171D01*
G01X0019897Y-002171D02*
G01X0020008Y-002182D01*
G01X0020008Y-002182D02*
G01X0020119Y-002171D01*
G01X0020119Y-002171D02*
G01X0020225Y-002139D01*
G01X0020225Y-002139D02*
G01X0020323Y-002086D01*
G01X0020323Y-002086D02*
G01X0020360Y-002056D01*
G01X0020360Y-002056D02*
G01X0020360Y-003758D01*
G01X0020360Y-003758D02*
G01X0020336Y-003722D01*
G01X0020336Y-003722D02*
G01X0020255Y-003640D01*
G01X0020255Y-003640D02*
G01X0020159Y-003576D01*
G01X0020159Y-003576D02*
G01X0020052Y-003532D01*
G01X0020052Y-003532D02*
G01X0019939Y-003510D01*
G01X0019939Y-003510D02*
G01X0019824Y-003510D01*
G01X0019824Y-003510D02*
G01X0019711Y-003532D01*
G01X0019711Y-003532D02*
G01X0019605Y-003576D01*
G01X0019605Y-003576D02*
G01X0019509Y-003640D01*
G01X0019509Y-003640D02*
G01X0019428Y-003722D01*
G01X0019428Y-003722D02*
G01X0019364Y-003818D01*
G01X0019364Y-003818D02*
G01X0019320Y-003924D01*
G01X0019320Y-003924D02*
G01X0019297Y-004037D01*
G01X0019297Y-004037D02*
G01X0019297Y-004152D01*
G01X0019297Y-004152D02*
G01X0019320Y-004265D01*
G01X0019320Y-004265D02*
G01X0019364Y-004371D01*
G01X0019364Y-004371D02*
G01X0019428Y-004467D01*
G01X0019428Y-004467D02*
G01X0019480Y-004519D01*
G01X0019480Y-004519D02*
G01X0019451Y-004528D01*
G01X0019451Y-004528D02*
G01X0019408Y-004551D01*
G01X0019408Y-004551D02*
G01X0019370Y-004582D01*
G01X0019370Y-004582D02*
G01X0019338Y-004620D01*
G01X0019338Y-004620D02*
G01X0019315Y-004664D01*
G01X0019315Y-004664D02*
G01X0019301Y-004711D01*
G01X0019301Y-004711D02*
G01X0019296Y-004760D01*
G01X0019296Y-004760D02*
G01X0019296Y-005429D01*
G01X0019296Y-005429D02*
G01X0019301Y-005478D01*
G01X0019301Y-005478D02*
G01X0019315Y-005525D01*
G01X0019315Y-005525D02*
G01X0019338Y-005569D01*
G01X0019338Y-005569D02*
G01X0019370Y-005607D01*
G01X0019370Y-005607D02*
G01X0019408Y-005638D01*
G01X0019408Y-005638D02*
G01X0019451Y-005661D01*
G01X0019451Y-005661D02*
G01X0019498Y-005676D01*
G01X0019498Y-005676D02*
G01X0019547Y-005680D01*
G01X0019547Y-005680D02*
G01X0020217Y-005680D01*
G01X0020217Y-005680D02*
G01X0020266Y-005676D01*
G01X0020266Y-005676D02*
G01X0020313Y-005661D01*
G01X0020313Y-005661D02*
G01X0020356Y-005638D01*
G01X0020356Y-005638D02*
G01X0020360Y-005635D01*
G01X0020360Y-005635D02*
G01X0020360Y-008888D01*
G01X0020360Y-008888D02*
G01X0020280Y-008833D01*
G01X0020280Y-008833D02*
G01X0020178Y-008790D01*
G01X0020178Y-008790D02*
G01X0020145Y-008783D01*
G01X0020145Y-008783D02*
G01X0020058Y-008831D01*
G01X0020058Y-008831D02*
G01X0020058Y-009438D01*
G01X0020058Y-009438D02*
G01X0020066Y-009438D01*
G01X0020066Y-009438D02*
G01X0020066Y-009538D01*
G01X0020066Y-009538D02*
G01X0020058Y-009538D01*
G01X0020058Y-009538D02*
G01X0020058Y-010146D01*
G01X0020058Y-010146D02*
G01X0020145Y-010194D01*
G01X0020145Y-010194D02*
G01X0020178Y-010187D01*
G01X0020178Y-010187D02*
G01X0020280Y-010143D01*
G01X0020280Y-010143D02*
G01X0020360Y-010089D01*
G01X0020360Y-010089D02*
G01X0020360Y-010715D01*
G01X0020360Y-010715D02*
G01X0015943Y-010715D01*
G01X0015943Y-010715D02*
G01X0015973Y-010702D01*
G01X0015973Y-010702D02*
G01X0016002Y-010683D01*
G01X0016002Y-010683D02*
G01X0018238Y-010683D01*
G01X0018238Y-010683D02*
G01X0018260Y-010685D01*
G01X0018260Y-010685D02*
G01X0018282Y-010683D01*
G01X0018282Y-010683D02*
G01X0018282Y-010683D01*
G01X0018282Y-010683D02*
G01X0018347Y-010677D01*
G01X0018347Y-010677D02*
G01X0018432Y-010651D01*
G01X0018432Y-010651D02*
G01X0018509Y-010610D01*
G01X0018509Y-010610D02*
G01X0018577Y-010554D01*
G01X0018577Y-010554D02*
G01X0018591Y-010537D01*
G01X0018591Y-010537D02*
G01X0018923Y-010205D01*
G01X0018923Y-010205D02*
G01X0019008Y-010213D01*
G01X0019008Y-010213D02*
G01X0019119Y-010202D01*
G01X0019119Y-010202D02*
G01X0019225Y-010170D01*
G01X0019225Y-010170D02*
G01X0019323Y-010118D01*
G01X0019323Y-010118D02*
G01X0019409Y-010047D01*
G01X0019409Y-010047D02*
G01X0019480Y-009961D01*
G01X0019480Y-009961D02*
G01X0019507Y-009911D01*
G01X0019507Y-009911D02*
G01X0019566Y-010001D01*
G01X0019566Y-010001D02*
G01X0019644Y-010081D01*
G01X0019644Y-010081D02*
G01X0019736Y-010143D01*
G01X0019736Y-010143D02*
G01X0019838Y-010187D01*
G01X0019838Y-010187D02*
G01X0019870Y-010194D01*
G01X0019870Y-010194D02*
G01X0019958Y-010146D01*
G01X0019958Y-010146D02*
G01X0019958Y-009538D01*
G01X0019958Y-009538D02*
G01X0019950Y-009538D01*
G01X0019950Y-009538D02*
G01X0019950Y-009438D01*
G01X0019950Y-009438D02*
G01X0019958Y-009438D01*
G01X0019958Y-009438D02*
G01X0019958Y-008831D01*
G01X0019958Y-008831D02*
G01X0019870Y-008783D01*
G01X0019870Y-008783D02*
G01X0019838Y-008790D01*
G01X0019838Y-008790D02*
G01X0019736Y-008833D01*
G01X0019736Y-008833D02*
G01X0019644Y-008896D01*
G01X0019644Y-008896D02*
G01X0019566Y-008975D01*
G01X0019566Y-008975D02*
G01X0019507Y-009066D01*
G01X0019507Y-009066D02*
G01X0019480Y-009015D01*
G01X0019480Y-009015D02*
G01X0019455Y-008985D01*
G01X0019455Y-008985D02*
G01X0019455Y-008600D01*
G01X0019455Y-008600D02*
G01X0019458Y-008595D01*
G01X0019458Y-008595D02*
G01X0019498Y-008500D01*
G01X0019498Y-008500D02*
G01X0019518Y-008398D01*
G01X0019518Y-008398D02*
G01X0019518Y-008295D01*
G01X0019518Y-008295D02*
G01X0019498Y-008193D01*
G01X0019498Y-008193D02*
G01X0019458Y-008097D01*
G01X0019458Y-008097D02*
G01X0019455Y-008093D01*
G01X0019455Y-008093D02*
G01X0019455Y-007524D01*
G01X0019455Y-007524D02*
G01X0019458Y-007516D01*
G01X0019458Y-007516D02*
G01X0019478Y-007414D01*
G01X0019478Y-007414D02*
G01X0019478Y-007310D01*
G01X0019478Y-007310D02*
G01X0019458Y-007209D01*
G01X0019458Y-007209D02*
G01X0019419Y-007113D01*
G01X0019419Y-007113D02*
G01X0019361Y-007027D01*
G01X0019361Y-007027D02*
G01X0019288Y-006954D01*
G01X0019288Y-006954D02*
G01X0019202Y-006896D01*
G01X0019202Y-006896D02*
G01X0019106Y-006857D01*
G01X0019106Y-006857D02*
G01X0019073Y-006850D01*
G01X0019073Y-006850D02*
G01X0018455Y-006232D01*
G01X0018455Y-006232D02*
G01X0018455Y-001960D01*
G01X0018455Y-001960D02*
G01X0018480Y-001930D01*
G01X0018480Y-001930D02*
G01X0018507Y-001879D01*
G01X0018507Y-001879D02*
G01X0018566Y-001970D01*
G01X0018566Y-001970D02*
G01X0018644Y-002049D01*
G01X0018644Y-002049D02*
G01X0018736Y-002112D01*
G01X0018736Y-002112D02*
G01X0018838Y-002155D01*
G01X0018838Y-002155D02*
G01X0018870Y-002162D01*
G01X0018870Y-002162D02*
G01X0018958Y-002114D01*
G01X0018958Y-002114D02*
G01X0018958Y-001507D01*
G01X0018958Y-001507D02*
G01X0018950Y-001507D01*
G01X0018950Y-001507D02*
G01X0018950Y-001407D01*
G01X0018950Y-001407D02*
G01X0018958Y-001407D01*
G01X0018958Y-001407D02*
G01X0018958Y-001399D01*
G01X0018958Y-001399D02*
G01X0019058Y-001399D01*
G01X0019058Y-001399D02*
G01X0019058Y-001407D01*
G36*
G01X0009137Y-010186D02*
G01X0009144Y-010186D01*
G01X0009144Y-010286D01*
G01X0009137Y-010286D01*
G01X0009137Y-010294D01*
G01X0009037Y-010294D01*
G01X0009037Y-010286D01*
G01X0009029Y-010286D01*
G01X0009029Y-010186D01*
G01X0009037Y-010186D01*
G01X0009037Y-010178D01*
G01X0009137Y-010178D01*
G01X0009137Y-010186D01*
G37*
G01X0009137Y-010186D02*
G01X0009144Y-010186D01*
G01X0009144Y-010186D02*
G01X0009144Y-010286D01*
G01X0009144Y-010286D02*
G01X0009137Y-010286D01*
G01X0009137Y-010286D02*
G01X0009137Y-010294D01*
G01X0009137Y-010294D02*
G01X0009037Y-010294D01*
G01X0009037Y-010294D02*
G01X0009037Y-010286D01*
G01X0009037Y-010286D02*
G01X0009029Y-010286D01*
G01X0009029Y-010286D02*
G01X0009029Y-010186D01*
G01X0009029Y-010186D02*
G01X0009037Y-010186D01*
G01X0009037Y-010186D02*
G01X0009037Y-010178D01*
G01X0009037Y-010178D02*
G01X0009137Y-010178D01*
G01X0009137Y-010178D02*
G01X0009137Y-010186D01*
G36*
G01X0013019Y-004950D02*
G01X0013026Y-004950D01*
G01X0013026Y-005050D01*
G01X0013019Y-005050D01*
G01X0013019Y-005540D01*
G01X0013112Y-005587D01*
G01X0013174Y-005565D01*
G01X0013173Y-005571D01*
G01X0013182Y-005658D01*
G01X0013195Y-005702D01*
G01X0013112Y-005673D01*
G01X0013019Y-005720D01*
G01X0013019Y-006210D01*
G01X0013508Y-006210D01*
G01X0013549Y-006130D01*
G01X0014238Y-006819D01*
G01X0014238Y-007040D01*
G01X0014211Y-007055D01*
G01X0014173Y-007086D01*
G01X0014142Y-007124D01*
G01X0014118Y-007168D01*
G01X0014104Y-007215D01*
G01X0014099Y-007264D01*
G01X0014099Y-007933D01*
G01X0014104Y-007982D01*
G01X0014118Y-008029D01*
G01X0014142Y-008073D01*
G01X0014173Y-008111D01*
G01X0014211Y-008142D01*
G01X0014254Y-008165D01*
G01X0014301Y-008179D01*
G01X0014350Y-008184D01*
G01X0015020Y-008184D01*
G01X0015069Y-008179D01*
G01X0015116Y-008165D01*
G01X0015159Y-008142D01*
G01X0015197Y-008111D01*
G01X0015229Y-008073D01*
G01X0015252Y-008029D01*
G01X0015266Y-007982D01*
G01X0015271Y-007933D01*
G01X0015271Y-007264D01*
G01X0015266Y-007215D01*
G01X0015252Y-007168D01*
G01X0015229Y-007124D01*
G01X0015197Y-007086D01*
G01X0015159Y-007055D01*
G01X0015132Y-007040D01*
G01X0015132Y-006656D01*
G01X0015134Y-006634D01*
G01X0015125Y-006546D01*
G01X0015100Y-006462D01*
G01X0015092Y-006447D01*
G01X0015058Y-006384D01*
G01X0015003Y-006316D01*
G01X0014985Y-006302D01*
G01X0014284Y-005601D01*
G01X0014327Y-005592D01*
G01X0014422Y-005552D01*
G01X0014508Y-005495D01*
G01X0014581Y-005422D01*
G01X0014606Y-005385D01*
G01X0014631Y-005422D01*
G01X0014704Y-005495D01*
G01X0014790Y-005552D01*
G01X0014886Y-005592D01*
G01X0014988Y-005612D01*
G01X0015091Y-005612D01*
G01X0015193Y-005592D01*
G01X0015288Y-005552D01*
G01X0015374Y-005495D01*
G01X0015448Y-005422D01*
G01X0015472Y-005385D01*
G01X0015497Y-005422D01*
G01X0015570Y-005495D01*
G01X0015657Y-005552D01*
G01X0015752Y-005592D01*
G01X0015768Y-005595D01*
G01X0015768Y-005595D01*
G01X0015719Y-005600D01*
G01X0015672Y-005614D01*
G01X0015628Y-005638D01*
G01X0015590Y-005669D01*
G01X0015559Y-005707D01*
G01X0015536Y-005750D01*
G01X0015521Y-005797D01*
G01X0015517Y-005846D01*
G01X0015517Y-006516D01*
G01X0015521Y-006565D01*
G01X0015536Y-006612D01*
G01X0015559Y-006655D01*
G01X0015590Y-006693D01*
G01X0015628Y-006725D01*
G01X0015672Y-006748D01*
G01X0015719Y-006762D01*
G01X0015768Y-006767D01*
G01X0016437Y-006767D01*
G01X0016486Y-006762D01*
G01X0016533Y-006748D01*
G01X0016561Y-006733D01*
G01X0016561Y-007047D01*
G01X0016533Y-007032D01*
G01X0016486Y-007017D01*
G01X0016437Y-007013D01*
G01X0015768Y-007013D01*
G01X0015719Y-007017D01*
G01X0015672Y-007032D01*
G01X0015628Y-007055D01*
G01X0015590Y-007086D01*
G01X0015559Y-007124D01*
G01X0015536Y-007168D01*
G01X0015521Y-007215D01*
G01X0015517Y-007264D01*
G01X0015517Y-007933D01*
G01X0015521Y-007982D01*
G01X0015536Y-008029D01*
G01X0015559Y-008073D01*
G01X0015590Y-008111D01*
G01X0015628Y-008142D01*
G01X0015672Y-008165D01*
G01X0015719Y-008179D01*
G01X0015768Y-008184D01*
G01X0016437Y-008184D01*
G01X0016486Y-008179D01*
G01X0016533Y-008165D01*
G01X0016577Y-008142D01*
G01X0016615Y-008111D01*
G01X0016646Y-008073D01*
G01X0016669Y-008029D01*
G01X0016683Y-007982D01*
G01X0016688Y-007933D01*
G01X0016688Y-007677D01*
G01X0016690Y-007680D01*
G01X0016707Y-007694D01*
G01X0017480Y-008466D01*
G01X0017487Y-008500D01*
G01X0017526Y-008595D01*
G01X0017545Y-008624D01*
G01X0017545Y-009004D01*
G01X0017536Y-009015D01*
G01X0017508Y-009068D01*
G01X0017480Y-009015D01*
G01X0017409Y-008929D01*
G01X0017323Y-008859D01*
G01X0017225Y-008806D01*
G01X0017119Y-008774D01*
G01X0017008Y-008763D01*
G01X0016897Y-008774D01*
G01X0016791Y-008806D01*
G01X0016692Y-008859D01*
G01X0016606Y-008929D01*
G01X0016536Y-009015D01*
G01X0016522Y-009041D01*
G01X0016216Y-009041D01*
G01X0016234Y-008949D01*
G01X0016234Y-008846D01*
G01X0016214Y-008744D01*
G01X0016174Y-008649D01*
G01X0016117Y-008563D01*
G01X0016044Y-008489D01*
G01X0015958Y-008432D01*
G01X0015862Y-008392D01*
G01X0015760Y-008372D01*
G01X0015657Y-008372D01*
G01X0015555Y-008392D01*
G01X0015460Y-008432D01*
G01X0015374Y-008489D01*
G01X0015300Y-008563D01*
G01X0015243Y-008649D01*
G01X0015209Y-008731D01*
G01X0015174Y-008649D01*
G01X0015117Y-008563D01*
G01X0015044Y-008489D01*
G01X0014958Y-008432D01*
G01X0014862Y-008392D01*
G01X0014760Y-008372D01*
G01X0014657Y-008372D01*
G01X0014555Y-008392D01*
G01X0014460Y-008432D01*
G01X0014374Y-008489D01*
G01X0014300Y-008563D01*
G01X0014243Y-008649D01*
G01X0014203Y-008744D01*
G01X0014183Y-008846D01*
G01X0014183Y-008949D01*
G01X0014203Y-009051D01*
G01X0014243Y-009147D01*
G01X0014292Y-009221D01*
G01X0014200Y-009313D01*
G01X0013129Y-009315D01*
G01X0013141Y-009268D01*
G01X0013146Y-009160D01*
G01X0013130Y-009054D01*
G01X0013093Y-008953D01*
G01X0013069Y-008909D01*
G01X0012975Y-008883D01*
G01X0012669Y-009189D01*
G01X0012675Y-009195D01*
G01X0012604Y-009265D01*
G01X0012598Y-009260D01*
G01X0012593Y-009265D01*
G01X0012522Y-009195D01*
G01X0012528Y-009189D01*
G01X0012222Y-008883D01*
G01X0012128Y-008909D01*
G01X0012082Y-009006D01*
G01X0012056Y-009110D01*
G01X0012051Y-009218D01*
G01X0012063Y-009293D01*
G01X0011526Y-008713D01*
G01X0011618Y-008694D01*
G01X0011714Y-008655D01*
G01X0011800Y-008597D01*
G01X0011873Y-008524D01*
G01X0011930Y-008438D01*
G01X0011970Y-008342D01*
G01X0011990Y-008241D01*
G01X0011990Y-008137D01*
G01X0011970Y-008036D01*
G01X0011930Y-007940D01*
G01X0011873Y-007854D01*
G01X0011800Y-007781D01*
G01X0011714Y-007723D01*
G01X0011618Y-007684D01*
G01X0011516Y-007663D01*
G01X0011510Y-007663D01*
G01X0011533Y-007620D01*
G01X0011553Y-007555D01*
G01X0011558Y-007504D01*
G01X0011558Y-007504D01*
G01X0011560Y-007486D01*
G01X0011558Y-007469D01*
G01X0011558Y-006858D01*
G01X0011565Y-006861D01*
G01X0011614Y-006865D01*
G01X0012055Y-006865D01*
G01X0012052Y-006894D01*
G01X0012052Y-007484D01*
G01X0012057Y-007533D01*
G01X0012071Y-007580D01*
G01X0012094Y-007624D01*
G01X0012126Y-007662D01*
G01X0012164Y-007693D01*
G01X0012207Y-007716D01*
G01X0012254Y-007731D01*
G01X0012297Y-007735D01*
G01X0012251Y-007765D01*
G01X0012175Y-007841D01*
G01X0012115Y-007931D01*
G01X0012074Y-008030D01*
G01X0012053Y-008135D01*
G01X0012053Y-008243D01*
G01X0012074Y-008348D01*
G01X0012115Y-008447D01*
G01X0012175Y-008537D01*
G01X0012251Y-008613D01*
G01X0012340Y-008672D01*
G01X0012379Y-008688D01*
G01X0012363Y-008694D01*
G01X0012318Y-008718D01*
G01X0012292Y-008812D01*
G01X0012598Y-009118D01*
G01X0012904Y-008812D01*
G01X0012879Y-008718D01*
G01X0012816Y-008689D01*
G01X0012857Y-008672D01*
G01X0012946Y-008613D01*
G01X0013022Y-008537D01*
G01X0013082Y-008447D01*
G01X0013123Y-008348D01*
G01X0013144Y-008243D01*
G01X0013144Y-008135D01*
G01X0013123Y-008030D01*
G01X0013082Y-007931D01*
G01X0013022Y-007841D01*
G01X0012946Y-007765D01*
G01X0012900Y-007735D01*
G01X0012943Y-007731D01*
G01X0012990Y-007716D01*
G01X0013033Y-007693D01*
G01X0013071Y-007662D01*
G01X0013103Y-007624D01*
G01X0013126Y-007580D01*
G01X0013140Y-007533D01*
G01X0013145Y-007484D01*
G01X0013145Y-006894D01*
G01X0013140Y-006845D01*
G01X0013138Y-006838D01*
G01X0013224Y-006808D01*
G01X0013326Y-006747D01*
G01X0013414Y-006668D01*
G01X0013485Y-006573D01*
G01X0013536Y-006467D01*
G01X0013556Y-006403D01*
G01X0013508Y-006310D01*
G01X0013019Y-006310D01*
G01X0013019Y-006318D01*
G01X0012919Y-006318D01*
G01X0012919Y-006310D01*
G01X0012911Y-006310D01*
G01X0012911Y-006210D01*
G01X0012919Y-006210D01*
G01X0012919Y-005720D01*
G01X0012825Y-005673D01*
G01X0012713Y-005712D01*
G01X0012611Y-005772D01*
G01X0012558Y-005820D01*
G01X0012555Y-005809D01*
G01X0012532Y-005766D01*
G01X0012500Y-005728D01*
G01X0012462Y-005697D01*
G01X0012419Y-005673D01*
G01X0012372Y-005659D01*
G01X0012323Y-005654D01*
G01X0011746Y-005654D01*
G01X0011746Y-005606D01*
G01X0012323Y-005606D01*
G01X0012372Y-005601D01*
G01X0012419Y-005586D01*
G01X0012462Y-005563D01*
G01X0012500Y-005532D01*
G01X0012532Y-005494D01*
G01X0012555Y-005450D01*
G01X0012558Y-005440D01*
G01X0012611Y-005487D01*
G01X0012713Y-005548D01*
G01X0012825Y-005587D01*
G01X0012919Y-005540D01*
G01X0012919Y-005050D01*
G01X0012911Y-005050D01*
G01X0012911Y-004950D01*
G01X0012919Y-004950D01*
G01X0012919Y-004942D01*
G01X0013019Y-004942D01*
G01X0013019Y-004950D01*
G37*
G01X0013019Y-004950D02*
G01X0013026Y-004950D01*
G01X0013026Y-004950D02*
G01X0013026Y-005050D01*
G01X0013026Y-005050D02*
G01X0013019Y-005050D01*
G01X0013019Y-005050D02*
G01X0013019Y-005540D01*
G01X0013019Y-005540D02*
G01X0013112Y-005587D01*
G01X0013112Y-005587D02*
G01X0013174Y-005565D01*
G01X0013174Y-005565D02*
G01X0013173Y-005571D01*
G01X0013173Y-005571D02*
G01X0013182Y-005658D01*
G01X0013182Y-005658D02*
G01X0013195Y-005702D01*
G01X0013195Y-005702D02*
G01X0013112Y-005673D01*
G01X0013112Y-005673D02*
G01X0013019Y-005720D01*
G01X0013019Y-005720D02*
G01X0013019Y-006210D01*
G01X0013019Y-006210D02*
G01X0013508Y-006210D01*
G01X0013508Y-006210D02*
G01X0013549Y-006130D01*
G01X0013549Y-006130D02*
G01X0014238Y-006819D01*
G01X0014238Y-006819D02*
G01X0014238Y-007040D01*
G01X0014238Y-007040D02*
G01X0014211Y-007055D01*
G01X0014211Y-007055D02*
G01X0014173Y-007086D01*
G01X0014173Y-007086D02*
G01X0014142Y-007124D01*
G01X0014142Y-007124D02*
G01X0014118Y-007168D01*
G01X0014118Y-007168D02*
G01X0014104Y-007215D01*
G01X0014104Y-007215D02*
G01X0014099Y-007264D01*
G01X0014099Y-007264D02*
G01X0014099Y-007933D01*
G01X0014099Y-007933D02*
G01X0014104Y-007982D01*
G01X0014104Y-007982D02*
G01X0014118Y-008029D01*
G01X0014118Y-008029D02*
G01X0014142Y-008073D01*
G01X0014142Y-008073D02*
G01X0014173Y-008111D01*
G01X0014173Y-008111D02*
G01X0014211Y-008142D01*
G01X0014211Y-008142D02*
G01X0014254Y-008165D01*
G01X0014254Y-008165D02*
G01X0014301Y-008179D01*
G01X0014301Y-008179D02*
G01X0014350Y-008184D01*
G01X0014350Y-008184D02*
G01X0015020Y-008184D01*
G01X0015020Y-008184D02*
G01X0015069Y-008179D01*
G01X0015069Y-008179D02*
G01X0015116Y-008165D01*
G01X0015116Y-008165D02*
G01X0015159Y-008142D01*
G01X0015159Y-008142D02*
G01X0015197Y-008111D01*
G01X0015197Y-008111D02*
G01X0015229Y-008073D01*
G01X0015229Y-008073D02*
G01X0015252Y-008029D01*
G01X0015252Y-008029D02*
G01X0015266Y-007982D01*
G01X0015266Y-007982D02*
G01X0015271Y-007933D01*
G01X0015271Y-007933D02*
G01X0015271Y-007264D01*
G01X0015271Y-007264D02*
G01X0015266Y-007215D01*
G01X0015266Y-007215D02*
G01X0015252Y-007168D01*
G01X0015252Y-007168D02*
G01X0015229Y-007124D01*
G01X0015229Y-007124D02*
G01X0015197Y-007086D01*
G01X0015197Y-007086D02*
G01X0015159Y-007055D01*
G01X0015159Y-007055D02*
G01X0015132Y-007040D01*
G01X0015132Y-007040D02*
G01X0015132Y-006656D01*
G01X0015132Y-006656D02*
G01X0015134Y-006634D01*
G01X0015134Y-006634D02*
G01X0015125Y-006546D01*
G01X0015125Y-006546D02*
G01X0015100Y-006462D01*
G01X0015100Y-006462D02*
G01X0015092Y-006447D01*
G01X0015092Y-006447D02*
G01X0015058Y-006384D01*
G01X0015058Y-006384D02*
G01X0015003Y-006316D01*
G01X0015003Y-006316D02*
G01X0014985Y-006302D01*
G01X0014985Y-006302D02*
G01X0014284Y-005601D01*
G01X0014284Y-005601D02*
G01X0014327Y-005592D01*
G01X0014327Y-005592D02*
G01X0014422Y-005552D01*
G01X0014422Y-005552D02*
G01X0014508Y-005495D01*
G01X0014508Y-005495D02*
G01X0014581Y-005422D01*
G01X0014581Y-005422D02*
G01X0014606Y-005385D01*
G01X0014606Y-005385D02*
G01X0014631Y-005422D01*
G01X0014631Y-005422D02*
G01X0014704Y-005495D01*
G01X0014704Y-005495D02*
G01X0014790Y-005552D01*
G01X0014790Y-005552D02*
G01X0014886Y-005592D01*
G01X0014886Y-005592D02*
G01X0014988Y-005612D01*
G01X0014988Y-005612D02*
G01X0015091Y-005612D01*
G01X0015091Y-005612D02*
G01X0015193Y-005592D01*
G01X0015193Y-005592D02*
G01X0015288Y-005552D01*
G01X0015288Y-005552D02*
G01X0015374Y-005495D01*
G01X0015374Y-005495D02*
G01X0015448Y-005422D01*
G01X0015448Y-005422D02*
G01X0015472Y-005385D01*
G01X0015472Y-005385D02*
G01X0015497Y-005422D01*
G01X0015497Y-005422D02*
G01X0015570Y-005495D01*
G01X0015570Y-005495D02*
G01X0015657Y-005552D01*
G01X0015657Y-005552D02*
G01X0015752Y-005592D01*
G01X0015752Y-005592D02*
G01X0015768Y-005595D01*
G01X0015768Y-005595D02*
G01X0015768Y-005595D01*
G01X0015768Y-005595D02*
G01X0015719Y-005600D01*
G01X0015719Y-005600D02*
G01X0015672Y-005614D01*
G01X0015672Y-005614D02*
G01X0015628Y-005638D01*
G01X0015628Y-005638D02*
G01X0015590Y-005669D01*
G01X0015590Y-005669D02*
G01X0015559Y-005707D01*
G01X0015559Y-005707D02*
G01X0015536Y-005750D01*
G01X0015536Y-005750D02*
G01X0015521Y-005797D01*
G01X0015521Y-005797D02*
G01X0015517Y-005846D01*
G01X0015517Y-005846D02*
G01X0015517Y-006516D01*
G01X0015517Y-006516D02*
G01X0015521Y-006565D01*
G01X0015521Y-006565D02*
G01X0015536Y-006612D01*
G01X0015536Y-006612D02*
G01X0015559Y-006655D01*
G01X0015559Y-006655D02*
G01X0015590Y-006693D01*
G01X0015590Y-006693D02*
G01X0015628Y-006725D01*
G01X0015628Y-006725D02*
G01X0015672Y-006748D01*
G01X0015672Y-006748D02*
G01X0015719Y-006762D01*
G01X0015719Y-006762D02*
G01X0015768Y-006767D01*
G01X0015768Y-006767D02*
G01X0016437Y-006767D01*
G01X0016437Y-006767D02*
G01X0016486Y-006762D01*
G01X0016486Y-006762D02*
G01X0016533Y-006748D01*
G01X0016533Y-006748D02*
G01X0016561Y-006733D01*
G01X0016561Y-006733D02*
G01X0016561Y-007047D01*
G01X0016561Y-007047D02*
G01X0016533Y-007032D01*
G01X0016533Y-007032D02*
G01X0016486Y-007017D01*
G01X0016486Y-007017D02*
G01X0016437Y-007013D01*
G01X0016437Y-007013D02*
G01X0015768Y-007013D01*
G01X0015768Y-007013D02*
G01X0015719Y-007017D01*
G01X0015719Y-007017D02*
G01X0015672Y-007032D01*
G01X0015672Y-007032D02*
G01X0015628Y-007055D01*
G01X0015628Y-007055D02*
G01X0015590Y-007086D01*
G01X0015590Y-007086D02*
G01X0015559Y-007124D01*
G01X0015559Y-007124D02*
G01X0015536Y-007168D01*
G01X0015536Y-007168D02*
G01X0015521Y-007215D01*
G01X0015521Y-007215D02*
G01X0015517Y-007264D01*
G01X0015517Y-007264D02*
G01X0015517Y-007933D01*
G01X0015517Y-007933D02*
G01X0015521Y-007982D01*
G01X0015521Y-007982D02*
G01X0015536Y-008029D01*
G01X0015536Y-008029D02*
G01X0015559Y-008073D01*
G01X0015559Y-008073D02*
G01X0015590Y-008111D01*
G01X0015590Y-008111D02*
G01X0015628Y-008142D01*
G01X0015628Y-008142D02*
G01X0015672Y-008165D01*
G01X0015672Y-008165D02*
G01X0015719Y-008179D01*
G01X0015719Y-008179D02*
G01X0015768Y-008184D01*
G01X0015768Y-008184D02*
G01X0016437Y-008184D01*
G01X0016437Y-008184D02*
G01X0016486Y-008179D01*
G01X0016486Y-008179D02*
G01X0016533Y-008165D01*
G01X0016533Y-008165D02*
G01X0016577Y-008142D01*
G01X0016577Y-008142D02*
G01X0016615Y-008111D01*
G01X0016615Y-008111D02*
G01X0016646Y-008073D01*
G01X0016646Y-008073D02*
G01X0016669Y-008029D01*
G01X0016669Y-008029D02*
G01X0016683Y-007982D01*
G01X0016683Y-007982D02*
G01X0016688Y-007933D01*
G01X0016688Y-007933D02*
G01X0016688Y-007677D01*
G01X0016688Y-007677D02*
G01X0016690Y-007680D01*
G01X0016690Y-007680D02*
G01X0016707Y-007694D01*
G01X0016707Y-007694D02*
G01X0017480Y-008466D01*
G01X0017480Y-008466D02*
G01X0017487Y-008500D01*
G01X0017487Y-008500D02*
G01X0017526Y-008595D01*
G01X0017526Y-008595D02*
G01X0017545Y-008624D01*
G01X0017545Y-008624D02*
G01X0017545Y-009004D01*
G01X0017545Y-009004D02*
G01X0017536Y-009015D01*
G01X0017536Y-009015D02*
G01X0017508Y-009068D01*
G01X0017508Y-009068D02*
G01X0017480Y-009015D01*
G01X0017480Y-009015D02*
G01X0017409Y-008929D01*
G01X0017409Y-008929D02*
G01X0017323Y-008859D01*
G01X0017323Y-008859D02*
G01X0017225Y-008806D01*
G01X0017225Y-008806D02*
G01X0017119Y-008774D01*
G01X0017119Y-008774D02*
G01X0017008Y-008763D01*
G01X0017008Y-008763D02*
G01X0016897Y-008774D01*
G01X0016897Y-008774D02*
G01X0016791Y-008806D01*
G01X0016791Y-008806D02*
G01X0016692Y-008859D01*
G01X0016692Y-008859D02*
G01X0016606Y-008929D01*
G01X0016606Y-008929D02*
G01X0016536Y-009015D01*
G01X0016536Y-009015D02*
G01X0016522Y-009041D01*
G01X0016522Y-009041D02*
G01X0016216Y-009041D01*
G01X0016216Y-009041D02*
G01X0016234Y-008949D01*
G01X0016234Y-008949D02*
G01X0016234Y-008846D01*
G01X0016234Y-008846D02*
G01X0016214Y-008744D01*
G01X0016214Y-008744D02*
G01X0016174Y-008649D01*
G01X0016174Y-008649D02*
G01X0016117Y-008563D01*
G01X0016117Y-008563D02*
G01X0016044Y-008489D01*
G01X0016044Y-008489D02*
G01X0015958Y-008432D01*
G01X0015958Y-008432D02*
G01X0015862Y-008392D01*
G01X0015862Y-008392D02*
G01X0015760Y-008372D01*
G01X0015760Y-008372D02*
G01X0015657Y-008372D01*
G01X0015657Y-008372D02*
G01X0015555Y-008392D01*
G01X0015555Y-008392D02*
G01X0015460Y-008432D01*
G01X0015460Y-008432D02*
G01X0015374Y-008489D01*
G01X0015374Y-008489D02*
G01X0015300Y-008563D01*
G01X0015300Y-008563D02*
G01X0015243Y-008649D01*
G01X0015243Y-008649D02*
G01X0015209Y-008731D01*
G01X0015209Y-008731D02*
G01X0015174Y-008649D01*
G01X0015174Y-008649D02*
G01X0015117Y-008563D01*
G01X0015117Y-008563D02*
G01X0015044Y-008489D01*
G01X0015044Y-008489D02*
G01X0014958Y-008432D01*
G01X0014958Y-008432D02*
G01X0014862Y-008392D01*
G01X0014862Y-008392D02*
G01X0014760Y-008372D01*
G01X0014760Y-008372D02*
G01X0014657Y-008372D01*
G01X0014657Y-008372D02*
G01X0014555Y-008392D01*
G01X0014555Y-008392D02*
G01X0014460Y-008432D01*
G01X0014460Y-008432D02*
G01X0014374Y-008489D01*
G01X0014374Y-008489D02*
G01X0014300Y-008563D01*
G01X0014300Y-008563D02*
G01X0014243Y-008649D01*
G01X0014243Y-008649D02*
G01X0014203Y-008744D01*
G01X0014203Y-008744D02*
G01X0014183Y-008846D01*
G01X0014183Y-008846D02*
G01X0014183Y-008949D01*
G01X0014183Y-008949D02*
G01X0014203Y-009051D01*
G01X0014203Y-009051D02*
G01X0014243Y-009147D01*
G01X0014243Y-009147D02*
G01X0014292Y-009221D01*
G01X0014292Y-009221D02*
G01X0014200Y-009313D01*
G01X0014200Y-009313D02*
G01X0013129Y-009315D01*
G01X0013129Y-009315D02*
G01X0013141Y-009268D01*
G01X0013141Y-009268D02*
G01X0013146Y-009160D01*
G01X0013146Y-009160D02*
G01X0013130Y-009054D01*
G01X0013130Y-009054D02*
G01X0013093Y-008953D01*
G01X0013093Y-008953D02*
G01X0013069Y-008909D01*
G01X0013069Y-008909D02*
G01X0012975Y-008883D01*
G01X0012975Y-008883D02*
G01X0012669Y-009189D01*
G01X0012669Y-009189D02*
G01X0012675Y-009195D01*
G01X0012675Y-009195D02*
G01X0012604Y-009265D01*
G01X0012604Y-009265D02*
G01X0012598Y-009260D01*
G01X0012598Y-009260D02*
G01X0012593Y-009265D01*
G01X0012593Y-009265D02*
G01X0012522Y-009195D01*
G01X0012522Y-009195D02*
G01X0012528Y-009189D01*
G01X0012528Y-009189D02*
G01X0012222Y-008883D01*
G01X0012222Y-008883D02*
G01X0012128Y-008909D01*
G01X0012128Y-008909D02*
G01X0012082Y-009006D01*
G01X0012082Y-009006D02*
G01X0012056Y-009110D01*
G01X0012056Y-009110D02*
G01X0012051Y-009218D01*
G01X0012051Y-009218D02*
G01X0012063Y-009293D01*
G01X0012063Y-009293D02*
G01X0011526Y-008713D01*
G01X0011526Y-008713D02*
G01X0011618Y-008694D01*
G01X0011618Y-008694D02*
G01X0011714Y-008655D01*
G01X0011714Y-008655D02*
G01X0011800Y-008597D01*
G01X0011800Y-008597D02*
G01X0011873Y-008524D01*
G01X0011873Y-008524D02*
G01X0011930Y-008438D01*
G01X0011930Y-008438D02*
G01X0011970Y-008342D01*
G01X0011970Y-008342D02*
G01X0011990Y-008241D01*
G01X0011990Y-008241D02*
G01X0011990Y-008137D01*
G01X0011990Y-008137D02*
G01X0011970Y-008036D01*
G01X0011970Y-008036D02*
G01X0011930Y-007940D01*
G01X0011930Y-007940D02*
G01X0011873Y-007854D01*
G01X0011873Y-007854D02*
G01X0011800Y-007781D01*
G01X0011800Y-007781D02*
G01X0011714Y-007723D01*
G01X0011714Y-007723D02*
G01X0011618Y-007684D01*
G01X0011618Y-007684D02*
G01X0011516Y-007663D01*
G01X0011516Y-007663D02*
G01X0011510Y-007663D01*
G01X0011510Y-007663D02*
G01X0011533Y-007620D01*
G01X0011533Y-007620D02*
G01X0011553Y-007555D01*
G01X0011553Y-007555D02*
G01X0011558Y-007504D01*
G01X0011558Y-007504D02*
G01X0011558Y-007504D01*
G01X0011558Y-007504D02*
G01X0011560Y-007486D01*
G01X0011560Y-007486D02*
G01X0011558Y-007469D01*
G01X0011558Y-007469D02*
G01X0011558Y-006858D01*
G01X0011558Y-006858D02*
G01X0011565Y-006861D01*
G01X0011565Y-006861D02*
G01X0011614Y-006865D01*
G01X0011614Y-006865D02*
G01X0012055Y-006865D01*
G01X0012055Y-006865D02*
G01X0012052Y-006894D01*
G01X0012052Y-006894D02*
G01X0012052Y-007484D01*
G01X0012052Y-007484D02*
G01X0012057Y-007533D01*
G01X0012057Y-007533D02*
G01X0012071Y-007580D01*
G01X0012071Y-007580D02*
G01X0012094Y-007624D01*
G01X0012094Y-007624D02*
G01X0012126Y-007662D01*
G01X0012126Y-007662D02*
G01X0012164Y-007693D01*
G01X0012164Y-007693D02*
G01X0012207Y-007716D01*
G01X0012207Y-007716D02*
G01X0012254Y-007731D01*
G01X0012254Y-007731D02*
G01X0012297Y-007735D01*
G01X0012297Y-007735D02*
G01X0012251Y-007765D01*
G01X0012251Y-007765D02*
G01X0012175Y-007841D01*
G01X0012175Y-007841D02*
G01X0012115Y-007931D01*
G01X0012115Y-007931D02*
G01X0012074Y-008030D01*
G01X0012074Y-008030D02*
G01X0012053Y-008135D01*
G01X0012053Y-008135D02*
G01X0012053Y-008243D01*
G01X0012053Y-008243D02*
G01X0012074Y-008348D01*
G01X0012074Y-008348D02*
G01X0012115Y-008447D01*
G01X0012115Y-008447D02*
G01X0012175Y-008537D01*
G01X0012175Y-008537D02*
G01X0012251Y-008613D01*
G01X0012251Y-008613D02*
G01X0012340Y-008672D01*
G01X0012340Y-008672D02*
G01X0012379Y-008688D01*
G01X0012379Y-008688D02*
G01X0012363Y-008694D01*
G01X0012363Y-008694D02*
G01X0012318Y-008718D01*
G01X0012318Y-008718D02*
G01X0012292Y-008812D01*
G01X0012292Y-008812D02*
G01X0012598Y-009118D01*
G01X0012598Y-009118D02*
G01X0012904Y-008812D01*
G01X0012904Y-008812D02*
G01X0012879Y-008718D01*
G01X0012879Y-008718D02*
G01X0012816Y-008689D01*
G01X0012816Y-008689D02*
G01X0012857Y-008672D01*
G01X0012857Y-008672D02*
G01X0012946Y-008613D01*
G01X0012946Y-008613D02*
G01X0013022Y-008537D01*
G01X0013022Y-008537D02*
G01X0013082Y-008447D01*
G01X0013082Y-008447D02*
G01X0013123Y-008348D01*
G01X0013123Y-008348D02*
G01X0013144Y-008243D01*
G01X0013144Y-008243D02*
G01X0013144Y-008135D01*
G01X0013144Y-008135D02*
G01X0013123Y-008030D01*
G01X0013123Y-008030D02*
G01X0013082Y-007931D01*
G01X0013082Y-007931D02*
G01X0013022Y-007841D01*
G01X0013022Y-007841D02*
G01X0012946Y-007765D01*
G01X0012946Y-007765D02*
G01X0012900Y-007735D01*
G01X0012900Y-007735D02*
G01X0012943Y-007731D01*
G01X0012943Y-007731D02*
G01X0012990Y-007716D01*
G01X0012990Y-007716D02*
G01X0013033Y-007693D01*
G01X0013033Y-007693D02*
G01X0013071Y-007662D01*
G01X0013071Y-007662D02*
G01X0013103Y-007624D01*
G01X0013103Y-007624D02*
G01X0013126Y-007580D01*
G01X0013126Y-007580D02*
G01X0013140Y-007533D01*
G01X0013140Y-007533D02*
G01X0013145Y-007484D01*
G01X0013145Y-007484D02*
G01X0013145Y-006894D01*
G01X0013145Y-006894D02*
G01X0013140Y-006845D01*
G01X0013140Y-006845D02*
G01X0013138Y-006838D01*
G01X0013138Y-006838D02*
G01X0013224Y-006808D01*
G01X0013224Y-006808D02*
G01X0013326Y-006747D01*
G01X0013326Y-006747D02*
G01X0013414Y-006668D01*
G01X0013414Y-006668D02*
G01X0013485Y-006573D01*
G01X0013485Y-006573D02*
G01X0013536Y-006467D01*
G01X0013536Y-006467D02*
G01X0013556Y-006403D01*
G01X0013556Y-006403D02*
G01X0013508Y-006310D01*
G01X0013508Y-006310D02*
G01X0013019Y-006310D01*
G01X0013019Y-006310D02*
G01X0013019Y-006318D01*
G01X0013019Y-006318D02*
G01X0012919Y-006318D01*
G01X0012919Y-006318D02*
G01X0012919Y-006310D01*
G01X0012919Y-006310D02*
G01X0012911Y-006310D01*
G01X0012911Y-006310D02*
G01X0012911Y-006210D01*
G01X0012911Y-006210D02*
G01X0012919Y-006210D01*
G01X0012919Y-006210D02*
G01X0012919Y-005720D01*
G01X0012919Y-005720D02*
G01X0012825Y-005673D01*
G01X0012825Y-005673D02*
G01X0012713Y-005712D01*
G01X0012713Y-005712D02*
G01X0012611Y-005772D01*
G01X0012611Y-005772D02*
G01X0012558Y-005820D01*
G01X0012558Y-005820D02*
G01X0012555Y-005809D01*
G01X0012555Y-005809D02*
G01X0012532Y-005766D01*
G01X0012532Y-005766D02*
G01X0012500Y-005728D01*
G01X0012500Y-005728D02*
G01X0012462Y-005697D01*
G01X0012462Y-005697D02*
G01X0012419Y-005673D01*
G01X0012419Y-005673D02*
G01X0012372Y-005659D01*
G01X0012372Y-005659D02*
G01X0012323Y-005654D01*
G01X0012323Y-005654D02*
G01X0011746Y-005654D01*
G01X0011746Y-005654D02*
G01X0011746Y-005606D01*
G01X0011746Y-005606D02*
G01X0012323Y-005606D01*
G01X0012323Y-005606D02*
G01X0012372Y-005601D01*
G01X0012372Y-005601D02*
G01X0012419Y-005586D01*
G01X0012419Y-005586D02*
G01X0012462Y-005563D01*
G01X0012462Y-005563D02*
G01X0012500Y-005532D01*
G01X0012500Y-005532D02*
G01X0012532Y-005494D01*
G01X0012532Y-005494D02*
G01X0012555Y-005450D01*
G01X0012555Y-005450D02*
G01X0012558Y-005440D01*
G01X0012558Y-005440D02*
G01X0012611Y-005487D01*
G01X0012611Y-005487D02*
G01X0012713Y-005548D01*
G01X0012713Y-005548D02*
G01X0012825Y-005587D01*
G01X0012825Y-005587D02*
G01X0012919Y-005540D01*
G01X0012919Y-005540D02*
G01X0012919Y-005050D01*
G01X0012919Y-005050D02*
G01X0012911Y-005050D01*
G01X0012911Y-005050D02*
G01X0012911Y-004950D01*
G01X0012911Y-004950D02*
G01X0012919Y-004950D01*
G01X0012919Y-004950D02*
G01X0012919Y-004942D01*
G01X0012919Y-004942D02*
G01X0013019Y-004942D01*
G01X0013019Y-004942D02*
G01X0013019Y-004950D01*
G36*
G01X0016461Y-000888D02*
G01X0016447Y-000935D01*
G01X0016442Y-000984D01*
G01X0016442Y-001929D01*
G01X0016447Y-001978D01*
G01X0016461Y-002025D01*
G01X0016484Y-002069D01*
G01X0016515Y-002107D01*
G01X0016553Y-002138D01*
G01X0016561Y-002142D01*
G01X0016561Y-005629D01*
G01X0016533Y-005614D01*
G01X0016486Y-005600D01*
G01X0016437Y-005595D01*
G01X0016043Y-005595D01*
G01X0016059Y-005592D01*
G01X0016154Y-005552D01*
G01X0016241Y-005495D01*
G01X0016314Y-005422D01*
G01X0016371Y-005336D01*
G01X0016411Y-005240D01*
G01X0016431Y-005138D01*
G01X0016431Y-005035D01*
G01X0016411Y-004933D01*
G01X0016371Y-004838D01*
G01X0016314Y-004752D01*
G01X0016241Y-004678D01*
G01X0016154Y-004621D01*
G01X0016059Y-004581D01*
G01X0015957Y-004561D01*
G01X0015854Y-004561D01*
G01X0015752Y-004581D01*
G01X0015657Y-004621D01*
G01X0015570Y-004678D01*
G01X0015497Y-004752D01*
G01X0015472Y-004789D01*
G01X0015448Y-004752D01*
G01X0015374Y-004678D01*
G01X0015288Y-004621D01*
G01X0015193Y-004581D01*
G01X0015091Y-004561D01*
G01X0014988Y-004561D01*
G01X0014886Y-004581D01*
G01X0014790Y-004621D01*
G01X0014704Y-004678D01*
G01X0014631Y-004752D01*
G01X0014606Y-004789D01*
G01X0014581Y-004752D01*
G01X0014508Y-004678D01*
G01X0014422Y-004621D01*
G01X0014327Y-004581D01*
G01X0014225Y-004561D01*
G01X0014121Y-004561D01*
G01X0014045Y-004576D01*
G01X0014037Y-004549D01*
G01X0013995Y-004472D01*
G01X0013940Y-004404D01*
G01X0013922Y-004390D01*
G01X0013460Y-003927D01*
G01X0013460Y-003815D01*
G01X0013455Y-003766D01*
G01X0013441Y-003719D01*
G01X0013418Y-003675D01*
G01X0013386Y-003637D01*
G01X0013348Y-003606D01*
G01X0013305Y-003583D01*
G01X0013258Y-003569D01*
G01X0013215Y-003564D01*
G01X0013261Y-003534D01*
G01X0013337Y-003458D01*
G01X0013397Y-003369D01*
G01X0013438Y-003269D01*
G01X0013459Y-003164D01*
G01X0013459Y-003057D01*
G01X0013438Y-002951D01*
G01X0013397Y-002852D01*
G01X0013337Y-002763D01*
G01X0013261Y-002687D01*
G01X0013172Y-002627D01*
G01X0013133Y-002611D01*
G01X0013149Y-002605D01*
G01X0013194Y-002581D01*
G01X0013219Y-002487D01*
G01X0012913Y-002181D01*
G01X0012607Y-002487D01*
G01X0012633Y-002581D01*
G01X0012695Y-002610D01*
G01X0012655Y-002627D01*
G01X0012566Y-002687D01*
G01X0012490Y-002763D01*
G01X0012430Y-002852D01*
G01X0012389Y-002951D01*
G01X0012368Y-003057D01*
G01X0012368Y-003164D01*
G01X0012389Y-003269D01*
G01X0012430Y-003369D01*
G01X0012490Y-003458D01*
G01X0012566Y-003534D01*
G01X0012612Y-003564D01*
G01X0012569Y-003569D01*
G01X0012522Y-003583D01*
G01X0012479Y-003606D01*
G01X0012440Y-003637D01*
G01X0012409Y-003675D01*
G01X0012386Y-003719D01*
G01X0012372Y-003766D01*
G01X0012367Y-003815D01*
G01X0012367Y-004399D01*
G01X0012323Y-004394D01*
G01X0011746Y-004394D01*
G01X0011746Y-003718D01*
G01X0011740Y-003653D01*
G01X0011716Y-003574D01*
G01X0011800Y-003518D01*
G01X0011873Y-003445D01*
G01X0011930Y-003359D01*
G01X0011970Y-003264D01*
G01X0011990Y-003162D01*
G01X0011990Y-003058D01*
G01X0011970Y-002957D01*
G01X0011930Y-002861D01*
G01X0011873Y-002775D01*
G01X0011800Y-002702D01*
G01X0011714Y-002644D01*
G01X0011618Y-002605D01*
G01X0011516Y-002585D01*
G01X0011413Y-002585D01*
G01X0011311Y-002605D01*
G01X0011216Y-002644D01*
G01X0011130Y-002702D01*
G01X0011056Y-002775D01*
G01X0011052Y-002782D01*
G01X0010612Y-002342D01*
G01X0010612Y-002139D01*
G01X0012366Y-002139D01*
G01X0012382Y-002245D01*
G01X0012419Y-002346D01*
G01X0012443Y-002390D01*
G01X0012537Y-002416D01*
G01X0012843Y-002110D01*
G01X0012984Y-002110D01*
G01X0013290Y-002416D01*
G01X0013384Y-002390D01*
G01X0013430Y-002293D01*
G01X0013456Y-002189D01*
G01X0013461Y-002082D01*
G01X0013453Y-002035D01*
G01X0013648Y-002035D01*
G01X0013648Y-002138D01*
G01X0013668Y-002240D01*
G01X0013707Y-002336D01*
G01X0013765Y-002422D01*
G01X0013838Y-002495D01*
G01X0013924Y-002552D01*
G01X0014020Y-002592D01*
G01X0014121Y-002612D01*
G01X0014225Y-002612D01*
G01X0014327Y-002592D01*
G01X0014422Y-002552D01*
G01X0014508Y-002495D01*
G01X0014581Y-002422D01*
G01X0014606Y-002385D01*
G01X0014631Y-002422D01*
G01X0014704Y-002495D01*
G01X0014790Y-002552D01*
G01X0014886Y-002592D01*
G01X0014988Y-002612D01*
G01X0015091Y-002612D01*
G01X0015193Y-002592D01*
G01X0015288Y-002552D01*
G01X0015374Y-002495D01*
G01X0015448Y-002422D01*
G01X0015472Y-002385D01*
G01X0015497Y-002422D01*
G01X0015570Y-002495D01*
G01X0015657Y-002552D01*
G01X0015752Y-002592D01*
G01X0015854Y-002612D01*
G01X0015957Y-002612D01*
G01X0016059Y-002592D01*
G01X0016154Y-002552D01*
G01X0016241Y-002495D01*
G01X0016314Y-002422D01*
G01X0016371Y-002336D01*
G01X0016411Y-002240D01*
G01X0016431Y-002138D01*
G01X0016431Y-002035D01*
G01X0016411Y-001933D01*
G01X0016371Y-001838D01*
G01X0016314Y-001752D01*
G01X0016241Y-001678D01*
G01X0016154Y-001621D01*
G01X0016059Y-001581D01*
G01X0015957Y-001561D01*
G01X0015854Y-001561D01*
G01X0015752Y-001581D01*
G01X0015657Y-001621D01*
G01X0015570Y-001678D01*
G01X0015497Y-001752D01*
G01X0015472Y-001789D01*
G01X0015448Y-001752D01*
G01X0015374Y-001678D01*
G01X0015288Y-001621D01*
G01X0015193Y-001581D01*
G01X0015091Y-001561D01*
G01X0014988Y-001561D01*
G01X0014886Y-001581D01*
G01X0014790Y-001621D01*
G01X0014704Y-001678D01*
G01X0014631Y-001752D01*
G01X0014606Y-001789D01*
G01X0014581Y-001752D01*
G01X0014508Y-001678D01*
G01X0014422Y-001621D01*
G01X0014327Y-001581D01*
G01X0014225Y-001561D01*
G01X0014121Y-001561D01*
G01X0014020Y-001581D01*
G01X0013924Y-001621D01*
G01X0013838Y-001678D01*
G01X0013765Y-001752D01*
G01X0013707Y-001838D01*
G01X0013668Y-001933D01*
G01X0013648Y-002035D01*
G01X0013453Y-002035D01*
G01X0013444Y-001975D01*
G01X0013408Y-001874D01*
G01X0013384Y-001830D01*
G01X0013290Y-001804D01*
G01X0012984Y-002110D01*
G01X0012843Y-002110D01*
G01X0012537Y-001804D01*
G01X0012443Y-001830D01*
G01X0012397Y-001927D01*
G01X0012371Y-002031D01*
G01X0012366Y-002139D01*
G01X0010612Y-002139D01*
G01X0010612Y-001776D01*
G01X0010688Y-001799D01*
G01X0010754Y-001805D01*
G01X0010754Y-001805D01*
G01X0010776Y-001807D01*
G01X0010798Y-001805D01*
G01X0012124Y-001805D01*
G01X0012146Y-001807D01*
G01X0012168Y-001805D01*
G01X0012168Y-001805D01*
G01X0012233Y-001799D01*
G01X0012317Y-001773D01*
G01X0012392Y-001733D01*
G01X0012607Y-001733D01*
G01X0012913Y-002040D01*
G01X0013219Y-001733D01*
G01X0013194Y-001639D01*
G01X0013096Y-001594D01*
G01X0012992Y-001568D01*
G01X0012885Y-001563D01*
G01X0012779Y-001579D01*
G01X0012678Y-001616D01*
G01X0012633Y-001639D01*
G01X0012607Y-001733D01*
G01X0012392Y-001733D01*
G01X0012395Y-001732D01*
G01X0012463Y-001676D01*
G01X0012477Y-001659D01*
G01X0013256Y-000880D01*
G01X0016465Y-000880D01*
G01X0016461Y-000888D01*
G37*
G01X0016461Y-000888D02*
G01X0016447Y-000935D01*
G01X0016447Y-000935D02*
G01X0016442Y-000984D01*
G01X0016442Y-000984D02*
G01X0016442Y-001929D01*
G01X0016442Y-001929D02*
G01X0016447Y-001978D01*
G01X0016447Y-001978D02*
G01X0016461Y-002025D01*
G01X0016461Y-002025D02*
G01X0016484Y-002069D01*
G01X0016484Y-002069D02*
G01X0016515Y-002107D01*
G01X0016515Y-002107D02*
G01X0016553Y-002138D01*
G01X0016553Y-002138D02*
G01X0016561Y-002142D01*
G01X0016561Y-002142D02*
G01X0016561Y-005629D01*
G01X0016561Y-005629D02*
G01X0016533Y-005614D01*
G01X0016533Y-005614D02*
G01X0016486Y-005600D01*
G01X0016486Y-005600D02*
G01X0016437Y-005595D01*
G01X0016437Y-005595D02*
G01X0016043Y-005595D01*
G01X0016043Y-005595D02*
G01X0016059Y-005592D01*
G01X0016059Y-005592D02*
G01X0016154Y-005552D01*
G01X0016154Y-005552D02*
G01X0016241Y-005495D01*
G01X0016241Y-005495D02*
G01X0016314Y-005422D01*
G01X0016314Y-005422D02*
G01X0016371Y-005336D01*
G01X0016371Y-005336D02*
G01X0016411Y-005240D01*
G01X0016411Y-005240D02*
G01X0016431Y-005138D01*
G01X0016431Y-005138D02*
G01X0016431Y-005035D01*
G01X0016431Y-005035D02*
G01X0016411Y-004933D01*
G01X0016411Y-004933D02*
G01X0016371Y-004838D01*
G01X0016371Y-004838D02*
G01X0016314Y-004752D01*
G01X0016314Y-004752D02*
G01X0016241Y-004678D01*
G01X0016241Y-004678D02*
G01X0016154Y-004621D01*
G01X0016154Y-004621D02*
G01X0016059Y-004581D01*
G01X0016059Y-004581D02*
G01X0015957Y-004561D01*
G01X0015957Y-004561D02*
G01X0015854Y-004561D01*
G01X0015854Y-004561D02*
G01X0015752Y-004581D01*
G01X0015752Y-004581D02*
G01X0015657Y-004621D01*
G01X0015657Y-004621D02*
G01X0015570Y-004678D01*
G01X0015570Y-004678D02*
G01X0015497Y-004752D01*
G01X0015497Y-004752D02*
G01X0015472Y-004789D01*
G01X0015472Y-004789D02*
G01X0015448Y-004752D01*
G01X0015448Y-004752D02*
G01X0015374Y-004678D01*
G01X0015374Y-004678D02*
G01X0015288Y-004621D01*
G01X0015288Y-004621D02*
G01X0015193Y-004581D01*
G01X0015193Y-004581D02*
G01X0015091Y-004561D01*
G01X0015091Y-004561D02*
G01X0014988Y-004561D01*
G01X0014988Y-004561D02*
G01X0014886Y-004581D01*
G01X0014886Y-004581D02*
G01X0014790Y-004621D01*
G01X0014790Y-004621D02*
G01X0014704Y-004678D01*
G01X0014704Y-004678D02*
G01X0014631Y-004752D01*
G01X0014631Y-004752D02*
G01X0014606Y-004789D01*
G01X0014606Y-004789D02*
G01X0014581Y-004752D01*
G01X0014581Y-004752D02*
G01X0014508Y-004678D01*
G01X0014508Y-004678D02*
G01X0014422Y-004621D01*
G01X0014422Y-004621D02*
G01X0014327Y-004581D01*
G01X0014327Y-004581D02*
G01X0014225Y-004561D01*
G01X0014225Y-004561D02*
G01X0014121Y-004561D01*
G01X0014121Y-004561D02*
G01X0014045Y-004576D01*
G01X0014045Y-004576D02*
G01X0014037Y-004549D01*
G01X0014037Y-004549D02*
G01X0013995Y-004472D01*
G01X0013995Y-004472D02*
G01X0013940Y-004404D01*
G01X0013940Y-004404D02*
G01X0013922Y-004390D01*
G01X0013922Y-004390D02*
G01X0013460Y-003927D01*
G01X0013460Y-003927D02*
G01X0013460Y-003815D01*
G01X0013460Y-003815D02*
G01X0013455Y-003766D01*
G01X0013455Y-003766D02*
G01X0013441Y-003719D01*
G01X0013441Y-003719D02*
G01X0013418Y-003675D01*
G01X0013418Y-003675D02*
G01X0013386Y-003637D01*
G01X0013386Y-003637D02*
G01X0013348Y-003606D01*
G01X0013348Y-003606D02*
G01X0013305Y-003583D01*
G01X0013305Y-003583D02*
G01X0013258Y-003569D01*
G01X0013258Y-003569D02*
G01X0013215Y-003564D01*
G01X0013215Y-003564D02*
G01X0013261Y-003534D01*
G01X0013261Y-003534D02*
G01X0013337Y-003458D01*
G01X0013337Y-003458D02*
G01X0013397Y-003369D01*
G01X0013397Y-003369D02*
G01X0013438Y-003269D01*
G01X0013438Y-003269D02*
G01X0013459Y-003164D01*
G01X0013459Y-003164D02*
G01X0013459Y-003057D01*
G01X0013459Y-003057D02*
G01X0013438Y-002951D01*
G01X0013438Y-002951D02*
G01X0013397Y-002852D01*
G01X0013397Y-002852D02*
G01X0013337Y-002763D01*
G01X0013337Y-002763D02*
G01X0013261Y-002687D01*
G01X0013261Y-002687D02*
G01X0013172Y-002627D01*
G01X0013172Y-002627D02*
G01X0013133Y-002611D01*
G01X0013133Y-002611D02*
G01X0013149Y-002605D01*
G01X0013149Y-002605D02*
G01X0013194Y-002581D01*
G01X0013194Y-002581D02*
G01X0013219Y-002487D01*
G01X0013219Y-002487D02*
G01X0012913Y-002181D01*
G01X0012913Y-002181D02*
G01X0012607Y-002487D01*
G01X0012607Y-002487D02*
G01X0012633Y-002581D01*
G01X0012633Y-002581D02*
G01X0012695Y-002610D01*
G01X0012695Y-002610D02*
G01X0012655Y-002627D01*
G01X0012655Y-002627D02*
G01X0012566Y-002687D01*
G01X0012566Y-002687D02*
G01X0012490Y-002763D01*
G01X0012490Y-002763D02*
G01X0012430Y-002852D01*
G01X0012430Y-002852D02*
G01X0012389Y-002951D01*
G01X0012389Y-002951D02*
G01X0012368Y-003057D01*
G01X0012368Y-003057D02*
G01X0012368Y-003164D01*
G01X0012368Y-003164D02*
G01X0012389Y-003269D01*
G01X0012389Y-003269D02*
G01X0012430Y-003369D01*
G01X0012430Y-003369D02*
G01X0012490Y-003458D01*
G01X0012490Y-003458D02*
G01X0012566Y-003534D01*
G01X0012566Y-003534D02*
G01X0012612Y-003564D01*
G01X0012612Y-003564D02*
G01X0012569Y-003569D01*
G01X0012569Y-003569D02*
G01X0012522Y-003583D01*
G01X0012522Y-003583D02*
G01X0012479Y-003606D01*
G01X0012479Y-003606D02*
G01X0012440Y-003637D01*
G01X0012440Y-003637D02*
G01X0012409Y-003675D01*
G01X0012409Y-003675D02*
G01X0012386Y-003719D01*
G01X0012386Y-003719D02*
G01X0012372Y-003766D01*
G01X0012372Y-003766D02*
G01X0012367Y-003815D01*
G01X0012367Y-003815D02*
G01X0012367Y-004399D01*
G01X0012367Y-004399D02*
G01X0012323Y-004394D01*
G01X0012323Y-004394D02*
G01X0011746Y-004394D01*
G01X0011746Y-004394D02*
G01X0011746Y-003718D01*
G01X0011746Y-003718D02*
G01X0011740Y-003653D01*
G01X0011740Y-003653D02*
G01X0011716Y-003574D01*
G01X0011716Y-003574D02*
G01X0011800Y-003518D01*
G01X0011800Y-003518D02*
G01X0011873Y-003445D01*
G01X0011873Y-003445D02*
G01X0011930Y-003359D01*
G01X0011930Y-003359D02*
G01X0011970Y-003264D01*
G01X0011970Y-003264D02*
G01X0011990Y-003162D01*
G01X0011990Y-003162D02*
G01X0011990Y-003058D01*
G01X0011990Y-003058D02*
G01X0011970Y-002957D01*
G01X0011970Y-002957D02*
G01X0011930Y-002861D01*
G01X0011930Y-002861D02*
G01X0011873Y-002775D01*
G01X0011873Y-002775D02*
G01X0011800Y-002702D01*
G01X0011800Y-002702D02*
G01X0011714Y-002644D01*
G01X0011714Y-002644D02*
G01X0011618Y-002605D01*
G01X0011618Y-002605D02*
G01X0011516Y-002585D01*
G01X0011516Y-002585D02*
G01X0011413Y-002585D01*
G01X0011413Y-002585D02*
G01X0011311Y-002605D01*
G01X0011311Y-002605D02*
G01X0011216Y-002644D01*
G01X0011216Y-002644D02*
G01X0011130Y-002702D01*
G01X0011130Y-002702D02*
G01X0011056Y-002775D01*
G01X0011056Y-002775D02*
G01X0011052Y-002782D01*
G01X0011052Y-002782D02*
G01X0010612Y-002342D01*
G01X0010612Y-002342D02*
G01X0010612Y-002139D01*
G01X0010612Y-002139D02*
G01X0012366Y-002139D01*
G01X0012366Y-002139D02*
G01X0012382Y-002245D01*
G01X0012382Y-002245D02*
G01X0012419Y-002346D01*
G01X0012419Y-002346D02*
G01X0012443Y-002390D01*
G01X0012443Y-002390D02*
G01X0012537Y-002416D01*
G01X0012537Y-002416D02*
G01X0012843Y-002110D01*
G01X0012843Y-002110D02*
G01X0012984Y-002110D01*
G01X0012984Y-002110D02*
G01X0013290Y-002416D01*
G01X0013290Y-002416D02*
G01X0013384Y-002390D01*
G01X0013384Y-002390D02*
G01X0013430Y-002293D01*
G01X0013430Y-002293D02*
G01X0013456Y-002189D01*
G01X0013456Y-002189D02*
G01X0013461Y-002082D01*
G01X0013461Y-002082D02*
G01X0013453Y-002035D01*
G01X0013453Y-002035D02*
G01X0013648Y-002035D01*
G01X0013648Y-002035D02*
G01X0013648Y-002138D01*
G01X0013648Y-002138D02*
G01X0013668Y-002240D01*
G01X0013668Y-002240D02*
G01X0013707Y-002336D01*
G01X0013707Y-002336D02*
G01X0013765Y-002422D01*
G01X0013765Y-002422D02*
G01X0013838Y-002495D01*
G01X0013838Y-002495D02*
G01X0013924Y-002552D01*
G01X0013924Y-002552D02*
G01X0014020Y-002592D01*
G01X0014020Y-002592D02*
G01X0014121Y-002612D01*
G01X0014121Y-002612D02*
G01X0014225Y-002612D01*
G01X0014225Y-002612D02*
G01X0014327Y-002592D01*
G01X0014327Y-002592D02*
G01X0014422Y-002552D01*
G01X0014422Y-002552D02*
G01X0014508Y-002495D01*
G01X0014508Y-002495D02*
G01X0014581Y-002422D01*
G01X0014581Y-002422D02*
G01X0014606Y-002385D01*
G01X0014606Y-002385D02*
G01X0014631Y-002422D01*
G01X0014631Y-002422D02*
G01X0014704Y-002495D01*
G01X0014704Y-002495D02*
G01X0014790Y-002552D01*
G01X0014790Y-002552D02*
G01X0014886Y-002592D01*
G01X0014886Y-002592D02*
G01X0014988Y-002612D01*
G01X0014988Y-002612D02*
G01X0015091Y-002612D01*
G01X0015091Y-002612D02*
G01X0015193Y-002592D01*
G01X0015193Y-002592D02*
G01X0015288Y-002552D01*
G01X0015288Y-002552D02*
G01X0015374Y-002495D01*
G01X0015374Y-002495D02*
G01X0015448Y-002422D01*
G01X0015448Y-002422D02*
G01X0015472Y-002385D01*
G01X0015472Y-002385D02*
G01X0015497Y-002422D01*
G01X0015497Y-002422D02*
G01X0015570Y-002495D01*
G01X0015570Y-002495D02*
G01X0015657Y-002552D01*
G01X0015657Y-002552D02*
G01X0015752Y-002592D01*
G01X0015752Y-002592D02*
G01X0015854Y-002612D01*
G01X0015854Y-002612D02*
G01X0015957Y-002612D01*
G01X0015957Y-002612D02*
G01X0016059Y-002592D01*
G01X0016059Y-002592D02*
G01X0016154Y-002552D01*
G01X0016154Y-002552D02*
G01X0016241Y-002495D01*
G01X0016241Y-002495D02*
G01X0016314Y-002422D01*
G01X0016314Y-002422D02*
G01X0016371Y-002336D01*
G01X0016371Y-002336D02*
G01X0016411Y-002240D01*
G01X0016411Y-002240D02*
G01X0016431Y-002138D01*
G01X0016431Y-002138D02*
G01X0016431Y-002035D01*
G01X0016431Y-002035D02*
G01X0016411Y-001933D01*
G01X0016411Y-001933D02*
G01X0016371Y-001838D01*
G01X0016371Y-001838D02*
G01X0016314Y-001752D01*
G01X0016314Y-001752D02*
G01X0016241Y-001678D01*
G01X0016241Y-001678D02*
G01X0016154Y-001621D01*
G01X0016154Y-001621D02*
G01X0016059Y-001581D01*
G01X0016059Y-001581D02*
G01X0015957Y-001561D01*
G01X0015957Y-001561D02*
G01X0015854Y-001561D01*
G01X0015854Y-001561D02*
G01X0015752Y-001581D01*
G01X0015752Y-001581D02*
G01X0015657Y-001621D01*
G01X0015657Y-001621D02*
G01X0015570Y-001678D01*
G01X0015570Y-001678D02*
G01X0015497Y-001752D01*
G01X0015497Y-001752D02*
G01X0015472Y-001789D01*
G01X0015472Y-001789D02*
G01X0015448Y-001752D01*
G01X0015448Y-001752D02*
G01X0015374Y-001678D01*
G01X0015374Y-001678D02*
G01X0015288Y-001621D01*
G01X0015288Y-001621D02*
G01X0015193Y-001581D01*
G01X0015193Y-001581D02*
G01X0015091Y-001561D01*
G01X0015091Y-001561D02*
G01X0014988Y-001561D01*
G01X0014988Y-001561D02*
G01X0014886Y-001581D01*
G01X0014886Y-001581D02*
G01X0014790Y-001621D01*
G01X0014790Y-001621D02*
G01X0014704Y-001678D01*
G01X0014704Y-001678D02*
G01X0014631Y-001752D01*
G01X0014631Y-001752D02*
G01X0014606Y-001789D01*
G01X0014606Y-001789D02*
G01X0014581Y-001752D01*
G01X0014581Y-001752D02*
G01X0014508Y-001678D01*
G01X0014508Y-001678D02*
G01X0014422Y-001621D01*
G01X0014422Y-001621D02*
G01X0014327Y-001581D01*
G01X0014327Y-001581D02*
G01X0014225Y-001561D01*
G01X0014225Y-001561D02*
G01X0014121Y-001561D01*
G01X0014121Y-001561D02*
G01X0014020Y-001581D01*
G01X0014020Y-001581D02*
G01X0013924Y-001621D01*
G01X0013924Y-001621D02*
G01X0013838Y-001678D01*
G01X0013838Y-001678D02*
G01X0013765Y-001752D01*
G01X0013765Y-001752D02*
G01X0013707Y-001838D01*
G01X0013707Y-001838D02*
G01X0013668Y-001933D01*
G01X0013668Y-001933D02*
G01X0013648Y-002035D01*
G01X0013648Y-002035D02*
G01X0013453Y-002035D01*
G01X0013453Y-002035D02*
G01X0013444Y-001975D01*
G01X0013444Y-001975D02*
G01X0013408Y-001874D01*
G01X0013408Y-001874D02*
G01X0013384Y-001830D01*
G01X0013384Y-001830D02*
G01X0013290Y-001804D01*
G01X0013290Y-001804D02*
G01X0012984Y-002110D01*
G01X0012984Y-002110D02*
G01X0012843Y-002110D01*
G01X0012843Y-002110D02*
G01X0012537Y-001804D01*
G01X0012537Y-001804D02*
G01X0012443Y-001830D01*
G01X0012443Y-001830D02*
G01X0012397Y-001927D01*
G01X0012397Y-001927D02*
G01X0012371Y-002031D01*
G01X0012371Y-002031D02*
G01X0012366Y-002139D01*
G01X0012366Y-002139D02*
G01X0010612Y-002139D01*
G01X0010612Y-002139D02*
G01X0010612Y-001776D01*
G01X0010612Y-001776D02*
G01X0010688Y-001799D01*
G01X0010688Y-001799D02*
G01X0010754Y-001805D01*
G01X0010754Y-001805D02*
G01X0010754Y-001805D01*
G01X0010754Y-001805D02*
G01X0010776Y-001807D01*
G01X0010776Y-001807D02*
G01X0010798Y-001805D01*
G01X0010798Y-001805D02*
G01X0012124Y-001805D01*
G01X0012124Y-001805D02*
G01X0012146Y-001807D01*
G01X0012146Y-001807D02*
G01X0012168Y-001805D01*
G01X0012168Y-001805D02*
G01X0012168Y-001805D01*
G01X0012168Y-001805D02*
G01X0012233Y-001799D01*
G01X0012233Y-001799D02*
G01X0012317Y-001773D01*
G01X0012317Y-001773D02*
G01X0012392Y-001733D01*
G01X0012392Y-001733D02*
G01X0012607Y-001733D01*
G01X0012607Y-001733D02*
G01X0012913Y-002040D01*
G01X0012913Y-002040D02*
G01X0013219Y-001733D01*
G01X0013219Y-001733D02*
G01X0013194Y-001639D01*
G01X0013194Y-001639D02*
G01X0013096Y-001594D01*
G01X0013096Y-001594D02*
G01X0012992Y-001568D01*
G01X0012992Y-001568D02*
G01X0012885Y-001563D01*
G01X0012885Y-001563D02*
G01X0012779Y-001579D01*
G01X0012779Y-001579D02*
G01X0012678Y-001616D01*
G01X0012678Y-001616D02*
G01X0012633Y-001639D01*
G01X0012633Y-001639D02*
G01X0012607Y-001733D01*
G01X0012607Y-001733D02*
G01X0012392Y-001733D01*
G01X0012392Y-001733D02*
G01X0012395Y-001732D01*
G01X0012395Y-001732D02*
G01X0012463Y-001676D01*
G01X0012463Y-001676D02*
G01X0012477Y-001659D01*
G01X0012477Y-001659D02*
G01X0013256Y-000880D01*
G01X0013256Y-000880D02*
G01X0016465Y-000880D01*
G01X0016465Y-000880D02*
G01X0016461Y-000888D01*
G36*
G01X0000307Y-002220D02*
G01X0000643Y-002220D01*
G01X0001550Y-003127D01*
G01X0001601Y-003169D01*
G01X0001679Y-003210D01*
G01X0001713Y-003221D01*
G01X0001762Y-003269D01*
G01X0001775Y-003285D01*
G01X0001835Y-003334D01*
G01X0001899Y-003369D01*
G01X0001904Y-003371D01*
G01X0001979Y-003394D01*
G01X0002057Y-003402D01*
G01X0002077Y-003400D01*
G01X0002145Y-003400D01*
G01X0002177Y-003454D01*
G01X0002588Y-003454D01*
G01X0002588Y-003446D01*
G01X0002688Y-003446D01*
G01X0002688Y-003454D01*
G01X0003099Y-003454D01*
G01X0003131Y-003400D01*
G01X0004212Y-003400D01*
G01X0004219Y-003437D01*
G01X0004259Y-003532D01*
G01X0004278Y-003561D01*
G01X0004278Y-003817D01*
G01X0004259Y-003846D01*
G01X0004219Y-003941D01*
G01X0004199Y-004043D01*
G01X0004199Y-004146D01*
G01X0004212Y-004215D01*
G01X0004159Y-004231D01*
G01X0004081Y-004272D01*
G01X0004063Y-004287D01*
G01X0004062Y-004282D01*
G01X0004037Y-004198D01*
G01X0003995Y-004121D01*
G01X0003940Y-004053D01*
G01X0003872Y-003997D01*
G01X0003794Y-003955D01*
G01X0003710Y-003930D01*
G01X0003622Y-003921D01*
G01X0003534Y-003930D01*
G01X0003504Y-003939D01*
G01X0002929Y-003939D01*
G01X0002988Y-003896D01*
G01X0003058Y-003820D01*
G01X0003111Y-003732D01*
G01X0003147Y-003635D01*
G01X0003099Y-003554D01*
G01X0002688Y-003554D01*
G01X0002688Y-003562D01*
G01X0002588Y-003562D01*
G01X0002588Y-003554D01*
G01X0002177Y-003554D01*
G01X0002129Y-003635D01*
G01X0002164Y-003732D01*
G01X0002218Y-003820D01*
G01X0002288Y-003896D01*
G01X0002347Y-003939D01*
G01X0001165Y-003939D01*
G01X0001183Y-003929D01*
G01X0001221Y-003898D01*
G01X0001252Y-003860D01*
G01X0001275Y-003817D01*
G01X0001290Y-003769D01*
G01X0001295Y-003720D01*
G01X0001293Y-003498D01*
G01X0001231Y-003436D01*
G01X0000759Y-003436D01*
G01X0000759Y-003444D01*
G01X0000659Y-003444D01*
G01X0000659Y-003436D01*
G01X0000651Y-003436D01*
G01X0000651Y-003336D01*
G01X0000659Y-003336D01*
G01X0000659Y-002864D01*
G01X0000759Y-002864D01*
G01X0000759Y-003336D01*
G01X0001231Y-003336D01*
G01X0001293Y-003273D01*
G01X0001295Y-003051D01*
G01X0001290Y-003002D01*
G01X0001275Y-002955D01*
G01X0001252Y-002912D01*
G01X0001221Y-002874D01*
G01X0001183Y-002842D01*
G01X0001139Y-002819D01*
G01X0001092Y-002805D01*
G01X0001043Y-002800D01*
G01X0000821Y-002801D01*
G01X0000759Y-002864D01*
G01X0000659Y-002864D01*
G01X0000596Y-002801D01*
G01X0000374Y-002800D01*
G01X0000325Y-002805D01*
G01X0000278Y-002819D01*
G01X0000270Y-002823D01*
G01X0000270Y-002216D01*
G01X0000307Y-002220D01*
G37*
G01X0000307Y-002220D02*
G01X0000643Y-002220D01*
G01X0000643Y-002220D02*
G01X0001550Y-003127D01*
G01X0001550Y-003127D02*
G01X0001601Y-003169D01*
G01X0001601Y-003169D02*
G01X0001679Y-003210D01*
G01X0001679Y-003210D02*
G01X0001713Y-003221D01*
G01X0001713Y-003221D02*
G01X0001762Y-003269D01*
G01X0001762Y-003269D02*
G01X0001775Y-003285D01*
G01X0001775Y-003285D02*
G01X0001835Y-003334D01*
G01X0001835Y-003334D02*
G01X0001899Y-003369D01*
G01X0001899Y-003369D02*
G01X0001904Y-003371D01*
G01X0001904Y-003371D02*
G01X0001979Y-003394D01*
G01X0001979Y-003394D02*
G01X0002057Y-003402D01*
G01X0002057Y-003402D02*
G01X0002077Y-003400D01*
G01X0002077Y-003400D02*
G01X0002145Y-003400D01*
G01X0002145Y-003400D02*
G01X0002177Y-003454D01*
G01X0002177Y-003454D02*
G01X0002588Y-003454D01*
G01X0002588Y-003454D02*
G01X0002588Y-003446D01*
G01X0002588Y-003446D02*
G01X0002688Y-003446D01*
G01X0002688Y-003446D02*
G01X0002688Y-003454D01*
G01X0002688Y-003454D02*
G01X0003099Y-003454D01*
G01X0003099Y-003454D02*
G01X0003131Y-003400D01*
G01X0003131Y-003400D02*
G01X0004212Y-003400D01*
G01X0004212Y-003400D02*
G01X0004219Y-003437D01*
G01X0004219Y-003437D02*
G01X0004259Y-003532D01*
G01X0004259Y-003532D02*
G01X0004278Y-003561D01*
G01X0004278Y-003561D02*
G01X0004278Y-003817D01*
G01X0004278Y-003817D02*
G01X0004259Y-003846D01*
G01X0004259Y-003846D02*
G01X0004219Y-003941D01*
G01X0004219Y-003941D02*
G01X0004199Y-004043D01*
G01X0004199Y-004043D02*
G01X0004199Y-004146D01*
G01X0004199Y-004146D02*
G01X0004212Y-004215D01*
G01X0004212Y-004215D02*
G01X0004159Y-004231D01*
G01X0004159Y-004231D02*
G01X0004081Y-004272D01*
G01X0004081Y-004272D02*
G01X0004063Y-004287D01*
G01X0004063Y-004287D02*
G01X0004062Y-004282D01*
G01X0004062Y-004282D02*
G01X0004037Y-004198D01*
G01X0004037Y-004198D02*
G01X0003995Y-004121D01*
G01X0003995Y-004121D02*
G01X0003940Y-004053D01*
G01X0003940Y-004053D02*
G01X0003872Y-003997D01*
G01X0003872Y-003997D02*
G01X0003794Y-003955D01*
G01X0003794Y-003955D02*
G01X0003710Y-003930D01*
G01X0003710Y-003930D02*
G01X0003622Y-003921D01*
G01X0003622Y-003921D02*
G01X0003534Y-003930D01*
G01X0003534Y-003930D02*
G01X0003504Y-003939D01*
G01X0003504Y-003939D02*
G01X0002929Y-003939D01*
G01X0002929Y-003939D02*
G01X0002988Y-003896D01*
G01X0002988Y-003896D02*
G01X0003058Y-003820D01*
G01X0003058Y-003820D02*
G01X0003111Y-003732D01*
G01X0003111Y-003732D02*
G01X0003147Y-003635D01*
G01X0003147Y-003635D02*
G01X0003099Y-003554D01*
G01X0003099Y-003554D02*
G01X0002688Y-003554D01*
G01X0002688Y-003554D02*
G01X0002688Y-003562D01*
G01X0002688Y-003562D02*
G01X0002588Y-003562D01*
G01X0002588Y-003562D02*
G01X0002588Y-003554D01*
G01X0002588Y-003554D02*
G01X0002177Y-003554D01*
G01X0002177Y-003554D02*
G01X0002129Y-003635D01*
G01X0002129Y-003635D02*
G01X0002164Y-003732D01*
G01X0002164Y-003732D02*
G01X0002218Y-003820D01*
G01X0002218Y-003820D02*
G01X0002288Y-003896D01*
G01X0002288Y-003896D02*
G01X0002347Y-003939D01*
G01X0002347Y-003939D02*
G01X0001165Y-003939D01*
G01X0001165Y-003939D02*
G01X0001183Y-003929D01*
G01X0001183Y-003929D02*
G01X0001221Y-003898D01*
G01X0001221Y-003898D02*
G01X0001252Y-003860D01*
G01X0001252Y-003860D02*
G01X0001275Y-003817D01*
G01X0001275Y-003817D02*
G01X0001290Y-003769D01*
G01X0001290Y-003769D02*
G01X0001295Y-003720D01*
G01X0001295Y-003720D02*
G01X0001293Y-003498D01*
G01X0001293Y-003498D02*
G01X0001231Y-003436D01*
G01X0001231Y-003436D02*
G01X0000759Y-003436D01*
G01X0000759Y-003436D02*
G01X0000759Y-003444D01*
G01X0000759Y-003444D02*
G01X0000659Y-003444D01*
G01X0000659Y-003444D02*
G01X0000659Y-003436D01*
G01X0000659Y-003436D02*
G01X0000651Y-003436D01*
G01X0000651Y-003436D02*
G01X0000651Y-003336D01*
G01X0000651Y-003336D02*
G01X0000659Y-003336D01*
G01X0000659Y-003336D02*
G01X0000659Y-002864D01*
G01X0000659Y-002864D02*
G01X0000759Y-002864D01*
G01X0000759Y-002864D02*
G01X0000759Y-003336D01*
G01X0000759Y-003336D02*
G01X0001231Y-003336D01*
G01X0001231Y-003336D02*
G01X0001293Y-003273D01*
G01X0001293Y-003273D02*
G01X0001295Y-003051D01*
G01X0001295Y-003051D02*
G01X0001290Y-003002D01*
G01X0001290Y-003002D02*
G01X0001275Y-002955D01*
G01X0001275Y-002955D02*
G01X0001252Y-002912D01*
G01X0001252Y-002912D02*
G01X0001221Y-002874D01*
G01X0001221Y-002874D02*
G01X0001183Y-002842D01*
G01X0001183Y-002842D02*
G01X0001139Y-002819D01*
G01X0001139Y-002819D02*
G01X0001092Y-002805D01*
G01X0001092Y-002805D02*
G01X0001043Y-002800D01*
G01X0001043Y-002800D02*
G01X0000821Y-002801D01*
G01X0000821Y-002801D02*
G01X0000759Y-002864D01*
G01X0000759Y-002864D02*
G01X0000659Y-002864D01*
G01X0000659Y-002864D02*
G01X0000596Y-002801D01*
G01X0000596Y-002801D02*
G01X0000374Y-002800D01*
G01X0000374Y-002800D02*
G01X0000325Y-002805D01*
G01X0000325Y-002805D02*
G01X0000278Y-002819D01*
G01X0000278Y-002819D02*
G01X0000270Y-002823D01*
G01X0000270Y-002823D02*
G01X0000270Y-002216D01*
G01X0000270Y-002216D02*
G01X0000307Y-002220D01*
G36*
G01X0004199Y-000366D02*
G01X0004199Y-000469D01*
G01X0004219Y-000571D01*
G01X0004259Y-000666D01*
G01X0004316Y-000752D01*
G01X0004389Y-000826D01*
G01X0004475Y-000883D01*
G01X0004558Y-000917D01*
G01X0004475Y-000952D01*
G01X0004389Y-001009D01*
G01X0004316Y-001082D01*
G01X0004259Y-001168D01*
G01X0004219Y-001264D01*
G01X0004199Y-001366D01*
G01X0004199Y-001469D01*
G01X0004219Y-001571D01*
G01X0004259Y-001666D01*
G01X0004316Y-001752D01*
G01X0004389Y-001826D01*
G01X0004427Y-001850D01*
G01X0004389Y-001875D01*
G01X0004316Y-001948D01*
G01X0004259Y-002035D01*
G01X0004219Y-002130D01*
G01X0004199Y-002232D01*
G01X0004199Y-002335D01*
G01X0004219Y-002437D01*
G01X0004243Y-002494D01*
G01X0004227Y-002502D01*
G01X0004181Y-002540D01*
G01X0004117Y-002604D01*
G01X0003154Y-002604D01*
G01X0003163Y-002556D01*
G01X0003163Y-002452D01*
G01X0003143Y-002351D01*
G01X0003104Y-002255D01*
G01X0003046Y-002169D01*
G01X0002973Y-002096D01*
G01X0003023Y-002055D01*
G01X0003094Y-001969D01*
G01X0003122Y-001917D01*
G01X0003150Y-001969D01*
G01X0003221Y-002055D01*
G01X0003307Y-002126D01*
G01X0003405Y-002178D01*
G01X0003511Y-002210D01*
G01X0003622Y-002221D01*
G01X0003733Y-002210D01*
G01X0003839Y-002178D01*
G01X0003937Y-002126D01*
G01X0004023Y-002055D01*
G01X0004094Y-001969D01*
G01X0004147Y-001871D01*
G01X0004179Y-001764D01*
G01X0004187Y-001681D01*
G01X0004187Y-001311D01*
G01X0004179Y-001228D01*
G01X0004147Y-001121D01*
G01X0004094Y-001023D01*
G01X0004023Y-000937D01*
G01X0003937Y-000867D01*
G01X0003839Y-000814D01*
G01X0003733Y-000782D01*
G01X0003622Y-000771D01*
G01X0003511Y-000782D01*
G01X0003405Y-000814D01*
G01X0003307Y-000867D01*
G01X0003221Y-000937D01*
G01X0003150Y-001023D01*
G01X0003122Y-001076D01*
G01X0003094Y-001023D01*
G01X0003023Y-000937D01*
G01X0002937Y-000867D01*
G01X0002839Y-000814D01*
G01X0002733Y-000782D01*
G01X0002622Y-000771D01*
G01X0002511Y-000782D01*
G01X0002405Y-000814D01*
G01X0002307Y-000867D01*
G01X0002221Y-000937D01*
G01X0002150Y-001023D01*
G01X0002122Y-001076D01*
G01X0002094Y-001023D01*
G01X0002023Y-000937D01*
G01X0001937Y-000867D01*
G01X0001839Y-000814D01*
G01X0001733Y-000782D01*
G01X0001622Y-000771D01*
G01X0001511Y-000782D01*
G01X0001405Y-000814D01*
G01X0001307Y-000867D01*
G01X0001221Y-000937D01*
G01X0001184Y-000982D01*
G01X0001183Y-000975D01*
G01X0001169Y-000927D01*
G01X0001146Y-000884D01*
G01X0001115Y-000846D01*
G01X0001077Y-000815D01*
G01X0001033Y-000792D01*
G01X0000986Y-000777D01*
G01X0000937Y-000772D01*
G01X0000307Y-000772D01*
G01X0000270Y-000776D01*
G01X0000270Y-000270D01*
G01X0004218Y-000270D01*
G01X0004199Y-000366D01*
G37*
G01X0004199Y-000366D02*
G01X0004199Y-000469D01*
G01X0004199Y-000469D02*
G01X0004219Y-000571D01*
G01X0004219Y-000571D02*
G01X0004259Y-000666D01*
G01X0004259Y-000666D02*
G01X0004316Y-000752D01*
G01X0004316Y-000752D02*
G01X0004389Y-000826D01*
G01X0004389Y-000826D02*
G01X0004475Y-000883D01*
G01X0004475Y-000883D02*
G01X0004558Y-000917D01*
G01X0004558Y-000917D02*
G01X0004475Y-000952D01*
G01X0004475Y-000952D02*
G01X0004389Y-001009D01*
G01X0004389Y-001009D02*
G01X0004316Y-001082D01*
G01X0004316Y-001082D02*
G01X0004259Y-001168D01*
G01X0004259Y-001168D02*
G01X0004219Y-001264D01*
G01X0004219Y-001264D02*
G01X0004199Y-001366D01*
G01X0004199Y-001366D02*
G01X0004199Y-001469D01*
G01X0004199Y-001469D02*
G01X0004219Y-001571D01*
G01X0004219Y-001571D02*
G01X0004259Y-001666D01*
G01X0004259Y-001666D02*
G01X0004316Y-001752D01*
G01X0004316Y-001752D02*
G01X0004389Y-001826D01*
G01X0004389Y-001826D02*
G01X0004427Y-001850D01*
G01X0004427Y-001850D02*
G01X0004389Y-001875D01*
G01X0004389Y-001875D02*
G01X0004316Y-001948D01*
G01X0004316Y-001948D02*
G01X0004259Y-002035D01*
G01X0004259Y-002035D02*
G01X0004219Y-002130D01*
G01X0004219Y-002130D02*
G01X0004199Y-002232D01*
G01X0004199Y-002232D02*
G01X0004199Y-002335D01*
G01X0004199Y-002335D02*
G01X0004219Y-002437D01*
G01X0004219Y-002437D02*
G01X0004243Y-002494D01*
G01X0004243Y-002494D02*
G01X0004227Y-002502D01*
G01X0004227Y-002502D02*
G01X0004181Y-002540D01*
G01X0004181Y-002540D02*
G01X0004117Y-002604D01*
G01X0004117Y-002604D02*
G01X0003154Y-002604D01*
G01X0003154Y-002604D02*
G01X0003163Y-002556D01*
G01X0003163Y-002556D02*
G01X0003163Y-002452D01*
G01X0003163Y-002452D02*
G01X0003143Y-002351D01*
G01X0003143Y-002351D02*
G01X0003104Y-002255D01*
G01X0003104Y-002255D02*
G01X0003046Y-002169D01*
G01X0003046Y-002169D02*
G01X0002973Y-002096D01*
G01X0002973Y-002096D02*
G01X0003023Y-002055D01*
G01X0003023Y-002055D02*
G01X0003094Y-001969D01*
G01X0003094Y-001969D02*
G01X0003122Y-001917D01*
G01X0003122Y-001917D02*
G01X0003150Y-001969D01*
G01X0003150Y-001969D02*
G01X0003221Y-002055D01*
G01X0003221Y-002055D02*
G01X0003307Y-002126D01*
G01X0003307Y-002126D02*
G01X0003405Y-002178D01*
G01X0003405Y-002178D02*
G01X0003511Y-002210D01*
G01X0003511Y-002210D02*
G01X0003622Y-002221D01*
G01X0003622Y-002221D02*
G01X0003733Y-002210D01*
G01X0003733Y-002210D02*
G01X0003839Y-002178D01*
G01X0003839Y-002178D02*
G01X0003937Y-002126D01*
G01X0003937Y-002126D02*
G01X0004023Y-002055D01*
G01X0004023Y-002055D02*
G01X0004094Y-001969D01*
G01X0004094Y-001969D02*
G01X0004147Y-001871D01*
G01X0004147Y-001871D02*
G01X0004179Y-001764D01*
G01X0004179Y-001764D02*
G01X0004187Y-001681D01*
G01X0004187Y-001681D02*
G01X0004187Y-001311D01*
G01X0004187Y-001311D02*
G01X0004179Y-001228D01*
G01X0004179Y-001228D02*
G01X0004147Y-001121D01*
G01X0004147Y-001121D02*
G01X0004094Y-001023D01*
G01X0004094Y-001023D02*
G01X0004023Y-000937D01*
G01X0004023Y-000937D02*
G01X0003937Y-000867D01*
G01X0003937Y-000867D02*
G01X0003839Y-000814D01*
G01X0003839Y-000814D02*
G01X0003733Y-000782D01*
G01X0003733Y-000782D02*
G01X0003622Y-000771D01*
G01X0003622Y-000771D02*
G01X0003511Y-000782D01*
G01X0003511Y-000782D02*
G01X0003405Y-000814D01*
G01X0003405Y-000814D02*
G01X0003307Y-000867D01*
G01X0003307Y-000867D02*
G01X0003221Y-000937D01*
G01X0003221Y-000937D02*
G01X0003150Y-001023D01*
G01X0003150Y-001023D02*
G01X0003122Y-001076D01*
G01X0003122Y-001076D02*
G01X0003094Y-001023D01*
G01X0003094Y-001023D02*
G01X0003023Y-000937D01*
G01X0003023Y-000937D02*
G01X0002937Y-000867D01*
G01X0002937Y-000867D02*
G01X0002839Y-000814D01*
G01X0002839Y-000814D02*
G01X0002733Y-000782D01*
G01X0002733Y-000782D02*
G01X0002622Y-000771D01*
G01X0002622Y-000771D02*
G01X0002511Y-000782D01*
G01X0002511Y-000782D02*
G01X0002405Y-000814D01*
G01X0002405Y-000814D02*
G01X0002307Y-000867D01*
G01X0002307Y-000867D02*
G01X0002221Y-000937D01*
G01X0002221Y-000937D02*
G01X0002150Y-001023D01*
G01X0002150Y-001023D02*
G01X0002122Y-001076D01*
G01X0002122Y-001076D02*
G01X0002094Y-001023D01*
G01X0002094Y-001023D02*
G01X0002023Y-000937D01*
G01X0002023Y-000937D02*
G01X0001937Y-000867D01*
G01X0001937Y-000867D02*
G01X0001839Y-000814D01*
G01X0001839Y-000814D02*
G01X0001733Y-000782D01*
G01X0001733Y-000782D02*
G01X0001622Y-000771D01*
G01X0001622Y-000771D02*
G01X0001511Y-000782D01*
G01X0001511Y-000782D02*
G01X0001405Y-000814D01*
G01X0001405Y-000814D02*
G01X0001307Y-000867D01*
G01X0001307Y-000867D02*
G01X0001221Y-000937D01*
G01X0001221Y-000937D02*
G01X0001184Y-000982D01*
G01X0001184Y-000982D02*
G01X0001183Y-000975D01*
G01X0001183Y-000975D02*
G01X0001169Y-000927D01*
G01X0001169Y-000927D02*
G01X0001146Y-000884D01*
G01X0001146Y-000884D02*
G01X0001115Y-000846D01*
G01X0001115Y-000846D02*
G01X0001077Y-000815D01*
G01X0001077Y-000815D02*
G01X0001033Y-000792D01*
G01X0001033Y-000792D02*
G01X0000986Y-000777D01*
G01X0000986Y-000777D02*
G01X0000937Y-000772D01*
G01X0000937Y-000772D02*
G01X0000307Y-000772D01*
G01X0000307Y-000772D02*
G01X0000270Y-000776D01*
G01X0000270Y-000776D02*
G01X0000270Y-000270D01*
G01X0000270Y-000270D02*
G01X0004218Y-000270D01*
G01X0004218Y-000270D02*
G01X0004199Y-000366D01*
G36*
G01X0006622Y-000274D02*
G01X0006599Y-000317D01*
G01X0006584Y-000364D01*
G01X0006579Y-000413D01*
G01X0006579Y-000833D01*
G01X0006573Y-000829D01*
G01X0006489Y-000804D01*
G01X0006424Y-000797D01*
G01X0006424Y-000797D01*
G01X0006402Y-000795D01*
G01X0006380Y-000797D01*
G01X0006262Y-000797D01*
G01X0006233Y-000778D01*
G01X0006138Y-000739D01*
G01X0006036Y-000719D01*
G01X0005932Y-000719D01*
G01X0005831Y-000739D01*
G01X0005735Y-000778D01*
G01X0005649Y-000836D01*
G01X0005576Y-000909D01*
G01X0005518Y-000995D01*
G01X0005479Y-001091D01*
G01X0005459Y-001192D01*
G01X0005459Y-001296D01*
G01X0005479Y-001397D01*
G01X0005518Y-001493D01*
G01X0005576Y-001579D01*
G01X0005649Y-001652D01*
G01X0005735Y-001710D01*
G01X0005818Y-001744D01*
G01X0005735Y-001778D01*
G01X0005649Y-001836D01*
G01X0005648Y-001837D01*
G01X0005043Y-001837D01*
G01X0005059Y-001826D01*
G01X0005133Y-001752D01*
G01X0005190Y-001666D01*
G01X0005230Y-001571D01*
G01X0005250Y-001469D01*
G01X0005250Y-001366D01*
G01X0005230Y-001264D01*
G01X0005190Y-001168D01*
G01X0005133Y-001082D01*
G01X0005059Y-001009D01*
G01X0004973Y-000952D01*
G01X0004891Y-000917D01*
G01X0004973Y-000883D01*
G01X0005059Y-000826D01*
G01X0005133Y-000752D01*
G01X0005190Y-000666D01*
G01X0005230Y-000571D01*
G01X0005250Y-000469D01*
G01X0005250Y-000366D01*
G01X0005231Y-000270D01*
G01X0006625Y-000270D01*
G01X0006622Y-000274D01*
G37*
G01X0006622Y-000274D02*
G01X0006599Y-000317D01*
G01X0006599Y-000317D02*
G01X0006584Y-000364D01*
G01X0006584Y-000364D02*
G01X0006579Y-000413D01*
G01X0006579Y-000413D02*
G01X0006579Y-000833D01*
G01X0006579Y-000833D02*
G01X0006573Y-000829D01*
G01X0006573Y-000829D02*
G01X0006489Y-000804D01*
G01X0006489Y-000804D02*
G01X0006424Y-000797D01*
G01X0006424Y-000797D02*
G01X0006424Y-000797D01*
G01X0006424Y-000797D02*
G01X0006402Y-000795D01*
G01X0006402Y-000795D02*
G01X0006380Y-000797D01*
G01X0006380Y-000797D02*
G01X0006262Y-000797D01*
G01X0006262Y-000797D02*
G01X0006233Y-000778D01*
G01X0006233Y-000778D02*
G01X0006138Y-000739D01*
G01X0006138Y-000739D02*
G01X0006036Y-000719D01*
G01X0006036Y-000719D02*
G01X0005932Y-000719D01*
G01X0005932Y-000719D02*
G01X0005831Y-000739D01*
G01X0005831Y-000739D02*
G01X0005735Y-000778D01*
G01X0005735Y-000778D02*
G01X0005649Y-000836D01*
G01X0005649Y-000836D02*
G01X0005576Y-000909D01*
G01X0005576Y-000909D02*
G01X0005518Y-000995D01*
G01X0005518Y-000995D02*
G01X0005479Y-001091D01*
G01X0005479Y-001091D02*
G01X0005459Y-001192D01*
G01X0005459Y-001192D02*
G01X0005459Y-001296D01*
G01X0005459Y-001296D02*
G01X0005479Y-001397D01*
G01X0005479Y-001397D02*
G01X0005518Y-001493D01*
G01X0005518Y-001493D02*
G01X0005576Y-001579D01*
G01X0005576Y-001579D02*
G01X0005649Y-001652D01*
G01X0005649Y-001652D02*
G01X0005735Y-001710D01*
G01X0005735Y-001710D02*
G01X0005818Y-001744D01*
G01X0005818Y-001744D02*
G01X0005735Y-001778D01*
G01X0005735Y-001778D02*
G01X0005649Y-001836D01*
G01X0005649Y-001836D02*
G01X0005648Y-001837D01*
G01X0005648Y-001837D02*
G01X0005043Y-001837D01*
G01X0005043Y-001837D02*
G01X0005059Y-001826D01*
G01X0005059Y-001826D02*
G01X0005133Y-001752D01*
G01X0005133Y-001752D02*
G01X0005190Y-001666D01*
G01X0005190Y-001666D02*
G01X0005230Y-001571D01*
G01X0005230Y-001571D02*
G01X0005250Y-001469D01*
G01X0005250Y-001469D02*
G01X0005250Y-001366D01*
G01X0005250Y-001366D02*
G01X0005230Y-001264D01*
G01X0005230Y-001264D02*
G01X0005190Y-001168D01*
G01X0005190Y-001168D02*
G01X0005133Y-001082D01*
G01X0005133Y-001082D02*
G01X0005059Y-001009D01*
G01X0005059Y-001009D02*
G01X0004973Y-000952D01*
G01X0004973Y-000952D02*
G01X0004891Y-000917D01*
G01X0004891Y-000917D02*
G01X0004973Y-000883D01*
G01X0004973Y-000883D02*
G01X0005059Y-000826D01*
G01X0005059Y-000826D02*
G01X0005133Y-000752D01*
G01X0005133Y-000752D02*
G01X0005190Y-000666D01*
G01X0005190Y-000666D02*
G01X0005230Y-000571D01*
G01X0005230Y-000571D02*
G01X0005250Y-000469D01*
G01X0005250Y-000469D02*
G01X0005250Y-000366D01*
G01X0005250Y-000366D02*
G01X0005231Y-000270D01*
G01X0005231Y-000270D02*
G01X0006625Y-000270D01*
G01X0006625Y-000270D02*
G01X0006622Y-000274D01*
G36*
G01X0009215Y-000698D02*
G01X0009223Y-000698D01*
G01X0009223Y-000798D01*
G01X0009215Y-000798D01*
G01X0009215Y-001268D01*
G01X0009306Y-001316D01*
G01X0009364Y-001298D01*
G01X0009467Y-001249D01*
G01X0009559Y-001180D01*
G01X0009636Y-001095D01*
G01X0009663Y-001049D01*
G01X0009711Y-001121D01*
G01X0009719Y-001128D01*
G01X0009719Y-001483D01*
G01X0009707Y-001482D01*
G01X0008650Y-001482D01*
G01X0008436Y-001269D01*
G01X0008442Y-001266D01*
G01X0008538Y-001202D01*
G01X0008619Y-001121D01*
G01X0008667Y-001049D01*
G01X0008695Y-001095D01*
G01X0008772Y-001180D01*
G01X0008863Y-001249D01*
G01X0008967Y-001298D01*
G01X0009025Y-001316D01*
G01X0009115Y-001268D01*
G01X0009115Y-000798D01*
G01X0009107Y-000798D01*
G01X0009107Y-000698D01*
G01X0009115Y-000698D01*
G01X0009115Y-000690D01*
G01X0009215Y-000690D01*
G01X0009215Y-000698D01*
G37*
G01X0009215Y-000698D02*
G01X0009223Y-000698D01*
G01X0009223Y-000698D02*
G01X0009223Y-000798D01*
G01X0009223Y-000798D02*
G01X0009215Y-000798D01*
G01X0009215Y-000798D02*
G01X0009215Y-001268D01*
G01X0009215Y-001268D02*
G01X0009306Y-001316D01*
G01X0009306Y-001316D02*
G01X0009364Y-001298D01*
G01X0009364Y-001298D02*
G01X0009467Y-001249D01*
G01X0009467Y-001249D02*
G01X0009559Y-001180D01*
G01X0009559Y-001180D02*
G01X0009636Y-001095D01*
G01X0009636Y-001095D02*
G01X0009663Y-001049D01*
G01X0009663Y-001049D02*
G01X0009711Y-001121D01*
G01X0009711Y-001121D02*
G01X0009719Y-001128D01*
G01X0009719Y-001128D02*
G01X0009719Y-001483D01*
G01X0009719Y-001483D02*
G01X0009707Y-001482D01*
G01X0009707Y-001482D02*
G01X0008650Y-001482D01*
G01X0008650Y-001482D02*
G01X0008436Y-001269D01*
G01X0008436Y-001269D02*
G01X0008442Y-001266D01*
G01X0008442Y-001266D02*
G01X0008538Y-001202D01*
G01X0008538Y-001202D02*
G01X0008619Y-001121D01*
G01X0008619Y-001121D02*
G01X0008667Y-001049D01*
G01X0008667Y-001049D02*
G01X0008695Y-001095D01*
G01X0008695Y-001095D02*
G01X0008772Y-001180D01*
G01X0008772Y-001180D02*
G01X0008863Y-001249D01*
G01X0008863Y-001249D02*
G01X0008967Y-001298D01*
G01X0008967Y-001298D02*
G01X0009025Y-001316D01*
G01X0009025Y-001316D02*
G01X0009115Y-001268D01*
G01X0009115Y-001268D02*
G01X0009115Y-000798D01*
G01X0009115Y-000798D02*
G01X0009107Y-000798D01*
G01X0009107Y-000798D02*
G01X0009107Y-000698D01*
G01X0009107Y-000698D02*
G01X0009115Y-000698D01*
G01X0009115Y-000698D02*
G01X0009115Y-000690D01*
G01X0009115Y-000690D02*
G01X0009215Y-000690D01*
G01X0009215Y-000690D02*
G01X0009215Y-000698D01*
G36*
G01X0011961Y-000911D02*
G01X0011729Y-000911D01*
G01X0011750Y-000806D01*
G01X0011750Y-000690D01*
G01X0011728Y-000577D01*
G01X0011683Y-000471D01*
G01X0011619Y-000375D01*
G01X0011538Y-000294D01*
G01X0011502Y-000270D01*
G01X0012602Y-000270D01*
G01X0011961Y-000911D01*
G37*
G01X0011961Y-000911D02*
G01X0011729Y-000911D01*
G01X0011729Y-000911D02*
G01X0011750Y-000806D01*
G01X0011750Y-000806D02*
G01X0011750Y-000690D01*
G01X0011750Y-000690D02*
G01X0011728Y-000577D01*
G01X0011728Y-000577D02*
G01X0011683Y-000471D01*
G01X0011683Y-000471D02*
G01X0011619Y-000375D01*
G01X0011619Y-000375D02*
G01X0011538Y-000294D01*
G01X0011538Y-000294D02*
G01X0011502Y-000270D01*
G01X0011502Y-000270D02*
G01X0012602Y-000270D01*
G01X0012602Y-000270D02*
G01X0011961Y-000911D01*
M02*
