G04 This is an RS-274x file exported by *
G04 gerbv version 2.6A *
G04 More information is available about gerbv at *
G04 http://gerbv.geda-project.org/ *
G04 --End of header info--*
%MOIN*%
%FSLAX34Y34*%
%IPPOS*%
G04 --Define apertures--*
%ADD10C,0.0039*%
G04 --Start main section--*
G54D10*
G36*
G01X0004811Y-010306D02*
G01X0004864Y-010329D01*
G01X0004913Y-010361D01*
G01X0004954Y-010402D01*
G01X0004986Y-010450D01*
G01X0005009Y-010504D01*
G01X0005020Y-010561D01*
G01X0005020Y-010620D01*
G01X0005009Y-010677D01*
G01X0004986Y-010731D01*
G01X0004954Y-010779D01*
G01X0004913Y-010820D01*
G01X0004864Y-010853D01*
G01X0004864Y-010853D01*
G01X0004864Y-010853D01*
G01X0004811Y-010875D01*
G01X0004754Y-010886D01*
G01X0004695Y-010886D01*
G01X0004638Y-010875D01*
G01X0004584Y-010853D01*
G01X0004584Y-010853D01*
G01X0004584Y-010853D01*
G01X0004536Y-010820D01*
G01X0004495Y-010779D01*
G01X0004462Y-010731D01*
G01X0004440Y-010677D01*
G01X0004429Y-010620D01*
G01X0004429Y-010561D01*
G01X0004440Y-010504D01*
G01X0004462Y-010450D01*
G01X0004495Y-010402D01*
G01X0004536Y-010361D01*
G01X0004584Y-010329D01*
G01X0004638Y-010306D01*
G01X0004695Y-010295D01*
G01X0004754Y-010295D01*
G01X0004811Y-010306D01*
G37*
G36*
G01X0011131Y-009883D02*
G01X0011190Y-009895D01*
G01X0011255Y-009922D01*
G01X0011313Y-009961D01*
G01X0011362Y-010010D01*
G01X0011401Y-010068D01*
G01X0011428Y-010133D01*
G01X0011441Y-010201D01*
G01X0011441Y-010271D01*
G01X0011428Y-010340D01*
G01X0011401Y-010404D01*
G01X0011362Y-010462D01*
G01X0011313Y-010512D01*
G01X0011255Y-010551D01*
G01X0011190Y-010577D01*
G01X0011131Y-010589D01*
G01X0011122Y-010591D01*
G01X0011052Y-010591D01*
G01X0011042Y-010589D01*
G01X0010983Y-010577D01*
G01X0010919Y-010551D01*
G01X0010860Y-010512D01*
G01X0010811Y-010462D01*
G01X0010772Y-010404D01*
G01X0010746Y-010340D01*
G01X0010732Y-010271D01*
G01X0010732Y-010201D01*
G01X0010746Y-010133D01*
G01X0010772Y-010068D01*
G01X0010811Y-010010D01*
G01X0010860Y-009961D01*
G01X0010919Y-009922D01*
G01X0010983Y-009895D01*
G01X0011042Y-009883D01*
G01X0011052Y-009881D01*
G01X0011122Y-009881D01*
G01X0011131Y-009883D01*
G37*
G36*
G01X0010131Y-009883D02*
G01X0010190Y-009895D01*
G01X0010255Y-009922D01*
G01X0010313Y-009961D01*
G01X0010362Y-010010D01*
G01X0010401Y-010068D01*
G01X0010428Y-010133D01*
G01X0010441Y-010201D01*
G01X0010441Y-010271D01*
G01X0010428Y-010340D01*
G01X0010401Y-010404D01*
G01X0010362Y-010462D01*
G01X0010313Y-010512D01*
G01X0010255Y-010551D01*
G01X0010190Y-010577D01*
G01X0010131Y-010589D01*
G01X0010122Y-010591D01*
G01X0010052Y-010591D01*
G01X0010042Y-010589D01*
G01X0009983Y-010577D01*
G01X0009919Y-010551D01*
G01X0009860Y-010512D01*
G01X0009811Y-010462D01*
G01X0009772Y-010404D01*
G01X0009746Y-010340D01*
G01X0009732Y-010271D01*
G01X0009732Y-010201D01*
G01X0009746Y-010133D01*
G01X0009772Y-010068D01*
G01X0009811Y-010010D01*
G01X0009860Y-009961D01*
G01X0009919Y-009922D01*
G01X0009983Y-009895D01*
G01X0010042Y-009883D01*
G01X0010052Y-009881D01*
G01X0010122Y-009881D01*
G01X0010131Y-009883D01*
G37*
G36*
G01X0009131Y-009883D02*
G01X0009190Y-009895D01*
G01X0009255Y-009922D01*
G01X0009313Y-009961D01*
G01X0009362Y-010010D01*
G01X0009401Y-010068D01*
G01X0009428Y-010133D01*
G01X0009441Y-010201D01*
G01X0009441Y-010271D01*
G01X0009428Y-010340D01*
G01X0009401Y-010404D01*
G01X0009362Y-010462D01*
G01X0009313Y-010512D01*
G01X0009255Y-010551D01*
G01X0009190Y-010577D01*
G01X0009131Y-010589D01*
G01X0009122Y-010591D01*
G01X0009052Y-010591D01*
G01X0009042Y-010589D01*
G01X0008983Y-010577D01*
G01X0008919Y-010551D01*
G01X0008860Y-010512D01*
G01X0008811Y-010462D01*
G01X0008772Y-010404D01*
G01X0008746Y-010340D01*
G01X0008732Y-010271D01*
G01X0008732Y-010201D01*
G01X0008746Y-010133D01*
G01X0008772Y-010068D01*
G01X0008811Y-010010D01*
G01X0008860Y-009961D01*
G01X0008919Y-009922D01*
G01X0008983Y-009895D01*
G01X0009042Y-009883D01*
G01X0009052Y-009881D01*
G01X0009122Y-009881D01*
G01X0009131Y-009883D01*
G37*
G36*
G01X0008131Y-009883D02*
G01X0008190Y-009895D01*
G01X0008255Y-009922D01*
G01X0008313Y-009961D01*
G01X0008362Y-010010D01*
G01X0008401Y-010068D01*
G01X0008428Y-010133D01*
G01X0008441Y-010201D01*
G01X0008441Y-010271D01*
G01X0008428Y-010340D01*
G01X0008401Y-010404D01*
G01X0008362Y-010462D01*
G01X0008313Y-010512D01*
G01X0008255Y-010551D01*
G01X0008190Y-010577D01*
G01X0008131Y-010589D01*
G01X0008122Y-010591D01*
G01X0008052Y-010591D01*
G01X0008042Y-010589D01*
G01X0007983Y-010577D01*
G01X0007919Y-010551D01*
G01X0007860Y-010512D01*
G01X0007811Y-010462D01*
G01X0007772Y-010404D01*
G01X0007746Y-010340D01*
G01X0007732Y-010271D01*
G01X0007732Y-010201D01*
G01X0007746Y-010133D01*
G01X0007772Y-010068D01*
G01X0007811Y-010010D01*
G01X0007860Y-009961D01*
G01X0007919Y-009922D01*
G01X0007983Y-009895D01*
G01X0008042Y-009883D01*
G01X0008052Y-009881D01*
G01X0008122Y-009881D01*
G01X0008131Y-009883D01*
G37*
G36*
G01X0007441Y-010591D02*
G01X0006732Y-010591D01*
G01X0006732Y-009881D01*
G01X0007441Y-009881D01*
G01X0007441Y-010591D01*
G37*
G36*
G01X0014811Y-009952D02*
G01X0014849Y-009968D01*
G01X0014864Y-009974D01*
G01X0014913Y-010007D01*
G01X0014954Y-010048D01*
G01X0014968Y-010068D01*
G01X0014986Y-010096D01*
G01X0015009Y-010150D01*
G01X0015020Y-010207D01*
G01X0015020Y-010265D01*
G01X0015019Y-010271D01*
G01X0015009Y-010322D01*
G01X0014986Y-010376D01*
G01X0014954Y-010425D01*
G01X0014913Y-010466D01*
G01X0014864Y-010498D01*
G01X0014864Y-010498D01*
G01X0014864Y-010498D01*
G01X0014811Y-010521D01*
G01X0014754Y-010532D01*
G01X0014695Y-010532D01*
G01X0014638Y-010521D01*
G01X0014584Y-010498D01*
G01X0014584Y-010498D01*
G01X0014584Y-010498D01*
G01X0014536Y-010466D01*
G01X0014495Y-010425D01*
G01X0014462Y-010376D01*
G01X0014440Y-010322D01*
G01X0014430Y-010271D01*
G01X0014429Y-010265D01*
G01X0014429Y-010207D01*
G01X0014440Y-010150D01*
G01X0014462Y-010096D01*
G01X0014481Y-010068D01*
G01X0014495Y-010048D01*
G01X0014536Y-010007D01*
G01X0014584Y-009974D01*
G01X0014599Y-009968D01*
G01X0014638Y-009952D01*
G01X0014695Y-009941D01*
G01X0014754Y-009941D01*
G01X0014811Y-009952D01*
G37*
G36*
G01X0015811Y-009952D02*
G01X0015849Y-009968D01*
G01X0015864Y-009974D01*
G01X0015913Y-010007D01*
G01X0015954Y-010048D01*
G01X0015968Y-010068D01*
G01X0015986Y-010096D01*
G01X0016009Y-010150D01*
G01X0016020Y-010207D01*
G01X0016020Y-010265D01*
G01X0016019Y-010271D01*
G01X0016009Y-010322D01*
G01X0015986Y-010376D01*
G01X0015954Y-010425D01*
G01X0015913Y-010466D01*
G01X0015864Y-010498D01*
G01X0015864Y-010498D01*
G01X0015864Y-010498D01*
G01X0015811Y-010521D01*
G01X0015754Y-010532D01*
G01X0015695Y-010532D01*
G01X0015638Y-010521D01*
G01X0015584Y-010498D01*
G01X0015584Y-010498D01*
G01X0015584Y-010498D01*
G01X0015536Y-010466D01*
G01X0015495Y-010425D01*
G01X0015462Y-010376D01*
G01X0015440Y-010322D01*
G01X0015430Y-010271D01*
G01X0015429Y-010265D01*
G01X0015429Y-010207D01*
G01X0015440Y-010150D01*
G01X0015462Y-010096D01*
G01X0015481Y-010068D01*
G01X0015495Y-010048D01*
G01X0015536Y-010007D01*
G01X0015584Y-009974D01*
G01X0015599Y-009968D01*
G01X0015638Y-009952D01*
G01X0015695Y-009941D01*
G01X0015754Y-009941D01*
G01X0015811Y-009952D01*
G37*
G36*
G01X0006070Y-009495D02*
G01X0006124Y-009518D01*
G01X0006173Y-009550D01*
G01X0006214Y-009591D01*
G01X0006246Y-009639D01*
G01X0006246Y-009639D01*
G01X0006269Y-009693D01*
G01X0006280Y-009750D01*
G01X0006280Y-009809D01*
G01X0006269Y-009866D01*
G01X0006247Y-009918D01*
G01X0006246Y-009920D01*
G01X0006214Y-009968D01*
G01X0006173Y-010009D01*
G01X0006124Y-010042D01*
G01X0006124Y-010042D01*
G01X0006124Y-010042D01*
G01X0006070Y-010064D01*
G01X0006013Y-010075D01*
G01X0005955Y-010075D01*
G01X0005898Y-010064D01*
G01X0005844Y-010042D01*
G01X0005844Y-010042D01*
G01X0005844Y-010042D01*
G01X0005796Y-010009D01*
G01X0005755Y-009968D01*
G01X0005722Y-009920D01*
G01X0005721Y-009918D01*
G01X0005700Y-009866D01*
G01X0005689Y-009809D01*
G01X0005689Y-009750D01*
G01X0005700Y-009693D01*
G01X0005722Y-009639D01*
G01X0005722Y-009639D01*
G01X0005755Y-009591D01*
G01X0005796Y-009550D01*
G01X0005844Y-009518D01*
G01X0005898Y-009495D01*
G01X0005955Y-009484D01*
G01X0006013Y-009484D01*
G01X0006070Y-009495D01*
G37*
G36*
G01X0017074Y-009001D02*
G01X0017137Y-009020D01*
G01X0017195Y-009051D01*
G01X0017246Y-009093D01*
G01X0017288Y-009144D01*
G01X0017288Y-009144D01*
G01X0017319Y-009202D01*
G01X0017338Y-009265D01*
G01X0017343Y-009314D01*
G01X0017343Y-009662D01*
G01X0017338Y-009711D01*
G01X0017319Y-009775D01*
G01X0017301Y-009809D01*
G01X0017288Y-009833D01*
G01X0017246Y-009884D01*
G01X0017195Y-009926D01*
G01X0017195Y-009926D01*
G01X0017137Y-009957D01*
G01X0017074Y-009976D01*
G01X0017008Y-009982D01*
G01X0016942Y-009976D01*
G01X0016879Y-009957D01*
G01X0016821Y-009926D01*
G01X0016821Y-009926D01*
G01X0016770Y-009884D01*
G01X0016728Y-009833D01*
G01X0016715Y-009809D01*
G01X0016697Y-009775D01*
G01X0016678Y-009711D01*
G01X0016673Y-009662D01*
G01X0016673Y-009314D01*
G01X0016678Y-009265D01*
G01X0016697Y-009202D01*
G01X0016728Y-009144D01*
G01X0016770Y-009093D01*
G01X0016779Y-009085D01*
G01X0016821Y-009051D01*
G01X0016827Y-009048D01*
G01X0016879Y-009020D01*
G01X0016942Y-009001D01*
G01X0017008Y-008994D01*
G01X0017074Y-009001D01*
G37*
G36*
G01X0019074Y-009001D02*
G01X0019137Y-009020D01*
G01X0019195Y-009051D01*
G01X0019246Y-009093D01*
G01X0019288Y-009144D01*
G01X0019288Y-009144D01*
G01X0019319Y-009202D01*
G01X0019338Y-009265D01*
G01X0019343Y-009314D01*
G01X0019343Y-009662D01*
G01X0019338Y-009711D01*
G01X0019319Y-009775D01*
G01X0019301Y-009809D01*
G01X0019288Y-009833D01*
G01X0019246Y-009884D01*
G01X0019195Y-009926D01*
G01X0019195Y-009926D01*
G01X0019137Y-009957D01*
G01X0019074Y-009976D01*
G01X0019008Y-009982D01*
G01X0018942Y-009976D01*
G01X0018879Y-009957D01*
G01X0018821Y-009926D01*
G01X0018821Y-009926D01*
G01X0018770Y-009884D01*
G01X0018728Y-009833D01*
G01X0018715Y-009809D01*
G01X0018697Y-009775D01*
G01X0018678Y-009711D01*
G01X0018673Y-009662D01*
G01X0018673Y-009314D01*
G01X0018678Y-009265D01*
G01X0018697Y-009202D01*
G01X0018728Y-009144D01*
G01X0018770Y-009093D01*
G01X0018779Y-009085D01*
G01X0018821Y-009051D01*
G01X0018827Y-009048D01*
G01X0018879Y-009020D01*
G01X0018942Y-009001D01*
G01X0019008Y-008994D01*
G01X0019074Y-009001D01*
G37*
G36*
G01X0020074Y-009001D02*
G01X0020137Y-009020D01*
G01X0020195Y-009051D01*
G01X0020246Y-009093D01*
G01X0020288Y-009144D01*
G01X0020288Y-009144D01*
G01X0020319Y-009202D01*
G01X0020338Y-009265D01*
G01X0020343Y-009314D01*
G01X0020343Y-009662D01*
G01X0020338Y-009711D01*
G01X0020319Y-009775D01*
G01X0020301Y-009809D01*
G01X0020288Y-009833D01*
G01X0020246Y-009884D01*
G01X0020195Y-009926D01*
G01X0020195Y-009926D01*
G01X0020137Y-009957D01*
G01X0020074Y-009976D01*
G01X0020008Y-009982D01*
G01X0019942Y-009976D01*
G01X0019879Y-009957D01*
G01X0019821Y-009926D01*
G01X0019821Y-009926D01*
G01X0019770Y-009884D01*
G01X0019728Y-009833D01*
G01X0019715Y-009809D01*
G01X0019697Y-009775D01*
G01X0019678Y-009711D01*
G01X0019673Y-009662D01*
G01X0019673Y-009314D01*
G01X0019678Y-009265D01*
G01X0019697Y-009202D01*
G01X0019728Y-009144D01*
G01X0019770Y-009093D01*
G01X0019779Y-009085D01*
G01X0019821Y-009051D01*
G01X0019827Y-009048D01*
G01X0019879Y-009020D01*
G01X0019942Y-009001D01*
G01X0020008Y-008994D01*
G01X0020074Y-009001D01*
G37*
G36*
G01X0018074Y-009001D02*
G01X0018137Y-009020D01*
G01X0018195Y-009051D01*
G01X0018246Y-009093D01*
G01X0018288Y-009144D01*
G01X0018288Y-009144D01*
G01X0018319Y-009202D01*
G01X0018338Y-009265D01*
G01X0018343Y-009314D01*
G01X0018343Y-009662D01*
G01X0018338Y-009711D01*
G01X0018319Y-009775D01*
G01X0018301Y-009809D01*
G01X0018288Y-009833D01*
G01X0018246Y-009884D01*
G01X0018195Y-009926D01*
G01X0018195Y-009926D01*
G01X0018137Y-009957D01*
G01X0018074Y-009976D01*
G01X0018008Y-009982D01*
G01X0017942Y-009976D01*
G01X0017879Y-009957D01*
G01X0017821Y-009926D01*
G01X0017821Y-009926D01*
G01X0017770Y-009884D01*
G01X0017728Y-009833D01*
G01X0017715Y-009809D01*
G01X0017697Y-009775D01*
G01X0017678Y-009711D01*
G01X0017673Y-009662D01*
G01X0017673Y-009314D01*
G01X0017678Y-009265D01*
G01X0017697Y-009202D01*
G01X0017728Y-009144D01*
G01X0017770Y-009093D01*
G01X0017779Y-009085D01*
G01X0017821Y-009051D01*
G01X0017827Y-009048D01*
G01X0017879Y-009020D01*
G01X0017942Y-009001D01*
G01X0018008Y-008994D01*
G01X0018074Y-009001D01*
G37*
G36*
G01X0003688Y-008993D02*
G01X0003751Y-009012D01*
G01X0003809Y-009043D01*
G01X0003860Y-009085D01*
G01X0003902Y-009136D01*
G01X0003902Y-009136D01*
G01X0003933Y-009194D01*
G01X0003952Y-009257D01*
G01X0003957Y-009306D01*
G01X0003957Y-009654D01*
G01X0003952Y-009703D01*
G01X0003933Y-009767D01*
G01X0003911Y-009809D01*
G01X0003902Y-009825D01*
G01X0003860Y-009876D01*
G01X0003809Y-009918D01*
G01X0003809Y-009918D01*
G01X0003751Y-009949D01*
G01X0003688Y-009968D01*
G01X0003622Y-009974D01*
G01X0003556Y-009968D01*
G01X0003493Y-009949D01*
G01X0003435Y-009918D01*
G01X0003435Y-009918D01*
G01X0003384Y-009876D01*
G01X0003342Y-009825D01*
G01X0003333Y-009809D01*
G01X0003311Y-009767D01*
G01X0003292Y-009703D01*
G01X0003287Y-009654D01*
G01X0003287Y-009306D01*
G01X0003292Y-009257D01*
G01X0003311Y-009194D01*
G01X0003342Y-009136D01*
G01X0003384Y-009085D01*
G01X0003435Y-009043D01*
G01X0003478Y-009020D01*
G01X0003493Y-009012D01*
G01X0003556Y-008993D01*
G01X0003622Y-008986D01*
G01X0003688Y-008993D01*
G37*
G36*
G01X0001688Y-008993D02*
G01X0001751Y-009012D01*
G01X0001809Y-009043D01*
G01X0001860Y-009085D01*
G01X0001902Y-009136D01*
G01X0001902Y-009136D01*
G01X0001933Y-009194D01*
G01X0001952Y-009257D01*
G01X0001957Y-009306D01*
G01X0001957Y-009654D01*
G01X0001952Y-009703D01*
G01X0001933Y-009767D01*
G01X0001911Y-009809D01*
G01X0001902Y-009825D01*
G01X0001860Y-009876D01*
G01X0001809Y-009918D01*
G01X0001809Y-009918D01*
G01X0001751Y-009949D01*
G01X0001688Y-009968D01*
G01X0001622Y-009974D01*
G01X0001556Y-009968D01*
G01X0001493Y-009949D01*
G01X0001435Y-009918D01*
G01X0001435Y-009918D01*
G01X0001384Y-009876D01*
G01X0001342Y-009825D01*
G01X0001333Y-009809D01*
G01X0001311Y-009767D01*
G01X0001292Y-009703D01*
G01X0001287Y-009654D01*
G01X0001287Y-009306D01*
G01X0001292Y-009257D01*
G01X0001311Y-009194D01*
G01X0001342Y-009136D01*
G01X0001384Y-009085D01*
G01X0001435Y-009043D01*
G01X0001478Y-009020D01*
G01X0001493Y-009012D01*
G01X0001556Y-008993D01*
G01X0001622Y-008986D01*
G01X0001688Y-008993D01*
G37*
G36*
G01X0000688Y-008993D02*
G01X0000751Y-009012D01*
G01X0000809Y-009043D01*
G01X0000860Y-009085D01*
G01X0000902Y-009136D01*
G01X0000902Y-009136D01*
G01X0000933Y-009194D01*
G01X0000952Y-009257D01*
G01X0000957Y-009306D01*
G01X0000957Y-009654D01*
G01X0000952Y-009703D01*
G01X0000933Y-009767D01*
G01X0000911Y-009809D01*
G01X0000902Y-009825D01*
G01X0000860Y-009876D01*
G01X0000809Y-009918D01*
G01X0000809Y-009918D01*
G01X0000751Y-009949D01*
G01X0000688Y-009968D01*
G01X0000622Y-009974D01*
G01X0000556Y-009968D01*
G01X0000493Y-009949D01*
G01X0000435Y-009918D01*
G01X0000435Y-009918D01*
G01X0000384Y-009876D01*
G01X0000342Y-009825D01*
G01X0000333Y-009809D01*
G01X0000311Y-009767D01*
G01X0000292Y-009703D01*
G01X0000287Y-009654D01*
G01X0000287Y-009306D01*
G01X0000292Y-009257D01*
G01X0000311Y-009194D01*
G01X0000342Y-009136D01*
G01X0000384Y-009085D01*
G01X0000435Y-009043D01*
G01X0000478Y-009020D01*
G01X0000493Y-009012D01*
G01X0000556Y-008993D01*
G01X0000622Y-008986D01*
G01X0000688Y-008993D01*
G37*
G36*
G01X0002688Y-008993D02*
G01X0002751Y-009012D01*
G01X0002809Y-009043D01*
G01X0002860Y-009085D01*
G01X0002902Y-009136D01*
G01X0002902Y-009136D01*
G01X0002933Y-009194D01*
G01X0002952Y-009257D01*
G01X0002957Y-009306D01*
G01X0002957Y-009654D01*
G01X0002952Y-009703D01*
G01X0002933Y-009767D01*
G01X0002911Y-009809D01*
G01X0002902Y-009825D01*
G01X0002860Y-009876D01*
G01X0002809Y-009918D01*
G01X0002809Y-009918D01*
G01X0002751Y-009949D01*
G01X0002688Y-009968D01*
G01X0002622Y-009974D01*
G01X0002556Y-009968D01*
G01X0002493Y-009949D01*
G01X0002435Y-009918D01*
G01X0002435Y-009918D01*
G01X0002384Y-009876D01*
G01X0002342Y-009825D01*
G01X0002333Y-009809D01*
G01X0002311Y-009767D01*
G01X0002292Y-009703D01*
G01X0002287Y-009654D01*
G01X0002287Y-009306D01*
G01X0002292Y-009257D01*
G01X0002311Y-009194D01*
G01X0002342Y-009136D01*
G01X0002384Y-009085D01*
G01X0002435Y-009043D01*
G01X0002478Y-009020D01*
G01X0002493Y-009012D01*
G01X0002556Y-008993D01*
G01X0002622Y-008986D01*
G01X0002688Y-008993D01*
G37*
G36*
G01X0004811Y-009306D02*
G01X0004830Y-009314D01*
G01X0004864Y-009329D01*
G01X0004913Y-009361D01*
G01X0004954Y-009402D01*
G01X0004954Y-009402D01*
G01X0004986Y-009450D01*
G01X0005009Y-009504D01*
G01X0005018Y-009550D01*
G01X0005020Y-009561D01*
G01X0005020Y-009620D01*
G01X0005009Y-009677D01*
G01X0004986Y-009731D01*
G01X0004954Y-009779D01*
G01X0004913Y-009820D01*
G01X0004864Y-009853D01*
G01X0004864Y-009853D01*
G01X0004864Y-009853D01*
G01X0004811Y-009875D01*
G01X0004754Y-009886D01*
G01X0004695Y-009886D01*
G01X0004638Y-009875D01*
G01X0004584Y-009853D01*
G01X0004584Y-009853D01*
G01X0004584Y-009853D01*
G01X0004536Y-009820D01*
G01X0004495Y-009779D01*
G01X0004462Y-009731D01*
G01X0004440Y-009677D01*
G01X0004429Y-009620D01*
G01X0004429Y-009561D01*
G01X0004431Y-009550D01*
G01X0004440Y-009504D01*
G01X0004462Y-009450D01*
G01X0004495Y-009402D01*
G01X0004495Y-009402D01*
G01X0004536Y-009361D01*
G01X0004584Y-009329D01*
G01X0004619Y-009314D01*
G01X0004638Y-009306D01*
G01X0004695Y-009295D01*
G01X0004754Y-009295D01*
G01X0004811Y-009306D01*
G37*
G36*
G01X0012690Y-008886D02*
G01X0012748Y-008910D01*
G01X0012748Y-008910D01*
G01X0012799Y-008944D01*
G01X0012843Y-008988D01*
G01X0012877Y-009038D01*
G01X0012878Y-009040D01*
G01X0012902Y-009097D01*
G01X0012914Y-009158D01*
G01X0012914Y-009220D01*
G01X0012902Y-009281D01*
G01X0012888Y-009314D01*
G01X0012878Y-009338D01*
G01X0012843Y-009390D01*
G01X0012799Y-009434D01*
G01X0012748Y-009468D01*
G01X0012748Y-009468D01*
G01X0012748Y-009468D01*
G01X0012690Y-009492D01*
G01X0012629Y-009504D01*
G01X0012567Y-009504D01*
G01X0012506Y-009492D01*
G01X0012449Y-009468D01*
G01X0012449Y-009468D01*
G01X0012449Y-009468D01*
G01X0012397Y-009434D01*
G01X0012353Y-009390D01*
G01X0012319Y-009338D01*
G01X0012309Y-009314D01*
G01X0012295Y-009281D01*
G01X0012283Y-009220D01*
G01X0012283Y-009158D01*
G01X0012295Y-009097D01*
G01X0012319Y-009040D01*
G01X0012320Y-009038D01*
G01X0012353Y-008988D01*
G01X0012397Y-008944D01*
G01X0012449Y-008910D01*
G01X0012449Y-008910D01*
G01X0012506Y-008886D01*
G01X0012567Y-008874D01*
G01X0012629Y-008874D01*
G01X0012690Y-008886D01*
G37*
G36*
G01X0014770Y-008608D02*
G01X0014795Y-008613D01*
G01X0014849Y-008636D01*
G01X0014897Y-008668D01*
G01X0014938Y-008709D01*
G01X0014971Y-008758D01*
G01X0014971Y-008758D01*
G01X0014993Y-008811D01*
G01X0015004Y-008869D01*
G01X0015004Y-008927D01*
G01X0014993Y-008984D01*
G01X0014982Y-009009D01*
G01X0014971Y-009038D01*
G01X0014938Y-009086D01*
G01X0014897Y-009127D01*
G01X0014849Y-009160D01*
G01X0014849Y-009160D01*
G01X0014849Y-009160D01*
G01X0014795Y-009182D01*
G01X0014738Y-009193D01*
G01X0014680Y-009193D01*
G01X0014622Y-009182D01*
G01X0014569Y-009160D01*
G01X0014569Y-009160D01*
G01X0014569Y-009160D01*
G01X0014520Y-009127D01*
G01X0014479Y-009086D01*
G01X0014447Y-009038D01*
G01X0014435Y-009009D01*
G01X0014424Y-008984D01*
G01X0014413Y-008927D01*
G01X0014413Y-008869D01*
G01X0014424Y-008811D01*
G01X0014447Y-008758D01*
G01X0014447Y-008758D01*
G01X0014479Y-008709D01*
G01X0014520Y-008668D01*
G01X0014569Y-008636D01*
G01X0014622Y-008613D01*
G01X0014647Y-008608D01*
G01X0014680Y-008602D01*
G01X0014738Y-008602D01*
G01X0014770Y-008608D01*
G37*
G36*
G01X0015770Y-008608D02*
G01X0015795Y-008613D01*
G01X0015849Y-008636D01*
G01X0015897Y-008668D01*
G01X0015938Y-008709D01*
G01X0015971Y-008758D01*
G01X0015971Y-008758D01*
G01X0015993Y-008811D01*
G01X0016004Y-008869D01*
G01X0016004Y-008927D01*
G01X0015993Y-008984D01*
G01X0015982Y-009009D01*
G01X0015971Y-009038D01*
G01X0015938Y-009086D01*
G01X0015897Y-009127D01*
G01X0015849Y-009160D01*
G01X0015849Y-009160D01*
G01X0015849Y-009160D01*
G01X0015795Y-009182D01*
G01X0015738Y-009193D01*
G01X0015680Y-009193D01*
G01X0015622Y-009182D01*
G01X0015569Y-009160D01*
G01X0015569Y-009160D01*
G01X0015569Y-009160D01*
G01X0015520Y-009127D01*
G01X0015479Y-009086D01*
G01X0015447Y-009038D01*
G01X0015435Y-009009D01*
G01X0015424Y-008984D01*
G01X0015413Y-008927D01*
G01X0015413Y-008869D01*
G01X0015424Y-008811D01*
G01X0015447Y-008758D01*
G01X0015447Y-008758D01*
G01X0015479Y-008709D01*
G01X0015520Y-008668D01*
G01X0015569Y-008636D01*
G01X0015622Y-008613D01*
G01X0015647Y-008608D01*
G01X0015680Y-008602D01*
G01X0015738Y-008602D01*
G01X0015770Y-008608D01*
G37*
G36*
G01X0006070Y-008495D02*
G01X0006112Y-008512D01*
G01X0006124Y-008518D01*
G01X0006173Y-008550D01*
G01X0006214Y-008591D01*
G01X0006246Y-008639D01*
G01X0006246Y-008639D01*
G01X0006269Y-008693D01*
G01X0006280Y-008750D01*
G01X0006280Y-008809D01*
G01X0006269Y-008866D01*
G01X0006250Y-008910D01*
G01X0006246Y-008920D01*
G01X0006214Y-008968D01*
G01X0006173Y-009009D01*
G01X0006124Y-009042D01*
G01X0006124Y-009042D01*
G01X0006124Y-009042D01*
G01X0006070Y-009064D01*
G01X0006013Y-009075D01*
G01X0005955Y-009075D01*
G01X0005898Y-009064D01*
G01X0005844Y-009042D01*
G01X0005844Y-009042D01*
G01X0005844Y-009042D01*
G01X0005796Y-009009D01*
G01X0005755Y-008968D01*
G01X0005722Y-008920D01*
G01X0005718Y-008910D01*
G01X0005700Y-008866D01*
G01X0005689Y-008809D01*
G01X0005689Y-008750D01*
G01X0005700Y-008693D01*
G01X0005722Y-008639D01*
G01X0005722Y-008639D01*
G01X0005755Y-008591D01*
G01X0005796Y-008550D01*
G01X0005844Y-008518D01*
G01X0005857Y-008512D01*
G01X0005898Y-008495D01*
G01X0005955Y-008484D01*
G01X0006013Y-008484D01*
G01X0006070Y-008495D01*
G37*
G36*
G01X0004811Y-008416D02*
G01X0004864Y-008439D01*
G01X0004913Y-008471D01*
G01X0004954Y-008512D01*
G01X0004969Y-008535D01*
G01X0004986Y-008561D01*
G01X0005009Y-008615D01*
G01X0005019Y-008668D01*
G01X0005020Y-008672D01*
G01X0005020Y-008730D01*
G01X0005009Y-008787D01*
G01X0004986Y-008841D01*
G01X0004954Y-008889D01*
G01X0004913Y-008930D01*
G01X0004864Y-008963D01*
G01X0004864Y-008963D01*
G01X0004864Y-008963D01*
G01X0004811Y-008985D01*
G01X0004754Y-008996D01*
G01X0004695Y-008996D01*
G01X0004638Y-008985D01*
G01X0004584Y-008963D01*
G01X0004584Y-008963D01*
G01X0004584Y-008963D01*
G01X0004536Y-008930D01*
G01X0004495Y-008889D01*
G01X0004462Y-008841D01*
G01X0004440Y-008787D01*
G01X0004429Y-008730D01*
G01X0004429Y-008672D01*
G01X0004429Y-008668D01*
G01X0004440Y-008615D01*
G01X0004462Y-008561D01*
G01X0004480Y-008535D01*
G01X0004495Y-008512D01*
G01X0004536Y-008471D01*
G01X0004584Y-008439D01*
G01X0004638Y-008416D01*
G01X0004695Y-008405D01*
G01X0004754Y-008405D01*
G01X0004811Y-008416D01*
G37*
G36*
G01X0019078Y-008062D02*
G01X0019132Y-008084D01*
G01X0019181Y-008117D01*
G01X0019222Y-008158D01*
G01X0019254Y-008206D01*
G01X0019254Y-008206D01*
G01X0019276Y-008260D01*
G01X0019288Y-008317D01*
G01X0019288Y-008376D01*
G01X0019276Y-008433D01*
G01X0019255Y-008484D01*
G01X0019254Y-008487D01*
G01X0019222Y-008535D01*
G01X0019181Y-008576D01*
G01X0019132Y-008608D01*
G01X0019132Y-008608D01*
G01X0019132Y-008608D01*
G01X0019078Y-008631D01*
G01X0019021Y-008642D01*
G01X0018963Y-008642D01*
G01X0018906Y-008631D01*
G01X0018852Y-008608D01*
G01X0018852Y-008608D01*
G01X0018852Y-008608D01*
G01X0018804Y-008576D01*
G01X0018762Y-008535D01*
G01X0018730Y-008487D01*
G01X0018729Y-008484D01*
G01X0018708Y-008433D01*
G01X0018696Y-008376D01*
G01X0018696Y-008317D01*
G01X0018708Y-008260D01*
G01X0018730Y-008206D01*
G01X0018730Y-008206D01*
G01X0018762Y-008158D01*
G01X0018804Y-008117D01*
G01X0018852Y-008084D01*
G01X0018906Y-008062D01*
G01X0018963Y-008051D01*
G01X0019021Y-008051D01*
G01X0019078Y-008062D01*
G37*
G36*
G01X0018078Y-008062D02*
G01X0018132Y-008084D01*
G01X0018181Y-008117D01*
G01X0018222Y-008158D01*
G01X0018254Y-008206D01*
G01X0018254Y-008206D01*
G01X0018276Y-008260D01*
G01X0018288Y-008317D01*
G01X0018288Y-008376D01*
G01X0018276Y-008433D01*
G01X0018255Y-008484D01*
G01X0018254Y-008487D01*
G01X0018222Y-008535D01*
G01X0018181Y-008576D01*
G01X0018132Y-008608D01*
G01X0018132Y-008608D01*
G01X0018132Y-008608D01*
G01X0018078Y-008631D01*
G01X0018021Y-008642D01*
G01X0017963Y-008642D01*
G01X0017906Y-008631D01*
G01X0017852Y-008608D01*
G01X0017852Y-008608D01*
G01X0017852Y-008608D01*
G01X0017804Y-008576D01*
G01X0017762Y-008535D01*
G01X0017730Y-008487D01*
G01X0017729Y-008484D01*
G01X0017708Y-008433D01*
G01X0017696Y-008376D01*
G01X0017696Y-008317D01*
G01X0017708Y-008260D01*
G01X0017730Y-008206D01*
G01X0017730Y-008206D01*
G01X0017762Y-008158D01*
G01X0017804Y-008117D01*
G01X0017852Y-008084D01*
G01X0017906Y-008062D01*
G01X0017963Y-008051D01*
G01X0018021Y-008051D01*
G01X0018078Y-008062D01*
G37*
G36*
G01X0012690Y-007886D02*
G01X0012736Y-007905D01*
G01X0012748Y-007910D01*
G01X0012799Y-007944D01*
G01X0012843Y-007988D01*
G01X0012878Y-008040D01*
G01X0012878Y-008040D01*
G01X0012902Y-008097D01*
G01X0012914Y-008158D01*
G01X0012914Y-008220D01*
G01X0012902Y-008281D01*
G01X0012887Y-008317D01*
G01X0012878Y-008338D01*
G01X0012843Y-008390D01*
G01X0012799Y-008434D01*
G01X0012748Y-008468D01*
G01X0012748Y-008468D01*
G01X0012748Y-008468D01*
G01X0012690Y-008492D01*
G01X0012629Y-008504D01*
G01X0012567Y-008504D01*
G01X0012506Y-008492D01*
G01X0012449Y-008468D01*
G01X0012449Y-008468D01*
G01X0012449Y-008468D01*
G01X0012397Y-008434D01*
G01X0012353Y-008390D01*
G01X0012319Y-008338D01*
G01X0012310Y-008317D01*
G01X0012295Y-008281D01*
G01X0012283Y-008220D01*
G01X0012283Y-008158D01*
G01X0012295Y-008097D01*
G01X0012319Y-008040D01*
G01X0012319Y-008040D01*
G01X0012353Y-007988D01*
G01X0012397Y-007944D01*
G01X0012449Y-007910D01*
G01X0012461Y-007905D01*
G01X0012506Y-007886D01*
G01X0012567Y-007874D01*
G01X0012629Y-007874D01*
G01X0012690Y-007886D01*
G37*
G36*
G01X0011551Y-007905D02*
G01X0011605Y-007927D01*
G01X0011653Y-007959D01*
G01X0011694Y-008000D01*
G01X0011704Y-008015D01*
G01X0011727Y-008049D01*
G01X0011749Y-008103D01*
G01X0011760Y-008160D01*
G01X0011760Y-008218D01*
G01X0011749Y-008275D01*
G01X0011744Y-008287D01*
G01X0011727Y-008329D01*
G01X0011694Y-008377D01*
G01X0011653Y-008419D01*
G01X0011605Y-008451D01*
G01X0011605Y-008451D01*
G01X0011605Y-008451D01*
G01X0011551Y-008473D01*
G01X0011494Y-008485D01*
G01X0011435Y-008485D01*
G01X0011378Y-008473D01*
G01X0011325Y-008451D01*
G01X0011325Y-008451D01*
G01X0011325Y-008451D01*
G01X0011276Y-008419D01*
G01X0011235Y-008377D01*
G01X0011203Y-008329D01*
G01X0011185Y-008287D01*
G01X0011180Y-008275D01*
G01X0011169Y-008218D01*
G01X0011169Y-008160D01*
G01X0011180Y-008103D01*
G01X0011203Y-008049D01*
G01X0011225Y-008015D01*
G01X0011235Y-008000D01*
G01X0011276Y-007959D01*
G01X0011325Y-007927D01*
G01X0011378Y-007905D01*
G01X0011435Y-007893D01*
G01X0011494Y-007893D01*
G01X0011551Y-007905D01*
G37*
G36*
G01X0008551Y-007905D02*
G01X0008605Y-007927D01*
G01X0008653Y-007959D01*
G01X0008694Y-008000D01*
G01X0008704Y-008015D01*
G01X0008727Y-008049D01*
G01X0008749Y-008103D01*
G01X0008760Y-008160D01*
G01X0008760Y-008218D01*
G01X0008749Y-008275D01*
G01X0008744Y-008287D01*
G01X0008727Y-008329D01*
G01X0008694Y-008377D01*
G01X0008653Y-008419D01*
G01X0008605Y-008451D01*
G01X0008605Y-008451D01*
G01X0008605Y-008451D01*
G01X0008551Y-008473D01*
G01X0008494Y-008485D01*
G01X0008435Y-008485D01*
G01X0008378Y-008473D01*
G01X0008325Y-008451D01*
G01X0008325Y-008451D01*
G01X0008325Y-008451D01*
G01X0008276Y-008419D01*
G01X0008235Y-008377D01*
G01X0008203Y-008329D01*
G01X0008185Y-008287D01*
G01X0008180Y-008275D01*
G01X0008169Y-008218D01*
G01X0008169Y-008160D01*
G01X0008180Y-008103D01*
G01X0008203Y-008049D01*
G01X0008225Y-008015D01*
G01X0008235Y-008000D01*
G01X0008276Y-007959D01*
G01X0008325Y-007927D01*
G01X0008378Y-007905D01*
G01X0008435Y-007893D01*
G01X0008494Y-007893D01*
G01X0008551Y-007905D01*
G37*
G36*
G01X0006076Y-007681D02*
G01X0006123Y-007700D01*
G01X0006134Y-007705D01*
G01X0006185Y-007739D01*
G01X0006229Y-007783D01*
G01X0006232Y-007787D01*
G01X0006264Y-007835D01*
G01X0006287Y-007892D01*
G01X0006300Y-007953D01*
G01X0006300Y-008015D01*
G01X0006287Y-008076D01*
G01X0006271Y-008117D01*
G01X0006264Y-008134D01*
G01X0006229Y-008185D01*
G01X0006185Y-008229D01*
G01X0006134Y-008264D01*
G01X0006134Y-008264D01*
G01X0006134Y-008264D01*
G01X0006076Y-008287D01*
G01X0006015Y-008300D01*
G01X0005953Y-008300D01*
G01X0005892Y-008287D01*
G01X0005835Y-008264D01*
G01X0005835Y-008264D01*
G01X0005835Y-008264D01*
G01X0005783Y-008229D01*
G01X0005739Y-008185D01*
G01X0005705Y-008134D01*
G01X0005698Y-008117D01*
G01X0005681Y-008076D01*
G01X0005669Y-008015D01*
G01X0005669Y-007953D01*
G01X0005681Y-007892D01*
G01X0005705Y-007835D01*
G01X0005737Y-007787D01*
G01X0005739Y-007783D01*
G01X0005783Y-007739D01*
G01X0005835Y-007705D01*
G01X0005846Y-007700D01*
G01X0005892Y-007681D01*
G01X0005953Y-007669D01*
G01X0006015Y-007669D01*
G01X0006076Y-007681D01*
G37*
G36*
G01X0004811Y-007416D02*
G01X0004864Y-007439D01*
G01X0004913Y-007471D01*
G01X0004954Y-007512D01*
G01X0004986Y-007561D01*
G01X0004986Y-007561D01*
G01X0005009Y-007615D01*
G01X0005018Y-007661D01*
G01X0005020Y-007672D01*
G01X0005020Y-007730D01*
G01X0005009Y-007787D01*
G01X0004986Y-007841D01*
G01X0004954Y-007889D01*
G01X0004913Y-007930D01*
G01X0004864Y-007963D01*
G01X0004864Y-007963D01*
G01X0004864Y-007963D01*
G01X0004811Y-007985D01*
G01X0004754Y-007996D01*
G01X0004695Y-007996D01*
G01X0004638Y-007985D01*
G01X0004584Y-007963D01*
G01X0004584Y-007963D01*
G01X0004584Y-007963D01*
G01X0004536Y-007930D01*
G01X0004495Y-007889D01*
G01X0004462Y-007841D01*
G01X0004440Y-007787D01*
G01X0004429Y-007730D01*
G01X0004429Y-007672D01*
G01X0004431Y-007661D01*
G01X0004440Y-007615D01*
G01X0004462Y-007561D01*
G01X0004462Y-007561D01*
G01X0004495Y-007512D01*
G01X0004536Y-007471D01*
G01X0004584Y-007439D01*
G01X0004638Y-007416D01*
G01X0004695Y-007405D01*
G01X0004754Y-007405D01*
G01X0004811Y-007416D01*
G37*
G36*
G01X0016457Y-007953D02*
G01X0015748Y-007953D01*
G01X0015748Y-007244D01*
G01X0016457Y-007244D01*
G01X0016457Y-007953D01*
G37*
G36*
G01X0015040Y-007953D02*
G01X0014330Y-007953D01*
G01X0014330Y-007244D01*
G01X0015040Y-007244D01*
G01X0015040Y-007953D01*
G37*
G36*
G01X0000753Y-007033D02*
G01X0000812Y-007045D01*
G01X0000877Y-007071D01*
G01X0000935Y-007110D01*
G01X0000984Y-007160D01*
G01X0001023Y-007218D01*
G01X0001050Y-007282D01*
G01X0001063Y-007351D01*
G01X0001063Y-007421D01*
G01X0001050Y-007489D01*
G01X0001023Y-007554D01*
G01X0000984Y-007612D01*
G01X0000935Y-007661D01*
G01X0000877Y-007700D01*
G01X0000812Y-007727D01*
G01X0000753Y-007739D01*
G01X0000744Y-007741D01*
G01X0000674Y-007741D01*
G01X0000664Y-007739D01*
G01X0000605Y-007727D01*
G01X0000541Y-007700D01*
G01X0000483Y-007661D01*
G01X0000433Y-007612D01*
G01X0000394Y-007554D01*
G01X0000368Y-007489D01*
G01X0000354Y-007421D01*
G01X0000354Y-007351D01*
G01X0000368Y-007282D01*
G01X0000394Y-007218D01*
G01X0000433Y-007160D01*
G01X0000483Y-007110D01*
G01X0000541Y-007071D01*
G01X0000605Y-007045D01*
G01X0000664Y-007033D01*
G01X0000674Y-007031D01*
G01X0000744Y-007031D01*
G01X0000753Y-007033D01*
G37*
G36*
G01X0019031Y-007076D02*
G01X0019039Y-007078D01*
G01X0019093Y-007100D01*
G01X0019141Y-007133D01*
G01X0019182Y-007174D01*
G01X0019215Y-007222D01*
G01X0019215Y-007222D01*
G01X0019237Y-007276D01*
G01X0019248Y-007333D01*
G01X0019248Y-007391D01*
G01X0019237Y-007448D01*
G01X0019220Y-007489D01*
G01X0019215Y-007502D01*
G01X0019182Y-007551D01*
G01X0019141Y-007592D01*
G01X0019093Y-007624D01*
G01X0019093Y-007624D01*
G01X0019093Y-007624D01*
G01X0019039Y-007647D01*
G01X0018982Y-007658D01*
G01X0018924Y-007658D01*
G01X0018867Y-007647D01*
G01X0018813Y-007624D01*
G01X0018813Y-007624D01*
G01X0018813Y-007624D01*
G01X0018764Y-007592D01*
G01X0018723Y-007551D01*
G01X0018691Y-007502D01*
G01X0018685Y-007489D01*
G01X0018668Y-007448D01*
G01X0018657Y-007391D01*
G01X0018657Y-007333D01*
G01X0018668Y-007276D01*
G01X0018691Y-007222D01*
G01X0018691Y-007222D01*
G01X0018723Y-007174D01*
G01X0018764Y-007133D01*
G01X0018813Y-007100D01*
G01X0018867Y-007078D01*
G01X0018875Y-007076D01*
G01X0018924Y-007067D01*
G01X0018982Y-007067D01*
G01X0019031Y-007076D01*
G37*
G36*
G01X0018031Y-007076D02*
G01X0018039Y-007078D01*
G01X0018093Y-007100D01*
G01X0018141Y-007133D01*
G01X0018182Y-007174D01*
G01X0018215Y-007222D01*
G01X0018215Y-007222D01*
G01X0018237Y-007276D01*
G01X0018248Y-007333D01*
G01X0018248Y-007391D01*
G01X0018237Y-007448D01*
G01X0018220Y-007489D01*
G01X0018215Y-007502D01*
G01X0018182Y-007551D01*
G01X0018141Y-007592D01*
G01X0018093Y-007624D01*
G01X0018093Y-007624D01*
G01X0018093Y-007624D01*
G01X0018039Y-007647D01*
G01X0017982Y-007658D01*
G01X0017924Y-007658D01*
G01X0017867Y-007647D01*
G01X0017813Y-007624D01*
G01X0017813Y-007624D01*
G01X0017813Y-007624D01*
G01X0017764Y-007592D01*
G01X0017723Y-007551D01*
G01X0017691Y-007502D01*
G01X0017685Y-007489D01*
G01X0017668Y-007448D01*
G01X0017657Y-007391D01*
G01X0017657Y-007333D01*
G01X0017668Y-007276D01*
G01X0017691Y-007222D01*
G01X0017691Y-007222D01*
G01X0017723Y-007174D01*
G01X0017764Y-007133D01*
G01X0017813Y-007100D01*
G01X0017867Y-007078D01*
G01X0017875Y-007076D01*
G01X0017924Y-007067D01*
G01X0017982Y-007067D01*
G01X0018031Y-007076D01*
G37*
G36*
G01X0010774Y-006646D02*
G01X0010837Y-006665D01*
G01X0010896Y-006696D01*
G01X0010933Y-006727D01*
G01X0010947Y-006738D01*
G01X0010989Y-006789D01*
G01X0010989Y-006789D01*
G01X0011020Y-006848D01*
G01X0011039Y-006911D01*
G01X0011044Y-006960D01*
G01X0011044Y-007308D01*
G01X0011039Y-007357D01*
G01X0011020Y-007420D01*
G01X0011010Y-007439D01*
G01X0010989Y-007478D01*
G01X0010947Y-007529D01*
G01X0010896Y-007571D01*
G01X0010896Y-007571D01*
G01X0010837Y-007602D01*
G01X0010774Y-007622D01*
G01X0010709Y-007628D01*
G01X0010643Y-007622D01*
G01X0010580Y-007602D01*
G01X0010522Y-007571D01*
G01X0010522Y-007571D01*
G01X0010471Y-007529D01*
G01X0010429Y-007478D01*
G01X0010408Y-007439D01*
G01X0010398Y-007420D01*
G01X0010378Y-007357D01*
G01X0010374Y-007308D01*
G01X0010374Y-006960D01*
G01X0010378Y-006911D01*
G01X0010398Y-006848D01*
G01X0010429Y-006789D01*
G01X0010471Y-006738D01*
G01X0010485Y-006727D01*
G01X0010522Y-006696D01*
G01X0010528Y-006693D01*
G01X0010580Y-006665D01*
G01X0010643Y-006646D01*
G01X0010709Y-006640D01*
G01X0010774Y-006646D01*
G37*
G36*
G01X0008774Y-006646D02*
G01X0008837Y-006665D01*
G01X0008896Y-006696D01*
G01X0008933Y-006727D01*
G01X0008947Y-006738D01*
G01X0008989Y-006789D01*
G01X0008989Y-006789D01*
G01X0009020Y-006848D01*
G01X0009039Y-006911D01*
G01X0009044Y-006960D01*
G01X0009044Y-007308D01*
G01X0009039Y-007357D01*
G01X0009020Y-007420D01*
G01X0009010Y-007439D01*
G01X0008989Y-007478D01*
G01X0008947Y-007529D01*
G01X0008896Y-007571D01*
G01X0008896Y-007571D01*
G01X0008837Y-007602D01*
G01X0008774Y-007622D01*
G01X0008709Y-007628D01*
G01X0008643Y-007622D01*
G01X0008580Y-007602D01*
G01X0008522Y-007571D01*
G01X0008522Y-007571D01*
G01X0008471Y-007529D01*
G01X0008429Y-007478D01*
G01X0008408Y-007439D01*
G01X0008398Y-007420D01*
G01X0008378Y-007357D01*
G01X0008374Y-007308D01*
G01X0008374Y-006960D01*
G01X0008378Y-006911D01*
G01X0008398Y-006848D01*
G01X0008429Y-006789D01*
G01X0008471Y-006738D01*
G01X0008485Y-006727D01*
G01X0008522Y-006696D01*
G01X0008528Y-006693D01*
G01X0008580Y-006665D01*
G01X0008643Y-006646D01*
G01X0008709Y-006640D01*
G01X0008774Y-006646D01*
G37*
G36*
G01X0009774Y-006646D02*
G01X0009837Y-006665D01*
G01X0009896Y-006696D01*
G01X0009933Y-006727D01*
G01X0009947Y-006738D01*
G01X0009989Y-006789D01*
G01X0009989Y-006789D01*
G01X0010020Y-006848D01*
G01X0010039Y-006911D01*
G01X0010044Y-006960D01*
G01X0010044Y-007308D01*
G01X0010039Y-007357D01*
G01X0010020Y-007420D01*
G01X0010010Y-007439D01*
G01X0009989Y-007478D01*
G01X0009947Y-007529D01*
G01X0009896Y-007571D01*
G01X0009896Y-007571D01*
G01X0009837Y-007602D01*
G01X0009774Y-007622D01*
G01X0009709Y-007628D01*
G01X0009643Y-007622D01*
G01X0009580Y-007602D01*
G01X0009522Y-007571D01*
G01X0009522Y-007571D01*
G01X0009471Y-007529D01*
G01X0009429Y-007478D01*
G01X0009408Y-007439D01*
G01X0009398Y-007420D01*
G01X0009378Y-007357D01*
G01X0009374Y-007308D01*
G01X0009374Y-006960D01*
G01X0009378Y-006911D01*
G01X0009398Y-006848D01*
G01X0009429Y-006789D01*
G01X0009471Y-006738D01*
G01X0009485Y-006727D01*
G01X0009522Y-006696D01*
G01X0009528Y-006693D01*
G01X0009580Y-006665D01*
G01X0009643Y-006646D01*
G01X0009709Y-006640D01*
G01X0009774Y-006646D01*
G37*
G36*
G01X0008044Y-007626D02*
G01X0007374Y-007626D01*
G01X0007374Y-006641D01*
G01X0008044Y-006641D01*
G01X0008044Y-007626D01*
G37*
G36*
G01X0012914Y-007504D02*
G01X0012283Y-007504D01*
G01X0012283Y-006874D01*
G01X0012914Y-006874D01*
G01X0012914Y-007504D01*
G37*
G36*
G01X0006076Y-006681D02*
G01X0006134Y-006705D01*
G01X0006134Y-006705D01*
G01X0006185Y-006739D01*
G01X0006229Y-006783D01*
G01X0006264Y-006835D01*
G01X0006264Y-006835D01*
G01X0006287Y-006892D01*
G01X0006300Y-006953D01*
G01X0006300Y-007015D01*
G01X0006287Y-007076D01*
G01X0006278Y-007100D01*
G01X0006264Y-007134D01*
G01X0006229Y-007185D01*
G01X0006185Y-007229D01*
G01X0006134Y-007264D01*
G01X0006134Y-007264D01*
G01X0006134Y-007264D01*
G01X0006076Y-007287D01*
G01X0006015Y-007300D01*
G01X0005953Y-007300D01*
G01X0005892Y-007287D01*
G01X0005835Y-007264D01*
G01X0005835Y-007264D01*
G01X0005835Y-007264D01*
G01X0005783Y-007229D01*
G01X0005739Y-007185D01*
G01X0005705Y-007134D01*
G01X0005691Y-007100D01*
G01X0005681Y-007076D01*
G01X0005669Y-007015D01*
G01X0005669Y-006953D01*
G01X0005681Y-006892D01*
G01X0005705Y-006835D01*
G01X0005705Y-006835D01*
G01X0005739Y-006783D01*
G01X0005783Y-006739D01*
G01X0005835Y-006705D01*
G01X0005835Y-006705D01*
G01X0005892Y-006681D01*
G01X0005953Y-006669D01*
G01X0006015Y-006669D01*
G01X0006076Y-006681D01*
G37*
G36*
G01X0004811Y-006605D02*
G01X0004845Y-006620D01*
G01X0004864Y-006628D01*
G01X0004913Y-006660D01*
G01X0004954Y-006701D01*
G01X0004986Y-006750D01*
G01X0005009Y-006804D01*
G01X0005020Y-006861D01*
G01X0005020Y-006919D01*
G01X0005009Y-006976D01*
G01X0004986Y-007030D01*
G01X0004954Y-007078D01*
G01X0004913Y-007119D01*
G01X0004864Y-007152D01*
G01X0004864Y-007152D01*
G01X0004864Y-007152D01*
G01X0004811Y-007174D01*
G01X0004754Y-007185D01*
G01X0004695Y-007185D01*
G01X0004638Y-007174D01*
G01X0004584Y-007152D01*
G01X0004584Y-007152D01*
G01X0004584Y-007152D01*
G01X0004536Y-007119D01*
G01X0004495Y-007078D01*
G01X0004462Y-007030D01*
G01X0004440Y-006976D01*
G01X0004429Y-006919D01*
G01X0004429Y-006861D01*
G01X0004440Y-006804D01*
G01X0004462Y-006750D01*
G01X0004495Y-006701D01*
G01X0004536Y-006660D01*
G01X0004584Y-006628D01*
G01X0004603Y-006620D01*
G01X0004638Y-006605D01*
G01X0004695Y-006594D01*
G01X0004754Y-006594D01*
G01X0004811Y-006605D01*
G37*
G36*
G01X0000753Y-006033D02*
G01X0000812Y-006045D01*
G01X0000877Y-006071D01*
G01X0000935Y-006110D01*
G01X0000984Y-006160D01*
G01X0001023Y-006218D01*
G01X0001050Y-006282D01*
G01X0001063Y-006351D01*
G01X0001063Y-006421D01*
G01X0001050Y-006489D01*
G01X0001023Y-006554D01*
G01X0000984Y-006612D01*
G01X0000935Y-006661D01*
G01X0000877Y-006700D01*
G01X0000812Y-006727D01*
G01X0000755Y-006738D01*
G01X0000744Y-006741D01*
G01X0000674Y-006741D01*
G01X0000663Y-006738D01*
G01X0000605Y-006727D01*
G01X0000541Y-006700D01*
G01X0000483Y-006661D01*
G01X0000433Y-006612D01*
G01X0000394Y-006554D01*
G01X0000368Y-006489D01*
G01X0000354Y-006421D01*
G01X0000354Y-006351D01*
G01X0000368Y-006282D01*
G01X0000394Y-006218D01*
G01X0000433Y-006160D01*
G01X0000483Y-006110D01*
G01X0000541Y-006071D01*
G01X0000605Y-006045D01*
G01X0000664Y-006033D01*
G01X0000674Y-006031D01*
G01X0000744Y-006031D01*
G01X0000753Y-006033D01*
G37*
G36*
G01X0012343Y-006634D02*
G01X0011594Y-006634D01*
G01X0011594Y-005885D01*
G01X0012343Y-005885D01*
G01X0012343Y-006634D01*
G37*
G36*
G01X0013078Y-005900D02*
G01X0013146Y-005928D01*
G01X0013146Y-005928D01*
G01X0013207Y-005969D01*
G01X0013259Y-006021D01*
G01X0013259Y-006021D01*
G01X0013300Y-006082D01*
G01X0013329Y-006151D01*
G01X0013343Y-006223D01*
G01X0013343Y-006297D01*
G01X0013329Y-006369D01*
G01X0013300Y-006437D01*
G01X0013300Y-006437D01*
G01X0013259Y-006499D01*
G01X0013207Y-006551D01*
G01X0013202Y-006554D01*
G01X0013146Y-006592D01*
G01X0013078Y-006620D01*
G01X0013005Y-006634D01*
G01X0012932Y-006634D01*
G01X0012859Y-006620D01*
G01X0012791Y-006592D01*
G01X0012735Y-006554D01*
G01X0012730Y-006551D01*
G01X0012678Y-006499D01*
G01X0012637Y-006437D01*
G01X0012637Y-006437D01*
G01X0012608Y-006369D01*
G01X0012594Y-006297D01*
G01X0012594Y-006223D01*
G01X0012608Y-006151D01*
G01X0012637Y-006082D01*
G01X0012678Y-006021D01*
G01X0012678Y-006021D01*
G01X0012730Y-005969D01*
G01X0012791Y-005928D01*
G01X0012791Y-005928D01*
G01X0012859Y-005900D01*
G01X0012932Y-005885D01*
G01X0013005Y-005885D01*
G01X0013078Y-005900D01*
G37*
G36*
G01X0016457Y-006536D02*
G01X0015748Y-006536D01*
G01X0015748Y-005826D01*
G01X0016457Y-005826D01*
G01X0016457Y-006536D01*
G37*
G36*
G01X0006300Y-006300D02*
G01X0005669Y-006300D01*
G01X0005669Y-005669D01*
G01X0006300Y-005669D01*
G01X0006300Y-006300D01*
G37*
G36*
G01X0004811Y-005605D02*
G01X0004826Y-005612D01*
G01X0004864Y-005628D01*
G01X0004913Y-005660D01*
G01X0004954Y-005701D01*
G01X0004986Y-005750D01*
G01X0005009Y-005804D01*
G01X0005020Y-005861D01*
G01X0005020Y-005919D01*
G01X0005009Y-005976D01*
G01X0004986Y-006030D01*
G01X0004954Y-006078D01*
G01X0004913Y-006119D01*
G01X0004864Y-006152D01*
G01X0004864Y-006152D01*
G01X0004864Y-006152D01*
G01X0004811Y-006174D01*
G01X0004754Y-006185D01*
G01X0004695Y-006185D01*
G01X0004638Y-006174D01*
G01X0004584Y-006152D01*
G01X0004584Y-006152D01*
G01X0004584Y-006152D01*
G01X0004536Y-006119D01*
G01X0004495Y-006078D01*
G01X0004462Y-006030D01*
G01X0004440Y-005976D01*
G01X0004429Y-005919D01*
G01X0004429Y-005861D01*
G01X0004440Y-005804D01*
G01X0004462Y-005750D01*
G01X0004495Y-005701D01*
G01X0004536Y-005660D01*
G01X0004584Y-005628D01*
G01X0004622Y-005612D01*
G01X0004638Y-005605D01*
G01X0004695Y-005594D01*
G01X0004754Y-005594D01*
G01X0004811Y-005605D01*
G37*
G36*
G01X0000753Y-005033D02*
G01X0000812Y-005045D01*
G01X0000877Y-005071D01*
G01X0000935Y-005110D01*
G01X0000984Y-005160D01*
G01X0001023Y-005218D01*
G01X0001050Y-005282D01*
G01X0001063Y-005351D01*
G01X0001063Y-005421D01*
G01X0001050Y-005489D01*
G01X0001023Y-005554D01*
G01X0000984Y-005612D01*
G01X0000935Y-005661D01*
G01X0000877Y-005700D01*
G01X0000812Y-005727D01*
G01X0000753Y-005739D01*
G01X0000744Y-005741D01*
G01X0000674Y-005741D01*
G01X0000664Y-005739D01*
G01X0000605Y-005727D01*
G01X0000541Y-005700D01*
G01X0000483Y-005661D01*
G01X0000433Y-005612D01*
G01X0000394Y-005554D01*
G01X0000368Y-005489D01*
G01X0000354Y-005421D01*
G01X0000354Y-005351D01*
G01X0000368Y-005282D01*
G01X0000394Y-005218D01*
G01X0000433Y-005160D01*
G01X0000483Y-005110D01*
G01X0000541Y-005071D01*
G01X0000605Y-005045D01*
G01X0000664Y-005033D01*
G01X0000674Y-005031D01*
G01X0000744Y-005031D01*
G01X0000753Y-005033D01*
G37*
G36*
G01X0020237Y-005449D02*
G01X0019527Y-005449D01*
G01X0019527Y-004740D01*
G01X0020237Y-004740D01*
G01X0020237Y-005449D01*
G37*
G36*
G01X0004811Y-004810D02*
G01X0004845Y-004825D01*
G01X0004864Y-004832D01*
G01X0004913Y-004865D01*
G01X0004954Y-004906D01*
G01X0004982Y-004947D01*
G01X0004986Y-004954D01*
G01X0005009Y-005008D01*
G01X0005020Y-005065D01*
G01X0005020Y-005124D01*
G01X0005019Y-005131D01*
G01X0005009Y-005181D01*
G01X0004986Y-005235D01*
G01X0004954Y-005283D01*
G01X0004913Y-005324D01*
G01X0004864Y-005357D01*
G01X0004864Y-005357D01*
G01X0004864Y-005357D01*
G01X0004811Y-005379D01*
G01X0004754Y-005390D01*
G01X0004695Y-005390D01*
G01X0004638Y-005379D01*
G01X0004584Y-005357D01*
G01X0004584Y-005357D01*
G01X0004584Y-005357D01*
G01X0004536Y-005324D01*
G01X0004495Y-005283D01*
G01X0004462Y-005235D01*
G01X0004440Y-005181D01*
G01X0004430Y-005131D01*
G01X0004429Y-005124D01*
G01X0004429Y-005065D01*
G01X0004440Y-005008D01*
G01X0004462Y-004954D01*
G01X0004467Y-004947D01*
G01X0004495Y-004906D01*
G01X0004536Y-004865D01*
G01X0004584Y-004832D01*
G01X0004603Y-004825D01*
G01X0004638Y-004810D01*
G01X0004695Y-004799D01*
G01X0004754Y-004799D01*
G01X0004811Y-004810D01*
G37*
G36*
G01X0015126Y-004802D02*
G01X0015175Y-004823D01*
G01X0015179Y-004825D01*
G01X0015228Y-004857D01*
G01X0015269Y-004898D01*
G01X0015274Y-004906D01*
G01X0015301Y-004947D01*
G01X0015324Y-005000D01*
G01X0015335Y-005057D01*
G01X0015335Y-005116D01*
G01X0015324Y-005173D01*
G01X0015305Y-005218D01*
G01X0015301Y-005227D01*
G01X0015269Y-005275D01*
G01X0015228Y-005316D01*
G01X0015179Y-005349D01*
G01X0015179Y-005349D01*
G01X0015179Y-005349D01*
G01X0015126Y-005371D01*
G01X0015068Y-005382D01*
G01X0015010Y-005382D01*
G01X0014953Y-005371D01*
G01X0014899Y-005349D01*
G01X0014899Y-005349D01*
G01X0014899Y-005349D01*
G01X0014851Y-005316D01*
G01X0014810Y-005275D01*
G01X0014777Y-005227D01*
G01X0014774Y-005218D01*
G01X0014755Y-005173D01*
G01X0014744Y-005116D01*
G01X0014744Y-005057D01*
G01X0014755Y-005000D01*
G01X0014777Y-004947D01*
G01X0014804Y-004906D01*
G01X0014810Y-004898D01*
G01X0014851Y-004857D01*
G01X0014899Y-004825D01*
G01X0014904Y-004823D01*
G01X0014953Y-004802D01*
G01X0015010Y-004791D01*
G01X0015068Y-004791D01*
G01X0015126Y-004802D01*
G37*
G36*
G01X0015992Y-004802D02*
G01X0016041Y-004823D01*
G01X0016046Y-004825D01*
G01X0016094Y-004857D01*
G01X0016135Y-004898D01*
G01X0016140Y-004906D01*
G01X0016168Y-004947D01*
G01X0016190Y-005000D01*
G01X0016201Y-005057D01*
G01X0016201Y-005116D01*
G01X0016190Y-005173D01*
G01X0016171Y-005218D01*
G01X0016168Y-005227D01*
G01X0016135Y-005275D01*
G01X0016094Y-005316D01*
G01X0016046Y-005349D01*
G01X0016046Y-005349D01*
G01X0016046Y-005349D01*
G01X0015992Y-005371D01*
G01X0015935Y-005382D01*
G01X0015876Y-005382D01*
G01X0015819Y-005371D01*
G01X0015765Y-005349D01*
G01X0015765Y-005349D01*
G01X0015765Y-005349D01*
G01X0015717Y-005316D01*
G01X0015676Y-005275D01*
G01X0015643Y-005227D01*
G01X0015640Y-005218D01*
G01X0015621Y-005173D01*
G01X0015610Y-005116D01*
G01X0015610Y-005057D01*
G01X0015621Y-005000D01*
G01X0015643Y-004947D01*
G01X0015671Y-004906D01*
G01X0015676Y-004898D01*
G01X0015717Y-004857D01*
G01X0015765Y-004825D01*
G01X0015770Y-004823D01*
G01X0015819Y-004802D01*
G01X0015876Y-004791D01*
G01X0015935Y-004791D01*
G01X0015992Y-004802D01*
G37*
G36*
G01X0014259Y-004802D02*
G01X0014309Y-004823D01*
G01X0014313Y-004825D01*
G01X0014362Y-004857D01*
G01X0014403Y-004898D01*
G01X0014408Y-004906D01*
G01X0014435Y-004947D01*
G01X0014458Y-005000D01*
G01X0014469Y-005057D01*
G01X0014469Y-005116D01*
G01X0014458Y-005173D01*
G01X0014439Y-005218D01*
G01X0014435Y-005227D01*
G01X0014403Y-005275D01*
G01X0014362Y-005316D01*
G01X0014313Y-005349D01*
G01X0014313Y-005349D01*
G01X0014313Y-005349D01*
G01X0014259Y-005371D01*
G01X0014202Y-005382D01*
G01X0014144Y-005382D01*
G01X0014087Y-005371D01*
G01X0014033Y-005349D01*
G01X0014033Y-005349D01*
G01X0014033Y-005349D01*
G01X0013985Y-005316D01*
G01X0013944Y-005275D01*
G01X0013911Y-005227D01*
G01X0013908Y-005218D01*
G01X0013889Y-005173D01*
G01X0013878Y-005116D01*
G01X0013878Y-005057D01*
G01X0013889Y-005000D01*
G01X0013911Y-004947D01*
G01X0013938Y-004906D01*
G01X0013944Y-004898D01*
G01X0013985Y-004857D01*
G01X0014033Y-004825D01*
G01X0014038Y-004823D01*
G01X0014087Y-004802D01*
G01X0014144Y-004791D01*
G01X0014202Y-004791D01*
G01X0014259Y-004802D01*
G37*
G36*
G01X0013078Y-004640D02*
G01X0013146Y-004668D01*
G01X0013146Y-004668D01*
G01X0013207Y-004709D01*
G01X0013259Y-004761D01*
G01X0013259Y-004761D01*
G01X0013300Y-004823D01*
G01X0013329Y-004891D01*
G01X0013343Y-004963D01*
G01X0013343Y-005037D01*
G01X0013329Y-005109D01*
G01X0013300Y-005177D01*
G01X0013293Y-005189D01*
G01X0013259Y-005239D01*
G01X0013207Y-005291D01*
G01X0013176Y-005311D01*
G01X0013146Y-005332D01*
G01X0013078Y-005360D01*
G01X0013005Y-005374D01*
G01X0012932Y-005374D01*
G01X0012859Y-005360D01*
G01X0012791Y-005332D01*
G01X0012761Y-005311D01*
G01X0012730Y-005291D01*
G01X0012678Y-005239D01*
G01X0012644Y-005189D01*
G01X0012637Y-005177D01*
G01X0012608Y-005109D01*
G01X0012594Y-005037D01*
G01X0012594Y-004963D01*
G01X0012608Y-004891D01*
G01X0012637Y-004823D01*
G01X0012678Y-004761D01*
G01X0012678Y-004761D01*
G01X0012730Y-004709D01*
G01X0012791Y-004668D01*
G01X0012791Y-004668D01*
G01X0012859Y-004640D01*
G01X0012932Y-004626D01*
G01X0013005Y-004626D01*
G01X0013078Y-004640D01*
G37*
G36*
G01X0012343Y-005374D02*
G01X0011594Y-005374D01*
G01X0011594Y-004626D01*
G01X0012343Y-004626D01*
G01X0012343Y-005374D01*
G37*
G36*
G01X0006076Y-004736D02*
G01X0006134Y-004760D01*
G01X0006134Y-004760D01*
G01X0006185Y-004794D01*
G01X0006229Y-004838D01*
G01X0006264Y-004890D01*
G01X0006264Y-004890D01*
G01X0006287Y-004947D01*
G01X0006300Y-005008D01*
G01X0006300Y-005070D01*
G01X0006287Y-005131D01*
G01X0006268Y-005177D01*
G01X0006264Y-005189D01*
G01X0006229Y-005240D01*
G01X0006185Y-005284D01*
G01X0006134Y-005319D01*
G01X0006134Y-005319D01*
G01X0006134Y-005319D01*
G01X0006076Y-005343D01*
G01X0006015Y-005355D01*
G01X0005953Y-005355D01*
G01X0005892Y-005343D01*
G01X0005835Y-005319D01*
G01X0005835Y-005319D01*
G01X0005835Y-005319D01*
G01X0005783Y-005284D01*
G01X0005739Y-005240D01*
G01X0005705Y-005189D01*
G01X0005700Y-005177D01*
G01X0005681Y-005131D01*
G01X0005669Y-005070D01*
G01X0005669Y-005008D01*
G01X0005681Y-004947D01*
G01X0005705Y-004890D01*
G01X0005705Y-004890D01*
G01X0005739Y-004838D01*
G01X0005783Y-004794D01*
G01X0005835Y-004760D01*
G01X0005835Y-004760D01*
G01X0005892Y-004736D01*
G01X0005953Y-004724D01*
G01X0006015Y-004724D01*
G01X0006076Y-004736D01*
G37*
G36*
G01X0000753Y-004033D02*
G01X0000812Y-004045D01*
G01X0000877Y-004071D01*
G01X0000935Y-004110D01*
G01X0000984Y-004160D01*
G01X0001023Y-004218D01*
G01X0001050Y-004282D01*
G01X0001063Y-004351D01*
G01X0001063Y-004421D01*
G01X0001050Y-004489D01*
G01X0001023Y-004554D01*
G01X0000984Y-004612D01*
G01X0000935Y-004661D01*
G01X0000877Y-004700D01*
G01X0000812Y-004727D01*
G01X0000753Y-004739D01*
G01X0000744Y-004741D01*
G01X0000674Y-004741D01*
G01X0000664Y-004739D01*
G01X0000605Y-004727D01*
G01X0000541Y-004700D01*
G01X0000483Y-004661D01*
G01X0000433Y-004612D01*
G01X0000394Y-004554D01*
G01X0000368Y-004489D01*
G01X0000354Y-004421D01*
G01X0000354Y-004351D01*
G01X0000368Y-004282D01*
G01X0000394Y-004218D01*
G01X0000433Y-004160D01*
G01X0000483Y-004110D01*
G01X0000541Y-004071D01*
G01X0000605Y-004045D01*
G01X0000664Y-004033D01*
G01X0000674Y-004031D01*
G01X0000744Y-004031D01*
G01X0000753Y-004033D01*
G37*
G36*
G01X0008774Y-003646D02*
G01X0008837Y-003665D01*
G01X0008896Y-003696D01*
G01X0008941Y-003734D01*
G01X0008947Y-003738D01*
G01X0008989Y-003789D01*
G01X0008989Y-003789D01*
G01X0009020Y-003848D01*
G01X0009039Y-003911D01*
G01X0009044Y-003960D01*
G01X0009044Y-004308D01*
G01X0009039Y-004357D01*
G01X0009020Y-004420D01*
G01X0009019Y-004421D01*
G01X0008989Y-004478D01*
G01X0008947Y-004529D01*
G01X0008896Y-004571D01*
G01X0008896Y-004571D01*
G01X0008837Y-004602D01*
G01X0008774Y-004622D01*
G01X0008709Y-004628D01*
G01X0008643Y-004622D01*
G01X0008580Y-004602D01*
G01X0008522Y-004571D01*
G01X0008522Y-004571D01*
G01X0008471Y-004529D01*
G01X0008429Y-004478D01*
G01X0008398Y-004421D01*
G01X0008398Y-004420D01*
G01X0008378Y-004357D01*
G01X0008374Y-004308D01*
G01X0008374Y-003960D01*
G01X0008378Y-003911D01*
G01X0008398Y-003848D01*
G01X0008429Y-003789D01*
G01X0008471Y-003738D01*
G01X0008476Y-003734D01*
G01X0008522Y-003696D01*
G01X0008529Y-003692D01*
G01X0008580Y-003665D01*
G01X0008643Y-003646D01*
G01X0008709Y-003640D01*
G01X0008774Y-003646D01*
G37*
G36*
G01X0007774Y-003646D02*
G01X0007837Y-003665D01*
G01X0007896Y-003696D01*
G01X0007941Y-003734D01*
G01X0007947Y-003738D01*
G01X0007989Y-003789D01*
G01X0007989Y-003789D01*
G01X0008020Y-003848D01*
G01X0008039Y-003911D01*
G01X0008044Y-003960D01*
G01X0008044Y-004308D01*
G01X0008039Y-004357D01*
G01X0008020Y-004420D01*
G01X0008019Y-004421D01*
G01X0007989Y-004478D01*
G01X0007947Y-004529D01*
G01X0007896Y-004571D01*
G01X0007896Y-004571D01*
G01X0007837Y-004602D01*
G01X0007774Y-004622D01*
G01X0007709Y-004628D01*
G01X0007643Y-004622D01*
G01X0007580Y-004602D01*
G01X0007522Y-004571D01*
G01X0007522Y-004571D01*
G01X0007471Y-004529D01*
G01X0007429Y-004478D01*
G01X0007398Y-004421D01*
G01X0007398Y-004420D01*
G01X0007378Y-004357D01*
G01X0007374Y-004308D01*
G01X0007374Y-003960D01*
G01X0007378Y-003911D01*
G01X0007398Y-003848D01*
G01X0007429Y-003789D01*
G01X0007471Y-003738D01*
G01X0007476Y-003734D01*
G01X0007522Y-003696D01*
G01X0007529Y-003692D01*
G01X0007580Y-003665D01*
G01X0007643Y-003646D01*
G01X0007709Y-003640D01*
G01X0007774Y-003646D01*
G37*
G36*
G01X0009774Y-003646D02*
G01X0009837Y-003665D01*
G01X0009896Y-003696D01*
G01X0009941Y-003734D01*
G01X0009947Y-003738D01*
G01X0009989Y-003789D01*
G01X0009989Y-003789D01*
G01X0010020Y-003848D01*
G01X0010039Y-003911D01*
G01X0010044Y-003960D01*
G01X0010044Y-004308D01*
G01X0010039Y-004357D01*
G01X0010020Y-004420D01*
G01X0010019Y-004421D01*
G01X0009989Y-004478D01*
G01X0009947Y-004529D01*
G01X0009896Y-004571D01*
G01X0009896Y-004571D01*
G01X0009837Y-004602D01*
G01X0009774Y-004622D01*
G01X0009709Y-004628D01*
G01X0009643Y-004622D01*
G01X0009580Y-004602D01*
G01X0009522Y-004571D01*
G01X0009522Y-004571D01*
G01X0009471Y-004529D01*
G01X0009429Y-004478D01*
G01X0009398Y-004421D01*
G01X0009398Y-004420D01*
G01X0009378Y-004357D01*
G01X0009374Y-004308D01*
G01X0009374Y-003960D01*
G01X0009378Y-003911D01*
G01X0009398Y-003848D01*
G01X0009429Y-003789D01*
G01X0009471Y-003738D01*
G01X0009476Y-003734D01*
G01X0009522Y-003696D01*
G01X0009529Y-003692D01*
G01X0009580Y-003665D01*
G01X0009643Y-003646D01*
G01X0009709Y-003640D01*
G01X0009774Y-003646D01*
G37*
G36*
G01X0010774Y-003646D02*
G01X0010837Y-003665D01*
G01X0010896Y-003696D01*
G01X0010941Y-003734D01*
G01X0010947Y-003738D01*
G01X0010989Y-003789D01*
G01X0010989Y-003789D01*
G01X0011020Y-003848D01*
G01X0011039Y-003911D01*
G01X0011044Y-003960D01*
G01X0011044Y-004308D01*
G01X0011039Y-004357D01*
G01X0011020Y-004420D01*
G01X0011019Y-004421D01*
G01X0010989Y-004478D01*
G01X0010947Y-004529D01*
G01X0010896Y-004571D01*
G01X0010896Y-004571D01*
G01X0010837Y-004602D01*
G01X0010774Y-004622D01*
G01X0010709Y-004628D01*
G01X0010643Y-004622D01*
G01X0010580Y-004602D01*
G01X0010522Y-004571D01*
G01X0010522Y-004571D01*
G01X0010471Y-004529D01*
G01X0010429Y-004478D01*
G01X0010398Y-004421D01*
G01X0010398Y-004420D01*
G01X0010378Y-004357D01*
G01X0010374Y-004308D01*
G01X0010374Y-003960D01*
G01X0010378Y-003911D01*
G01X0010398Y-003848D01*
G01X0010429Y-003789D01*
G01X0010471Y-003738D01*
G01X0010476Y-003734D01*
G01X0010522Y-003696D01*
G01X0010529Y-003692D01*
G01X0010580Y-003665D01*
G01X0010643Y-003646D01*
G01X0010709Y-003640D01*
G01X0010774Y-003646D01*
G37*
G36*
G01X0019927Y-003742D02*
G01X0019985Y-003753D01*
G01X0020050Y-003780D01*
G01X0020108Y-003819D01*
G01X0020157Y-003868D01*
G01X0020196Y-003926D01*
G01X0020223Y-003991D01*
G01X0020237Y-004060D01*
G01X0020237Y-004129D01*
G01X0020223Y-004198D01*
G01X0020196Y-004263D01*
G01X0020157Y-004321D01*
G01X0020108Y-004370D01*
G01X0020050Y-004409D01*
G01X0019985Y-004436D01*
G01X0019927Y-004447D01*
G01X0019917Y-004449D01*
G01X0019847Y-004449D01*
G01X0019837Y-004447D01*
G01X0019778Y-004436D01*
G01X0019714Y-004409D01*
G01X0019656Y-004370D01*
G01X0019606Y-004321D01*
G01X0019568Y-004263D01*
G01X0019541Y-004198D01*
G01X0019527Y-004129D01*
G01X0019527Y-004060D01*
G01X0019541Y-003991D01*
G01X0019568Y-003926D01*
G01X0019606Y-003868D01*
G01X0019656Y-003819D01*
G01X0019714Y-003780D01*
G01X0019778Y-003753D01*
G01X0019837Y-003742D01*
G01X0019847Y-003740D01*
G01X0019917Y-003740D01*
G01X0019927Y-003742D01*
G37*
G36*
G01X0013229Y-004426D02*
G01X0012598Y-004426D01*
G01X0012598Y-003795D01*
G01X0013229Y-003795D01*
G01X0013229Y-004426D01*
G37*
G36*
G01X0004811Y-003810D02*
G01X0004832Y-003819D01*
G01X0004864Y-003832D01*
G01X0004913Y-003865D01*
G01X0004954Y-003906D01*
G01X0004968Y-003926D01*
G01X0004986Y-003954D01*
G01X0005009Y-004008D01*
G01X0005020Y-004065D01*
G01X0005020Y-004124D01*
G01X0005019Y-004131D01*
G01X0005009Y-004181D01*
G01X0004986Y-004235D01*
G01X0004954Y-004283D01*
G01X0004913Y-004324D01*
G01X0004864Y-004357D01*
G01X0004864Y-004357D01*
G01X0004864Y-004357D01*
G01X0004811Y-004379D01*
G01X0004754Y-004390D01*
G01X0004695Y-004390D01*
G01X0004638Y-004379D01*
G01X0004584Y-004357D01*
G01X0004584Y-004357D01*
G01X0004584Y-004357D01*
G01X0004536Y-004324D01*
G01X0004495Y-004283D01*
G01X0004462Y-004235D01*
G01X0004440Y-004181D01*
G01X0004430Y-004131D01*
G01X0004429Y-004124D01*
G01X0004429Y-004065D01*
G01X0004440Y-004008D01*
G01X0004462Y-003954D01*
G01X0004481Y-003926D01*
G01X0004495Y-003906D01*
G01X0004536Y-003865D01*
G01X0004584Y-003832D01*
G01X0004617Y-003819D01*
G01X0004638Y-003810D01*
G01X0004695Y-003799D01*
G01X0004754Y-003799D01*
G01X0004811Y-003810D01*
G37*
G36*
G01X0006076Y-003736D02*
G01X0006118Y-003753D01*
G01X0006134Y-003760D01*
G01X0006185Y-003794D01*
G01X0006229Y-003838D01*
G01X0006264Y-003890D01*
G01X0006264Y-003890D01*
G01X0006287Y-003947D01*
G01X0006300Y-004008D01*
G01X0006300Y-004070D01*
G01X0006287Y-004131D01*
G01X0006276Y-004160D01*
G01X0006264Y-004189D01*
G01X0006229Y-004240D01*
G01X0006185Y-004284D01*
G01X0006134Y-004319D01*
G01X0006134Y-004319D01*
G01X0006134Y-004319D01*
G01X0006076Y-004343D01*
G01X0006015Y-004355D01*
G01X0005953Y-004355D01*
G01X0005892Y-004343D01*
G01X0005835Y-004319D01*
G01X0005835Y-004319D01*
G01X0005835Y-004319D01*
G01X0005783Y-004284D01*
G01X0005739Y-004240D01*
G01X0005705Y-004189D01*
G01X0005693Y-004160D01*
G01X0005681Y-004131D01*
G01X0005669Y-004070D01*
G01X0005669Y-004008D01*
G01X0005681Y-003947D01*
G01X0005705Y-003890D01*
G01X0005705Y-003890D01*
G01X0005739Y-003838D01*
G01X0005783Y-003794D01*
G01X0005835Y-003760D01*
G01X0005851Y-003753D01*
G01X0005892Y-003736D01*
G01X0005953Y-003724D01*
G01X0006015Y-003724D01*
G01X0006076Y-003736D01*
G37*
G36*
G01X0002724Y-003220D02*
G01X0002778Y-003242D01*
G01X0002826Y-003274D01*
G01X0002867Y-003315D01*
G01X0002894Y-003355D01*
G01X0002900Y-003364D01*
G01X0002922Y-003418D01*
G01X0002933Y-003472D01*
G01X0002933Y-003475D01*
G01X0002933Y-003533D01*
G01X0002922Y-003590D01*
G01X0002900Y-003644D01*
G01X0002867Y-003692D01*
G01X0002826Y-003734D01*
G01X0002778Y-003766D01*
G01X0002778Y-003766D01*
G01X0002778Y-003766D01*
G01X0002724Y-003788D01*
G01X0002667Y-003800D01*
G01X0002609Y-003800D01*
G01X0002552Y-003788D01*
G01X0002498Y-003766D01*
G01X0002498Y-003766D01*
G01X0002498Y-003766D01*
G01X0002449Y-003734D01*
G01X0002408Y-003692D01*
G01X0002376Y-003644D01*
G01X0002353Y-003590D01*
G01X0002342Y-003533D01*
G01X0002342Y-003475D01*
G01X0002343Y-003472D01*
G01X0002353Y-003418D01*
G01X0002376Y-003364D01*
G01X0002382Y-003355D01*
G01X0002408Y-003315D01*
G01X0002449Y-003274D01*
G01X0002498Y-003242D01*
G01X0002552Y-003220D01*
G01X0002609Y-003208D01*
G01X0002667Y-003208D01*
G01X0002724Y-003220D01*
G37*
G36*
G01X0001063Y-003741D02*
G01X0000354Y-003741D01*
G01X0000354Y-003031D01*
G01X0001063Y-003031D01*
G01X0001063Y-003741D01*
G37*
G36*
G01X0004811Y-002999D02*
G01X0004864Y-003021D01*
G01X0004913Y-003054D01*
G01X0004954Y-003095D01*
G01X0004986Y-003143D01*
G01X0004986Y-003143D01*
G01X0005009Y-003197D01*
G01X0005020Y-003254D01*
G01X0005020Y-003313D01*
G01X0005020Y-003315D01*
G01X0005009Y-003370D01*
G01X0004986Y-003424D01*
G01X0004954Y-003472D01*
G01X0004913Y-003513D01*
G01X0004864Y-003545D01*
G01X0004864Y-003545D01*
G01X0004864Y-003545D01*
G01X0004811Y-003568D01*
G01X0004754Y-003579D01*
G01X0004695Y-003579D01*
G01X0004638Y-003568D01*
G01X0004584Y-003545D01*
G01X0004584Y-003545D01*
G01X0004584Y-003545D01*
G01X0004536Y-003513D01*
G01X0004495Y-003472D01*
G01X0004462Y-003424D01*
G01X0004440Y-003370D01*
G01X0004429Y-003315D01*
G01X0004429Y-003313D01*
G01X0004429Y-003254D01*
G01X0004440Y-003197D01*
G01X0004462Y-003143D01*
G01X0004462Y-003143D01*
G01X0004495Y-003095D01*
G01X0004536Y-003054D01*
G01X0004584Y-003021D01*
G01X0004638Y-002999D01*
G01X0004695Y-002988D01*
G01X0004754Y-002988D01*
G01X0004811Y-002999D01*
G37*
G36*
G01X0013005Y-002807D02*
G01X0013051Y-002826D01*
G01X0013063Y-002831D01*
G01X0013114Y-002865D01*
G01X0013158Y-002909D01*
G01X0013193Y-002961D01*
G01X0013193Y-002961D01*
G01X0013217Y-003018D01*
G01X0013229Y-003079D01*
G01X0013229Y-003141D01*
G01X0013217Y-003202D01*
G01X0013193Y-003260D01*
G01X0013193Y-003260D01*
G01X0013158Y-003311D01*
G01X0013114Y-003355D01*
G01X0013063Y-003390D01*
G01X0013063Y-003390D01*
G01X0013063Y-003390D01*
G01X0013005Y-003413D01*
G01X0012944Y-003426D01*
G01X0012882Y-003426D01*
G01X0012821Y-003413D01*
G01X0012764Y-003390D01*
G01X0012764Y-003390D01*
G01X0012764Y-003390D01*
G01X0012712Y-003355D01*
G01X0012668Y-003311D01*
G01X0012634Y-003260D01*
G01X0012634Y-003260D01*
G01X0012610Y-003202D01*
G01X0012598Y-003141D01*
G01X0012598Y-003079D01*
G01X0012610Y-003018D01*
G01X0012634Y-002961D01*
G01X0012634Y-002961D01*
G01X0012668Y-002909D01*
G01X0012712Y-002865D01*
G01X0012764Y-002831D01*
G01X0012776Y-002826D01*
G01X0012821Y-002807D01*
G01X0012882Y-002795D01*
G01X0012944Y-002795D01*
G01X0013005Y-002807D01*
G37*
G36*
G01X0011551Y-002826D02*
G01X0011605Y-002848D01*
G01X0011653Y-002881D01*
G01X0011694Y-002922D01*
G01X0011694Y-002922D01*
G01X0011727Y-002970D01*
G01X0011749Y-003024D01*
G01X0011760Y-003081D01*
G01X0011760Y-003139D01*
G01X0011760Y-003141D01*
G01X0011749Y-003196D01*
G01X0011727Y-003250D01*
G01X0011694Y-003299D01*
G01X0011653Y-003340D01*
G01X0011605Y-003372D01*
G01X0011605Y-003372D01*
G01X0011605Y-003372D01*
G01X0011551Y-003395D01*
G01X0011494Y-003406D01*
G01X0011435Y-003406D01*
G01X0011378Y-003395D01*
G01X0011325Y-003372D01*
G01X0011325Y-003372D01*
G01X0011325Y-003372D01*
G01X0011276Y-003340D01*
G01X0011235Y-003299D01*
G01X0011203Y-003250D01*
G01X0011180Y-003196D01*
G01X0011169Y-003141D01*
G01X0011169Y-003139D01*
G01X0011169Y-003081D01*
G01X0011180Y-003024D01*
G01X0011203Y-002970D01*
G01X0011235Y-002922D01*
G01X0011235Y-002922D01*
G01X0011276Y-002881D01*
G01X0011325Y-002848D01*
G01X0011378Y-002826D01*
G01X0011435Y-002815D01*
G01X0011494Y-002815D01*
G01X0011551Y-002826D01*
G37*
G36*
G01X0008551Y-002826D02*
G01X0008605Y-002848D01*
G01X0008653Y-002881D01*
G01X0008694Y-002922D01*
G01X0008694Y-002922D01*
G01X0008727Y-002970D01*
G01X0008749Y-003024D01*
G01X0008760Y-003081D01*
G01X0008760Y-003139D01*
G01X0008760Y-003141D01*
G01X0008749Y-003196D01*
G01X0008727Y-003250D01*
G01X0008694Y-003299D01*
G01X0008653Y-003340D01*
G01X0008605Y-003372D01*
G01X0008605Y-003372D01*
G01X0008605Y-003372D01*
G01X0008551Y-003395D01*
G01X0008494Y-003406D01*
G01X0008435Y-003406D01*
G01X0008378Y-003395D01*
G01X0008325Y-003372D01*
G01X0008325Y-003372D01*
G01X0008325Y-003372D01*
G01X0008276Y-003340D01*
G01X0008235Y-003299D01*
G01X0008203Y-003250D01*
G01X0008180Y-003196D01*
G01X0008169Y-003141D01*
G01X0008169Y-003139D01*
G01X0008169Y-003081D01*
G01X0008180Y-003024D01*
G01X0008203Y-002970D01*
G01X0008235Y-002922D01*
G01X0008235Y-002922D01*
G01X0008276Y-002881D01*
G01X0008325Y-002848D01*
G01X0008378Y-002826D01*
G01X0008435Y-002815D01*
G01X0008494Y-002815D01*
G01X0008551Y-002826D01*
G37*
G36*
G01X0006300Y-003355D02*
G01X0005669Y-003355D01*
G01X0005669Y-002724D01*
G01X0006300Y-002724D01*
G01X0006300Y-003355D01*
G37*
G36*
G01X0002724Y-002220D02*
G01X0002778Y-002242D01*
G01X0002826Y-002274D01*
G01X0002867Y-002315D01*
G01X0002890Y-002349D01*
G01X0002900Y-002364D01*
G01X0002922Y-002418D01*
G01X0002933Y-002474D01*
G01X0002933Y-002475D01*
G01X0002933Y-002533D01*
G01X0002922Y-002590D01*
G01X0002900Y-002644D01*
G01X0002867Y-002692D01*
G01X0002826Y-002734D01*
G01X0002778Y-002766D01*
G01X0002778Y-002766D01*
G01X0002778Y-002766D01*
G01X0002724Y-002788D01*
G01X0002667Y-002800D01*
G01X0002609Y-002800D01*
G01X0002552Y-002788D01*
G01X0002498Y-002766D01*
G01X0002498Y-002766D01*
G01X0002498Y-002766D01*
G01X0002449Y-002734D01*
G01X0002408Y-002692D01*
G01X0002376Y-002644D01*
G01X0002353Y-002590D01*
G01X0002342Y-002533D01*
G01X0002342Y-002475D01*
G01X0002342Y-002474D01*
G01X0002353Y-002418D01*
G01X0002376Y-002364D01*
G01X0002386Y-002349D01*
G01X0002408Y-002315D01*
G01X0002449Y-002274D01*
G01X0002498Y-002242D01*
G01X0002552Y-002220D01*
G01X0002609Y-002208D01*
G01X0002667Y-002208D01*
G01X0002724Y-002220D01*
G37*
G36*
G01X0004811Y-001999D02*
G01X0004864Y-002021D01*
G01X0004913Y-002054D01*
G01X0004954Y-002095D01*
G01X0004986Y-002143D01*
G01X0004986Y-002143D01*
G01X0005009Y-002197D01*
G01X0005020Y-002254D01*
G01X0005020Y-002313D01*
G01X0005009Y-002370D01*
G01X0005003Y-002384D01*
G01X0004986Y-002424D01*
G01X0004954Y-002472D01*
G01X0004913Y-002513D01*
G01X0004864Y-002545D01*
G01X0004864Y-002545D01*
G01X0004864Y-002545D01*
G01X0004811Y-002568D01*
G01X0004754Y-002579D01*
G01X0004695Y-002579D01*
G01X0004638Y-002568D01*
G01X0004584Y-002545D01*
G01X0004584Y-002545D01*
G01X0004584Y-002545D01*
G01X0004536Y-002513D01*
G01X0004495Y-002472D01*
G01X0004462Y-002424D01*
G01X0004446Y-002384D01*
G01X0004440Y-002370D01*
G01X0004429Y-002313D01*
G01X0004429Y-002254D01*
G01X0004440Y-002197D01*
G01X0004462Y-002143D01*
G01X0004462Y-002143D01*
G01X0004495Y-002095D01*
G01X0004536Y-002054D01*
G01X0004584Y-002021D01*
G01X0004638Y-001999D01*
G01X0004695Y-001988D01*
G01X0004754Y-001988D01*
G01X0004811Y-001999D01*
G37*
G36*
G01X0006070Y-001960D02*
G01X0006124Y-001982D01*
G01X0006173Y-002014D01*
G01X0006214Y-002056D01*
G01X0006240Y-002095D01*
G01X0006246Y-002104D01*
G01X0006269Y-002158D01*
G01X0006280Y-002215D01*
G01X0006280Y-002273D01*
G01X0006280Y-002275D01*
G01X0006269Y-002330D01*
G01X0006246Y-002384D01*
G01X0006214Y-002433D01*
G01X0006173Y-002474D01*
G01X0006124Y-002506D01*
G01X0006124Y-002506D01*
G01X0006124Y-002506D01*
G01X0006070Y-002528D01*
G01X0006013Y-002540D01*
G01X0005955Y-002540D01*
G01X0005898Y-002528D01*
G01X0005844Y-002506D01*
G01X0005844Y-002506D01*
G01X0005844Y-002506D01*
G01X0005796Y-002474D01*
G01X0005755Y-002433D01*
G01X0005722Y-002384D01*
G01X0005700Y-002330D01*
G01X0005689Y-002275D01*
G01X0005689Y-002273D01*
G01X0005689Y-002215D01*
G01X0005700Y-002158D01*
G01X0005722Y-002104D01*
G01X0005728Y-002095D01*
G01X0005755Y-002056D01*
G01X0005796Y-002014D01*
G01X0005844Y-001982D01*
G01X0005898Y-001960D01*
G01X0005955Y-001948D01*
G01X0006013Y-001948D01*
G01X0006070Y-001960D01*
G37*
G36*
G01X0013005Y-001807D02*
G01X0013063Y-001831D01*
G01X0013063Y-001831D01*
G01X0013114Y-001865D01*
G01X0013158Y-001909D01*
G01X0013192Y-001960D01*
G01X0013193Y-001961D01*
G01X0013217Y-002018D01*
G01X0013229Y-002079D01*
G01X0013229Y-002141D01*
G01X0013217Y-002202D01*
G01X0013193Y-002260D01*
G01X0013193Y-002260D01*
G01X0013158Y-002311D01*
G01X0013114Y-002355D01*
G01X0013063Y-002390D01*
G01X0013063Y-002390D01*
G01X0013063Y-002390D01*
G01X0013005Y-002413D01*
G01X0012944Y-002426D01*
G01X0012882Y-002426D01*
G01X0012821Y-002413D01*
G01X0012764Y-002390D01*
G01X0012764Y-002390D01*
G01X0012764Y-002390D01*
G01X0012712Y-002355D01*
G01X0012668Y-002311D01*
G01X0012634Y-002260D01*
G01X0012634Y-002260D01*
G01X0012610Y-002202D01*
G01X0012598Y-002141D01*
G01X0012598Y-002079D01*
G01X0012610Y-002018D01*
G01X0012634Y-001961D01*
G01X0012635Y-001960D01*
G01X0012668Y-001909D01*
G01X0012712Y-001865D01*
G01X0012764Y-001831D01*
G01X0012764Y-001831D01*
G01X0012821Y-001807D01*
G01X0012882Y-001795D01*
G01X0012944Y-001795D01*
G01X0013005Y-001807D01*
G37*
G36*
G01X0015120Y-001801D02*
G01X0015126Y-001802D01*
G01X0015179Y-001825D01*
G01X0015228Y-001857D01*
G01X0015269Y-001898D01*
G01X0015293Y-001933D01*
G01X0015301Y-001947D01*
G01X0015324Y-002000D01*
G01X0015334Y-002054D01*
G01X0015335Y-002057D01*
G01X0015335Y-002116D01*
G01X0015324Y-002173D01*
G01X0015301Y-002227D01*
G01X0015269Y-002275D01*
G01X0015228Y-002316D01*
G01X0015179Y-002349D01*
G01X0015179Y-002349D01*
G01X0015179Y-002349D01*
G01X0015126Y-002371D01*
G01X0015068Y-002382D01*
G01X0015010Y-002382D01*
G01X0014953Y-002371D01*
G01X0014899Y-002349D01*
G01X0014899Y-002349D01*
G01X0014899Y-002349D01*
G01X0014851Y-002316D01*
G01X0014810Y-002275D01*
G01X0014777Y-002227D01*
G01X0014755Y-002173D01*
G01X0014744Y-002116D01*
G01X0014744Y-002057D01*
G01X0014744Y-002054D01*
G01X0014755Y-002000D01*
G01X0014777Y-001947D01*
G01X0014786Y-001933D01*
G01X0014810Y-001898D01*
G01X0014851Y-001857D01*
G01X0014899Y-001825D01*
G01X0014953Y-001802D01*
G01X0014959Y-001801D01*
G01X0015010Y-001791D01*
G01X0015068Y-001791D01*
G01X0015120Y-001801D01*
G37*
G36*
G01X0015986Y-001801D02*
G01X0015992Y-001802D01*
G01X0016046Y-001825D01*
G01X0016094Y-001857D01*
G01X0016135Y-001898D01*
G01X0016159Y-001933D01*
G01X0016168Y-001947D01*
G01X0016190Y-002000D01*
G01X0016200Y-002054D01*
G01X0016201Y-002057D01*
G01X0016201Y-002116D01*
G01X0016190Y-002173D01*
G01X0016168Y-002227D01*
G01X0016135Y-002275D01*
G01X0016094Y-002316D01*
G01X0016046Y-002349D01*
G01X0016046Y-002349D01*
G01X0016046Y-002349D01*
G01X0015992Y-002371D01*
G01X0015935Y-002382D01*
G01X0015876Y-002382D01*
G01X0015819Y-002371D01*
G01X0015765Y-002349D01*
G01X0015765Y-002349D01*
G01X0015765Y-002349D01*
G01X0015717Y-002316D01*
G01X0015676Y-002275D01*
G01X0015643Y-002227D01*
G01X0015621Y-002173D01*
G01X0015610Y-002116D01*
G01X0015610Y-002057D01*
G01X0015611Y-002054D01*
G01X0015621Y-002000D01*
G01X0015643Y-001947D01*
G01X0015652Y-001933D01*
G01X0015676Y-001898D01*
G01X0015717Y-001857D01*
G01X0015765Y-001825D01*
G01X0015819Y-001802D01*
G01X0015825Y-001801D01*
G01X0015876Y-001791D01*
G01X0015935Y-001791D01*
G01X0015986Y-001801D01*
G37*
G36*
G01X0014254Y-001801D02*
G01X0014259Y-001802D01*
G01X0014313Y-001825D01*
G01X0014362Y-001857D01*
G01X0014403Y-001898D01*
G01X0014426Y-001933D01*
G01X0014435Y-001947D01*
G01X0014458Y-002000D01*
G01X0014468Y-002054D01*
G01X0014469Y-002057D01*
G01X0014469Y-002116D01*
G01X0014458Y-002173D01*
G01X0014435Y-002227D01*
G01X0014403Y-002275D01*
G01X0014362Y-002316D01*
G01X0014313Y-002349D01*
G01X0014313Y-002349D01*
G01X0014313Y-002349D01*
G01X0014259Y-002371D01*
G01X0014202Y-002382D01*
G01X0014144Y-002382D01*
G01X0014087Y-002371D01*
G01X0014033Y-002349D01*
G01X0014033Y-002349D01*
G01X0014033Y-002349D01*
G01X0013985Y-002316D01*
G01X0013944Y-002275D01*
G01X0013911Y-002227D01*
G01X0013889Y-002173D01*
G01X0013878Y-002116D01*
G01X0013878Y-002057D01*
G01X0013878Y-002054D01*
G01X0013889Y-002000D01*
G01X0013911Y-001947D01*
G01X0013920Y-001933D01*
G01X0013944Y-001898D01*
G01X0013985Y-001857D01*
G01X0014033Y-001825D01*
G01X0014087Y-001802D01*
G01X0014092Y-001801D01*
G01X0014144Y-001791D01*
G01X0014202Y-001791D01*
G01X0014254Y-001801D01*
G37*
G36*
G01X0003688Y-001008D02*
G01X0003751Y-001028D01*
G01X0003809Y-001059D01*
G01X0003846Y-001089D01*
G01X0003860Y-001101D01*
G01X0003902Y-001152D01*
G01X0003902Y-001152D01*
G01X0003933Y-001210D01*
G01X0003952Y-001273D01*
G01X0003957Y-001322D01*
G01X0003957Y-001670D01*
G01X0003952Y-001719D01*
G01X0003933Y-001782D01*
G01X0003911Y-001825D01*
G01X0003902Y-001841D01*
G01X0003860Y-001892D01*
G01X0003809Y-001933D01*
G01X0003809Y-001933D01*
G01X0003751Y-001965D01*
G01X0003688Y-001984D01*
G01X0003622Y-001990D01*
G01X0003556Y-001984D01*
G01X0003493Y-001965D01*
G01X0003435Y-001933D01*
G01X0003435Y-001933D01*
G01X0003384Y-001892D01*
G01X0003342Y-001841D01*
G01X0003334Y-001825D01*
G01X0003311Y-001782D01*
G01X0003292Y-001719D01*
G01X0003287Y-001670D01*
G01X0003287Y-001322D01*
G01X0003292Y-001273D01*
G01X0003311Y-001210D01*
G01X0003342Y-001152D01*
G01X0003384Y-001101D01*
G01X0003398Y-001089D01*
G01X0003435Y-001059D01*
G01X0003441Y-001055D01*
G01X0003493Y-001028D01*
G01X0003556Y-001008D01*
G01X0003622Y-001002D01*
G01X0003688Y-001008D01*
G37*
G36*
G01X0002688Y-001008D02*
G01X0002751Y-001028D01*
G01X0002809Y-001059D01*
G01X0002846Y-001089D01*
G01X0002860Y-001101D01*
G01X0002902Y-001152D01*
G01X0002902Y-001152D01*
G01X0002933Y-001210D01*
G01X0002952Y-001273D01*
G01X0002957Y-001322D01*
G01X0002957Y-001670D01*
G01X0002952Y-001719D01*
G01X0002933Y-001782D01*
G01X0002911Y-001825D01*
G01X0002902Y-001841D01*
G01X0002860Y-001892D01*
G01X0002809Y-001933D01*
G01X0002809Y-001933D01*
G01X0002751Y-001965D01*
G01X0002688Y-001984D01*
G01X0002622Y-001990D01*
G01X0002556Y-001984D01*
G01X0002493Y-001965D01*
G01X0002435Y-001933D01*
G01X0002435Y-001933D01*
G01X0002384Y-001892D01*
G01X0002342Y-001841D01*
G01X0002334Y-001825D01*
G01X0002311Y-001782D01*
G01X0002292Y-001719D01*
G01X0002287Y-001670D01*
G01X0002287Y-001322D01*
G01X0002292Y-001273D01*
G01X0002311Y-001210D01*
G01X0002342Y-001152D01*
G01X0002384Y-001101D01*
G01X0002398Y-001089D01*
G01X0002435Y-001059D01*
G01X0002441Y-001055D01*
G01X0002493Y-001028D01*
G01X0002556Y-001008D01*
G01X0002622Y-001002D01*
G01X0002688Y-001008D01*
G37*
G36*
G01X0001688Y-001008D02*
G01X0001751Y-001028D01*
G01X0001809Y-001059D01*
G01X0001846Y-001089D01*
G01X0001860Y-001101D01*
G01X0001902Y-001152D01*
G01X0001902Y-001152D01*
G01X0001933Y-001210D01*
G01X0001952Y-001273D01*
G01X0001957Y-001322D01*
G01X0001957Y-001670D01*
G01X0001952Y-001719D01*
G01X0001933Y-001782D01*
G01X0001911Y-001825D01*
G01X0001902Y-001841D01*
G01X0001860Y-001892D01*
G01X0001809Y-001933D01*
G01X0001809Y-001933D01*
G01X0001751Y-001965D01*
G01X0001688Y-001984D01*
G01X0001622Y-001990D01*
G01X0001556Y-001984D01*
G01X0001493Y-001965D01*
G01X0001435Y-001933D01*
G01X0001435Y-001933D01*
G01X0001384Y-001892D01*
G01X0001342Y-001841D01*
G01X0001334Y-001825D01*
G01X0001311Y-001782D01*
G01X0001292Y-001719D01*
G01X0001287Y-001670D01*
G01X0001287Y-001322D01*
G01X0001292Y-001273D01*
G01X0001311Y-001210D01*
G01X0001342Y-001152D01*
G01X0001384Y-001101D01*
G01X0001398Y-001089D01*
G01X0001435Y-001059D01*
G01X0001441Y-001055D01*
G01X0001493Y-001028D01*
G01X0001556Y-001008D01*
G01X0001622Y-001002D01*
G01X0001688Y-001008D01*
G37*
G36*
G01X0000957Y-001989D02*
G01X0000287Y-001989D01*
G01X0000287Y-001004D01*
G01X0000957Y-001004D01*
G01X0000957Y-001989D01*
G37*
G36*
G01X0018074Y-000969D02*
G01X0018137Y-000988D01*
G01X0018195Y-001019D01*
G01X0018239Y-001056D01*
G01X0018246Y-001061D01*
G01X0018288Y-001112D01*
G01X0018288Y-001112D01*
G01X0018319Y-001170D01*
G01X0018338Y-001234D01*
G01X0018343Y-001283D01*
G01X0018343Y-001631D01*
G01X0018338Y-001680D01*
G01X0018319Y-001743D01*
G01X0018298Y-001782D01*
G01X0018288Y-001801D01*
G01X0018246Y-001852D01*
G01X0018195Y-001894D01*
G01X0018195Y-001894D01*
G01X0018137Y-001925D01*
G01X0018074Y-001944D01*
G01X0018008Y-001951D01*
G01X0017942Y-001944D01*
G01X0017879Y-001925D01*
G01X0017821Y-001894D01*
G01X0017821Y-001894D01*
G01X0017770Y-001852D01*
G01X0017728Y-001801D01*
G01X0017718Y-001782D01*
G01X0017697Y-001743D01*
G01X0017678Y-001680D01*
G01X0017673Y-001631D01*
G01X0017673Y-001283D01*
G01X0017678Y-001234D01*
G01X0017697Y-001170D01*
G01X0017728Y-001112D01*
G01X0017770Y-001061D01*
G01X0017777Y-001056D01*
G01X0017821Y-001019D01*
G01X0017830Y-001014D01*
G01X0017879Y-000988D01*
G01X0017942Y-000969D01*
G01X0018008Y-000963D01*
G01X0018074Y-000969D01*
G37*
G36*
G01X0019074Y-000969D02*
G01X0019137Y-000988D01*
G01X0019195Y-001019D01*
G01X0019239Y-001056D01*
G01X0019246Y-001061D01*
G01X0019288Y-001112D01*
G01X0019288Y-001112D01*
G01X0019319Y-001170D01*
G01X0019338Y-001234D01*
G01X0019343Y-001283D01*
G01X0019343Y-001631D01*
G01X0019338Y-001680D01*
G01X0019319Y-001743D01*
G01X0019298Y-001782D01*
G01X0019288Y-001801D01*
G01X0019246Y-001852D01*
G01X0019195Y-001894D01*
G01X0019195Y-001894D01*
G01X0019137Y-001925D01*
G01X0019074Y-001944D01*
G01X0019008Y-001951D01*
G01X0018942Y-001944D01*
G01X0018879Y-001925D01*
G01X0018821Y-001894D01*
G01X0018821Y-001894D01*
G01X0018770Y-001852D01*
G01X0018728Y-001801D01*
G01X0018718Y-001782D01*
G01X0018697Y-001743D01*
G01X0018678Y-001680D01*
G01X0018673Y-001631D01*
G01X0018673Y-001283D01*
G01X0018678Y-001234D01*
G01X0018697Y-001170D01*
G01X0018728Y-001112D01*
G01X0018770Y-001061D01*
G01X0018777Y-001056D01*
G01X0018821Y-001019D01*
G01X0018830Y-001014D01*
G01X0018879Y-000988D01*
G01X0018942Y-000969D01*
G01X0019008Y-000963D01*
G01X0019074Y-000969D01*
G37*
G36*
G01X0020074Y-000969D02*
G01X0020137Y-000988D01*
G01X0020195Y-001019D01*
G01X0020239Y-001056D01*
G01X0020246Y-001061D01*
G01X0020288Y-001112D01*
G01X0020288Y-001112D01*
G01X0020319Y-001170D01*
G01X0020338Y-001234D01*
G01X0020343Y-001283D01*
G01X0020343Y-001631D01*
G01X0020338Y-001680D01*
G01X0020319Y-001743D01*
G01X0020298Y-001782D01*
G01X0020288Y-001801D01*
G01X0020246Y-001852D01*
G01X0020195Y-001894D01*
G01X0020195Y-001894D01*
G01X0020137Y-001925D01*
G01X0020074Y-001944D01*
G01X0020008Y-001951D01*
G01X0019942Y-001944D01*
G01X0019879Y-001925D01*
G01X0019821Y-001894D01*
G01X0019821Y-001894D01*
G01X0019770Y-001852D01*
G01X0019728Y-001801D01*
G01X0019718Y-001782D01*
G01X0019697Y-001743D01*
G01X0019678Y-001680D01*
G01X0019673Y-001631D01*
G01X0019673Y-001283D01*
G01X0019678Y-001234D01*
G01X0019697Y-001170D01*
G01X0019728Y-001112D01*
G01X0019770Y-001061D01*
G01X0019777Y-001056D01*
G01X0019821Y-001019D01*
G01X0019830Y-001014D01*
G01X0019879Y-000988D01*
G01X0019942Y-000969D01*
G01X0020008Y-000963D01*
G01X0020074Y-000969D01*
G37*
G36*
G01X0017343Y-001949D02*
G01X0016673Y-001949D01*
G01X0016673Y-000964D01*
G01X0017343Y-000964D01*
G01X0017343Y-001949D01*
G37*
G36*
G01X0004811Y-001133D02*
G01X0004855Y-001152D01*
G01X0004864Y-001155D01*
G01X0004913Y-001188D01*
G01X0004954Y-001229D01*
G01X0004986Y-001277D01*
G01X0005009Y-001331D01*
G01X0005020Y-001388D01*
G01X0005020Y-001446D01*
G01X0005009Y-001504D01*
G01X0004986Y-001557D01*
G01X0004954Y-001606D01*
G01X0004913Y-001647D01*
G01X0004864Y-001679D01*
G01X0004864Y-001679D01*
G01X0004864Y-001679D01*
G01X0004811Y-001702D01*
G01X0004754Y-001713D01*
G01X0004695Y-001713D01*
G01X0004638Y-001702D01*
G01X0004584Y-001679D01*
G01X0004584Y-001679D01*
G01X0004584Y-001679D01*
G01X0004536Y-001647D01*
G01X0004495Y-001606D01*
G01X0004462Y-001557D01*
G01X0004440Y-001504D01*
G01X0004429Y-001446D01*
G01X0004429Y-001388D01*
G01X0004440Y-001331D01*
G01X0004462Y-001277D01*
G01X0004495Y-001229D01*
G01X0004536Y-001188D01*
G01X0004584Y-001155D01*
G01X0004593Y-001152D01*
G01X0004638Y-001133D01*
G01X0004695Y-001122D01*
G01X0004754Y-001122D01*
G01X0004811Y-001133D01*
G37*
G36*
G01X0006070Y-000960D02*
G01X0006093Y-000969D01*
G01X0006124Y-000982D01*
G01X0006173Y-001014D01*
G01X0006214Y-001056D01*
G01X0006236Y-001089D01*
G01X0006246Y-001104D01*
G01X0006269Y-001158D01*
G01X0006280Y-001215D01*
G01X0006280Y-001273D01*
G01X0006278Y-001283D01*
G01X0006269Y-001330D01*
G01X0006246Y-001384D01*
G01X0006214Y-001433D01*
G01X0006173Y-001474D01*
G01X0006124Y-001506D01*
G01X0006124Y-001506D01*
G01X0006124Y-001506D01*
G01X0006070Y-001528D01*
G01X0006013Y-001540D01*
G01X0005955Y-001540D01*
G01X0005898Y-001528D01*
G01X0005844Y-001506D01*
G01X0005844Y-001506D01*
G01X0005844Y-001506D01*
G01X0005796Y-001474D01*
G01X0005755Y-001433D01*
G01X0005722Y-001384D01*
G01X0005700Y-001330D01*
G01X0005690Y-001283D01*
G01X0005689Y-001273D01*
G01X0005689Y-001215D01*
G01X0005700Y-001158D01*
G01X0005722Y-001104D01*
G01X0005732Y-001089D01*
G01X0005755Y-001056D01*
G01X0005796Y-001014D01*
G01X0005844Y-000982D01*
G01X0005876Y-000969D01*
G01X0005898Y-000960D01*
G01X0005955Y-000948D01*
G01X0006013Y-000948D01*
G01X0006070Y-000960D01*
G37*
G36*
G01X0011210Y-000395D02*
G01X0011269Y-000407D01*
G01X0011333Y-000434D01*
G01X0011391Y-000472D01*
G01X0011441Y-000522D01*
G01X0011480Y-000580D01*
G01X0011506Y-000645D01*
G01X0011518Y-000702D01*
G01X0011520Y-000713D01*
G01X0011520Y-000713D01*
G01X0011520Y-000783D01*
G01X0011506Y-000852D01*
G01X0011480Y-000916D01*
G01X0011441Y-000974D01*
G01X0011391Y-001024D01*
G01X0011333Y-001062D01*
G01X0011269Y-001089D01*
G01X0011211Y-001101D01*
G01X0011200Y-001103D01*
G01X0011130Y-001103D01*
G01X0011119Y-001101D01*
G01X0011062Y-001089D01*
G01X0010997Y-001062D01*
G01X0010939Y-001024D01*
G01X0010890Y-000974D01*
G01X0010851Y-000916D01*
G01X0010824Y-000852D01*
G01X0010811Y-000783D01*
G01X0010811Y-000713D01*
G01X0010811Y-000713D01*
G01X0010813Y-000702D01*
G01X0010824Y-000645D01*
G01X0010851Y-000580D01*
G01X0010890Y-000522D01*
G01X0010939Y-000472D01*
G01X0010997Y-000434D01*
G01X0011062Y-000407D01*
G01X0011121Y-000395D01*
G01X0011130Y-000393D01*
G01X0011200Y-000393D01*
G01X0011210Y-000395D01*
G37*
G36*
G01X0010210Y-000395D02*
G01X0010269Y-000407D01*
G01X0010333Y-000434D01*
G01X0010391Y-000472D01*
G01X0010441Y-000522D01*
G01X0010480Y-000580D01*
G01X0010506Y-000645D01*
G01X0010518Y-000702D01*
G01X0010520Y-000713D01*
G01X0010520Y-000713D01*
G01X0010520Y-000783D01*
G01X0010506Y-000852D01*
G01X0010480Y-000916D01*
G01X0010441Y-000974D01*
G01X0010391Y-001024D01*
G01X0010333Y-001062D01*
G01X0010269Y-001089D01*
G01X0010211Y-001101D01*
G01X0010200Y-001103D01*
G01X0010130Y-001103D01*
G01X0010119Y-001101D01*
G01X0010062Y-001089D01*
G01X0009997Y-001062D01*
G01X0009939Y-001024D01*
G01X0009890Y-000974D01*
G01X0009851Y-000916D01*
G01X0009824Y-000852D01*
G01X0009811Y-000783D01*
G01X0009811Y-000713D01*
G01X0009811Y-000713D01*
G01X0009813Y-000702D01*
G01X0009824Y-000645D01*
G01X0009851Y-000580D01*
G01X0009890Y-000522D01*
G01X0009939Y-000472D01*
G01X0009997Y-000434D01*
G01X0010062Y-000407D01*
G01X0010121Y-000395D01*
G01X0010130Y-000393D01*
G01X0010200Y-000393D01*
G01X0010210Y-000395D01*
G37*
G36*
G01X0009210Y-000395D02*
G01X0009269Y-000407D01*
G01X0009333Y-000434D01*
G01X0009391Y-000472D01*
G01X0009441Y-000522D01*
G01X0009480Y-000580D01*
G01X0009506Y-000645D01*
G01X0009518Y-000702D01*
G01X0009520Y-000713D01*
G01X0009520Y-000713D01*
G01X0009520Y-000783D01*
G01X0009506Y-000852D01*
G01X0009480Y-000916D01*
G01X0009441Y-000974D01*
G01X0009391Y-001024D01*
G01X0009333Y-001062D01*
G01X0009269Y-001089D01*
G01X0009211Y-001101D01*
G01X0009200Y-001103D01*
G01X0009130Y-001103D01*
G01X0009119Y-001101D01*
G01X0009062Y-001089D01*
G01X0008997Y-001062D01*
G01X0008939Y-001024D01*
G01X0008890Y-000974D01*
G01X0008851Y-000916D01*
G01X0008824Y-000852D01*
G01X0008811Y-000783D01*
G01X0008811Y-000713D01*
G01X0008811Y-000713D01*
G01X0008813Y-000702D01*
G01X0008824Y-000645D01*
G01X0008851Y-000580D01*
G01X0008890Y-000522D01*
G01X0008939Y-000472D01*
G01X0008997Y-000434D01*
G01X0009062Y-000407D01*
G01X0009121Y-000395D01*
G01X0009130Y-000393D01*
G01X0009200Y-000393D01*
G01X0009210Y-000395D01*
G37*
G36*
G01X0008210Y-000395D02*
G01X0008269Y-000407D01*
G01X0008333Y-000434D01*
G01X0008391Y-000472D01*
G01X0008441Y-000522D01*
G01X0008480Y-000580D01*
G01X0008506Y-000645D01*
G01X0008518Y-000702D01*
G01X0008520Y-000713D01*
G01X0008520Y-000713D01*
G01X0008520Y-000783D01*
G01X0008506Y-000852D01*
G01X0008480Y-000916D01*
G01X0008441Y-000974D01*
G01X0008391Y-001024D01*
G01X0008333Y-001062D01*
G01X0008269Y-001089D01*
G01X0008211Y-001101D01*
G01X0008200Y-001103D01*
G01X0008130Y-001103D01*
G01X0008119Y-001101D01*
G01X0008062Y-001089D01*
G01X0007997Y-001062D01*
G01X0007939Y-001024D01*
G01X0007890Y-000974D01*
G01X0007851Y-000916D01*
G01X0007824Y-000852D01*
G01X0007811Y-000783D01*
G01X0007811Y-000713D01*
G01X0007811Y-000713D01*
G01X0007813Y-000702D01*
G01X0007824Y-000645D01*
G01X0007851Y-000580D01*
G01X0007890Y-000522D01*
G01X0007939Y-000472D01*
G01X0007997Y-000434D01*
G01X0008062Y-000407D01*
G01X0008121Y-000395D01*
G01X0008130Y-000393D01*
G01X0008200Y-000393D01*
G01X0008210Y-000395D01*
G37*
G36*
G01X0007520Y-001103D02*
G01X0006811Y-001103D01*
G01X0006811Y-000393D01*
G01X0007520Y-000393D01*
G01X0007520Y-001103D01*
G37*
G36*
G01X0004811Y-000133D02*
G01X0004864Y-000155D01*
G01X0004913Y-000188D01*
G01X0004954Y-000229D01*
G01X0004986Y-000277D01*
G01X0005009Y-000331D01*
G01X0005020Y-000388D01*
G01X0005020Y-000446D01*
G01X0005009Y-000504D01*
G01X0004986Y-000557D01*
G01X0004954Y-000606D01*
G01X0004913Y-000647D01*
G01X0004864Y-000679D01*
G01X0004864Y-000679D01*
G01X0004864Y-000679D01*
G01X0004811Y-000702D01*
G01X0004754Y-000713D01*
G01X0004695Y-000713D01*
G01X0004638Y-000702D01*
G01X0004584Y-000679D01*
G01X0004584Y-000679D01*
G01X0004584Y-000679D01*
G01X0004536Y-000647D01*
G01X0004495Y-000606D01*
G01X0004462Y-000557D01*
G01X0004440Y-000504D01*
G01X0004429Y-000446D01*
G01X0004429Y-000388D01*
G01X0004440Y-000331D01*
G01X0004462Y-000277D01*
G01X0004495Y-000229D01*
G01X0004536Y-000188D01*
G01X0004584Y-000155D01*
G01X0004638Y-000133D01*
G01X0004695Y-000122D01*
G01X0004754Y-000122D01*
G01X0004811Y-000133D01*
G37*
M02*
