G04 This is an RS-274x file exported by *
G04 gerbv version 2.6A *
G04 More information is available about gerbv at *
G04 http://gerbv.geda-project.org/ *
G04 --End of header info--*
%MOIN*%
%FSLAX34Y34*%
%IPPOS*%
G04 --Define apertures--*
%ADD10O,0.0669X0.0669*%
%ADD11R,0.0669X0.0669*%
%ADD12O,0.0630X0.0945*%
%ADD13R,0.0630X0.0945*%
%ADD14O,0.0551X0.0551*%
%ADD15C,0.0551*%
%ADD16O,0.0709X0.0709*%
%ADD17R,0.0709X0.0709*%
%ADD18R,0.0591X0.0591*%
%ADD19C,0.0591*%
%ADD20C,0.0315*%
%ADD21C,0.0394*%
%ADD22C,0.0197*%
%ADD23C,0.0100*%
G04 --Start main section--*
G54D10*
G01X0019882Y-004094D03*
G54D11*
G01X0019882Y-005094D03*
G54D12*
G01X0007709Y-004134D03*
G01X0010709Y-007134D03*
G01X0008709Y-004134D03*
G01X0009709Y-007134D03*
G01X0009709Y-004134D03*
G01X0008709Y-007134D03*
G01X0010709Y-004134D03*
G54D13*
G01X0007709Y-007134D03*
G54D14*
G01X0017953Y-007362D03*
G54D15*
G01X0018953Y-007362D03*
G54D14*
G01X0014724Y-010236D03*
G54D15*
G01X0015724Y-010236D03*
G54D14*
G01X0014709Y-008898D03*
G54D15*
G01X0015709Y-008898D03*
G54D14*
G01X0015906Y-005087D03*
G54D15*
G01X0015906Y-002087D03*
G54D14*
G01X0002638Y-003504D03*
G54D15*
G01X0002638Y-002504D03*
G54D14*
G01X0004724Y-010591D03*
G54D15*
G01X0004724Y-009591D03*
G54D14*
G01X0004724Y-000417D03*
G54D15*
G01X0004724Y-001417D03*
G54D14*
G01X0018992Y-008346D03*
G54D15*
G01X0017992Y-008346D03*
G54D11*
G01X0016102Y-007598D03*
G54D16*
G01X0012969Y-006260D03*
G54D17*
G01X0011969Y-006260D03*
G54D16*
G01X0012969Y-005000D03*
G54D17*
G01X0011969Y-005000D03*
G54D14*
G01X0005984Y-008780D03*
G54D15*
G01X0005984Y-009780D03*
G54D14*
G01X0005984Y-002244D03*
G54D15*
G01X0005984Y-001244D03*
G54D14*
G01X0004724Y-007701D03*
G54D15*
G01X0004724Y-008701D03*
G54D14*
G01X0004724Y-005890D03*
G54D15*
G01X0004724Y-006890D03*
G54D14*
G01X0004724Y-005094D03*
G54D15*
G01X0004724Y-004094D03*
G54D14*
G01X0004724Y-003283D03*
G54D15*
G01X0004724Y-002283D03*
G54D12*
G01X0017008Y-009488D03*
G01X0018008Y-009488D03*
G01X0019008Y-009488D03*
G01X0020008Y-009488D03*
G01X0000622Y-009480D03*
G01X0001622Y-009480D03*
G01X0002622Y-009480D03*
G01X0003622Y-009480D03*
G01X0020008Y-001457D03*
G01X0019008Y-001457D03*
G01X0018008Y-001457D03*
G54D13*
G01X0017008Y-001457D03*
G54D12*
G01X0003622Y-001496D03*
G01X0002622Y-001496D03*
G01X0001622Y-001496D03*
G54D13*
G01X0000622Y-001496D03*
G54D14*
G01X0015039Y-005087D03*
G54D15*
G01X0015039Y-002087D03*
G54D14*
G01X0014173Y-005087D03*
G54D15*
G01X0014173Y-002087D03*
G54D14*
G01X0008465Y-008189D03*
G54D15*
G01X0011465Y-008189D03*
G54D14*
G01X0008465Y-003110D03*
G54D15*
G01X0011465Y-003110D03*
G54D18*
G01X0012598Y-007189D03*
G54D19*
G01X0012598Y-009189D03*
G01X0012598Y-008189D03*
G54D18*
G01X0012913Y-004110D03*
G54D19*
G01X0012913Y-002110D03*
G01X0012913Y-003110D03*
G54D18*
G01X0005984Y-005984D03*
G54D19*
G01X0005984Y-007984D03*
G01X0005984Y-006984D03*
G54D18*
G01X0005984Y-003039D03*
G54D19*
G01X0005984Y-005039D03*
G01X0005984Y-004039D03*
G54D11*
G01X0016102Y-006181D03*
G01X0014685Y-007598D03*
G54D10*
G01X0000709Y-007386D03*
G01X0000709Y-006386D03*
G01X0000709Y-005386D03*
G01X0000709Y-004386D03*
G54D11*
G01X0000709Y-003386D03*
G54D10*
G01X0011165Y-000748D03*
G01X0010165Y-000748D03*
G01X0009165Y-000748D03*
G01X0008165Y-000748D03*
G54D11*
G01X0007165Y-000748D03*
G54D10*
G01X0011087Y-010236D03*
G01X0010087Y-010236D03*
G01X0009087Y-010236D03*
G01X0008087Y-010236D03*
G54D11*
G01X0007087Y-010236D03*
G54D20*
G01X0004055Y-002618D03*
G01X0003937Y-003504D03*
G01X0013062Y-001054D03*
G01X0012402Y-000394D03*
G01X0011210Y-006406D03*
G01X0007717Y-002008D03*
G01X0010906Y-008701D03*
G01X0007118Y-007488D03*
G01X0009685Y-001929D03*
G01X0003622Y-004370D03*
G01X0017008Y-006772D03*
G01X0001850Y-002795D03*
G54D21*
G01X0012181Y-009189D02*
G01X0012598Y-009189D01*
G01X0009087Y-010236D02*
G01X0009087Y-009763D01*
G01X0009661Y-009189D02*
G01X0012181Y-009189D01*
G01X0009087Y-009763D02*
G01X0009661Y-009189D01*
G54D22*
G01X0004055Y-002618D02*
G01X0004055Y-003386D01*
G01X0004055Y-003386D02*
G01X0003937Y-003504D01*
G01X0012480Y-000472D02*
G01X0013062Y-001054D01*
G01X0012480Y-000472D02*
G01X0012402Y-000394D01*
G54D21*
G01X0019008Y-001213D02*
G01X0019008Y-001457D01*
G01X0012402Y-000394D02*
G01X0018189Y-000394D01*
G01X0018189Y-000394D02*
G01X0019008Y-001213D01*
G01X0011465Y-003110D02*
G01X0012913Y-003110D01*
G01X0011465Y-004496D02*
G01X0011969Y-005000D01*
G01X0011465Y-003110D02*
G01X0011465Y-004496D01*
G01X0014173Y-004370D02*
G01X0014173Y-005087D01*
G01X0012913Y-003110D02*
G01X0014173Y-004370D01*
G01X0011425Y-006803D02*
G01X0011969Y-006260D01*
G01X0011425Y-008189D02*
G01X0011425Y-006803D01*
G01X0011425Y-008189D02*
G01X0012598Y-008189D01*
G01X0011969Y-006260D02*
G01X0011969Y-006220D01*
G01X0011969Y-006220D02*
G01X0012559Y-005630D01*
G01X0014764Y-005362D02*
G01X0015039Y-005087D01*
G01X0014488Y-005638D02*
G01X0014764Y-005362D01*
G01X0013909Y-005638D02*
G01X0014488Y-005638D01*
G01X0012559Y-005630D02*
G01X0013901Y-005630D01*
G01X0013901Y-005630D02*
G01X0013909Y-005638D01*
G54D22*
G01X0011210Y-006406D02*
G01X0010217Y-005413D01*
G01X0010217Y-003602D02*
G01X0010217Y-003209D01*
G01X0010217Y-003602D02*
G01X0010217Y-003366D01*
G01X0010217Y-005413D02*
G01X0010217Y-003602D01*
G01X0010217Y-003209D02*
G01X0009252Y-002244D01*
G01X0009252Y-002244D02*
G01X0009252Y-001654D01*
G01X0009252Y-001654D02*
G01X0009606Y-001299D01*
G01X0010614Y-001299D02*
G01X0011165Y-000748D01*
G01X0009606Y-001299D02*
G01X0010614Y-001299D01*
G01X0004154Y-000965D02*
G01X0003622Y-001496D01*
G01X0005591Y-000236D02*
G01X0004862Y-000965D01*
G01X0010165Y-000748D02*
G01X0009654Y-000236D01*
G01X0004862Y-000965D02*
G01X0004154Y-000965D01*
G01X0009654Y-000236D02*
G01X0005591Y-000236D01*
G54D21*
G01X0008165Y-001221D02*
G01X0008165Y-000748D01*
G01X0007709Y-001678D02*
G01X0008165Y-001221D01*
G01X0007709Y-002551D02*
G01X0007709Y-004134D01*
G01X0008087Y-010236D02*
G01X0008087Y-009763D01*
G01X0007118Y-008794D02*
G01X0008087Y-009763D01*
G01X0007118Y-005591D02*
G01X0007118Y-007488D01*
G01X0007709Y-004134D02*
G01X0007709Y-005000D01*
G01X0007709Y-005000D02*
G01X0007118Y-005591D01*
G01X0007709Y-004134D02*
G01X0007717Y-002008D01*
G01X0007717Y-002008D02*
G01X0007709Y-001678D01*
G01X0008087Y-009763D02*
G01X0009149Y-008701D01*
G01X0009149Y-008701D02*
G01X0009614Y-008701D01*
G01X0009614Y-008701D02*
G01X0010906Y-008701D01*
G01X0007118Y-007488D02*
G01X0007118Y-008794D01*
G01X0013583Y-001496D02*
G01X0014173Y-002087D01*
G01X0013268Y-001496D02*
G01X0013583Y-001496D01*
G01X0014449Y-001496D02*
G01X0015039Y-002087D01*
G01X0013268Y-001496D02*
G01X0014449Y-001496D01*
G01X0015315Y-001496D02*
G01X0015906Y-002087D01*
G01X0014449Y-001496D02*
G01X0015315Y-001496D01*
G01X0006646Y-008990D02*
G01X0006646Y-003197D01*
G01X0007087Y-010236D02*
G01X0007087Y-009431D01*
G01X0007087Y-009431D02*
G01X0006646Y-008990D01*
G01X0006646Y-003197D02*
G01X0007165Y-002677D01*
G01X0009685Y-001929D02*
G01X0012047Y-001929D01*
G01X0012480Y-001496D02*
G01X0013268Y-001496D01*
G01X0012047Y-001929D02*
G01X0012480Y-001496D01*
G54D22*
G01X0007165Y-001417D02*
G01X0007165Y-001378D01*
G54D21*
G01X0007165Y-001417D02*
G01X0007165Y-000748D01*
G01X0007165Y-002677D02*
G01X0007165Y-001417D01*
G54D22*
G01X0004803Y-001339D02*
G01X0004724Y-001417D01*
G01X0007165Y-000748D02*
G01X0007165Y-001280D01*
G01X0007165Y-001280D02*
G01X0007106Y-001339D01*
G54D21*
G01X0007087Y-000669D02*
G01X0007165Y-000748D01*
G01X0005743Y-000669D02*
G01X0007087Y-000669D01*
G01X0004724Y-001417D02*
G01X0004995Y-001417D01*
G01X0004995Y-001417D02*
G01X0005743Y-000669D01*
G54D22*
G01X0005129Y-010130D02*
G01X0005747Y-010748D01*
G01X0001311Y-010130D02*
G01X0005129Y-010130D01*
G01X0014433Y-009173D02*
G01X0014709Y-008898D01*
G01X0001130Y-009949D02*
G01X0001311Y-010130D01*
G01X0000709Y-007859D02*
G01X0001130Y-008280D01*
G01X0001130Y-008280D02*
G01X0001130Y-009949D01*
G01X0005747Y-010748D02*
G01X0012858Y-010748D01*
G01X0000709Y-007386D02*
G01X0000709Y-007859D01*
G01X0012858Y-010748D02*
G01X0014433Y-009173D01*
G54D21*
G01X0000709Y-004386D02*
G01X0001182Y-004386D01*
G01X0001319Y-004249D02*
G01X0001319Y-002421D01*
G01X0001182Y-004386D02*
G01X0001319Y-004249D01*
G01X0001319Y-002421D02*
G01X0001575Y-002165D01*
G01X0001575Y-001543D02*
G01X0001622Y-001496D01*
G01X0001575Y-002165D02*
G01X0001575Y-001543D01*
G01X0003622Y-004593D02*
G01X0003622Y-009480D01*
G01X0003622Y-004370D02*
G01X0003622Y-004593D01*
G01X0015906Y-005087D02*
G01X0014685Y-006307D01*
G01X0014685Y-006307D02*
G01X0014685Y-007362D01*
G01X0014276Y-007189D02*
G01X0014685Y-007598D01*
G01X0012598Y-007189D02*
G01X0014276Y-007189D01*
G01X0015709Y-007992D02*
G01X0016102Y-007598D01*
G01X0015709Y-008898D02*
G01X0015709Y-007992D01*
G01X0016339Y-007362D02*
G01X0016102Y-007598D01*
G01X0017953Y-007362D02*
G01X0016339Y-007362D01*
G01X0016102Y-006181D02*
G01X0016831Y-006181D01*
G01X0019409Y-004094D02*
G01X0019882Y-004094D01*
G01X0018917Y-004094D02*
G01X0019409Y-004094D01*
G01X0016831Y-006181D02*
G01X0018917Y-004094D01*
G01X0018685Y-005094D02*
G01X0017008Y-006772D01*
G01X0019882Y-005094D02*
G01X0018685Y-005094D01*
G01X0002638Y-001512D02*
G01X0002622Y-001496D01*
G01X0002638Y-002504D02*
G01X0002638Y-001512D01*
G01X0002913Y-002780D02*
G01X0002638Y-002504D01*
G01X0003189Y-003055D02*
G01X0002913Y-002780D01*
G01X0003189Y-004135D02*
G01X0003189Y-003055D01*
G01X0002622Y-009480D02*
G01X0002622Y-004702D01*
G01X0002622Y-004702D02*
G01X0003189Y-004135D01*
G01X0003701Y-000417D02*
G01X0002622Y-001496D01*
G01X0004724Y-000417D02*
G01X0003701Y-000417D01*
G01X0001850Y-009252D02*
G01X0001622Y-009480D01*
G01X0001850Y-002795D02*
G01X0001850Y-009252D01*
G01X0007709Y-006000D02*
G01X0007709Y-007134D01*
G01X0008709Y-004134D02*
G01X0008709Y-005000D01*
G01X0008709Y-005000D02*
G01X0007709Y-006000D01*
G54D23*
G36*
G01X0019338Y-005569D02*
G01X0019370Y-005607D01*
G01X0019408Y-005638D01*
G01X0019451Y-005661D01*
G01X0019498Y-005676D01*
G01X0019547Y-005680D01*
G01X0020217Y-005680D01*
G01X0020266Y-005676D01*
G01X0020313Y-005661D01*
G01X0020356Y-005638D01*
G01X0020360Y-005635D01*
G01X0020360Y-008888D01*
G01X0020280Y-008833D01*
G01X0020178Y-008790D01*
G01X0020145Y-008783D01*
G01X0020058Y-008831D01*
G01X0020058Y-009438D01*
G01X0020066Y-009438D01*
G01X0020066Y-009538D01*
G01X0020058Y-009538D01*
G01X0020058Y-010146D01*
G01X0020145Y-010194D01*
G01X0020178Y-010187D01*
G01X0020280Y-010143D01*
G01X0020360Y-010089D01*
G01X0020360Y-010715D01*
G01X0015943Y-010715D01*
G01X0015973Y-010702D01*
G01X0016059Y-010644D01*
G01X0016133Y-010571D01*
G01X0016190Y-010485D01*
G01X0016230Y-010390D01*
G01X0016250Y-010288D01*
G01X0016250Y-010184D01*
G01X0016230Y-010083D01*
G01X0016190Y-009987D01*
G01X0016133Y-009901D01*
G01X0016059Y-009828D01*
G01X0015973Y-009770D01*
G01X0015878Y-009731D01*
G01X0015776Y-009711D01*
G01X0015673Y-009711D01*
G01X0015571Y-009731D01*
G01X0015475Y-009770D01*
G01X0015389Y-009828D01*
G01X0015316Y-009901D01*
G01X0015259Y-009987D01*
G01X0015224Y-010070D01*
G01X0015190Y-009987D01*
G01X0015133Y-009901D01*
G01X0015059Y-009828D01*
G01X0014973Y-009770D01*
G01X0014878Y-009731D01*
G01X0014776Y-009711D01*
G01X0014673Y-009711D01*
G01X0014571Y-009731D01*
G01X0014475Y-009770D01*
G01X0014389Y-009828D01*
G01X0014316Y-009901D01*
G01X0014259Y-009987D01*
G01X0014219Y-010083D01*
G01X0014199Y-010184D01*
G01X0014199Y-010288D01*
G01X0014219Y-010390D01*
G01X0014259Y-010485D01*
G01X0014316Y-010571D01*
G01X0014389Y-010644D01*
G01X0014475Y-010702D01*
G01X0014506Y-010715D01*
G01X0013384Y-010715D01*
G01X0014676Y-009423D01*
G01X0014760Y-009423D01*
G01X0014862Y-009403D01*
G01X0014958Y-009363D01*
G01X0015044Y-009306D01*
G01X0015117Y-009233D01*
G01X0015174Y-009147D01*
G01X0015209Y-009064D01*
G01X0015243Y-009147D01*
G01X0015300Y-009233D01*
G01X0015374Y-009306D01*
G01X0015460Y-009363D01*
G01X0015555Y-009403D01*
G01X0015657Y-009423D01*
G01X0015760Y-009423D01*
G01X0015862Y-009403D01*
G01X0015958Y-009363D01*
G01X0016044Y-009306D01*
G01X0016117Y-009233D01*
G01X0016174Y-009147D01*
G01X0016214Y-009051D01*
G01X0016234Y-008949D01*
G01X0016234Y-008846D01*
G01X0016214Y-008744D01*
G01X0016174Y-008649D01*
G01X0016156Y-008620D01*
G01X0016156Y-008184D01*
G01X0016437Y-008184D01*
G01X0016486Y-008179D01*
G01X0016533Y-008165D01*
G01X0016577Y-008142D01*
G01X0016615Y-008111D01*
G01X0016646Y-008073D01*
G01X0016669Y-008029D01*
G01X0016683Y-007982D01*
G01X0016688Y-007933D01*
G01X0016688Y-007809D01*
G01X0017675Y-007809D01*
G01X0017704Y-007828D01*
G01X0017787Y-007862D01*
G01X0017743Y-007881D01*
G01X0017657Y-007938D01*
G01X0017584Y-008011D01*
G01X0017526Y-008097D01*
G01X0017487Y-008193D01*
G01X0017467Y-008295D01*
G01X0017467Y-008398D01*
G01X0017487Y-008500D01*
G01X0017526Y-008595D01*
G01X0017584Y-008682D01*
G01X0017657Y-008755D01*
G01X0017743Y-008812D01*
G01X0017764Y-008821D01*
G01X0017692Y-008859D01*
G01X0017606Y-008929D01*
G01X0017536Y-009015D01*
G01X0017508Y-009068D01*
G01X0017480Y-009015D01*
G01X0017409Y-008929D01*
G01X0017323Y-008859D01*
G01X0017225Y-008806D01*
G01X0017119Y-008774D01*
G01X0017008Y-008763D01*
G01X0016897Y-008774D01*
G01X0016791Y-008806D01*
G01X0016692Y-008859D01*
G01X0016606Y-008929D01*
G01X0016536Y-009015D01*
G01X0016483Y-009113D01*
G01X0016451Y-009220D01*
G01X0016443Y-009303D01*
G01X0016443Y-009673D01*
G01X0016451Y-009756D01*
G01X0016483Y-009863D01*
G01X0016536Y-009961D01*
G01X0016606Y-010047D01*
G01X0016692Y-010118D01*
G01X0016791Y-010170D01*
G01X0016897Y-010202D01*
G01X0017008Y-010213D01*
G01X0017119Y-010202D01*
G01X0017225Y-010170D01*
G01X0017323Y-010118D01*
G01X0017409Y-010047D01*
G01X0017480Y-009961D01*
G01X0017508Y-009909D01*
G01X0017536Y-009961D01*
G01X0017606Y-010047D01*
G01X0017692Y-010118D01*
G01X0017791Y-010170D01*
G01X0017897Y-010202D01*
G01X0018008Y-010213D01*
G01X0018119Y-010202D01*
G01X0018225Y-010170D01*
G01X0018323Y-010118D01*
G01X0018409Y-010047D01*
G01X0018480Y-009961D01*
G01X0018508Y-009909D01*
G01X0018536Y-009961D01*
G01X0018606Y-010047D01*
G01X0018692Y-010118D01*
G01X0018791Y-010170D01*
G01X0018897Y-010202D01*
G01X0019008Y-010213D01*
G01X0019119Y-010202D01*
G01X0019225Y-010170D01*
G01X0019323Y-010118D01*
G01X0019409Y-010047D01*
G01X0019480Y-009961D01*
G01X0019507Y-009911D01*
G01X0019566Y-010001D01*
G01X0019644Y-010081D01*
G01X0019736Y-010143D01*
G01X0019838Y-010187D01*
G01X0019870Y-010194D01*
G01X0019958Y-010146D01*
G01X0019958Y-009538D01*
G01X0019950Y-009538D01*
G01X0019950Y-009438D01*
G01X0019958Y-009438D01*
G01X0019958Y-008831D01*
G01X0019870Y-008783D01*
G01X0019838Y-008790D01*
G01X0019736Y-008833D01*
G01X0019644Y-008896D01*
G01X0019566Y-008975D01*
G01X0019507Y-009066D01*
G01X0019480Y-009015D01*
G01X0019409Y-008929D01*
G01X0019323Y-008859D01*
G01X0019238Y-008813D01*
G01X0019241Y-008812D01*
G01X0019327Y-008755D01*
G01X0019400Y-008682D01*
G01X0019458Y-008595D01*
G01X0019498Y-008500D01*
G01X0019518Y-008398D01*
G01X0019518Y-008295D01*
G01X0019498Y-008193D01*
G01X0019458Y-008097D01*
G01X0019400Y-008011D01*
G01X0019327Y-007938D01*
G01X0019241Y-007881D01*
G01X0019158Y-007846D01*
G01X0019202Y-007828D01*
G01X0019288Y-007770D01*
G01X0019361Y-007697D01*
G01X0019419Y-007611D01*
G01X0019458Y-007516D01*
G01X0019478Y-007414D01*
G01X0019478Y-007310D01*
G01X0019458Y-007209D01*
G01X0019419Y-007113D01*
G01X0019361Y-007027D01*
G01X0019288Y-006954D01*
G01X0019202Y-006896D01*
G01X0019106Y-006857D01*
G01X0019005Y-006837D01*
G01X0018901Y-006837D01*
G01X0018799Y-006857D01*
G01X0018704Y-006896D01*
G01X0018618Y-006954D01*
G01X0018545Y-007027D01*
G01X0018487Y-007113D01*
G01X0018453Y-007196D01*
G01X0018419Y-007113D01*
G01X0018361Y-007027D01*
G01X0018288Y-006954D01*
G01X0018202Y-006896D01*
G01X0018106Y-006857D01*
G01X0018005Y-006837D01*
G01X0017901Y-006837D01*
G01X0017799Y-006857D01*
G01X0017704Y-006896D01*
G01X0017675Y-006915D01*
G01X0017496Y-006915D01*
G01X0018870Y-005541D01*
G01X0019324Y-005541D01*
G01X0019338Y-005569D01*
G37*
G01X0019338Y-005569D02*
G01X0019370Y-005607D01*
G01X0019370Y-005607D02*
G01X0019408Y-005638D01*
G01X0019408Y-005638D02*
G01X0019451Y-005661D01*
G01X0019451Y-005661D02*
G01X0019498Y-005676D01*
G01X0019498Y-005676D02*
G01X0019547Y-005680D01*
G01X0019547Y-005680D02*
G01X0020217Y-005680D01*
G01X0020217Y-005680D02*
G01X0020266Y-005676D01*
G01X0020266Y-005676D02*
G01X0020313Y-005661D01*
G01X0020313Y-005661D02*
G01X0020356Y-005638D01*
G01X0020356Y-005638D02*
G01X0020360Y-005635D01*
G01X0020360Y-005635D02*
G01X0020360Y-008888D01*
G01X0020360Y-008888D02*
G01X0020280Y-008833D01*
G01X0020280Y-008833D02*
G01X0020178Y-008790D01*
G01X0020178Y-008790D02*
G01X0020145Y-008783D01*
G01X0020145Y-008783D02*
G01X0020058Y-008831D01*
G01X0020058Y-008831D02*
G01X0020058Y-009438D01*
G01X0020058Y-009438D02*
G01X0020066Y-009438D01*
G01X0020066Y-009438D02*
G01X0020066Y-009538D01*
G01X0020066Y-009538D02*
G01X0020058Y-009538D01*
G01X0020058Y-009538D02*
G01X0020058Y-010146D01*
G01X0020058Y-010146D02*
G01X0020145Y-010194D01*
G01X0020145Y-010194D02*
G01X0020178Y-010187D01*
G01X0020178Y-010187D02*
G01X0020280Y-010143D01*
G01X0020280Y-010143D02*
G01X0020360Y-010089D01*
G01X0020360Y-010089D02*
G01X0020360Y-010715D01*
G01X0020360Y-010715D02*
G01X0015943Y-010715D01*
G01X0015943Y-010715D02*
G01X0015973Y-010702D01*
G01X0015973Y-010702D02*
G01X0016059Y-010644D01*
G01X0016059Y-010644D02*
G01X0016133Y-010571D01*
G01X0016133Y-010571D02*
G01X0016190Y-010485D01*
G01X0016190Y-010485D02*
G01X0016230Y-010390D01*
G01X0016230Y-010390D02*
G01X0016250Y-010288D01*
G01X0016250Y-010288D02*
G01X0016250Y-010184D01*
G01X0016250Y-010184D02*
G01X0016230Y-010083D01*
G01X0016230Y-010083D02*
G01X0016190Y-009987D01*
G01X0016190Y-009987D02*
G01X0016133Y-009901D01*
G01X0016133Y-009901D02*
G01X0016059Y-009828D01*
G01X0016059Y-009828D02*
G01X0015973Y-009770D01*
G01X0015973Y-009770D02*
G01X0015878Y-009731D01*
G01X0015878Y-009731D02*
G01X0015776Y-009711D01*
G01X0015776Y-009711D02*
G01X0015673Y-009711D01*
G01X0015673Y-009711D02*
G01X0015571Y-009731D01*
G01X0015571Y-009731D02*
G01X0015475Y-009770D01*
G01X0015475Y-009770D02*
G01X0015389Y-009828D01*
G01X0015389Y-009828D02*
G01X0015316Y-009901D01*
G01X0015316Y-009901D02*
G01X0015259Y-009987D01*
G01X0015259Y-009987D02*
G01X0015224Y-010070D01*
G01X0015224Y-010070D02*
G01X0015190Y-009987D01*
G01X0015190Y-009987D02*
G01X0015133Y-009901D01*
G01X0015133Y-009901D02*
G01X0015059Y-009828D01*
G01X0015059Y-009828D02*
G01X0014973Y-009770D01*
G01X0014973Y-009770D02*
G01X0014878Y-009731D01*
G01X0014878Y-009731D02*
G01X0014776Y-009711D01*
G01X0014776Y-009711D02*
G01X0014673Y-009711D01*
G01X0014673Y-009711D02*
G01X0014571Y-009731D01*
G01X0014571Y-009731D02*
G01X0014475Y-009770D01*
G01X0014475Y-009770D02*
G01X0014389Y-009828D01*
G01X0014389Y-009828D02*
G01X0014316Y-009901D01*
G01X0014316Y-009901D02*
G01X0014259Y-009987D01*
G01X0014259Y-009987D02*
G01X0014219Y-010083D01*
G01X0014219Y-010083D02*
G01X0014199Y-010184D01*
G01X0014199Y-010184D02*
G01X0014199Y-010288D01*
G01X0014199Y-010288D02*
G01X0014219Y-010390D01*
G01X0014219Y-010390D02*
G01X0014259Y-010485D01*
G01X0014259Y-010485D02*
G01X0014316Y-010571D01*
G01X0014316Y-010571D02*
G01X0014389Y-010644D01*
G01X0014389Y-010644D02*
G01X0014475Y-010702D01*
G01X0014475Y-010702D02*
G01X0014506Y-010715D01*
G01X0014506Y-010715D02*
G01X0013384Y-010715D01*
G01X0013384Y-010715D02*
G01X0014676Y-009423D01*
G01X0014676Y-009423D02*
G01X0014760Y-009423D01*
G01X0014760Y-009423D02*
G01X0014862Y-009403D01*
G01X0014862Y-009403D02*
G01X0014958Y-009363D01*
G01X0014958Y-009363D02*
G01X0015044Y-009306D01*
G01X0015044Y-009306D02*
G01X0015117Y-009233D01*
G01X0015117Y-009233D02*
G01X0015174Y-009147D01*
G01X0015174Y-009147D02*
G01X0015209Y-009064D01*
G01X0015209Y-009064D02*
G01X0015243Y-009147D01*
G01X0015243Y-009147D02*
G01X0015300Y-009233D01*
G01X0015300Y-009233D02*
G01X0015374Y-009306D01*
G01X0015374Y-009306D02*
G01X0015460Y-009363D01*
G01X0015460Y-009363D02*
G01X0015555Y-009403D01*
G01X0015555Y-009403D02*
G01X0015657Y-009423D01*
G01X0015657Y-009423D02*
G01X0015760Y-009423D01*
G01X0015760Y-009423D02*
G01X0015862Y-009403D01*
G01X0015862Y-009403D02*
G01X0015958Y-009363D01*
G01X0015958Y-009363D02*
G01X0016044Y-009306D01*
G01X0016044Y-009306D02*
G01X0016117Y-009233D01*
G01X0016117Y-009233D02*
G01X0016174Y-009147D01*
G01X0016174Y-009147D02*
G01X0016214Y-009051D01*
G01X0016214Y-009051D02*
G01X0016234Y-008949D01*
G01X0016234Y-008949D02*
G01X0016234Y-008846D01*
G01X0016234Y-008846D02*
G01X0016214Y-008744D01*
G01X0016214Y-008744D02*
G01X0016174Y-008649D01*
G01X0016174Y-008649D02*
G01X0016156Y-008620D01*
G01X0016156Y-008620D02*
G01X0016156Y-008184D01*
G01X0016156Y-008184D02*
G01X0016437Y-008184D01*
G01X0016437Y-008184D02*
G01X0016486Y-008179D01*
G01X0016486Y-008179D02*
G01X0016533Y-008165D01*
G01X0016533Y-008165D02*
G01X0016577Y-008142D01*
G01X0016577Y-008142D02*
G01X0016615Y-008111D01*
G01X0016615Y-008111D02*
G01X0016646Y-008073D01*
G01X0016646Y-008073D02*
G01X0016669Y-008029D01*
G01X0016669Y-008029D02*
G01X0016683Y-007982D01*
G01X0016683Y-007982D02*
G01X0016688Y-007933D01*
G01X0016688Y-007933D02*
G01X0016688Y-007809D01*
G01X0016688Y-007809D02*
G01X0017675Y-007809D01*
G01X0017675Y-007809D02*
G01X0017704Y-007828D01*
G01X0017704Y-007828D02*
G01X0017787Y-007862D01*
G01X0017787Y-007862D02*
G01X0017743Y-007881D01*
G01X0017743Y-007881D02*
G01X0017657Y-007938D01*
G01X0017657Y-007938D02*
G01X0017584Y-008011D01*
G01X0017584Y-008011D02*
G01X0017526Y-008097D01*
G01X0017526Y-008097D02*
G01X0017487Y-008193D01*
G01X0017487Y-008193D02*
G01X0017467Y-008295D01*
G01X0017467Y-008295D02*
G01X0017467Y-008398D01*
G01X0017467Y-008398D02*
G01X0017487Y-008500D01*
G01X0017487Y-008500D02*
G01X0017526Y-008595D01*
G01X0017526Y-008595D02*
G01X0017584Y-008682D01*
G01X0017584Y-008682D02*
G01X0017657Y-008755D01*
G01X0017657Y-008755D02*
G01X0017743Y-008812D01*
G01X0017743Y-008812D02*
G01X0017764Y-008821D01*
G01X0017764Y-008821D02*
G01X0017692Y-008859D01*
G01X0017692Y-008859D02*
G01X0017606Y-008929D01*
G01X0017606Y-008929D02*
G01X0017536Y-009015D01*
G01X0017536Y-009015D02*
G01X0017508Y-009068D01*
G01X0017508Y-009068D02*
G01X0017480Y-009015D01*
G01X0017480Y-009015D02*
G01X0017409Y-008929D01*
G01X0017409Y-008929D02*
G01X0017323Y-008859D01*
G01X0017323Y-008859D02*
G01X0017225Y-008806D01*
G01X0017225Y-008806D02*
G01X0017119Y-008774D01*
G01X0017119Y-008774D02*
G01X0017008Y-008763D01*
G01X0017008Y-008763D02*
G01X0016897Y-008774D01*
G01X0016897Y-008774D02*
G01X0016791Y-008806D01*
G01X0016791Y-008806D02*
G01X0016692Y-008859D01*
G01X0016692Y-008859D02*
G01X0016606Y-008929D01*
G01X0016606Y-008929D02*
G01X0016536Y-009015D01*
G01X0016536Y-009015D02*
G01X0016483Y-009113D01*
G01X0016483Y-009113D02*
G01X0016451Y-009220D01*
G01X0016451Y-009220D02*
G01X0016443Y-009303D01*
G01X0016443Y-009303D02*
G01X0016443Y-009673D01*
G01X0016443Y-009673D02*
G01X0016451Y-009756D01*
G01X0016451Y-009756D02*
G01X0016483Y-009863D01*
G01X0016483Y-009863D02*
G01X0016536Y-009961D01*
G01X0016536Y-009961D02*
G01X0016606Y-010047D01*
G01X0016606Y-010047D02*
G01X0016692Y-010118D01*
G01X0016692Y-010118D02*
G01X0016791Y-010170D01*
G01X0016791Y-010170D02*
G01X0016897Y-010202D01*
G01X0016897Y-010202D02*
G01X0017008Y-010213D01*
G01X0017008Y-010213D02*
G01X0017119Y-010202D01*
G01X0017119Y-010202D02*
G01X0017225Y-010170D01*
G01X0017225Y-010170D02*
G01X0017323Y-010118D01*
G01X0017323Y-010118D02*
G01X0017409Y-010047D01*
G01X0017409Y-010047D02*
G01X0017480Y-009961D01*
G01X0017480Y-009961D02*
G01X0017508Y-009909D01*
G01X0017508Y-009909D02*
G01X0017536Y-009961D01*
G01X0017536Y-009961D02*
G01X0017606Y-010047D01*
G01X0017606Y-010047D02*
G01X0017692Y-010118D01*
G01X0017692Y-010118D02*
G01X0017791Y-010170D01*
G01X0017791Y-010170D02*
G01X0017897Y-010202D01*
G01X0017897Y-010202D02*
G01X0018008Y-010213D01*
G01X0018008Y-010213D02*
G01X0018119Y-010202D01*
G01X0018119Y-010202D02*
G01X0018225Y-010170D01*
G01X0018225Y-010170D02*
G01X0018323Y-010118D01*
G01X0018323Y-010118D02*
G01X0018409Y-010047D01*
G01X0018409Y-010047D02*
G01X0018480Y-009961D01*
G01X0018480Y-009961D02*
G01X0018508Y-009909D01*
G01X0018508Y-009909D02*
G01X0018536Y-009961D01*
G01X0018536Y-009961D02*
G01X0018606Y-010047D01*
G01X0018606Y-010047D02*
G01X0018692Y-010118D01*
G01X0018692Y-010118D02*
G01X0018791Y-010170D01*
G01X0018791Y-010170D02*
G01X0018897Y-010202D01*
G01X0018897Y-010202D02*
G01X0019008Y-010213D01*
G01X0019008Y-010213D02*
G01X0019119Y-010202D01*
G01X0019119Y-010202D02*
G01X0019225Y-010170D01*
G01X0019225Y-010170D02*
G01X0019323Y-010118D01*
G01X0019323Y-010118D02*
G01X0019409Y-010047D01*
G01X0019409Y-010047D02*
G01X0019480Y-009961D01*
G01X0019480Y-009961D02*
G01X0019507Y-009911D01*
G01X0019507Y-009911D02*
G01X0019566Y-010001D01*
G01X0019566Y-010001D02*
G01X0019644Y-010081D01*
G01X0019644Y-010081D02*
G01X0019736Y-010143D01*
G01X0019736Y-010143D02*
G01X0019838Y-010187D01*
G01X0019838Y-010187D02*
G01X0019870Y-010194D01*
G01X0019870Y-010194D02*
G01X0019958Y-010146D01*
G01X0019958Y-010146D02*
G01X0019958Y-009538D01*
G01X0019958Y-009538D02*
G01X0019950Y-009538D01*
G01X0019950Y-009538D02*
G01X0019950Y-009438D01*
G01X0019950Y-009438D02*
G01X0019958Y-009438D01*
G01X0019958Y-009438D02*
G01X0019958Y-008831D01*
G01X0019958Y-008831D02*
G01X0019870Y-008783D01*
G01X0019870Y-008783D02*
G01X0019838Y-008790D01*
G01X0019838Y-008790D02*
G01X0019736Y-008833D01*
G01X0019736Y-008833D02*
G01X0019644Y-008896D01*
G01X0019644Y-008896D02*
G01X0019566Y-008975D01*
G01X0019566Y-008975D02*
G01X0019507Y-009066D01*
G01X0019507Y-009066D02*
G01X0019480Y-009015D01*
G01X0019480Y-009015D02*
G01X0019409Y-008929D01*
G01X0019409Y-008929D02*
G01X0019323Y-008859D01*
G01X0019323Y-008859D02*
G01X0019238Y-008813D01*
G01X0019238Y-008813D02*
G01X0019241Y-008812D01*
G01X0019241Y-008812D02*
G01X0019327Y-008755D01*
G01X0019327Y-008755D02*
G01X0019400Y-008682D01*
G01X0019400Y-008682D02*
G01X0019458Y-008595D01*
G01X0019458Y-008595D02*
G01X0019498Y-008500D01*
G01X0019498Y-008500D02*
G01X0019518Y-008398D01*
G01X0019518Y-008398D02*
G01X0019518Y-008295D01*
G01X0019518Y-008295D02*
G01X0019498Y-008193D01*
G01X0019498Y-008193D02*
G01X0019458Y-008097D01*
G01X0019458Y-008097D02*
G01X0019400Y-008011D01*
G01X0019400Y-008011D02*
G01X0019327Y-007938D01*
G01X0019327Y-007938D02*
G01X0019241Y-007881D01*
G01X0019241Y-007881D02*
G01X0019158Y-007846D01*
G01X0019158Y-007846D02*
G01X0019202Y-007828D01*
G01X0019202Y-007828D02*
G01X0019288Y-007770D01*
G01X0019288Y-007770D02*
G01X0019361Y-007697D01*
G01X0019361Y-007697D02*
G01X0019419Y-007611D01*
G01X0019419Y-007611D02*
G01X0019458Y-007516D01*
G01X0019458Y-007516D02*
G01X0019478Y-007414D01*
G01X0019478Y-007414D02*
G01X0019478Y-007310D01*
G01X0019478Y-007310D02*
G01X0019458Y-007209D01*
G01X0019458Y-007209D02*
G01X0019419Y-007113D01*
G01X0019419Y-007113D02*
G01X0019361Y-007027D01*
G01X0019361Y-007027D02*
G01X0019288Y-006954D01*
G01X0019288Y-006954D02*
G01X0019202Y-006896D01*
G01X0019202Y-006896D02*
G01X0019106Y-006857D01*
G01X0019106Y-006857D02*
G01X0019005Y-006837D01*
G01X0019005Y-006837D02*
G01X0018901Y-006837D01*
G01X0018901Y-006837D02*
G01X0018799Y-006857D01*
G01X0018799Y-006857D02*
G01X0018704Y-006896D01*
G01X0018704Y-006896D02*
G01X0018618Y-006954D01*
G01X0018618Y-006954D02*
G01X0018545Y-007027D01*
G01X0018545Y-007027D02*
G01X0018487Y-007113D01*
G01X0018487Y-007113D02*
G01X0018453Y-007196D01*
G01X0018453Y-007196D02*
G01X0018419Y-007113D01*
G01X0018419Y-007113D02*
G01X0018361Y-007027D01*
G01X0018361Y-007027D02*
G01X0018288Y-006954D01*
G01X0018288Y-006954D02*
G01X0018202Y-006896D01*
G01X0018202Y-006896D02*
G01X0018106Y-006857D01*
G01X0018106Y-006857D02*
G01X0018005Y-006837D01*
G01X0018005Y-006837D02*
G01X0017901Y-006837D01*
G01X0017901Y-006837D02*
G01X0017799Y-006857D01*
G01X0017799Y-006857D02*
G01X0017704Y-006896D01*
G01X0017704Y-006896D02*
G01X0017675Y-006915D01*
G01X0017675Y-006915D02*
G01X0017496Y-006915D01*
G01X0017496Y-006915D02*
G01X0018870Y-005541D01*
G01X0018870Y-005541D02*
G01X0019324Y-005541D01*
G01X0019324Y-005541D02*
G01X0019338Y-005569D01*
G36*
G01X0014099Y-007645D02*
G01X0014099Y-007933D01*
G01X0014104Y-007982D01*
G01X0014118Y-008029D01*
G01X0014142Y-008073D01*
G01X0014173Y-008111D01*
G01X0014211Y-008142D01*
G01X0014254Y-008165D01*
G01X0014301Y-008179D01*
G01X0014350Y-008184D01*
G01X0015020Y-008184D01*
G01X0015069Y-008179D01*
G01X0015116Y-008165D01*
G01X0015159Y-008142D01*
G01X0015197Y-008111D01*
G01X0015229Y-008073D01*
G01X0015252Y-008029D01*
G01X0015260Y-008001D01*
G01X0015262Y-008014D01*
G01X0015262Y-008620D01*
G01X0015243Y-008649D01*
G01X0015209Y-008731D01*
G01X0015174Y-008649D01*
G01X0015117Y-008563D01*
G01X0015044Y-008489D01*
G01X0014958Y-008432D01*
G01X0014862Y-008392D01*
G01X0014760Y-008372D01*
G01X0014657Y-008372D01*
G01X0014555Y-008392D01*
G01X0014460Y-008432D01*
G01X0014374Y-008489D01*
G01X0014300Y-008563D01*
G01X0014243Y-008649D01*
G01X0014203Y-008744D01*
G01X0014183Y-008846D01*
G01X0014183Y-008930D01*
G01X0012714Y-010400D01*
G01X0011650Y-010400D01*
G01X0011671Y-010294D01*
G01X0011671Y-010179D01*
G01X0011649Y-010066D01*
G01X0011605Y-009959D01*
G01X0011541Y-009864D01*
G01X0011459Y-009782D01*
G01X0011364Y-009718D01*
G01X0011257Y-009674D01*
G01X0011144Y-009652D01*
G01X0011029Y-009652D01*
G01X0010916Y-009674D01*
G01X0010810Y-009718D01*
G01X0010714Y-009782D01*
G01X0010632Y-009864D01*
G01X0010587Y-009932D01*
G01X0010541Y-009864D01*
G01X0010459Y-009782D01*
G01X0010364Y-009718D01*
G01X0010257Y-009674D01*
G01X0010144Y-009652D01*
G01X0010029Y-009652D01*
G01X0009916Y-009674D01*
G01X0009810Y-009718D01*
G01X0009714Y-009782D01*
G01X0009632Y-009864D01*
G01X0009585Y-009935D01*
G01X0009557Y-009889D01*
G01X0009480Y-009804D01*
G01X0009389Y-009736D01*
G01X0009285Y-009686D01*
G01X0009227Y-009669D01*
G01X0009137Y-009716D01*
G01X0009137Y-010186D01*
G01X0009144Y-010186D01*
G01X0009144Y-010286D01*
G01X0009137Y-010286D01*
G01X0009137Y-010294D01*
G01X0009037Y-010294D01*
G01X0009037Y-010286D01*
G01X0009029Y-010286D01*
G01X0009029Y-010186D01*
G01X0009037Y-010186D01*
G01X0009037Y-009716D01*
G01X0008946Y-009669D01*
G01X0008888Y-009686D01*
G01X0008785Y-009736D01*
G01X0008693Y-009804D01*
G01X0008616Y-009889D01*
G01X0008589Y-009935D01*
G01X0008572Y-009910D01*
G01X0008916Y-009566D01*
G01X0012292Y-009566D01*
G01X0012318Y-009660D01*
G01X0012415Y-009705D01*
G01X0012520Y-009731D01*
G01X0012627Y-009736D01*
G01X0012733Y-009720D01*
G01X0012834Y-009684D01*
G01X0012879Y-009660D01*
G01X0012904Y-009566D01*
G01X0012598Y-009260D01*
G01X0012292Y-009566D01*
G01X0008916Y-009566D01*
G01X0009264Y-009218D01*
G01X0012051Y-009218D01*
G01X0012067Y-009324D01*
G01X0012104Y-009425D01*
G01X0012128Y-009469D01*
G01X0012222Y-009495D01*
G01X0012528Y-009189D01*
G01X0012669Y-009189D01*
G01X0012975Y-009495D01*
G01X0013069Y-009469D01*
G01X0013115Y-009372D01*
G01X0013141Y-009268D01*
G01X0013146Y-009160D01*
G01X0013130Y-009054D01*
G01X0013093Y-008953D01*
G01X0013069Y-008909D01*
G01X0012975Y-008883D01*
G01X0012669Y-009189D01*
G01X0012528Y-009189D01*
G01X0012222Y-008883D01*
G01X0012128Y-008909D01*
G01X0012082Y-009006D01*
G01X0012056Y-009110D01*
G01X0012051Y-009218D01*
G01X0009264Y-009218D01*
G01X0009334Y-009148D01*
G01X0010927Y-009148D01*
G01X0010993Y-009141D01*
G01X0011077Y-009116D01*
G01X0011155Y-009074D01*
G01X0011223Y-009018D01*
G01X0011279Y-008950D01*
G01X0011320Y-008873D01*
G01X0011346Y-008788D01*
G01X0011354Y-008703D01*
G01X0011413Y-008715D01*
G01X0011516Y-008715D01*
G01X0011618Y-008694D01*
G01X0011714Y-008655D01*
G01X0011742Y-008636D01*
G01X0012286Y-008636D01*
G01X0012340Y-008672D01*
G01X0012379Y-008688D01*
G01X0012363Y-008694D01*
G01X0012318Y-008718D01*
G01X0012292Y-008812D01*
G01X0012598Y-009118D01*
G01X0012904Y-008812D01*
G01X0012879Y-008718D01*
G01X0012816Y-008689D01*
G01X0012857Y-008672D01*
G01X0012946Y-008613D01*
G01X0013022Y-008537D01*
G01X0013082Y-008447D01*
G01X0013123Y-008348D01*
G01X0013144Y-008243D01*
G01X0013144Y-008135D01*
G01X0013123Y-008030D01*
G01X0013082Y-007931D01*
G01X0013022Y-007841D01*
G01X0012946Y-007765D01*
G01X0012900Y-007735D01*
G01X0012943Y-007731D01*
G01X0012990Y-007716D01*
G01X0013033Y-007693D01*
G01X0013071Y-007662D01*
G01X0013093Y-007636D01*
G01X0014090Y-007636D01*
G01X0014099Y-007645D01*
G37*
G01X0014099Y-007645D02*
G01X0014099Y-007933D01*
G01X0014099Y-007933D02*
G01X0014104Y-007982D01*
G01X0014104Y-007982D02*
G01X0014118Y-008029D01*
G01X0014118Y-008029D02*
G01X0014142Y-008073D01*
G01X0014142Y-008073D02*
G01X0014173Y-008111D01*
G01X0014173Y-008111D02*
G01X0014211Y-008142D01*
G01X0014211Y-008142D02*
G01X0014254Y-008165D01*
G01X0014254Y-008165D02*
G01X0014301Y-008179D01*
G01X0014301Y-008179D02*
G01X0014350Y-008184D01*
G01X0014350Y-008184D02*
G01X0015020Y-008184D01*
G01X0015020Y-008184D02*
G01X0015069Y-008179D01*
G01X0015069Y-008179D02*
G01X0015116Y-008165D01*
G01X0015116Y-008165D02*
G01X0015159Y-008142D01*
G01X0015159Y-008142D02*
G01X0015197Y-008111D01*
G01X0015197Y-008111D02*
G01X0015229Y-008073D01*
G01X0015229Y-008073D02*
G01X0015252Y-008029D01*
G01X0015252Y-008029D02*
G01X0015260Y-008001D01*
G01X0015260Y-008001D02*
G01X0015262Y-008014D01*
G01X0015262Y-008014D02*
G01X0015262Y-008620D01*
G01X0015262Y-008620D02*
G01X0015243Y-008649D01*
G01X0015243Y-008649D02*
G01X0015209Y-008731D01*
G01X0015209Y-008731D02*
G01X0015174Y-008649D01*
G01X0015174Y-008649D02*
G01X0015117Y-008563D01*
G01X0015117Y-008563D02*
G01X0015044Y-008489D01*
G01X0015044Y-008489D02*
G01X0014958Y-008432D01*
G01X0014958Y-008432D02*
G01X0014862Y-008392D01*
G01X0014862Y-008392D02*
G01X0014760Y-008372D01*
G01X0014760Y-008372D02*
G01X0014657Y-008372D01*
G01X0014657Y-008372D02*
G01X0014555Y-008392D01*
G01X0014555Y-008392D02*
G01X0014460Y-008432D01*
G01X0014460Y-008432D02*
G01X0014374Y-008489D01*
G01X0014374Y-008489D02*
G01X0014300Y-008563D01*
G01X0014300Y-008563D02*
G01X0014243Y-008649D01*
G01X0014243Y-008649D02*
G01X0014203Y-008744D01*
G01X0014203Y-008744D02*
G01X0014183Y-008846D01*
G01X0014183Y-008846D02*
G01X0014183Y-008930D01*
G01X0014183Y-008930D02*
G01X0012714Y-010400D01*
G01X0012714Y-010400D02*
G01X0011650Y-010400D01*
G01X0011650Y-010400D02*
G01X0011671Y-010294D01*
G01X0011671Y-010294D02*
G01X0011671Y-010179D01*
G01X0011671Y-010179D02*
G01X0011649Y-010066D01*
G01X0011649Y-010066D02*
G01X0011605Y-009959D01*
G01X0011605Y-009959D02*
G01X0011541Y-009864D01*
G01X0011541Y-009864D02*
G01X0011459Y-009782D01*
G01X0011459Y-009782D02*
G01X0011364Y-009718D01*
G01X0011364Y-009718D02*
G01X0011257Y-009674D01*
G01X0011257Y-009674D02*
G01X0011144Y-009652D01*
G01X0011144Y-009652D02*
G01X0011029Y-009652D01*
G01X0011029Y-009652D02*
G01X0010916Y-009674D01*
G01X0010916Y-009674D02*
G01X0010810Y-009718D01*
G01X0010810Y-009718D02*
G01X0010714Y-009782D01*
G01X0010714Y-009782D02*
G01X0010632Y-009864D01*
G01X0010632Y-009864D02*
G01X0010587Y-009932D01*
G01X0010587Y-009932D02*
G01X0010541Y-009864D01*
G01X0010541Y-009864D02*
G01X0010459Y-009782D01*
G01X0010459Y-009782D02*
G01X0010364Y-009718D01*
G01X0010364Y-009718D02*
G01X0010257Y-009674D01*
G01X0010257Y-009674D02*
G01X0010144Y-009652D01*
G01X0010144Y-009652D02*
G01X0010029Y-009652D01*
G01X0010029Y-009652D02*
G01X0009916Y-009674D01*
G01X0009916Y-009674D02*
G01X0009810Y-009718D01*
G01X0009810Y-009718D02*
G01X0009714Y-009782D01*
G01X0009714Y-009782D02*
G01X0009632Y-009864D01*
G01X0009632Y-009864D02*
G01X0009585Y-009935D01*
G01X0009585Y-009935D02*
G01X0009557Y-009889D01*
G01X0009557Y-009889D02*
G01X0009480Y-009804D01*
G01X0009480Y-009804D02*
G01X0009389Y-009736D01*
G01X0009389Y-009736D02*
G01X0009285Y-009686D01*
G01X0009285Y-009686D02*
G01X0009227Y-009669D01*
G01X0009227Y-009669D02*
G01X0009137Y-009716D01*
G01X0009137Y-009716D02*
G01X0009137Y-010186D01*
G01X0009137Y-010186D02*
G01X0009144Y-010186D01*
G01X0009144Y-010186D02*
G01X0009144Y-010286D01*
G01X0009144Y-010286D02*
G01X0009137Y-010286D01*
G01X0009137Y-010286D02*
G01X0009137Y-010294D01*
G01X0009137Y-010294D02*
G01X0009037Y-010294D01*
G01X0009037Y-010294D02*
G01X0009037Y-010286D01*
G01X0009037Y-010286D02*
G01X0009029Y-010286D01*
G01X0009029Y-010286D02*
G01X0009029Y-010186D01*
G01X0009029Y-010186D02*
G01X0009037Y-010186D01*
G01X0009037Y-010186D02*
G01X0009037Y-009716D01*
G01X0009037Y-009716D02*
G01X0008946Y-009669D01*
G01X0008946Y-009669D02*
G01X0008888Y-009686D01*
G01X0008888Y-009686D02*
G01X0008785Y-009736D01*
G01X0008785Y-009736D02*
G01X0008693Y-009804D01*
G01X0008693Y-009804D02*
G01X0008616Y-009889D01*
G01X0008616Y-009889D02*
G01X0008589Y-009935D01*
G01X0008589Y-009935D02*
G01X0008572Y-009910D01*
G01X0008572Y-009910D02*
G01X0008916Y-009566D01*
G01X0008916Y-009566D02*
G01X0012292Y-009566D01*
G01X0012292Y-009566D02*
G01X0012318Y-009660D01*
G01X0012318Y-009660D02*
G01X0012415Y-009705D01*
G01X0012415Y-009705D02*
G01X0012520Y-009731D01*
G01X0012520Y-009731D02*
G01X0012627Y-009736D01*
G01X0012627Y-009736D02*
G01X0012733Y-009720D01*
G01X0012733Y-009720D02*
G01X0012834Y-009684D01*
G01X0012834Y-009684D02*
G01X0012879Y-009660D01*
G01X0012879Y-009660D02*
G01X0012904Y-009566D01*
G01X0012904Y-009566D02*
G01X0012598Y-009260D01*
G01X0012598Y-009260D02*
G01X0012292Y-009566D01*
G01X0012292Y-009566D02*
G01X0008916Y-009566D01*
G01X0008916Y-009566D02*
G01X0009264Y-009218D01*
G01X0009264Y-009218D02*
G01X0012051Y-009218D01*
G01X0012051Y-009218D02*
G01X0012067Y-009324D01*
G01X0012067Y-009324D02*
G01X0012104Y-009425D01*
G01X0012104Y-009425D02*
G01X0012128Y-009469D01*
G01X0012128Y-009469D02*
G01X0012222Y-009495D01*
G01X0012222Y-009495D02*
G01X0012528Y-009189D01*
G01X0012528Y-009189D02*
G01X0012669Y-009189D01*
G01X0012669Y-009189D02*
G01X0012975Y-009495D01*
G01X0012975Y-009495D02*
G01X0013069Y-009469D01*
G01X0013069Y-009469D02*
G01X0013115Y-009372D01*
G01X0013115Y-009372D02*
G01X0013141Y-009268D01*
G01X0013141Y-009268D02*
G01X0013146Y-009160D01*
G01X0013146Y-009160D02*
G01X0013130Y-009054D01*
G01X0013130Y-009054D02*
G01X0013093Y-008953D01*
G01X0013093Y-008953D02*
G01X0013069Y-008909D01*
G01X0013069Y-008909D02*
G01X0012975Y-008883D01*
G01X0012975Y-008883D02*
G01X0012669Y-009189D01*
G01X0012669Y-009189D02*
G01X0012528Y-009189D01*
G01X0012528Y-009189D02*
G01X0012222Y-008883D01*
G01X0012222Y-008883D02*
G01X0012128Y-008909D01*
G01X0012128Y-008909D02*
G01X0012082Y-009006D01*
G01X0012082Y-009006D02*
G01X0012056Y-009110D01*
G01X0012056Y-009110D02*
G01X0012051Y-009218D01*
G01X0012051Y-009218D02*
G01X0009264Y-009218D01*
G01X0009264Y-009218D02*
G01X0009334Y-009148D01*
G01X0009334Y-009148D02*
G01X0010927Y-009148D01*
G01X0010927Y-009148D02*
G01X0010993Y-009141D01*
G01X0010993Y-009141D02*
G01X0011077Y-009116D01*
G01X0011077Y-009116D02*
G01X0011155Y-009074D01*
G01X0011155Y-009074D02*
G01X0011223Y-009018D01*
G01X0011223Y-009018D02*
G01X0011279Y-008950D01*
G01X0011279Y-008950D02*
G01X0011320Y-008873D01*
G01X0011320Y-008873D02*
G01X0011346Y-008788D01*
G01X0011346Y-008788D02*
G01X0011354Y-008703D01*
G01X0011354Y-008703D02*
G01X0011413Y-008715D01*
G01X0011413Y-008715D02*
G01X0011516Y-008715D01*
G01X0011516Y-008715D02*
G01X0011618Y-008694D01*
G01X0011618Y-008694D02*
G01X0011714Y-008655D01*
G01X0011714Y-008655D02*
G01X0011742Y-008636D01*
G01X0011742Y-008636D02*
G01X0012286Y-008636D01*
G01X0012286Y-008636D02*
G01X0012340Y-008672D01*
G01X0012340Y-008672D02*
G01X0012379Y-008688D01*
G01X0012379Y-008688D02*
G01X0012363Y-008694D01*
G01X0012363Y-008694D02*
G01X0012318Y-008718D01*
G01X0012318Y-008718D02*
G01X0012292Y-008812D01*
G01X0012292Y-008812D02*
G01X0012598Y-009118D01*
G01X0012598Y-009118D02*
G01X0012904Y-008812D01*
G01X0012904Y-008812D02*
G01X0012879Y-008718D01*
G01X0012879Y-008718D02*
G01X0012816Y-008689D01*
G01X0012816Y-008689D02*
G01X0012857Y-008672D01*
G01X0012857Y-008672D02*
G01X0012946Y-008613D01*
G01X0012946Y-008613D02*
G01X0013022Y-008537D01*
G01X0013022Y-008537D02*
G01X0013082Y-008447D01*
G01X0013082Y-008447D02*
G01X0013123Y-008348D01*
G01X0013123Y-008348D02*
G01X0013144Y-008243D01*
G01X0013144Y-008243D02*
G01X0013144Y-008135D01*
G01X0013144Y-008135D02*
G01X0013123Y-008030D01*
G01X0013123Y-008030D02*
G01X0013082Y-007931D01*
G01X0013082Y-007931D02*
G01X0013022Y-007841D01*
G01X0013022Y-007841D02*
G01X0012946Y-007765D01*
G01X0012946Y-007765D02*
G01X0012900Y-007735D01*
G01X0012900Y-007735D02*
G01X0012943Y-007731D01*
G01X0012943Y-007731D02*
G01X0012990Y-007716D01*
G01X0012990Y-007716D02*
G01X0013033Y-007693D01*
G01X0013033Y-007693D02*
G01X0013071Y-007662D01*
G01X0013071Y-007662D02*
G01X0013093Y-007636D01*
G01X0013093Y-007636D02*
G01X0014090Y-007636D01*
G01X0014090Y-007636D02*
G01X0014099Y-007645D01*
G36*
G01X0004199Y-001469D02*
G01X0004219Y-001571D01*
G01X0004259Y-001666D01*
G01X0004316Y-001752D01*
G01X0004389Y-001826D01*
G01X0004427Y-001850D01*
G01X0004389Y-001875D01*
G01X0004316Y-001948D01*
G01X0004259Y-002035D01*
G01X0004219Y-002130D01*
G01X0004199Y-002232D01*
G01X0004199Y-002335D01*
G01X0004219Y-002437D01*
G01X0004259Y-002532D01*
G01X0004316Y-002619D01*
G01X0004389Y-002692D01*
G01X0004475Y-002749D01*
G01X0004558Y-002783D01*
G01X0004475Y-002818D01*
G01X0004389Y-002875D01*
G01X0004316Y-002948D01*
G01X0004259Y-003035D01*
G01X0004219Y-003130D01*
G01X0004199Y-003232D01*
G01X0004199Y-003335D01*
G01X0004219Y-003437D01*
G01X0004259Y-003532D01*
G01X0004316Y-003619D01*
G01X0004387Y-003689D01*
G01X0004316Y-003759D01*
G01X0004259Y-003846D01*
G01X0004219Y-003941D01*
G01X0004199Y-004043D01*
G01X0004199Y-004146D01*
G01X0004219Y-004248D01*
G01X0004259Y-004343D01*
G01X0004316Y-004430D01*
G01X0004389Y-004503D01*
G01X0004475Y-004560D01*
G01X0004558Y-004594D01*
G01X0004475Y-004629D01*
G01X0004389Y-004686D01*
G01X0004316Y-004759D01*
G01X0004259Y-004846D01*
G01X0004219Y-004941D01*
G01X0004199Y-005043D01*
G01X0004199Y-005146D01*
G01X0004219Y-005248D01*
G01X0004259Y-005343D01*
G01X0004316Y-005430D01*
G01X0004379Y-005492D01*
G01X0004316Y-005555D01*
G01X0004259Y-005641D01*
G01X0004219Y-005736D01*
G01X0004199Y-005838D01*
G01X0004199Y-005942D01*
G01X0004219Y-006043D01*
G01X0004259Y-006139D01*
G01X0004316Y-006225D01*
G01X0004389Y-006298D01*
G01X0004475Y-006356D01*
G01X0004558Y-006390D01*
G01X0004475Y-006424D01*
G01X0004389Y-006482D01*
G01X0004316Y-006555D01*
G01X0004259Y-006641D01*
G01X0004219Y-006736D01*
G01X0004199Y-006838D01*
G01X0004199Y-006942D01*
G01X0004219Y-007043D01*
G01X0004259Y-007139D01*
G01X0004316Y-007225D01*
G01X0004387Y-007295D01*
G01X0004316Y-007366D01*
G01X0004259Y-007452D01*
G01X0004219Y-007547D01*
G01X0004199Y-007649D01*
G01X0004199Y-007753D01*
G01X0004219Y-007854D01*
G01X0004259Y-007950D01*
G01X0004316Y-008036D01*
G01X0004389Y-008109D01*
G01X0004475Y-008167D01*
G01X0004558Y-008201D01*
G01X0004475Y-008235D01*
G01X0004389Y-008293D01*
G01X0004316Y-008366D01*
G01X0004259Y-008452D01*
G01X0004219Y-008547D01*
G01X0004199Y-008649D01*
G01X0004199Y-008753D01*
G01X0004219Y-008854D01*
G01X0004259Y-008950D01*
G01X0004316Y-009036D01*
G01X0004389Y-009109D01*
G01X0004444Y-009146D01*
G01X0004389Y-009182D01*
G01X0004316Y-009256D01*
G01X0004259Y-009342D01*
G01X0004219Y-009437D01*
G01X0004199Y-009539D01*
G01X0004199Y-009642D01*
G01X0004219Y-009744D01*
G01X0004235Y-009781D01*
G01X0004169Y-009781D01*
G01X0004179Y-009749D01*
G01X0004187Y-009666D01*
G01X0004187Y-009295D01*
G01X0004179Y-009212D01*
G01X0004147Y-009106D01*
G01X0004094Y-009007D01*
G01X0004069Y-008977D01*
G01X0004069Y-004348D01*
G01X0004062Y-004282D01*
G01X0004037Y-004198D01*
G01X0003995Y-004121D01*
G01X0003940Y-004053D01*
G01X0003872Y-003997D01*
G01X0003794Y-003955D01*
G01X0003710Y-003930D01*
G01X0003636Y-003922D01*
G01X0003636Y-003077D01*
G01X0003638Y-003055D01*
G01X0003636Y-003033D01*
G01X0003636Y-003033D01*
G01X0003629Y-002968D01*
G01X0003604Y-002883D01*
G01X0003562Y-002806D01*
G01X0003506Y-002738D01*
G01X0003489Y-002724D01*
G01X0003150Y-002384D01*
G01X0003143Y-002351D01*
G01X0003104Y-002255D01*
G01X0003085Y-002227D01*
G01X0003085Y-001980D01*
G01X0003094Y-001969D01*
G01X0003122Y-001917D01*
G01X0003150Y-001969D01*
G01X0003221Y-002055D01*
G01X0003307Y-002126D01*
G01X0003405Y-002178D01*
G01X0003511Y-002210D01*
G01X0003622Y-002221D01*
G01X0003733Y-002210D01*
G01X0003839Y-002178D01*
G01X0003937Y-002126D01*
G01X0004023Y-002055D01*
G01X0004094Y-001969D01*
G01X0004147Y-001871D01*
G01X0004179Y-001764D01*
G01X0004187Y-001681D01*
G01X0004187Y-001424D01*
G01X0004199Y-001412D01*
G01X0004199Y-001469D01*
G37*
G01X0004199Y-001469D02*
G01X0004219Y-001571D01*
G01X0004219Y-001571D02*
G01X0004259Y-001666D01*
G01X0004259Y-001666D02*
G01X0004316Y-001752D01*
G01X0004316Y-001752D02*
G01X0004389Y-001826D01*
G01X0004389Y-001826D02*
G01X0004427Y-001850D01*
G01X0004427Y-001850D02*
G01X0004389Y-001875D01*
G01X0004389Y-001875D02*
G01X0004316Y-001948D01*
G01X0004316Y-001948D02*
G01X0004259Y-002035D01*
G01X0004259Y-002035D02*
G01X0004219Y-002130D01*
G01X0004219Y-002130D02*
G01X0004199Y-002232D01*
G01X0004199Y-002232D02*
G01X0004199Y-002335D01*
G01X0004199Y-002335D02*
G01X0004219Y-002437D01*
G01X0004219Y-002437D02*
G01X0004259Y-002532D01*
G01X0004259Y-002532D02*
G01X0004316Y-002619D01*
G01X0004316Y-002619D02*
G01X0004389Y-002692D01*
G01X0004389Y-002692D02*
G01X0004475Y-002749D01*
G01X0004475Y-002749D02*
G01X0004558Y-002783D01*
G01X0004558Y-002783D02*
G01X0004475Y-002818D01*
G01X0004475Y-002818D02*
G01X0004389Y-002875D01*
G01X0004389Y-002875D02*
G01X0004316Y-002948D01*
G01X0004316Y-002948D02*
G01X0004259Y-003035D01*
G01X0004259Y-003035D02*
G01X0004219Y-003130D01*
G01X0004219Y-003130D02*
G01X0004199Y-003232D01*
G01X0004199Y-003232D02*
G01X0004199Y-003335D01*
G01X0004199Y-003335D02*
G01X0004219Y-003437D01*
G01X0004219Y-003437D02*
G01X0004259Y-003532D01*
G01X0004259Y-003532D02*
G01X0004316Y-003619D01*
G01X0004316Y-003619D02*
G01X0004387Y-003689D01*
G01X0004387Y-003689D02*
G01X0004316Y-003759D01*
G01X0004316Y-003759D02*
G01X0004259Y-003846D01*
G01X0004259Y-003846D02*
G01X0004219Y-003941D01*
G01X0004219Y-003941D02*
G01X0004199Y-004043D01*
G01X0004199Y-004043D02*
G01X0004199Y-004146D01*
G01X0004199Y-004146D02*
G01X0004219Y-004248D01*
G01X0004219Y-004248D02*
G01X0004259Y-004343D01*
G01X0004259Y-004343D02*
G01X0004316Y-004430D01*
G01X0004316Y-004430D02*
G01X0004389Y-004503D01*
G01X0004389Y-004503D02*
G01X0004475Y-004560D01*
G01X0004475Y-004560D02*
G01X0004558Y-004594D01*
G01X0004558Y-004594D02*
G01X0004475Y-004629D01*
G01X0004475Y-004629D02*
G01X0004389Y-004686D01*
G01X0004389Y-004686D02*
G01X0004316Y-004759D01*
G01X0004316Y-004759D02*
G01X0004259Y-004846D01*
G01X0004259Y-004846D02*
G01X0004219Y-004941D01*
G01X0004219Y-004941D02*
G01X0004199Y-005043D01*
G01X0004199Y-005043D02*
G01X0004199Y-005146D01*
G01X0004199Y-005146D02*
G01X0004219Y-005248D01*
G01X0004219Y-005248D02*
G01X0004259Y-005343D01*
G01X0004259Y-005343D02*
G01X0004316Y-005430D01*
G01X0004316Y-005430D02*
G01X0004379Y-005492D01*
G01X0004379Y-005492D02*
G01X0004316Y-005555D01*
G01X0004316Y-005555D02*
G01X0004259Y-005641D01*
G01X0004259Y-005641D02*
G01X0004219Y-005736D01*
G01X0004219Y-005736D02*
G01X0004199Y-005838D01*
G01X0004199Y-005838D02*
G01X0004199Y-005942D01*
G01X0004199Y-005942D02*
G01X0004219Y-006043D01*
G01X0004219Y-006043D02*
G01X0004259Y-006139D01*
G01X0004259Y-006139D02*
G01X0004316Y-006225D01*
G01X0004316Y-006225D02*
G01X0004389Y-006298D01*
G01X0004389Y-006298D02*
G01X0004475Y-006356D01*
G01X0004475Y-006356D02*
G01X0004558Y-006390D01*
G01X0004558Y-006390D02*
G01X0004475Y-006424D01*
G01X0004475Y-006424D02*
G01X0004389Y-006482D01*
G01X0004389Y-006482D02*
G01X0004316Y-006555D01*
G01X0004316Y-006555D02*
G01X0004259Y-006641D01*
G01X0004259Y-006641D02*
G01X0004219Y-006736D01*
G01X0004219Y-006736D02*
G01X0004199Y-006838D01*
G01X0004199Y-006838D02*
G01X0004199Y-006942D01*
G01X0004199Y-006942D02*
G01X0004219Y-007043D01*
G01X0004219Y-007043D02*
G01X0004259Y-007139D01*
G01X0004259Y-007139D02*
G01X0004316Y-007225D01*
G01X0004316Y-007225D02*
G01X0004387Y-007295D01*
G01X0004387Y-007295D02*
G01X0004316Y-007366D01*
G01X0004316Y-007366D02*
G01X0004259Y-007452D01*
G01X0004259Y-007452D02*
G01X0004219Y-007547D01*
G01X0004219Y-007547D02*
G01X0004199Y-007649D01*
G01X0004199Y-007649D02*
G01X0004199Y-007753D01*
G01X0004199Y-007753D02*
G01X0004219Y-007854D01*
G01X0004219Y-007854D02*
G01X0004259Y-007950D01*
G01X0004259Y-007950D02*
G01X0004316Y-008036D01*
G01X0004316Y-008036D02*
G01X0004389Y-008109D01*
G01X0004389Y-008109D02*
G01X0004475Y-008167D01*
G01X0004475Y-008167D02*
G01X0004558Y-008201D01*
G01X0004558Y-008201D02*
G01X0004475Y-008235D01*
G01X0004475Y-008235D02*
G01X0004389Y-008293D01*
G01X0004389Y-008293D02*
G01X0004316Y-008366D01*
G01X0004316Y-008366D02*
G01X0004259Y-008452D01*
G01X0004259Y-008452D02*
G01X0004219Y-008547D01*
G01X0004219Y-008547D02*
G01X0004199Y-008649D01*
G01X0004199Y-008649D02*
G01X0004199Y-008753D01*
G01X0004199Y-008753D02*
G01X0004219Y-008854D01*
G01X0004219Y-008854D02*
G01X0004259Y-008950D01*
G01X0004259Y-008950D02*
G01X0004316Y-009036D01*
G01X0004316Y-009036D02*
G01X0004389Y-009109D01*
G01X0004389Y-009109D02*
G01X0004444Y-009146D01*
G01X0004444Y-009146D02*
G01X0004389Y-009182D01*
G01X0004389Y-009182D02*
G01X0004316Y-009256D01*
G01X0004316Y-009256D02*
G01X0004259Y-009342D01*
G01X0004259Y-009342D02*
G01X0004219Y-009437D01*
G01X0004219Y-009437D02*
G01X0004199Y-009539D01*
G01X0004199Y-009539D02*
G01X0004199Y-009642D01*
G01X0004199Y-009642D02*
G01X0004219Y-009744D01*
G01X0004219Y-009744D02*
G01X0004235Y-009781D01*
G01X0004235Y-009781D02*
G01X0004169Y-009781D01*
G01X0004169Y-009781D02*
G01X0004179Y-009749D01*
G01X0004179Y-009749D02*
G01X0004187Y-009666D01*
G01X0004187Y-009666D02*
G01X0004187Y-009295D01*
G01X0004187Y-009295D02*
G01X0004179Y-009212D01*
G01X0004179Y-009212D02*
G01X0004147Y-009106D01*
G01X0004147Y-009106D02*
G01X0004094Y-009007D01*
G01X0004094Y-009007D02*
G01X0004069Y-008977D01*
G01X0004069Y-008977D02*
G01X0004069Y-004348D01*
G01X0004069Y-004348D02*
G01X0004062Y-004282D01*
G01X0004062Y-004282D02*
G01X0004037Y-004198D01*
G01X0004037Y-004198D02*
G01X0003995Y-004121D01*
G01X0003995Y-004121D02*
G01X0003940Y-004053D01*
G01X0003940Y-004053D02*
G01X0003872Y-003997D01*
G01X0003872Y-003997D02*
G01X0003794Y-003955D01*
G01X0003794Y-003955D02*
G01X0003710Y-003930D01*
G01X0003710Y-003930D02*
G01X0003636Y-003922D01*
G01X0003636Y-003922D02*
G01X0003636Y-003077D01*
G01X0003636Y-003077D02*
G01X0003638Y-003055D01*
G01X0003638Y-003055D02*
G01X0003636Y-003033D01*
G01X0003636Y-003033D02*
G01X0003636Y-003033D01*
G01X0003636Y-003033D02*
G01X0003629Y-002968D01*
G01X0003629Y-002968D02*
G01X0003604Y-002883D01*
G01X0003604Y-002883D02*
G01X0003562Y-002806D01*
G01X0003562Y-002806D02*
G01X0003506Y-002738D01*
G01X0003506Y-002738D02*
G01X0003489Y-002724D01*
G01X0003489Y-002724D02*
G01X0003150Y-002384D01*
G01X0003150Y-002384D02*
G01X0003143Y-002351D01*
G01X0003143Y-002351D02*
G01X0003104Y-002255D01*
G01X0003104Y-002255D02*
G01X0003085Y-002227D01*
G01X0003085Y-002227D02*
G01X0003085Y-001980D01*
G01X0003085Y-001980D02*
G01X0003094Y-001969D01*
G01X0003094Y-001969D02*
G01X0003122Y-001917D01*
G01X0003122Y-001917D02*
G01X0003150Y-001969D01*
G01X0003150Y-001969D02*
G01X0003221Y-002055D01*
G01X0003221Y-002055D02*
G01X0003307Y-002126D01*
G01X0003307Y-002126D02*
G01X0003405Y-002178D01*
G01X0003405Y-002178D02*
G01X0003511Y-002210D01*
G01X0003511Y-002210D02*
G01X0003622Y-002221D01*
G01X0003622Y-002221D02*
G01X0003733Y-002210D01*
G01X0003733Y-002210D02*
G01X0003839Y-002178D01*
G01X0003839Y-002178D02*
G01X0003937Y-002126D01*
G01X0003937Y-002126D02*
G01X0004023Y-002055D01*
G01X0004023Y-002055D02*
G01X0004094Y-001969D01*
G01X0004094Y-001969D02*
G01X0004147Y-001871D01*
G01X0004147Y-001871D02*
G01X0004179Y-001764D01*
G01X0004179Y-001764D02*
G01X0004187Y-001681D01*
G01X0004187Y-001681D02*
G01X0004187Y-001424D01*
G01X0004187Y-001424D02*
G01X0004199Y-001412D01*
G01X0004199Y-001412D02*
G01X0004199Y-001469D01*
G36*
G01X0013821Y-006078D02*
G01X0013887Y-006085D01*
G01X0013887Y-006085D01*
G01X0013909Y-006087D01*
G01X0013931Y-006085D01*
G01X0014297Y-006085D01*
G01X0014271Y-006133D01*
G01X0014270Y-006135D01*
G01X0014245Y-006219D01*
G01X0014236Y-006307D01*
G01X0014238Y-006329D01*
G01X0014238Y-006742D01*
G01X0013332Y-006742D01*
G01X0013414Y-006668D01*
G01X0013485Y-006573D01*
G01X0013536Y-006467D01*
G01X0013556Y-006403D01*
G01X0013508Y-006310D01*
G01X0013019Y-006310D01*
G01X0013019Y-006318D01*
G01X0012919Y-006318D01*
G01X0012919Y-006310D01*
G01X0012911Y-006310D01*
G01X0012911Y-006210D01*
G01X0012919Y-006210D01*
G01X0012919Y-006202D01*
G01X0013019Y-006202D01*
G01X0013019Y-006210D01*
G01X0013508Y-006210D01*
G01X0013556Y-006116D01*
G01X0013544Y-006077D01*
G01X0013816Y-006077D01*
G01X0013821Y-006078D01*
G37*
G01X0013821Y-006078D02*
G01X0013887Y-006085D01*
G01X0013887Y-006085D02*
G01X0013887Y-006085D01*
G01X0013887Y-006085D02*
G01X0013909Y-006087D01*
G01X0013909Y-006087D02*
G01X0013931Y-006085D01*
G01X0013931Y-006085D02*
G01X0014297Y-006085D01*
G01X0014297Y-006085D02*
G01X0014271Y-006133D01*
G01X0014271Y-006133D02*
G01X0014270Y-006135D01*
G01X0014270Y-006135D02*
G01X0014245Y-006219D01*
G01X0014245Y-006219D02*
G01X0014236Y-006307D01*
G01X0014236Y-006307D02*
G01X0014238Y-006329D01*
G01X0014238Y-006329D02*
G01X0014238Y-006742D01*
G01X0014238Y-006742D02*
G01X0013332Y-006742D01*
G01X0013332Y-006742D02*
G01X0013414Y-006668D01*
G01X0013414Y-006668D02*
G01X0013485Y-006573D01*
G01X0013485Y-006573D02*
G01X0013536Y-006467D01*
G01X0013536Y-006467D02*
G01X0013556Y-006403D01*
G01X0013556Y-006403D02*
G01X0013508Y-006310D01*
G01X0013508Y-006310D02*
G01X0013019Y-006310D01*
G01X0013019Y-006310D02*
G01X0013019Y-006318D01*
G01X0013019Y-006318D02*
G01X0012919Y-006318D01*
G01X0012919Y-006318D02*
G01X0012919Y-006310D01*
G01X0012919Y-006310D02*
G01X0012911Y-006310D01*
G01X0012911Y-006310D02*
G01X0012911Y-006210D01*
G01X0012911Y-006210D02*
G01X0012919Y-006210D01*
G01X0012919Y-006210D02*
G01X0012919Y-006202D01*
G01X0012919Y-006202D02*
G01X0013019Y-006202D01*
G01X0013019Y-006202D02*
G01X0013019Y-006210D01*
G01X0013019Y-006210D02*
G01X0013508Y-006210D01*
G01X0013508Y-006210D02*
G01X0013556Y-006116D01*
G01X0013556Y-006116D02*
G01X0013544Y-006077D01*
G01X0013544Y-006077D02*
G01X0013816Y-006077D01*
G01X0013816Y-006077D02*
G01X0013821Y-006078D01*
G36*
G01X0020360Y-000858D02*
G01X0020323Y-000827D01*
G01X0020225Y-000775D01*
G01X0020119Y-000742D01*
G01X0020008Y-000732D01*
G01X0019897Y-000742D01*
G01X0019791Y-000775D01*
G01X0019692Y-000827D01*
G01X0019606Y-000898D01*
G01X0019536Y-000984D01*
G01X0019509Y-001034D01*
G01X0019450Y-000944D01*
G01X0019372Y-000864D01*
G01X0019280Y-000802D01*
G01X0019178Y-000758D01*
G01X0019145Y-000751D01*
G01X0019058Y-000799D01*
G01X0019058Y-001407D01*
G01X0019066Y-001407D01*
G01X0019066Y-001507D01*
G01X0019058Y-001507D01*
G01X0019058Y-002114D01*
G01X0019145Y-002162D01*
G01X0019178Y-002155D01*
G01X0019280Y-002112D01*
G01X0019372Y-002049D01*
G01X0019450Y-001970D01*
G01X0019509Y-001879D01*
G01X0019536Y-001930D01*
G01X0019606Y-002016D01*
G01X0019692Y-002086D01*
G01X0019791Y-002139D01*
G01X0019897Y-002171D01*
G01X0020008Y-002182D01*
G01X0020119Y-002171D01*
G01X0020225Y-002139D01*
G01X0020323Y-002086D01*
G01X0020360Y-002056D01*
G01X0020360Y-003758D01*
G01X0020336Y-003722D01*
G01X0020255Y-003640D01*
G01X0020159Y-003576D01*
G01X0020052Y-003532D01*
G01X0019939Y-003510D01*
G01X0019824Y-003510D01*
G01X0019711Y-003532D01*
G01X0019605Y-003576D01*
G01X0019509Y-003640D01*
G01X0019502Y-003648D01*
G01X0018939Y-003648D01*
G01X0018917Y-003645D01*
G01X0018895Y-003648D01*
G01X0018830Y-003654D01*
G01X0018745Y-003680D01*
G01X0018668Y-003721D01*
G01X0018600Y-003777D01*
G01X0018586Y-003794D01*
G01X0016655Y-005725D01*
G01X0016646Y-005707D01*
G01X0016615Y-005669D01*
G01X0016577Y-005638D01*
G01X0016533Y-005614D01*
G01X0016486Y-005600D01*
G01X0016437Y-005595D01*
G01X0016043Y-005595D01*
G01X0016059Y-005592D01*
G01X0016154Y-005552D01*
G01X0016241Y-005495D01*
G01X0016314Y-005422D01*
G01X0016371Y-005336D01*
G01X0016411Y-005240D01*
G01X0016431Y-005138D01*
G01X0016431Y-005035D01*
G01X0016411Y-004933D01*
G01X0016371Y-004838D01*
G01X0016314Y-004752D01*
G01X0016241Y-004678D01*
G01X0016154Y-004621D01*
G01X0016059Y-004581D01*
G01X0015957Y-004561D01*
G01X0015854Y-004561D01*
G01X0015752Y-004581D01*
G01X0015657Y-004621D01*
G01X0015570Y-004678D01*
G01X0015497Y-004752D01*
G01X0015472Y-004789D01*
G01X0015448Y-004752D01*
G01X0015374Y-004678D01*
G01X0015288Y-004621D01*
G01X0015193Y-004581D01*
G01X0015091Y-004561D01*
G01X0014988Y-004561D01*
G01X0014886Y-004581D01*
G01X0014790Y-004621D01*
G01X0014704Y-004678D01*
G01X0014631Y-004752D01*
G01X0014620Y-004768D01*
G01X0014620Y-004392D01*
G01X0014622Y-004370D01*
G01X0014620Y-004348D01*
G01X0014620Y-004348D01*
G01X0014614Y-004282D01*
G01X0014588Y-004198D01*
G01X0014547Y-004121D01*
G01X0014491Y-004053D01*
G01X0014474Y-004039D01*
G01X0013450Y-003015D01*
G01X0013438Y-002951D01*
G01X0013397Y-002852D01*
G01X0013337Y-002763D01*
G01X0013261Y-002687D01*
G01X0013172Y-002627D01*
G01X0013133Y-002611D01*
G01X0013149Y-002605D01*
G01X0013194Y-002581D01*
G01X0013219Y-002487D01*
G01X0012913Y-002181D01*
G01X0012607Y-002487D01*
G01X0012633Y-002581D01*
G01X0012695Y-002610D01*
G01X0012655Y-002627D01*
G01X0012601Y-002663D01*
G01X0011742Y-002663D01*
G01X0011714Y-002644D01*
G01X0011618Y-002605D01*
G01X0011516Y-002585D01*
G01X0011413Y-002585D01*
G01X0011311Y-002605D01*
G01X0011216Y-002644D01*
G01X0011130Y-002702D01*
G01X0011056Y-002775D01*
G01X0010999Y-002861D01*
G01X0010959Y-002957D01*
G01X0010939Y-003058D01*
G01X0010939Y-003162D01*
G01X0010959Y-003264D01*
G01X0010999Y-003359D01*
G01X0011018Y-003388D01*
G01X0011018Y-003501D01*
G01X0010926Y-003452D01*
G01X0010819Y-003420D01*
G01X0010709Y-003409D01*
G01X0010598Y-003420D01*
G01X0010565Y-003430D01*
G01X0010565Y-003226D01*
G01X0010567Y-003209D01*
G01X0010565Y-003192D01*
G01X0010565Y-003192D01*
G01X0010560Y-003140D01*
G01X0010540Y-003075D01*
G01X0010508Y-003014D01*
G01X0010492Y-002995D01*
G01X0010475Y-002974D01*
G01X0010475Y-002974D01*
G01X0010464Y-002961D01*
G01X0010451Y-002950D01*
G01X0009877Y-002376D01*
G01X0012025Y-002376D01*
G01X0012047Y-002378D01*
G01X0012069Y-002376D01*
G01X0012069Y-002376D01*
G01X0012135Y-002370D01*
G01X0012219Y-002344D01*
G01X0012297Y-002302D01*
G01X0012365Y-002247D01*
G01X0012379Y-002230D01*
G01X0012380Y-002229D01*
G01X0012382Y-002245D01*
G01X0012419Y-002346D01*
G01X0012443Y-002390D01*
G01X0012537Y-002416D01*
G01X0012843Y-002110D01*
G01X0012837Y-002105D01*
G01X0012908Y-002034D01*
G01X0012913Y-002040D01*
G01X0012919Y-002034D01*
G01X0012990Y-002105D01*
G01X0012984Y-002110D01*
G01X0013290Y-002416D01*
G01X0013384Y-002390D01*
G01X0013430Y-002293D01*
G01X0013456Y-002189D01*
G01X0013461Y-002082D01*
G01X0013447Y-001992D01*
G01X0013661Y-002207D01*
G01X0013668Y-002240D01*
G01X0013707Y-002336D01*
G01X0013765Y-002422D01*
G01X0013838Y-002495D01*
G01X0013924Y-002552D01*
G01X0014020Y-002592D01*
G01X0014121Y-002612D01*
G01X0014225Y-002612D01*
G01X0014327Y-002592D01*
G01X0014422Y-002552D01*
G01X0014508Y-002495D01*
G01X0014581Y-002422D01*
G01X0014606Y-002385D01*
G01X0014631Y-002422D01*
G01X0014704Y-002495D01*
G01X0014790Y-002552D01*
G01X0014886Y-002592D01*
G01X0014988Y-002612D01*
G01X0015091Y-002612D01*
G01X0015193Y-002592D01*
G01X0015288Y-002552D01*
G01X0015374Y-002495D01*
G01X0015448Y-002422D01*
G01X0015472Y-002385D01*
G01X0015497Y-002422D01*
G01X0015570Y-002495D01*
G01X0015657Y-002552D01*
G01X0015752Y-002592D01*
G01X0015854Y-002612D01*
G01X0015957Y-002612D01*
G01X0016059Y-002592D01*
G01X0016154Y-002552D01*
G01X0016241Y-002495D01*
G01X0016314Y-002422D01*
G01X0016371Y-002336D01*
G01X0016411Y-002240D01*
G01X0016431Y-002138D01*
G01X0016431Y-002035D01*
G01X0016411Y-001933D01*
G01X0016371Y-001838D01*
G01X0016314Y-001752D01*
G01X0016241Y-001678D01*
G01X0016154Y-001621D01*
G01X0016059Y-001581D01*
G01X0016025Y-001575D01*
G01X0015646Y-001196D01*
G01X0015632Y-001179D01*
G01X0015564Y-001123D01*
G01X0015487Y-001081D01*
G01X0015403Y-001056D01*
G01X0015337Y-001049D01*
G01X0015337Y-001049D01*
G01X0015315Y-001047D01*
G01X0015293Y-001049D01*
G01X0014471Y-001049D01*
G01X0014449Y-001047D01*
G01X0014427Y-001049D01*
G01X0013605Y-001049D01*
G01X0013583Y-001047D01*
G01X0013561Y-001049D01*
G01X0012502Y-001049D01*
G01X0012480Y-001047D01*
G01X0012458Y-001049D01*
G01X0012393Y-001056D01*
G01X0012308Y-001081D01*
G01X0012231Y-001123D01*
G01X0012163Y-001179D01*
G01X0012149Y-001196D01*
G01X0011862Y-001482D01*
G01X0010924Y-001482D01*
G01X0011079Y-001327D01*
G01X0011108Y-001333D01*
G01X0011223Y-001333D01*
G01X0011336Y-001310D01*
G01X0011442Y-001266D01*
G01X0011538Y-001202D01*
G01X0011619Y-001121D01*
G01X0011683Y-001025D01*
G01X0011700Y-000984D01*
G01X0016442Y-000984D01*
G01X0016442Y-001929D01*
G01X0016447Y-001978D01*
G01X0016461Y-002025D01*
G01X0016484Y-002069D01*
G01X0016515Y-002107D01*
G01X0016553Y-002138D01*
G01X0016597Y-002161D01*
G01X0016644Y-002176D01*
G01X0016693Y-002180D01*
G01X0017323Y-002180D01*
G01X0017372Y-002176D01*
G01X0017419Y-002161D01*
G01X0017462Y-002138D01*
G01X0017500Y-002107D01*
G01X0017532Y-002069D01*
G01X0017555Y-002025D01*
G01X0017569Y-001978D01*
G01X0017570Y-001971D01*
G01X0017606Y-002016D01*
G01X0017692Y-002086D01*
G01X0017791Y-002139D01*
G01X0017897Y-002171D01*
G01X0018008Y-002182D01*
G01X0018119Y-002171D01*
G01X0018225Y-002139D01*
G01X0018323Y-002086D01*
G01X0018409Y-002016D01*
G01X0018480Y-001930D01*
G01X0018507Y-001879D01*
G01X0018566Y-001970D01*
G01X0018644Y-002049D01*
G01X0018736Y-002112D01*
G01X0018838Y-002155D01*
G01X0018870Y-002162D01*
G01X0018958Y-002114D01*
G01X0018958Y-001507D01*
G01X0018950Y-001507D01*
G01X0018950Y-001407D01*
G01X0018958Y-001407D01*
G01X0018958Y-000799D01*
G01X0018870Y-000751D01*
G01X0018838Y-000758D01*
G01X0018736Y-000802D01*
G01X0018644Y-000864D01*
G01X0018566Y-000944D01*
G01X0018507Y-001034D01*
G01X0018480Y-000984D01*
G01X0018409Y-000898D01*
G01X0018323Y-000827D01*
G01X0018225Y-000775D01*
G01X0018119Y-000742D01*
G01X0018008Y-000732D01*
G01X0017897Y-000742D01*
G01X0017791Y-000775D01*
G01X0017692Y-000827D01*
G01X0017606Y-000898D01*
G01X0017570Y-000942D01*
G01X0017569Y-000935D01*
G01X0017555Y-000888D01*
G01X0017532Y-000845D01*
G01X0017500Y-000807D01*
G01X0017462Y-000775D01*
G01X0017419Y-000752D01*
G01X0017372Y-000738D01*
G01X0017323Y-000733D01*
G01X0016693Y-000733D01*
G01X0016644Y-000738D01*
G01X0016597Y-000752D01*
G01X0016553Y-000775D01*
G01X0016515Y-000807D01*
G01X0016484Y-000845D01*
G01X0016461Y-000888D01*
G01X0016447Y-000935D01*
G01X0016442Y-000984D01*
G01X0011700Y-000984D01*
G01X0011728Y-000919D01*
G01X0011750Y-000806D01*
G01X0011750Y-000690D01*
G01X0011728Y-000577D01*
G01X0011683Y-000471D01*
G01X0011619Y-000375D01*
G01X0011538Y-000294D01*
G01X0011502Y-000270D01*
G01X0020360Y-000270D01*
G01X0020360Y-000858D01*
G37*
G01X0020360Y-000858D02*
G01X0020323Y-000827D01*
G01X0020323Y-000827D02*
G01X0020225Y-000775D01*
G01X0020225Y-000775D02*
G01X0020119Y-000742D01*
G01X0020119Y-000742D02*
G01X0020008Y-000732D01*
G01X0020008Y-000732D02*
G01X0019897Y-000742D01*
G01X0019897Y-000742D02*
G01X0019791Y-000775D01*
G01X0019791Y-000775D02*
G01X0019692Y-000827D01*
G01X0019692Y-000827D02*
G01X0019606Y-000898D01*
G01X0019606Y-000898D02*
G01X0019536Y-000984D01*
G01X0019536Y-000984D02*
G01X0019509Y-001034D01*
G01X0019509Y-001034D02*
G01X0019450Y-000944D01*
G01X0019450Y-000944D02*
G01X0019372Y-000864D01*
G01X0019372Y-000864D02*
G01X0019280Y-000802D01*
G01X0019280Y-000802D02*
G01X0019178Y-000758D01*
G01X0019178Y-000758D02*
G01X0019145Y-000751D01*
G01X0019145Y-000751D02*
G01X0019058Y-000799D01*
G01X0019058Y-000799D02*
G01X0019058Y-001407D01*
G01X0019058Y-001407D02*
G01X0019066Y-001407D01*
G01X0019066Y-001407D02*
G01X0019066Y-001507D01*
G01X0019066Y-001507D02*
G01X0019058Y-001507D01*
G01X0019058Y-001507D02*
G01X0019058Y-002114D01*
G01X0019058Y-002114D02*
G01X0019145Y-002162D01*
G01X0019145Y-002162D02*
G01X0019178Y-002155D01*
G01X0019178Y-002155D02*
G01X0019280Y-002112D01*
G01X0019280Y-002112D02*
G01X0019372Y-002049D01*
G01X0019372Y-002049D02*
G01X0019450Y-001970D01*
G01X0019450Y-001970D02*
G01X0019509Y-001879D01*
G01X0019509Y-001879D02*
G01X0019536Y-001930D01*
G01X0019536Y-001930D02*
G01X0019606Y-002016D01*
G01X0019606Y-002016D02*
G01X0019692Y-002086D01*
G01X0019692Y-002086D02*
G01X0019791Y-002139D01*
G01X0019791Y-002139D02*
G01X0019897Y-002171D01*
G01X0019897Y-002171D02*
G01X0020008Y-002182D01*
G01X0020008Y-002182D02*
G01X0020119Y-002171D01*
G01X0020119Y-002171D02*
G01X0020225Y-002139D01*
G01X0020225Y-002139D02*
G01X0020323Y-002086D01*
G01X0020323Y-002086D02*
G01X0020360Y-002056D01*
G01X0020360Y-002056D02*
G01X0020360Y-003758D01*
G01X0020360Y-003758D02*
G01X0020336Y-003722D01*
G01X0020336Y-003722D02*
G01X0020255Y-003640D01*
G01X0020255Y-003640D02*
G01X0020159Y-003576D01*
G01X0020159Y-003576D02*
G01X0020052Y-003532D01*
G01X0020052Y-003532D02*
G01X0019939Y-003510D01*
G01X0019939Y-003510D02*
G01X0019824Y-003510D01*
G01X0019824Y-003510D02*
G01X0019711Y-003532D01*
G01X0019711Y-003532D02*
G01X0019605Y-003576D01*
G01X0019605Y-003576D02*
G01X0019509Y-003640D01*
G01X0019509Y-003640D02*
G01X0019502Y-003648D01*
G01X0019502Y-003648D02*
G01X0018939Y-003648D01*
G01X0018939Y-003648D02*
G01X0018917Y-003645D01*
G01X0018917Y-003645D02*
G01X0018895Y-003648D01*
G01X0018895Y-003648D02*
G01X0018830Y-003654D01*
G01X0018830Y-003654D02*
G01X0018745Y-003680D01*
G01X0018745Y-003680D02*
G01X0018668Y-003721D01*
G01X0018668Y-003721D02*
G01X0018600Y-003777D01*
G01X0018600Y-003777D02*
G01X0018586Y-003794D01*
G01X0018586Y-003794D02*
G01X0016655Y-005725D01*
G01X0016655Y-005725D02*
G01X0016646Y-005707D01*
G01X0016646Y-005707D02*
G01X0016615Y-005669D01*
G01X0016615Y-005669D02*
G01X0016577Y-005638D01*
G01X0016577Y-005638D02*
G01X0016533Y-005614D01*
G01X0016533Y-005614D02*
G01X0016486Y-005600D01*
G01X0016486Y-005600D02*
G01X0016437Y-005595D01*
G01X0016437Y-005595D02*
G01X0016043Y-005595D01*
G01X0016043Y-005595D02*
G01X0016059Y-005592D01*
G01X0016059Y-005592D02*
G01X0016154Y-005552D01*
G01X0016154Y-005552D02*
G01X0016241Y-005495D01*
G01X0016241Y-005495D02*
G01X0016314Y-005422D01*
G01X0016314Y-005422D02*
G01X0016371Y-005336D01*
G01X0016371Y-005336D02*
G01X0016411Y-005240D01*
G01X0016411Y-005240D02*
G01X0016431Y-005138D01*
G01X0016431Y-005138D02*
G01X0016431Y-005035D01*
G01X0016431Y-005035D02*
G01X0016411Y-004933D01*
G01X0016411Y-004933D02*
G01X0016371Y-004838D01*
G01X0016371Y-004838D02*
G01X0016314Y-004752D01*
G01X0016314Y-004752D02*
G01X0016241Y-004678D01*
G01X0016241Y-004678D02*
G01X0016154Y-004621D01*
G01X0016154Y-004621D02*
G01X0016059Y-004581D01*
G01X0016059Y-004581D02*
G01X0015957Y-004561D01*
G01X0015957Y-004561D02*
G01X0015854Y-004561D01*
G01X0015854Y-004561D02*
G01X0015752Y-004581D01*
G01X0015752Y-004581D02*
G01X0015657Y-004621D01*
G01X0015657Y-004621D02*
G01X0015570Y-004678D01*
G01X0015570Y-004678D02*
G01X0015497Y-004752D01*
G01X0015497Y-004752D02*
G01X0015472Y-004789D01*
G01X0015472Y-004789D02*
G01X0015448Y-004752D01*
G01X0015448Y-004752D02*
G01X0015374Y-004678D01*
G01X0015374Y-004678D02*
G01X0015288Y-004621D01*
G01X0015288Y-004621D02*
G01X0015193Y-004581D01*
G01X0015193Y-004581D02*
G01X0015091Y-004561D01*
G01X0015091Y-004561D02*
G01X0014988Y-004561D01*
G01X0014988Y-004561D02*
G01X0014886Y-004581D01*
G01X0014886Y-004581D02*
G01X0014790Y-004621D01*
G01X0014790Y-004621D02*
G01X0014704Y-004678D01*
G01X0014704Y-004678D02*
G01X0014631Y-004752D01*
G01X0014631Y-004752D02*
G01X0014620Y-004768D01*
G01X0014620Y-004768D02*
G01X0014620Y-004392D01*
G01X0014620Y-004392D02*
G01X0014622Y-004370D01*
G01X0014622Y-004370D02*
G01X0014620Y-004348D01*
G01X0014620Y-004348D02*
G01X0014620Y-004348D01*
G01X0014620Y-004348D02*
G01X0014614Y-004282D01*
G01X0014614Y-004282D02*
G01X0014588Y-004198D01*
G01X0014588Y-004198D02*
G01X0014547Y-004121D01*
G01X0014547Y-004121D02*
G01X0014491Y-004053D01*
G01X0014491Y-004053D02*
G01X0014474Y-004039D01*
G01X0014474Y-004039D02*
G01X0013450Y-003015D01*
G01X0013450Y-003015D02*
G01X0013438Y-002951D01*
G01X0013438Y-002951D02*
G01X0013397Y-002852D01*
G01X0013397Y-002852D02*
G01X0013337Y-002763D01*
G01X0013337Y-002763D02*
G01X0013261Y-002687D01*
G01X0013261Y-002687D02*
G01X0013172Y-002627D01*
G01X0013172Y-002627D02*
G01X0013133Y-002611D01*
G01X0013133Y-002611D02*
G01X0013149Y-002605D01*
G01X0013149Y-002605D02*
G01X0013194Y-002581D01*
G01X0013194Y-002581D02*
G01X0013219Y-002487D01*
G01X0013219Y-002487D02*
G01X0012913Y-002181D01*
G01X0012913Y-002181D02*
G01X0012607Y-002487D01*
G01X0012607Y-002487D02*
G01X0012633Y-002581D01*
G01X0012633Y-002581D02*
G01X0012695Y-002610D01*
G01X0012695Y-002610D02*
G01X0012655Y-002627D01*
G01X0012655Y-002627D02*
G01X0012601Y-002663D01*
G01X0012601Y-002663D02*
G01X0011742Y-002663D01*
G01X0011742Y-002663D02*
G01X0011714Y-002644D01*
G01X0011714Y-002644D02*
G01X0011618Y-002605D01*
G01X0011618Y-002605D02*
G01X0011516Y-002585D01*
G01X0011516Y-002585D02*
G01X0011413Y-002585D01*
G01X0011413Y-002585D02*
G01X0011311Y-002605D01*
G01X0011311Y-002605D02*
G01X0011216Y-002644D01*
G01X0011216Y-002644D02*
G01X0011130Y-002702D01*
G01X0011130Y-002702D02*
G01X0011056Y-002775D01*
G01X0011056Y-002775D02*
G01X0010999Y-002861D01*
G01X0010999Y-002861D02*
G01X0010959Y-002957D01*
G01X0010959Y-002957D02*
G01X0010939Y-003058D01*
G01X0010939Y-003058D02*
G01X0010939Y-003162D01*
G01X0010939Y-003162D02*
G01X0010959Y-003264D01*
G01X0010959Y-003264D02*
G01X0010999Y-003359D01*
G01X0010999Y-003359D02*
G01X0011018Y-003388D01*
G01X0011018Y-003388D02*
G01X0011018Y-003501D01*
G01X0011018Y-003501D02*
G01X0010926Y-003452D01*
G01X0010926Y-003452D02*
G01X0010819Y-003420D01*
G01X0010819Y-003420D02*
G01X0010709Y-003409D01*
G01X0010709Y-003409D02*
G01X0010598Y-003420D01*
G01X0010598Y-003420D02*
G01X0010565Y-003430D01*
G01X0010565Y-003430D02*
G01X0010565Y-003226D01*
G01X0010565Y-003226D02*
G01X0010567Y-003209D01*
G01X0010567Y-003209D02*
G01X0010565Y-003192D01*
G01X0010565Y-003192D02*
G01X0010565Y-003192D01*
G01X0010565Y-003192D02*
G01X0010560Y-003140D01*
G01X0010560Y-003140D02*
G01X0010540Y-003075D01*
G01X0010540Y-003075D02*
G01X0010508Y-003014D01*
G01X0010508Y-003014D02*
G01X0010492Y-002995D01*
G01X0010492Y-002995D02*
G01X0010475Y-002974D01*
G01X0010475Y-002974D02*
G01X0010475Y-002974D01*
G01X0010475Y-002974D02*
G01X0010464Y-002961D01*
G01X0010464Y-002961D02*
G01X0010451Y-002950D01*
G01X0010451Y-002950D02*
G01X0009877Y-002376D01*
G01X0009877Y-002376D02*
G01X0012025Y-002376D01*
G01X0012025Y-002376D02*
G01X0012047Y-002378D01*
G01X0012047Y-002378D02*
G01X0012069Y-002376D01*
G01X0012069Y-002376D02*
G01X0012069Y-002376D01*
G01X0012069Y-002376D02*
G01X0012135Y-002370D01*
G01X0012135Y-002370D02*
G01X0012219Y-002344D01*
G01X0012219Y-002344D02*
G01X0012297Y-002302D01*
G01X0012297Y-002302D02*
G01X0012365Y-002247D01*
G01X0012365Y-002247D02*
G01X0012379Y-002230D01*
G01X0012379Y-002230D02*
G01X0012380Y-002229D01*
G01X0012380Y-002229D02*
G01X0012382Y-002245D01*
G01X0012382Y-002245D02*
G01X0012419Y-002346D01*
G01X0012419Y-002346D02*
G01X0012443Y-002390D01*
G01X0012443Y-002390D02*
G01X0012537Y-002416D01*
G01X0012537Y-002416D02*
G01X0012843Y-002110D01*
G01X0012843Y-002110D02*
G01X0012837Y-002105D01*
G01X0012837Y-002105D02*
G01X0012908Y-002034D01*
G01X0012908Y-002034D02*
G01X0012913Y-002040D01*
G01X0012913Y-002040D02*
G01X0012919Y-002034D01*
G01X0012919Y-002034D02*
G01X0012990Y-002105D01*
G01X0012990Y-002105D02*
G01X0012984Y-002110D01*
G01X0012984Y-002110D02*
G01X0013290Y-002416D01*
G01X0013290Y-002416D02*
G01X0013384Y-002390D01*
G01X0013384Y-002390D02*
G01X0013430Y-002293D01*
G01X0013430Y-002293D02*
G01X0013456Y-002189D01*
G01X0013456Y-002189D02*
G01X0013461Y-002082D01*
G01X0013461Y-002082D02*
G01X0013447Y-001992D01*
G01X0013447Y-001992D02*
G01X0013661Y-002207D01*
G01X0013661Y-002207D02*
G01X0013668Y-002240D01*
G01X0013668Y-002240D02*
G01X0013707Y-002336D01*
G01X0013707Y-002336D02*
G01X0013765Y-002422D01*
G01X0013765Y-002422D02*
G01X0013838Y-002495D01*
G01X0013838Y-002495D02*
G01X0013924Y-002552D01*
G01X0013924Y-002552D02*
G01X0014020Y-002592D01*
G01X0014020Y-002592D02*
G01X0014121Y-002612D01*
G01X0014121Y-002612D02*
G01X0014225Y-002612D01*
G01X0014225Y-002612D02*
G01X0014327Y-002592D01*
G01X0014327Y-002592D02*
G01X0014422Y-002552D01*
G01X0014422Y-002552D02*
G01X0014508Y-002495D01*
G01X0014508Y-002495D02*
G01X0014581Y-002422D01*
G01X0014581Y-002422D02*
G01X0014606Y-002385D01*
G01X0014606Y-002385D02*
G01X0014631Y-002422D01*
G01X0014631Y-002422D02*
G01X0014704Y-002495D01*
G01X0014704Y-002495D02*
G01X0014790Y-002552D01*
G01X0014790Y-002552D02*
G01X0014886Y-002592D01*
G01X0014886Y-002592D02*
G01X0014988Y-002612D01*
G01X0014988Y-002612D02*
G01X0015091Y-002612D01*
G01X0015091Y-002612D02*
G01X0015193Y-002592D01*
G01X0015193Y-002592D02*
G01X0015288Y-002552D01*
G01X0015288Y-002552D02*
G01X0015374Y-002495D01*
G01X0015374Y-002495D02*
G01X0015448Y-002422D01*
G01X0015448Y-002422D02*
G01X0015472Y-002385D01*
G01X0015472Y-002385D02*
G01X0015497Y-002422D01*
G01X0015497Y-002422D02*
G01X0015570Y-002495D01*
G01X0015570Y-002495D02*
G01X0015657Y-002552D01*
G01X0015657Y-002552D02*
G01X0015752Y-002592D01*
G01X0015752Y-002592D02*
G01X0015854Y-002612D01*
G01X0015854Y-002612D02*
G01X0015957Y-002612D01*
G01X0015957Y-002612D02*
G01X0016059Y-002592D01*
G01X0016059Y-002592D02*
G01X0016154Y-002552D01*
G01X0016154Y-002552D02*
G01X0016241Y-002495D01*
G01X0016241Y-002495D02*
G01X0016314Y-002422D01*
G01X0016314Y-002422D02*
G01X0016371Y-002336D01*
G01X0016371Y-002336D02*
G01X0016411Y-002240D01*
G01X0016411Y-002240D02*
G01X0016431Y-002138D01*
G01X0016431Y-002138D02*
G01X0016431Y-002035D01*
G01X0016431Y-002035D02*
G01X0016411Y-001933D01*
G01X0016411Y-001933D02*
G01X0016371Y-001838D01*
G01X0016371Y-001838D02*
G01X0016314Y-001752D01*
G01X0016314Y-001752D02*
G01X0016241Y-001678D01*
G01X0016241Y-001678D02*
G01X0016154Y-001621D01*
G01X0016154Y-001621D02*
G01X0016059Y-001581D01*
G01X0016059Y-001581D02*
G01X0016025Y-001575D01*
G01X0016025Y-001575D02*
G01X0015646Y-001196D01*
G01X0015646Y-001196D02*
G01X0015632Y-001179D01*
G01X0015632Y-001179D02*
G01X0015564Y-001123D01*
G01X0015564Y-001123D02*
G01X0015487Y-001081D01*
G01X0015487Y-001081D02*
G01X0015403Y-001056D01*
G01X0015403Y-001056D02*
G01X0015337Y-001049D01*
G01X0015337Y-001049D02*
G01X0015337Y-001049D01*
G01X0015337Y-001049D02*
G01X0015315Y-001047D01*
G01X0015315Y-001047D02*
G01X0015293Y-001049D01*
G01X0015293Y-001049D02*
G01X0014471Y-001049D01*
G01X0014471Y-001049D02*
G01X0014449Y-001047D01*
G01X0014449Y-001047D02*
G01X0014427Y-001049D01*
G01X0014427Y-001049D02*
G01X0013605Y-001049D01*
G01X0013605Y-001049D02*
G01X0013583Y-001047D01*
G01X0013583Y-001047D02*
G01X0013561Y-001049D01*
G01X0013561Y-001049D02*
G01X0012502Y-001049D01*
G01X0012502Y-001049D02*
G01X0012480Y-001047D01*
G01X0012480Y-001047D02*
G01X0012458Y-001049D01*
G01X0012458Y-001049D02*
G01X0012393Y-001056D01*
G01X0012393Y-001056D02*
G01X0012308Y-001081D01*
G01X0012308Y-001081D02*
G01X0012231Y-001123D01*
G01X0012231Y-001123D02*
G01X0012163Y-001179D01*
G01X0012163Y-001179D02*
G01X0012149Y-001196D01*
G01X0012149Y-001196D02*
G01X0011862Y-001482D01*
G01X0011862Y-001482D02*
G01X0010924Y-001482D01*
G01X0010924Y-001482D02*
G01X0011079Y-001327D01*
G01X0011079Y-001327D02*
G01X0011108Y-001333D01*
G01X0011108Y-001333D02*
G01X0011223Y-001333D01*
G01X0011223Y-001333D02*
G01X0011336Y-001310D01*
G01X0011336Y-001310D02*
G01X0011442Y-001266D01*
G01X0011442Y-001266D02*
G01X0011538Y-001202D01*
G01X0011538Y-001202D02*
G01X0011619Y-001121D01*
G01X0011619Y-001121D02*
G01X0011683Y-001025D01*
G01X0011683Y-001025D02*
G01X0011700Y-000984D01*
G01X0011700Y-000984D02*
G01X0016442Y-000984D01*
G01X0016442Y-000984D02*
G01X0016442Y-001929D01*
G01X0016442Y-001929D02*
G01X0016447Y-001978D01*
G01X0016447Y-001978D02*
G01X0016461Y-002025D01*
G01X0016461Y-002025D02*
G01X0016484Y-002069D01*
G01X0016484Y-002069D02*
G01X0016515Y-002107D01*
G01X0016515Y-002107D02*
G01X0016553Y-002138D01*
G01X0016553Y-002138D02*
G01X0016597Y-002161D01*
G01X0016597Y-002161D02*
G01X0016644Y-002176D01*
G01X0016644Y-002176D02*
G01X0016693Y-002180D01*
G01X0016693Y-002180D02*
G01X0017323Y-002180D01*
G01X0017323Y-002180D02*
G01X0017372Y-002176D01*
G01X0017372Y-002176D02*
G01X0017419Y-002161D01*
G01X0017419Y-002161D02*
G01X0017462Y-002138D01*
G01X0017462Y-002138D02*
G01X0017500Y-002107D01*
G01X0017500Y-002107D02*
G01X0017532Y-002069D01*
G01X0017532Y-002069D02*
G01X0017555Y-002025D01*
G01X0017555Y-002025D02*
G01X0017569Y-001978D01*
G01X0017569Y-001978D02*
G01X0017570Y-001971D01*
G01X0017570Y-001971D02*
G01X0017606Y-002016D01*
G01X0017606Y-002016D02*
G01X0017692Y-002086D01*
G01X0017692Y-002086D02*
G01X0017791Y-002139D01*
G01X0017791Y-002139D02*
G01X0017897Y-002171D01*
G01X0017897Y-002171D02*
G01X0018008Y-002182D01*
G01X0018008Y-002182D02*
G01X0018119Y-002171D01*
G01X0018119Y-002171D02*
G01X0018225Y-002139D01*
G01X0018225Y-002139D02*
G01X0018323Y-002086D01*
G01X0018323Y-002086D02*
G01X0018409Y-002016D01*
G01X0018409Y-002016D02*
G01X0018480Y-001930D01*
G01X0018480Y-001930D02*
G01X0018507Y-001879D01*
G01X0018507Y-001879D02*
G01X0018566Y-001970D01*
G01X0018566Y-001970D02*
G01X0018644Y-002049D01*
G01X0018644Y-002049D02*
G01X0018736Y-002112D01*
G01X0018736Y-002112D02*
G01X0018838Y-002155D01*
G01X0018838Y-002155D02*
G01X0018870Y-002162D01*
G01X0018870Y-002162D02*
G01X0018958Y-002114D01*
G01X0018958Y-002114D02*
G01X0018958Y-001507D01*
G01X0018958Y-001507D02*
G01X0018950Y-001507D01*
G01X0018950Y-001507D02*
G01X0018950Y-001407D01*
G01X0018950Y-001407D02*
G01X0018958Y-001407D01*
G01X0018958Y-001407D02*
G01X0018958Y-000799D01*
G01X0018958Y-000799D02*
G01X0018870Y-000751D01*
G01X0018870Y-000751D02*
G01X0018838Y-000758D01*
G01X0018838Y-000758D02*
G01X0018736Y-000802D01*
G01X0018736Y-000802D02*
G01X0018644Y-000864D01*
G01X0018644Y-000864D02*
G01X0018566Y-000944D01*
G01X0018566Y-000944D02*
G01X0018507Y-001034D01*
G01X0018507Y-001034D02*
G01X0018480Y-000984D01*
G01X0018480Y-000984D02*
G01X0018409Y-000898D01*
G01X0018409Y-000898D02*
G01X0018323Y-000827D01*
G01X0018323Y-000827D02*
G01X0018225Y-000775D01*
G01X0018225Y-000775D02*
G01X0018119Y-000742D01*
G01X0018119Y-000742D02*
G01X0018008Y-000732D01*
G01X0018008Y-000732D02*
G01X0017897Y-000742D01*
G01X0017897Y-000742D02*
G01X0017791Y-000775D01*
G01X0017791Y-000775D02*
G01X0017692Y-000827D01*
G01X0017692Y-000827D02*
G01X0017606Y-000898D01*
G01X0017606Y-000898D02*
G01X0017570Y-000942D01*
G01X0017570Y-000942D02*
G01X0017569Y-000935D01*
G01X0017569Y-000935D02*
G01X0017555Y-000888D01*
G01X0017555Y-000888D02*
G01X0017532Y-000845D01*
G01X0017532Y-000845D02*
G01X0017500Y-000807D01*
G01X0017500Y-000807D02*
G01X0017462Y-000775D01*
G01X0017462Y-000775D02*
G01X0017419Y-000752D01*
G01X0017419Y-000752D02*
G01X0017372Y-000738D01*
G01X0017372Y-000738D02*
G01X0017323Y-000733D01*
G01X0017323Y-000733D02*
G01X0016693Y-000733D01*
G01X0016693Y-000733D02*
G01X0016644Y-000738D01*
G01X0016644Y-000738D02*
G01X0016597Y-000752D01*
G01X0016597Y-000752D02*
G01X0016553Y-000775D01*
G01X0016553Y-000775D02*
G01X0016515Y-000807D01*
G01X0016515Y-000807D02*
G01X0016484Y-000845D01*
G01X0016484Y-000845D02*
G01X0016461Y-000888D01*
G01X0016461Y-000888D02*
G01X0016447Y-000935D01*
G01X0016447Y-000935D02*
G01X0016442Y-000984D01*
G01X0016442Y-000984D02*
G01X0011700Y-000984D01*
G01X0011700Y-000984D02*
G01X0011728Y-000919D01*
G01X0011728Y-000919D02*
G01X0011750Y-000806D01*
G01X0011750Y-000806D02*
G01X0011750Y-000690D01*
G01X0011750Y-000690D02*
G01X0011728Y-000577D01*
G01X0011728Y-000577D02*
G01X0011683Y-000471D01*
G01X0011683Y-000471D02*
G01X0011619Y-000375D01*
G01X0011619Y-000375D02*
G01X0011538Y-000294D01*
G01X0011538Y-000294D02*
G01X0011502Y-000270D01*
G01X0011502Y-000270D02*
G01X0020360Y-000270D01*
G01X0020360Y-000270D02*
G01X0020360Y-000858D01*
G36*
G01X0013726Y-004555D02*
G01X0013726Y-004809D01*
G01X0013707Y-004838D01*
G01X0013668Y-004933D01*
G01X0013648Y-005035D01*
G01X0013648Y-005138D01*
G01X0013657Y-005183D01*
G01X0013544Y-005183D01*
G01X0013556Y-005144D01*
G01X0013508Y-005050D01*
G01X0013019Y-005050D01*
G01X0013019Y-005058D01*
G01X0012919Y-005058D01*
G01X0012919Y-005050D01*
G01X0012911Y-005050D01*
G01X0012911Y-004950D01*
G01X0012919Y-004950D01*
G01X0012919Y-004942D01*
G01X0013019Y-004942D01*
G01X0013019Y-004950D01*
G01X0013508Y-004950D01*
G01X0013556Y-004856D01*
G01X0013536Y-004793D01*
G01X0013485Y-004686D01*
G01X0013414Y-004592D01*
G01X0013394Y-004574D01*
G01X0013418Y-004545D01*
G01X0013441Y-004502D01*
G01X0013455Y-004455D01*
G01X0013460Y-004406D01*
G01X0013460Y-004289D01*
G01X0013726Y-004555D01*
G37*
G01X0013726Y-004555D02*
G01X0013726Y-004809D01*
G01X0013726Y-004809D02*
G01X0013707Y-004838D01*
G01X0013707Y-004838D02*
G01X0013668Y-004933D01*
G01X0013668Y-004933D02*
G01X0013648Y-005035D01*
G01X0013648Y-005035D02*
G01X0013648Y-005138D01*
G01X0013648Y-005138D02*
G01X0013657Y-005183D01*
G01X0013657Y-005183D02*
G01X0013544Y-005183D01*
G01X0013544Y-005183D02*
G01X0013556Y-005144D01*
G01X0013556Y-005144D02*
G01X0013508Y-005050D01*
G01X0013508Y-005050D02*
G01X0013019Y-005050D01*
G01X0013019Y-005050D02*
G01X0013019Y-005058D01*
G01X0013019Y-005058D02*
G01X0012919Y-005058D01*
G01X0012919Y-005058D02*
G01X0012919Y-005050D01*
G01X0012919Y-005050D02*
G01X0012911Y-005050D01*
G01X0012911Y-005050D02*
G01X0012911Y-004950D01*
G01X0012911Y-004950D02*
G01X0012919Y-004950D01*
G01X0012919Y-004950D02*
G01X0012919Y-004942D01*
G01X0012919Y-004942D02*
G01X0013019Y-004942D01*
G01X0013019Y-004942D02*
G01X0013019Y-004950D01*
G01X0013019Y-004950D02*
G01X0013508Y-004950D01*
G01X0013508Y-004950D02*
G01X0013556Y-004856D01*
G01X0013556Y-004856D02*
G01X0013536Y-004793D01*
G01X0013536Y-004793D02*
G01X0013485Y-004686D01*
G01X0013485Y-004686D02*
G01X0013414Y-004592D01*
G01X0013414Y-004592D02*
G01X0013394Y-004574D01*
G01X0013394Y-004574D02*
G01X0013418Y-004545D01*
G01X0013418Y-004545D02*
G01X0013441Y-004502D01*
G01X0013441Y-004502D02*
G01X0013455Y-004455D01*
G01X0013455Y-004455D02*
G01X0013460Y-004406D01*
G01X0013460Y-004406D02*
G01X0013460Y-004289D01*
G01X0013460Y-004289D02*
G01X0013726Y-004555D01*
G36*
G01X0002688Y-003454D02*
G01X0002696Y-003454D01*
G01X0002696Y-003554D01*
G01X0002688Y-003554D01*
G01X0002688Y-003964D01*
G01X0002713Y-003979D01*
G01X0002322Y-004370D01*
G01X0002305Y-004384D01*
G01X0002297Y-004393D01*
G01X0002297Y-003903D01*
G01X0002371Y-003957D01*
G01X0002464Y-004000D01*
G01X0002507Y-004013D01*
G01X0002588Y-003964D01*
G01X0002588Y-003554D01*
G01X0002580Y-003554D01*
G01X0002580Y-003454D01*
G01X0002588Y-003454D01*
G01X0002588Y-003446D01*
G01X0002688Y-003446D01*
G01X0002688Y-003454D01*
G37*
G01X0002688Y-003454D02*
G01X0002696Y-003454D01*
G01X0002696Y-003454D02*
G01X0002696Y-003554D01*
G01X0002696Y-003554D02*
G01X0002688Y-003554D01*
G01X0002688Y-003554D02*
G01X0002688Y-003964D01*
G01X0002688Y-003964D02*
G01X0002713Y-003979D01*
G01X0002713Y-003979D02*
G01X0002322Y-004370D01*
G01X0002322Y-004370D02*
G01X0002305Y-004384D01*
G01X0002305Y-004384D02*
G01X0002297Y-004393D01*
G01X0002297Y-004393D02*
G01X0002297Y-003903D01*
G01X0002297Y-003903D02*
G01X0002371Y-003957D01*
G01X0002371Y-003957D02*
G01X0002464Y-004000D01*
G01X0002464Y-004000D02*
G01X0002507Y-004013D01*
G01X0002507Y-004013D02*
G01X0002588Y-003964D01*
G01X0002588Y-003964D02*
G01X0002588Y-003554D01*
G01X0002588Y-003554D02*
G01X0002580Y-003554D01*
G01X0002580Y-003554D02*
G01X0002580Y-003454D01*
G01X0002580Y-003454D02*
G01X0002588Y-003454D01*
G01X0002588Y-003454D02*
G01X0002588Y-003446D01*
G01X0002588Y-003446D02*
G01X0002688Y-003446D01*
G01X0002688Y-003446D02*
G01X0002688Y-003454D01*
G36*
G01X0000307Y-002220D02*
G01X0000920Y-002220D01*
G01X0000904Y-002249D01*
G01X0000879Y-002334D01*
G01X0000870Y-002421D01*
G01X0000872Y-002443D01*
G01X0000872Y-002801D01*
G01X0000821Y-002801D01*
G01X0000759Y-002864D01*
G01X0000759Y-003336D01*
G01X0000767Y-003336D01*
G01X0000767Y-003436D01*
G01X0000759Y-003436D01*
G01X0000759Y-003444D01*
G01X0000659Y-003444D01*
G01X0000659Y-003436D01*
G01X0000651Y-003436D01*
G01X0000651Y-003336D01*
G01X0000659Y-003336D01*
G01X0000659Y-002864D01*
G01X0000596Y-002801D01*
G01X0000374Y-002800D01*
G01X0000325Y-002805D01*
G01X0000278Y-002819D01*
G01X0000270Y-002823D01*
G01X0000270Y-002216D01*
G01X0000307Y-002220D01*
G37*
G01X0000307Y-002220D02*
G01X0000920Y-002220D01*
G01X0000920Y-002220D02*
G01X0000904Y-002249D01*
G01X0000904Y-002249D02*
G01X0000879Y-002334D01*
G01X0000879Y-002334D02*
G01X0000870Y-002421D01*
G01X0000870Y-002421D02*
G01X0000872Y-002443D01*
G01X0000872Y-002443D02*
G01X0000872Y-002801D01*
G01X0000872Y-002801D02*
G01X0000821Y-002801D01*
G01X0000821Y-002801D02*
G01X0000759Y-002864D01*
G01X0000759Y-002864D02*
G01X0000759Y-003336D01*
G01X0000759Y-003336D02*
G01X0000767Y-003336D01*
G01X0000767Y-003336D02*
G01X0000767Y-003436D01*
G01X0000767Y-003436D02*
G01X0000759Y-003436D01*
G01X0000759Y-003436D02*
G01X0000759Y-003444D01*
G01X0000759Y-003444D02*
G01X0000659Y-003444D01*
G01X0000659Y-003444D02*
G01X0000659Y-003436D01*
G01X0000659Y-003436D02*
G01X0000651Y-003436D01*
G01X0000651Y-003436D02*
G01X0000651Y-003336D01*
G01X0000651Y-003336D02*
G01X0000659Y-003336D01*
G01X0000659Y-003336D02*
G01X0000659Y-002864D01*
G01X0000659Y-002864D02*
G01X0000596Y-002801D01*
G01X0000596Y-002801D02*
G01X0000374Y-002800D01*
G01X0000374Y-002800D02*
G01X0000325Y-002805D01*
G01X0000325Y-002805D02*
G01X0000278Y-002819D01*
G01X0000278Y-002819D02*
G01X0000270Y-002823D01*
G01X0000270Y-002823D02*
G01X0000270Y-002216D01*
G01X0000270Y-002216D02*
G01X0000307Y-002220D01*
G36*
G01X0009215Y-000698D02*
G01X0009223Y-000698D01*
G01X0009223Y-000798D01*
G01X0009215Y-000798D01*
G01X0009215Y-000806D01*
G01X0009115Y-000806D01*
G01X0009115Y-000798D01*
G01X0009107Y-000798D01*
G01X0009107Y-000698D01*
G01X0009115Y-000698D01*
G01X0009115Y-000690D01*
G01X0009215Y-000690D01*
G01X0009215Y-000698D01*
G37*
G01X0009215Y-000698D02*
G01X0009223Y-000698D01*
G01X0009223Y-000698D02*
G01X0009223Y-000798D01*
G01X0009223Y-000798D02*
G01X0009215Y-000798D01*
G01X0009215Y-000798D02*
G01X0009215Y-000806D01*
G01X0009215Y-000806D02*
G01X0009115Y-000806D01*
G01X0009115Y-000806D02*
G01X0009115Y-000798D01*
G01X0009115Y-000798D02*
G01X0009107Y-000798D01*
G01X0009107Y-000798D02*
G01X0009107Y-000698D01*
G01X0009107Y-000698D02*
G01X0009115Y-000698D01*
G01X0009115Y-000698D02*
G01X0009115Y-000690D01*
G01X0009115Y-000690D02*
G01X0009215Y-000690D01*
G01X0009215Y-000690D02*
G01X0009215Y-000698D01*
M02*
