G04 #@! TF.GenerationSoftware,KiCad,Pcbnew,(5.1.5)-3*
G04 #@! TF.CreationDate,2020-04-19T22:50:58+02:00*
G04 #@! TF.ProjectId,goal_detector,676f616c-5f64-4657-9465-63746f722e6b,rev?*
G04 #@! TF.SameCoordinates,PX101dfa0PY12b1280*
G04 #@! TF.FileFunction,Copper,L2,Bot*
G04 #@! TF.FilePolarity,Positive*
%FSLAX46Y46*%
G04 Gerber Fmt 4.6, Leading zero omitted, Abs format (unit mm)*
G04 Created by KiCad (PCBNEW (5.1.5)-3) date 2020-04-19 22:50:58*
%MOMM*%
%LPD*%
G04 APERTURE LIST*
%ADD10O,1.700000X1.700000*%
%ADD11R,1.700000X1.700000*%
%ADD12O,1.600000X2.400000*%
%ADD13R,1.600000X2.400000*%
%ADD14O,1.400000X1.400000*%
%ADD15C,1.400000*%
%ADD16O,1.800000X1.800000*%
%ADD17R,1.800000X1.800000*%
%ADD18R,1.500000X1.500000*%
%ADD19C,1.500000*%
%ADD20C,0.800000*%
%ADD21C,1.000000*%
%ADD22C,0.500000*%
%ADD23C,0.750000*%
%ADD24C,0.254000*%
G04 APERTURE END LIST*
D10*
X50500000Y-10400000D03*
D11*
X50500000Y-12940000D03*
D12*
X19580000Y-10500000D03*
X27200000Y-18120000D03*
X22120000Y-10500000D03*
X24660000Y-18120000D03*
X24660000Y-10500000D03*
X22120000Y-18120000D03*
X27200000Y-10500000D03*
D13*
X19580000Y-18120000D03*
D14*
X45600000Y-18700000D03*
D15*
X48140000Y-18700000D03*
D14*
X37400000Y-26000000D03*
D15*
X39940000Y-26000000D03*
D14*
X37360000Y-22600000D03*
D15*
X39900000Y-22600000D03*
D14*
X40400000Y-12920000D03*
D15*
X40400000Y-5300000D03*
D14*
X6700000Y-8900000D03*
D15*
X6700000Y-6360000D03*
D14*
X12000000Y-26900000D03*
D15*
X12000000Y-24360000D03*
D14*
X12000000Y-1060000D03*
D15*
X12000000Y-3600000D03*
D14*
X48240000Y-21200000D03*
D15*
X45700000Y-21200000D03*
D11*
X40900000Y-19300000D03*
D16*
X32940000Y-15900000D03*
D17*
X30400000Y-15900000D03*
D16*
X32940000Y-12700000D03*
D17*
X30400000Y-12700000D03*
D14*
X15200000Y-22300000D03*
D15*
X15200000Y-24840000D03*
D14*
X15200000Y-5700000D03*
D15*
X15200000Y-3160000D03*
D14*
X12000000Y-19560000D03*
D15*
X12000000Y-22100000D03*
D14*
X12000000Y-14960000D03*
D15*
X12000000Y-17500000D03*
D14*
X12000000Y-12940000D03*
D15*
X12000000Y-10400000D03*
D14*
X12000000Y-8340000D03*
D15*
X12000000Y-5800000D03*
D12*
X43200000Y-24100000D03*
X50820000Y-31720000D03*
X45740000Y-24100000D03*
X48280000Y-31720000D03*
X48280000Y-24100000D03*
X45740000Y-31720000D03*
X50820000Y-24100000D03*
D13*
X43200000Y-31720000D03*
D12*
X1580000Y-24080000D03*
X9200000Y-31700000D03*
X4120000Y-24080000D03*
X6660000Y-31700000D03*
X6660000Y-24080000D03*
X4120000Y-31700000D03*
X9200000Y-24080000D03*
D13*
X1580000Y-31700000D03*
D12*
X43200000Y3920000D03*
X50820000Y-3700000D03*
X45740000Y3920000D03*
X48280000Y-3700000D03*
X48280000Y3920000D03*
X45740000Y-3700000D03*
X50820000Y3920000D03*
D13*
X43200000Y-3700000D03*
D12*
X1580000Y3820000D03*
X9200000Y-3800000D03*
X4120000Y3820000D03*
X6660000Y-3800000D03*
X6660000Y3820000D03*
X4120000Y-3800000D03*
X9200000Y3820000D03*
D13*
X1580000Y-3800000D03*
D14*
X38200000Y-12920000D03*
D15*
X38200000Y-5300000D03*
D14*
X36000000Y-12920000D03*
D15*
X36000000Y-5300000D03*
D14*
X21500000Y-20800000D03*
D15*
X29120000Y-20800000D03*
D14*
X21500000Y-7900000D03*
D15*
X29120000Y-7900000D03*
D18*
X32000000Y-18260000D03*
D19*
X32000000Y-23340000D03*
X32000000Y-20800000D03*
D18*
X32800000Y-10440000D03*
D19*
X32800000Y-5360000D03*
X32800000Y-7900000D03*
D18*
X15200000Y-15200000D03*
D19*
X15200000Y-20280000D03*
X15200000Y-17740000D03*
D18*
X15200000Y-7720000D03*
D19*
X15200000Y-12800000D03*
X15200000Y-10260000D03*
D11*
X40900000Y-15700000D03*
X37300000Y-19300000D03*
D10*
X1800000Y-18760000D03*
X1800000Y-16220000D03*
X1800000Y-13680000D03*
X1800000Y-11140000D03*
D11*
X1800000Y-8600000D03*
D10*
X28360000Y-1900000D03*
X25820000Y-1900000D03*
X23280000Y-1900000D03*
X20740000Y-1900000D03*
D11*
X18200000Y-1900000D03*
D10*
X28160000Y-26000000D03*
X25620000Y-26000000D03*
X23080000Y-26000000D03*
X20540000Y-26000000D03*
D11*
X18000000Y-26000000D03*
D20*
X10300000Y-6649999D03*
X10000000Y-8900000D03*
X33177818Y-2677818D03*
X31500000Y-1000000D03*
X28472182Y-16272182D03*
X19600000Y-5100000D03*
X27700000Y-22100000D03*
X18079990Y-19020010D03*
X24600000Y-4900000D03*
X9200000Y-11100000D03*
X43200000Y-17200000D03*
X4700000Y-7100000D03*
D21*
X32940000Y-15900000D02*
X32940000Y-12700000D01*
X32749999Y-22590001D02*
X32000000Y-23340000D01*
X33450001Y-21889999D02*
X32749999Y-22590001D01*
X32940000Y-15900000D02*
X33450001Y-16410001D01*
X33450001Y-16410001D02*
X33450001Y-21889999D01*
D22*
X32940000Y-12700000D02*
X31840000Y-11600000D01*
X31840000Y-11600000D02*
X31800000Y-11600000D01*
X31800000Y-11600000D02*
X31300000Y-11100000D01*
X31300000Y-6860000D02*
X32800000Y-5360000D01*
X31300000Y-11100000D02*
X31300000Y-6860000D01*
D21*
X2100000Y-8900000D02*
X6700000Y-8900000D01*
X1800000Y-8600000D02*
X2100000Y-8900000D01*
D22*
X23280000Y-1900000D02*
X21880000Y-500000D01*
X21880000Y-500000D02*
X14800000Y-500000D01*
X12850001Y-2449999D02*
X11447999Y-2449999D01*
X10849999Y-6100000D02*
X10300000Y-6649999D01*
X14800000Y-500000D02*
X12850001Y-2449999D01*
X11447999Y-2449999D02*
X10849999Y-3047999D01*
X10849999Y-3047999D02*
X10849999Y-6100000D01*
X10000000Y-8900000D02*
X6700000Y-8900000D01*
X33177818Y-4982182D02*
X32800000Y-5360000D01*
X33177818Y-2677818D02*
X33177818Y-4982182D01*
X31099999Y-599999D02*
X31500000Y-1000000D01*
X23280000Y-1900000D02*
X24580001Y-599999D01*
X24580001Y-599999D02*
X31099999Y-599999D01*
D21*
X48280000Y-13680002D02*
X48280000Y-5900000D01*
X48280000Y-5900000D02*
X48280000Y-3700000D01*
X50820000Y-24100000D02*
X50820000Y-16220002D01*
X50820000Y-16220002D02*
X48280000Y-13680002D01*
D22*
X26859999Y-27300001D02*
X27310001Y-26849999D01*
X13389950Y-27300001D02*
X26859999Y-27300001D01*
X27310001Y-26849999D02*
X28160000Y-26000000D01*
X12000000Y-26900000D02*
X12989949Y-26900000D01*
X12989949Y-26900000D02*
X13389950Y-27300001D01*
D21*
X28160000Y-26000000D02*
X37400000Y-26000000D01*
D22*
X28160000Y-26000000D02*
X26570010Y-24410010D01*
X28472182Y-19015599D02*
X28472182Y-16272182D01*
X26570010Y-24410010D02*
X26570010Y-20917771D01*
X26570010Y-20917771D02*
X28472182Y-19015599D01*
D21*
X25620000Y-19700000D02*
X27200000Y-18120000D01*
X25620000Y-26000000D02*
X25620000Y-19700000D01*
X27200000Y-15920000D02*
X28700000Y-14420000D01*
X27200000Y-18120000D02*
X27200000Y-15920000D01*
X28700000Y-14420000D02*
X28700001Y-12260001D01*
X28700001Y-12260001D02*
X28700001Y-9500000D01*
X25820000Y-2000000D02*
X25820000Y-6420000D01*
X25820000Y-6420000D02*
X27600000Y-8200000D01*
D22*
X28700001Y-9300001D02*
X28700001Y-9500000D01*
X27600000Y-8200000D02*
X28700001Y-9300001D01*
D21*
X27370001Y-3450001D02*
X30849999Y-3450001D01*
X49000000Y-1100000D02*
X50820000Y-2920000D01*
X25820000Y-1900000D02*
X27370001Y-3450001D01*
X50820000Y-2920000D02*
X50820000Y-3700000D01*
X33200000Y-1100000D02*
X49000000Y-1100000D01*
X30849999Y-3450001D02*
X33200000Y-1100000D01*
X24069999Y-24449999D02*
X24770001Y-25150001D01*
X24770001Y-25150001D02*
X25620000Y-26000000D01*
X15200000Y-24840000D02*
X15590001Y-24449999D01*
X15590001Y-24449999D02*
X24069999Y-24449999D01*
X41400000Y-24100000D02*
X43200000Y-24100000D01*
X37227998Y-24100000D02*
X41400000Y-24100000D01*
X36537997Y-24790001D02*
X37227998Y-24100000D01*
X18200000Y-5100000D02*
X19600000Y-5100000D01*
X30200000Y-24800000D02*
X36537997Y-24790001D01*
X27700000Y-22100000D02*
X30200000Y-24800000D01*
D22*
X10800000Y-20800000D02*
X12462002Y-20800000D01*
D21*
X2660000Y-20800000D02*
X10800000Y-20800000D01*
X1580000Y-24080000D02*
X1580000Y-21880000D01*
X1580000Y-21880000D02*
X2660000Y-20800000D01*
X16260000Y-3160000D02*
X18200000Y-5100000D01*
X15200000Y-3160000D02*
X16260000Y-3160000D01*
D22*
X12462002Y-20800000D02*
X12700000Y-20800000D01*
X12700000Y-20800000D02*
X14500000Y-19000000D01*
X14500000Y-19000000D02*
X16600000Y-19000000D01*
X16600000Y-19000000D02*
X18000000Y-19000000D01*
D21*
X20100000Y-3800000D02*
X18200000Y-1900000D01*
X21500000Y-4900000D02*
X24600000Y-4900000D01*
X20100000Y-3800000D02*
X20400000Y-3800000D01*
X20400000Y-3800000D02*
X21500000Y-4900000D01*
X10740000Y-16220000D02*
X12000000Y-14960000D01*
X1800000Y-16220000D02*
X10740000Y-16220000D01*
X14100000Y-13900000D02*
X15200000Y-12800000D01*
X12000000Y-13900000D02*
X14100000Y-13900000D01*
X12000000Y-13900000D02*
X12000000Y-12940000D01*
X12000000Y-14960000D02*
X12000000Y-13900000D01*
X14100000Y-14100000D02*
X15200000Y-15200000D01*
X14100000Y-13900000D02*
X14100000Y-14100000D01*
X1800000Y-13680000D02*
X9120000Y-13680000D01*
X9120000Y-13680000D02*
X11000000Y-11800000D01*
D22*
X14510001Y-11789999D02*
X14800000Y-11500000D01*
X11437998Y-11800000D02*
X11447999Y-11789999D01*
X11000000Y-11800000D02*
X11437998Y-11800000D01*
X11447999Y-11789999D02*
X14510001Y-11789999D01*
D21*
X19640000Y-14140000D02*
X17000000Y-11500000D01*
X17000000Y-11500000D02*
X16200000Y-11500000D01*
D22*
X14800000Y-11500000D02*
X16200000Y-11500000D01*
D21*
X19640000Y-14140000D02*
X23440000Y-14140000D01*
X24660000Y-15360000D02*
X24660000Y-18120000D01*
X23440000Y-14140000D02*
X24660000Y-15360000D01*
X23440000Y-14140000D02*
X23460000Y-14140000D01*
X24660000Y-12940000D02*
X24660000Y-10500000D01*
X23460000Y-14140000D02*
X24660000Y-12940000D01*
X1800000Y-11140000D02*
X9160000Y-11140000D01*
X9160000Y-11140000D02*
X9200000Y-11100000D01*
X37300000Y-16850000D02*
X37300000Y-18700000D01*
X34599999Y-14149999D02*
X37300000Y-16850000D01*
X34599999Y-11991997D02*
X34599999Y-14149999D01*
X32800000Y-10440000D02*
X33048002Y-10440000D01*
X33048002Y-10440000D02*
X34599999Y-11991997D01*
X45700000Y-21200000D02*
X43200000Y-18700000D01*
X45700000Y-24060000D02*
X45740000Y-24100000D01*
X45700000Y-21200000D02*
X45700000Y-24060000D01*
X43200000Y-18700000D02*
X43200000Y-17200000D01*
X43200000Y-17200000D02*
X43200000Y-3700000D01*
X27200000Y-10100000D02*
X27200000Y-10500000D01*
X23400010Y-6300010D02*
X27200000Y-10100000D01*
X16860010Y-6300010D02*
X23400010Y-6300010D01*
X15100000Y-5800000D02*
X15200000Y-5700000D01*
X12000000Y-5800000D02*
X15100000Y-5800000D01*
X15200000Y-5700000D02*
X15200000Y-7720000D01*
X16260000Y-5700000D02*
X15200000Y-5700000D01*
X16860010Y-6300010D02*
X16260000Y-5700000D01*
X12000000Y-8340000D02*
X12000000Y-10400000D01*
X15060000Y-10400000D02*
X15200000Y-10260000D01*
X12000000Y-10400000D02*
X15060000Y-10400000D01*
X15000000Y-22100000D02*
X15200000Y-22300000D01*
X12000000Y-22100000D02*
X15000000Y-22100000D01*
X15200000Y-22300000D02*
X15200000Y-20280000D01*
X23000000Y-19000000D02*
X22120000Y-18120000D01*
X23000000Y-21372002D02*
X23000000Y-19000000D01*
X15200000Y-22300000D02*
X22072002Y-22300000D01*
X22072002Y-22300000D02*
X23000000Y-21372002D01*
X12000000Y-19560000D02*
X12000000Y-17500000D01*
X12240000Y-17740000D02*
X12000000Y-17500000D01*
X15200000Y-17740000D02*
X12240000Y-17740000D01*
X6660000Y-23680000D02*
X8160010Y-22179990D01*
X6660000Y-24080000D02*
X6660000Y-23680000D01*
X8160010Y-22179990D02*
X9821324Y-22179990D01*
X9821324Y-22179990D02*
X11300001Y-23658667D01*
X11300001Y-23660001D02*
X12000000Y-24360000D01*
X11300001Y-23658667D02*
X11300001Y-23660001D01*
X1580000Y-3800000D02*
X1580000Y-3980000D01*
X1580000Y-3980000D02*
X4700000Y-7100000D01*
D23*
X4700000Y-7100000D02*
X5224999Y-7624999D01*
X5224999Y-7624999D02*
X5975001Y-7624999D01*
D22*
X5975001Y-7624999D02*
X7375001Y-7624999D01*
D23*
X7375001Y-7624999D02*
X10875001Y-7624999D01*
X10875001Y-7624999D02*
X11300000Y-7200000D01*
X21500000Y-7900000D02*
X18800000Y-7900000D01*
X18800000Y-7900000D02*
X17600000Y-9100000D01*
X17600000Y-9100000D02*
X16200000Y-9100000D01*
D22*
X13289999Y-7189999D02*
X11447999Y-7189999D01*
X11437998Y-7200000D02*
X11300000Y-7200000D01*
X13600000Y-7500000D02*
X13289999Y-7189999D01*
X11447999Y-7189999D02*
X11437998Y-7200000D01*
X16300000Y-9059999D02*
X14159999Y-9059999D01*
X14159999Y-9059999D02*
X13600000Y-8500000D01*
X13600000Y-8500000D02*
X13600000Y-7500000D01*
D21*
X19580000Y-18880000D02*
X21500000Y-20800000D01*
X19580000Y-18120000D02*
X19580000Y-18880000D01*
X46380000Y-26000000D02*
X48280000Y-24100000D01*
X39940000Y-26000000D02*
X46380000Y-26000000D01*
X48280000Y-18840000D02*
X48140000Y-18700000D01*
X48280000Y-24100000D02*
X48280000Y-18840000D01*
X45740000Y-16300000D02*
X45740000Y-3700000D01*
X48140000Y-18700000D02*
X45740000Y-16300000D01*
D24*
G36*
X48407000Y-3573000D02*
G01*
X48427000Y-3573000D01*
X48427000Y-3827000D01*
X48407000Y-3827000D01*
X48407000Y-5369915D01*
X48629039Y-5491904D01*
X48711818Y-5474367D01*
X48971646Y-5363715D01*
X49204895Y-5204500D01*
X49402601Y-5002839D01*
X49552735Y-4773259D01*
X49621068Y-4901101D01*
X49800393Y-5119608D01*
X50018900Y-5298932D01*
X50268193Y-5432182D01*
X50538692Y-5514236D01*
X50820000Y-5541943D01*
X51101309Y-5514236D01*
X51371808Y-5432182D01*
X51621101Y-5298932D01*
X51715001Y-5221870D01*
X51715001Y-9545448D01*
X51653475Y-9453368D01*
X51446632Y-9246525D01*
X51203411Y-9084010D01*
X50933158Y-8972068D01*
X50646260Y-8915000D01*
X50353740Y-8915000D01*
X50066842Y-8972068D01*
X49796589Y-9084010D01*
X49553368Y-9246525D01*
X49346525Y-9453368D01*
X49184010Y-9696589D01*
X49072068Y-9966842D01*
X49015000Y-10253740D01*
X49015000Y-10546260D01*
X49072068Y-10833158D01*
X49184010Y-11103411D01*
X49346525Y-11346632D01*
X49478380Y-11478487D01*
X49405820Y-11500498D01*
X49295506Y-11559463D01*
X49198815Y-11638815D01*
X49119463Y-11735506D01*
X49060498Y-11845820D01*
X49024188Y-11965518D01*
X49011928Y-12090000D01*
X49011928Y-13790000D01*
X49024188Y-13914482D01*
X49060498Y-14034180D01*
X49119463Y-14144494D01*
X49198815Y-14241185D01*
X49295506Y-14320537D01*
X49405820Y-14379502D01*
X49525518Y-14415812D01*
X49650000Y-14428072D01*
X51350000Y-14428072D01*
X51474482Y-14415812D01*
X51594180Y-14379502D01*
X51704494Y-14320537D01*
X51715000Y-14311915D01*
X51715000Y-22575094D01*
X51511646Y-22436285D01*
X51251818Y-22325633D01*
X51169039Y-22308096D01*
X50947000Y-22430085D01*
X50947000Y-23973000D01*
X50967000Y-23973000D01*
X50967000Y-24227000D01*
X50947000Y-24227000D01*
X50947000Y-25769915D01*
X51169039Y-25891904D01*
X51251818Y-25874367D01*
X51511646Y-25763715D01*
X51715000Y-25624906D01*
X51715000Y-27215000D01*
X40495252Y-27215000D01*
X40572359Y-27183061D01*
X40644288Y-27135000D01*
X46324249Y-27135000D01*
X46380000Y-27140491D01*
X46435751Y-27135000D01*
X46435752Y-27135000D01*
X46602499Y-27118577D01*
X46816447Y-27053676D01*
X47013623Y-26948284D01*
X47186449Y-26806449D01*
X47221996Y-26763135D01*
X48064422Y-25920710D01*
X48280000Y-25941943D01*
X48561309Y-25914236D01*
X48831808Y-25832182D01*
X49081101Y-25698932D01*
X49299608Y-25519608D01*
X49478932Y-25301101D01*
X49547265Y-25173259D01*
X49697399Y-25402839D01*
X49895105Y-25604500D01*
X50128354Y-25763715D01*
X50388182Y-25874367D01*
X50470961Y-25891904D01*
X50693000Y-25769915D01*
X50693000Y-24227000D01*
X50673000Y-24227000D01*
X50673000Y-23973000D01*
X50693000Y-23973000D01*
X50693000Y-22430085D01*
X50470961Y-22308096D01*
X50388182Y-22325633D01*
X50128354Y-22436285D01*
X49895105Y-22595500D01*
X49697399Y-22797161D01*
X49547265Y-23026741D01*
X49478932Y-22898899D01*
X49415000Y-22820998D01*
X49415000Y-21844423D01*
X49423061Y-21832359D01*
X49523696Y-21589405D01*
X49575000Y-21331486D01*
X49575000Y-21068514D01*
X49523696Y-20810595D01*
X49423061Y-20567641D01*
X49415000Y-20555577D01*
X49415000Y-19110399D01*
X49423696Y-19089405D01*
X49475000Y-18831486D01*
X49475000Y-18568514D01*
X49423696Y-18310595D01*
X49323061Y-18067641D01*
X49176962Y-17848987D01*
X48991013Y-17663038D01*
X48772359Y-17516939D01*
X48529405Y-17416304D01*
X48444560Y-17399427D01*
X46875000Y-15829869D01*
X46875000Y-4979002D01*
X46938932Y-4901101D01*
X47007265Y-4773259D01*
X47157399Y-5002839D01*
X47355105Y-5204500D01*
X47588354Y-5363715D01*
X47848182Y-5474367D01*
X47930961Y-5491904D01*
X48153000Y-5369915D01*
X48153000Y-3827000D01*
X48133000Y-3827000D01*
X48133000Y-3573000D01*
X48153000Y-3573000D01*
X48153000Y-3553000D01*
X48407000Y-3553000D01*
X48407000Y-3573000D01*
G37*
X48407000Y-3573000D02*
X48427000Y-3573000D01*
X48427000Y-3827000D01*
X48407000Y-3827000D01*
X48407000Y-5369915D01*
X48629039Y-5491904D01*
X48711818Y-5474367D01*
X48971646Y-5363715D01*
X49204895Y-5204500D01*
X49402601Y-5002839D01*
X49552735Y-4773259D01*
X49621068Y-4901101D01*
X49800393Y-5119608D01*
X50018900Y-5298932D01*
X50268193Y-5432182D01*
X50538692Y-5514236D01*
X50820000Y-5541943D01*
X51101309Y-5514236D01*
X51371808Y-5432182D01*
X51621101Y-5298932D01*
X51715001Y-5221870D01*
X51715001Y-9545448D01*
X51653475Y-9453368D01*
X51446632Y-9246525D01*
X51203411Y-9084010D01*
X50933158Y-8972068D01*
X50646260Y-8915000D01*
X50353740Y-8915000D01*
X50066842Y-8972068D01*
X49796589Y-9084010D01*
X49553368Y-9246525D01*
X49346525Y-9453368D01*
X49184010Y-9696589D01*
X49072068Y-9966842D01*
X49015000Y-10253740D01*
X49015000Y-10546260D01*
X49072068Y-10833158D01*
X49184010Y-11103411D01*
X49346525Y-11346632D01*
X49478380Y-11478487D01*
X49405820Y-11500498D01*
X49295506Y-11559463D01*
X49198815Y-11638815D01*
X49119463Y-11735506D01*
X49060498Y-11845820D01*
X49024188Y-11965518D01*
X49011928Y-12090000D01*
X49011928Y-13790000D01*
X49024188Y-13914482D01*
X49060498Y-14034180D01*
X49119463Y-14144494D01*
X49198815Y-14241185D01*
X49295506Y-14320537D01*
X49405820Y-14379502D01*
X49525518Y-14415812D01*
X49650000Y-14428072D01*
X51350000Y-14428072D01*
X51474482Y-14415812D01*
X51594180Y-14379502D01*
X51704494Y-14320537D01*
X51715000Y-14311915D01*
X51715000Y-22575094D01*
X51511646Y-22436285D01*
X51251818Y-22325633D01*
X51169039Y-22308096D01*
X50947000Y-22430085D01*
X50947000Y-23973000D01*
X50967000Y-23973000D01*
X50967000Y-24227000D01*
X50947000Y-24227000D01*
X50947000Y-25769915D01*
X51169039Y-25891904D01*
X51251818Y-25874367D01*
X51511646Y-25763715D01*
X51715000Y-25624906D01*
X51715000Y-27215000D01*
X40495252Y-27215000D01*
X40572359Y-27183061D01*
X40644288Y-27135000D01*
X46324249Y-27135000D01*
X46380000Y-27140491D01*
X46435751Y-27135000D01*
X46435752Y-27135000D01*
X46602499Y-27118577D01*
X46816447Y-27053676D01*
X47013623Y-26948284D01*
X47186449Y-26806449D01*
X47221996Y-26763135D01*
X48064422Y-25920710D01*
X48280000Y-25941943D01*
X48561309Y-25914236D01*
X48831808Y-25832182D01*
X49081101Y-25698932D01*
X49299608Y-25519608D01*
X49478932Y-25301101D01*
X49547265Y-25173259D01*
X49697399Y-25402839D01*
X49895105Y-25604500D01*
X50128354Y-25763715D01*
X50388182Y-25874367D01*
X50470961Y-25891904D01*
X50693000Y-25769915D01*
X50693000Y-24227000D01*
X50673000Y-24227000D01*
X50673000Y-23973000D01*
X50693000Y-23973000D01*
X50693000Y-22430085D01*
X50470961Y-22308096D01*
X50388182Y-22325633D01*
X50128354Y-22436285D01*
X49895105Y-22595500D01*
X49697399Y-22797161D01*
X49547265Y-23026741D01*
X49478932Y-22898899D01*
X49415000Y-22820998D01*
X49415000Y-21844423D01*
X49423061Y-21832359D01*
X49523696Y-21589405D01*
X49575000Y-21331486D01*
X49575000Y-21068514D01*
X49523696Y-20810595D01*
X49423061Y-20567641D01*
X49415000Y-20555577D01*
X49415000Y-19110399D01*
X49423696Y-19089405D01*
X49475000Y-18831486D01*
X49475000Y-18568514D01*
X49423696Y-18310595D01*
X49323061Y-18067641D01*
X49176962Y-17848987D01*
X48991013Y-17663038D01*
X48772359Y-17516939D01*
X48529405Y-17416304D01*
X48444560Y-17399427D01*
X46875000Y-15829869D01*
X46875000Y-4979002D01*
X46938932Y-4901101D01*
X47007265Y-4773259D01*
X47157399Y-5002839D01*
X47355105Y-5204500D01*
X47588354Y-5363715D01*
X47848182Y-5474367D01*
X47930961Y-5491904D01*
X48153000Y-5369915D01*
X48153000Y-3827000D01*
X48133000Y-3827000D01*
X48133000Y-3573000D01*
X48153000Y-3573000D01*
X48153000Y-3553000D01*
X48407000Y-3553000D01*
X48407000Y-3573000D01*
G36*
X23207000Y-25873000D02*
G01*
X23227000Y-25873000D01*
X23227000Y-26127000D01*
X23207000Y-26127000D01*
X23207000Y-26147000D01*
X22953000Y-26147000D01*
X22953000Y-26127000D01*
X22933000Y-26127000D01*
X22933000Y-25873000D01*
X22953000Y-25873000D01*
X22953000Y-25853000D01*
X23207000Y-25853000D01*
X23207000Y-25873000D01*
G37*
X23207000Y-25873000D02*
X23227000Y-25873000D01*
X23227000Y-26127000D01*
X23207000Y-26127000D01*
X23207000Y-26147000D01*
X22953000Y-26147000D01*
X22953000Y-26127000D01*
X22933000Y-26127000D01*
X22933000Y-25873000D01*
X22953000Y-25873000D01*
X22953000Y-25853000D01*
X23207000Y-25853000D01*
X23207000Y-25873000D01*
G36*
X33067000Y-12573000D02*
G01*
X33087000Y-12573000D01*
X33087000Y-12827000D01*
X33067000Y-12827000D01*
X33067000Y-14070992D01*
X33304741Y-14191041D01*
X33460872Y-14136148D01*
X33459508Y-14149999D01*
X33481422Y-14372497D01*
X33514896Y-14482846D01*
X33304741Y-14408959D01*
X33067000Y-14529008D01*
X33067000Y-15773000D01*
X34310378Y-15773000D01*
X34413898Y-15569029D01*
X36165000Y-17320132D01*
X36165001Y-17882317D01*
X36095506Y-17919463D01*
X35998815Y-17998815D01*
X35919463Y-18095506D01*
X35860498Y-18205820D01*
X35824188Y-18325518D01*
X35811928Y-18450000D01*
X35811928Y-20150000D01*
X35824188Y-20274482D01*
X35860498Y-20394180D01*
X35919463Y-20504494D01*
X35998815Y-20601185D01*
X36095506Y-20680537D01*
X36205820Y-20739502D01*
X36325518Y-20775812D01*
X36450000Y-20788072D01*
X38150000Y-20788072D01*
X38274482Y-20775812D01*
X38394180Y-20739502D01*
X38504494Y-20680537D01*
X38601185Y-20601185D01*
X38680537Y-20504494D01*
X38739502Y-20394180D01*
X38775812Y-20274482D01*
X38788072Y-20150000D01*
X38788072Y-18450000D01*
X38775812Y-18325518D01*
X38739502Y-18205820D01*
X38680537Y-18095506D01*
X38601185Y-17998815D01*
X38504494Y-17919463D01*
X38435000Y-17882317D01*
X38435000Y-16905751D01*
X38440491Y-16849999D01*
X38418577Y-16627501D01*
X38353676Y-16413553D01*
X38332599Y-16374121D01*
X38248284Y-16216377D01*
X38106449Y-16043551D01*
X38063141Y-16008009D01*
X36280492Y-14225360D01*
X36389405Y-14203696D01*
X36632359Y-14103061D01*
X36851013Y-13956962D01*
X37036962Y-13771013D01*
X37100000Y-13676669D01*
X37163038Y-13771013D01*
X37348987Y-13956962D01*
X37567641Y-14103061D01*
X37810595Y-14203696D01*
X38068514Y-14255000D01*
X38331486Y-14255000D01*
X38589405Y-14203696D01*
X38832359Y-14103061D01*
X39051013Y-13956962D01*
X39236962Y-13771013D01*
X39300000Y-13676669D01*
X39363038Y-13771013D01*
X39548987Y-13956962D01*
X39767641Y-14103061D01*
X40010595Y-14203696D01*
X40051979Y-14211928D01*
X40050000Y-14211928D01*
X39925518Y-14224188D01*
X39805820Y-14260498D01*
X39695506Y-14319463D01*
X39598815Y-14398815D01*
X39519463Y-14495506D01*
X39460498Y-14605820D01*
X39424188Y-14725518D01*
X39411928Y-14850000D01*
X39411928Y-16550000D01*
X39424188Y-16674482D01*
X39460498Y-16794180D01*
X39519463Y-16904494D01*
X39598815Y-17001185D01*
X39695506Y-17080537D01*
X39805820Y-17139502D01*
X39925518Y-17175812D01*
X40050000Y-17188072D01*
X41750000Y-17188072D01*
X41874482Y-17175812D01*
X41994180Y-17139502D01*
X42065000Y-17101647D01*
X42065000Y-17898353D01*
X41994180Y-17860498D01*
X41874482Y-17824188D01*
X41750000Y-17811928D01*
X40050000Y-17811928D01*
X39925518Y-17824188D01*
X39805820Y-17860498D01*
X39695506Y-17919463D01*
X39598815Y-17998815D01*
X39519463Y-18095506D01*
X39460498Y-18205820D01*
X39424188Y-18325518D01*
X39411928Y-18450000D01*
X39411928Y-20150000D01*
X39424188Y-20274482D01*
X39460498Y-20394180D01*
X39519463Y-20504494D01*
X39598815Y-20601185D01*
X39695506Y-20680537D01*
X39805820Y-20739502D01*
X39925518Y-20775812D01*
X40050000Y-20788072D01*
X41750000Y-20788072D01*
X41874482Y-20775812D01*
X41994180Y-20739502D01*
X42104494Y-20680537D01*
X42201185Y-20601185D01*
X42280537Y-20504494D01*
X42339502Y-20394180D01*
X42375812Y-20274482D01*
X42388072Y-20150000D01*
X42388072Y-19499773D01*
X42393551Y-19506449D01*
X42436865Y-19541996D01*
X44399427Y-21504559D01*
X44416304Y-21589405D01*
X44516939Y-21832359D01*
X44565000Y-21904288D01*
X44565001Y-22869738D01*
X44541068Y-22898900D01*
X44470000Y-23031858D01*
X44398932Y-22898899D01*
X44219607Y-22680392D01*
X44001100Y-22501068D01*
X43751807Y-22367818D01*
X43481308Y-22285764D01*
X43200000Y-22258057D01*
X42918691Y-22285764D01*
X42648192Y-22367818D01*
X42398899Y-22501068D01*
X42180392Y-22680393D01*
X42001068Y-22898900D01*
X41965737Y-22965000D01*
X41188551Y-22965000D01*
X41235000Y-22731486D01*
X41235000Y-22468514D01*
X41183696Y-22210595D01*
X41083061Y-21967641D01*
X40936962Y-21748987D01*
X40751013Y-21563038D01*
X40532359Y-21416939D01*
X40289405Y-21316304D01*
X40031486Y-21265000D01*
X39768514Y-21265000D01*
X39510595Y-21316304D01*
X39267641Y-21416939D01*
X39048987Y-21563038D01*
X38863038Y-21748987D01*
X38716939Y-21967641D01*
X38630000Y-22177530D01*
X38543061Y-21967641D01*
X38396962Y-21748987D01*
X38211013Y-21563038D01*
X37992359Y-21416939D01*
X37749405Y-21316304D01*
X37491486Y-21265000D01*
X37228514Y-21265000D01*
X36970595Y-21316304D01*
X36727641Y-21416939D01*
X36508987Y-21563038D01*
X36323038Y-21748987D01*
X36176939Y-21967641D01*
X36076304Y-22210595D01*
X36025000Y-22468514D01*
X36025000Y-22731486D01*
X36076304Y-22989405D01*
X36176939Y-23232359D01*
X36302537Y-23420330D01*
X36067124Y-23655743D01*
X33347578Y-23660033D01*
X33377250Y-23540040D01*
X33389812Y-23267508D01*
X33348965Y-22997762D01*
X33256277Y-22741168D01*
X33195860Y-22628137D01*
X32956993Y-22562612D01*
X32179605Y-23340000D01*
X32193748Y-23354143D01*
X32014143Y-23533748D01*
X32000000Y-23519605D01*
X31985858Y-23533748D01*
X31806253Y-23354143D01*
X31820395Y-23340000D01*
X31043007Y-22562612D01*
X30804140Y-22628137D01*
X30688240Y-22875116D01*
X30622750Y-23139960D01*
X30610188Y-23412492D01*
X30639143Y-23603702D01*
X29274917Y-22130339D01*
X29509405Y-22083696D01*
X29752359Y-21983061D01*
X29971013Y-21836962D01*
X30156962Y-21651013D01*
X30303061Y-21432359D01*
X30403696Y-21189405D01*
X30455000Y-20931486D01*
X30455000Y-20668514D01*
X30403696Y-20410595D01*
X30303061Y-20167641D01*
X30156962Y-19948987D01*
X29971013Y-19763038D01*
X29752359Y-19616939D01*
X29509405Y-19516304D01*
X29251486Y-19465000D01*
X29235463Y-19465000D01*
X29293771Y-19355912D01*
X29344377Y-19189089D01*
X29357182Y-19059076D01*
X29357182Y-19059066D01*
X29361463Y-19015600D01*
X29357182Y-18972134D01*
X29357182Y-17420250D01*
X29375518Y-17425812D01*
X29500000Y-17438072D01*
X30619012Y-17438072D01*
X30611928Y-17510000D01*
X30611928Y-19010000D01*
X30624188Y-19134482D01*
X30660498Y-19254180D01*
X30719463Y-19364494D01*
X30798815Y-19461185D01*
X30895506Y-19540537D01*
X31005820Y-19599502D01*
X31125518Y-19635812D01*
X31233483Y-19646445D01*
X31117114Y-19724201D01*
X30924201Y-19917114D01*
X30772629Y-20143957D01*
X30668225Y-20396011D01*
X30615000Y-20663589D01*
X30615000Y-20936411D01*
X30668225Y-21203989D01*
X30772629Y-21456043D01*
X30924201Y-21682886D01*
X31117114Y-21875799D01*
X31343957Y-22027371D01*
X31443279Y-22068511D01*
X31401168Y-22083723D01*
X31288137Y-22144140D01*
X31222612Y-22383007D01*
X32000000Y-23160395D01*
X32777388Y-22383007D01*
X32711863Y-22144140D01*
X32553523Y-22069836D01*
X32656043Y-22027371D01*
X32882886Y-21875799D01*
X33075799Y-21682886D01*
X33227371Y-21456043D01*
X33331775Y-21203989D01*
X33385000Y-20936411D01*
X33385000Y-20663589D01*
X33331775Y-20396011D01*
X33227371Y-20143957D01*
X33075799Y-19917114D01*
X32882886Y-19724201D01*
X32766517Y-19646445D01*
X32874482Y-19635812D01*
X32994180Y-19599502D01*
X33104494Y-19540537D01*
X33201185Y-19461185D01*
X33280537Y-19364494D01*
X33339502Y-19254180D01*
X33375812Y-19134482D01*
X33388072Y-19010000D01*
X33388072Y-17510000D01*
X33375812Y-17385518D01*
X33370477Y-17367929D01*
X33588620Y-17291234D01*
X33847573Y-17137962D01*
X34071649Y-16937116D01*
X34252236Y-16696414D01*
X34382394Y-16425107D01*
X34431036Y-16264740D01*
X34310378Y-16027000D01*
X33067000Y-16027000D01*
X33067000Y-16047000D01*
X32813000Y-16047000D01*
X32813000Y-16027000D01*
X32793000Y-16027000D01*
X32793000Y-15773000D01*
X32813000Y-15773000D01*
X32813000Y-14529008D01*
X32575259Y-14408959D01*
X32291380Y-14508766D01*
X32032427Y-14662038D01*
X31897689Y-14782808D01*
X31889502Y-14755820D01*
X31830537Y-14645506D01*
X31751185Y-14548815D01*
X31654494Y-14469463D01*
X31544180Y-14410498D01*
X31424482Y-14374188D01*
X31300000Y-14361928D01*
X29834999Y-14361928D01*
X29834999Y-14238072D01*
X31300000Y-14238072D01*
X31424482Y-14225812D01*
X31544180Y-14189502D01*
X31654494Y-14130537D01*
X31751185Y-14051185D01*
X31830537Y-13954494D01*
X31889502Y-13844180D01*
X31897689Y-13817192D01*
X32032427Y-13937962D01*
X32291380Y-14091234D01*
X32575259Y-14191041D01*
X32813000Y-14070992D01*
X32813000Y-12827000D01*
X32793000Y-12827000D01*
X32793000Y-12573000D01*
X32813000Y-12573000D01*
X32813000Y-12553000D01*
X33067000Y-12553000D01*
X33067000Y-12573000D01*
G37*
X33067000Y-12573000D02*
X33087000Y-12573000D01*
X33087000Y-12827000D01*
X33067000Y-12827000D01*
X33067000Y-14070992D01*
X33304741Y-14191041D01*
X33460872Y-14136148D01*
X33459508Y-14149999D01*
X33481422Y-14372497D01*
X33514896Y-14482846D01*
X33304741Y-14408959D01*
X33067000Y-14529008D01*
X33067000Y-15773000D01*
X34310378Y-15773000D01*
X34413898Y-15569029D01*
X36165000Y-17320132D01*
X36165001Y-17882317D01*
X36095506Y-17919463D01*
X35998815Y-17998815D01*
X35919463Y-18095506D01*
X35860498Y-18205820D01*
X35824188Y-18325518D01*
X35811928Y-18450000D01*
X35811928Y-20150000D01*
X35824188Y-20274482D01*
X35860498Y-20394180D01*
X35919463Y-20504494D01*
X35998815Y-20601185D01*
X36095506Y-20680537D01*
X36205820Y-20739502D01*
X36325518Y-20775812D01*
X36450000Y-20788072D01*
X38150000Y-20788072D01*
X38274482Y-20775812D01*
X38394180Y-20739502D01*
X38504494Y-20680537D01*
X38601185Y-20601185D01*
X38680537Y-20504494D01*
X38739502Y-20394180D01*
X38775812Y-20274482D01*
X38788072Y-20150000D01*
X38788072Y-18450000D01*
X38775812Y-18325518D01*
X38739502Y-18205820D01*
X38680537Y-18095506D01*
X38601185Y-17998815D01*
X38504494Y-17919463D01*
X38435000Y-17882317D01*
X38435000Y-16905751D01*
X38440491Y-16849999D01*
X38418577Y-16627501D01*
X38353676Y-16413553D01*
X38332599Y-16374121D01*
X38248284Y-16216377D01*
X38106449Y-16043551D01*
X38063141Y-16008009D01*
X36280492Y-14225360D01*
X36389405Y-14203696D01*
X36632359Y-14103061D01*
X36851013Y-13956962D01*
X37036962Y-13771013D01*
X37100000Y-13676669D01*
X37163038Y-13771013D01*
X37348987Y-13956962D01*
X37567641Y-14103061D01*
X37810595Y-14203696D01*
X38068514Y-14255000D01*
X38331486Y-14255000D01*
X38589405Y-14203696D01*
X38832359Y-14103061D01*
X39051013Y-13956962D01*
X39236962Y-13771013D01*
X39300000Y-13676669D01*
X39363038Y-13771013D01*
X39548987Y-13956962D01*
X39767641Y-14103061D01*
X40010595Y-14203696D01*
X40051979Y-14211928D01*
X40050000Y-14211928D01*
X39925518Y-14224188D01*
X39805820Y-14260498D01*
X39695506Y-14319463D01*
X39598815Y-14398815D01*
X39519463Y-14495506D01*
X39460498Y-14605820D01*
X39424188Y-14725518D01*
X39411928Y-14850000D01*
X39411928Y-16550000D01*
X39424188Y-16674482D01*
X39460498Y-16794180D01*
X39519463Y-16904494D01*
X39598815Y-17001185D01*
X39695506Y-17080537D01*
X39805820Y-17139502D01*
X39925518Y-17175812D01*
X40050000Y-17188072D01*
X41750000Y-17188072D01*
X41874482Y-17175812D01*
X41994180Y-17139502D01*
X42065000Y-17101647D01*
X42065000Y-17898353D01*
X41994180Y-17860498D01*
X41874482Y-17824188D01*
X41750000Y-17811928D01*
X40050000Y-17811928D01*
X39925518Y-17824188D01*
X39805820Y-17860498D01*
X39695506Y-17919463D01*
X39598815Y-17998815D01*
X39519463Y-18095506D01*
X39460498Y-18205820D01*
X39424188Y-18325518D01*
X39411928Y-18450000D01*
X39411928Y-20150000D01*
X39424188Y-20274482D01*
X39460498Y-20394180D01*
X39519463Y-20504494D01*
X39598815Y-20601185D01*
X39695506Y-20680537D01*
X39805820Y-20739502D01*
X39925518Y-20775812D01*
X40050000Y-20788072D01*
X41750000Y-20788072D01*
X41874482Y-20775812D01*
X41994180Y-20739502D01*
X42104494Y-20680537D01*
X42201185Y-20601185D01*
X42280537Y-20504494D01*
X42339502Y-20394180D01*
X42375812Y-20274482D01*
X42388072Y-20150000D01*
X42388072Y-19499773D01*
X42393551Y-19506449D01*
X42436865Y-19541996D01*
X44399427Y-21504559D01*
X44416304Y-21589405D01*
X44516939Y-21832359D01*
X44565000Y-21904288D01*
X44565001Y-22869738D01*
X44541068Y-22898900D01*
X44470000Y-23031858D01*
X44398932Y-22898899D01*
X44219607Y-22680392D01*
X44001100Y-22501068D01*
X43751807Y-22367818D01*
X43481308Y-22285764D01*
X43200000Y-22258057D01*
X42918691Y-22285764D01*
X42648192Y-22367818D01*
X42398899Y-22501068D01*
X42180392Y-22680393D01*
X42001068Y-22898900D01*
X41965737Y-22965000D01*
X41188551Y-22965000D01*
X41235000Y-22731486D01*
X41235000Y-22468514D01*
X41183696Y-22210595D01*
X41083061Y-21967641D01*
X40936962Y-21748987D01*
X40751013Y-21563038D01*
X40532359Y-21416939D01*
X40289405Y-21316304D01*
X40031486Y-21265000D01*
X39768514Y-21265000D01*
X39510595Y-21316304D01*
X39267641Y-21416939D01*
X39048987Y-21563038D01*
X38863038Y-21748987D01*
X38716939Y-21967641D01*
X38630000Y-22177530D01*
X38543061Y-21967641D01*
X38396962Y-21748987D01*
X38211013Y-21563038D01*
X37992359Y-21416939D01*
X37749405Y-21316304D01*
X37491486Y-21265000D01*
X37228514Y-21265000D01*
X36970595Y-21316304D01*
X36727641Y-21416939D01*
X36508987Y-21563038D01*
X36323038Y-21748987D01*
X36176939Y-21967641D01*
X36076304Y-22210595D01*
X36025000Y-22468514D01*
X36025000Y-22731486D01*
X36076304Y-22989405D01*
X36176939Y-23232359D01*
X36302537Y-23420330D01*
X36067124Y-23655743D01*
X33347578Y-23660033D01*
X33377250Y-23540040D01*
X33389812Y-23267508D01*
X33348965Y-22997762D01*
X33256277Y-22741168D01*
X33195860Y-22628137D01*
X32956993Y-22562612D01*
X32179605Y-23340000D01*
X32193748Y-23354143D01*
X32014143Y-23533748D01*
X32000000Y-23519605D01*
X31985858Y-23533748D01*
X31806253Y-23354143D01*
X31820395Y-23340000D01*
X31043007Y-22562612D01*
X30804140Y-22628137D01*
X30688240Y-22875116D01*
X30622750Y-23139960D01*
X30610188Y-23412492D01*
X30639143Y-23603702D01*
X29274917Y-22130339D01*
X29509405Y-22083696D01*
X29752359Y-21983061D01*
X29971013Y-21836962D01*
X30156962Y-21651013D01*
X30303061Y-21432359D01*
X30403696Y-21189405D01*
X30455000Y-20931486D01*
X30455000Y-20668514D01*
X30403696Y-20410595D01*
X30303061Y-20167641D01*
X30156962Y-19948987D01*
X29971013Y-19763038D01*
X29752359Y-19616939D01*
X29509405Y-19516304D01*
X29251486Y-19465000D01*
X29235463Y-19465000D01*
X29293771Y-19355912D01*
X29344377Y-19189089D01*
X29357182Y-19059076D01*
X29357182Y-19059066D01*
X29361463Y-19015600D01*
X29357182Y-18972134D01*
X29357182Y-17420250D01*
X29375518Y-17425812D01*
X29500000Y-17438072D01*
X30619012Y-17438072D01*
X30611928Y-17510000D01*
X30611928Y-19010000D01*
X30624188Y-19134482D01*
X30660498Y-19254180D01*
X30719463Y-19364494D01*
X30798815Y-19461185D01*
X30895506Y-19540537D01*
X31005820Y-19599502D01*
X31125518Y-19635812D01*
X31233483Y-19646445D01*
X31117114Y-19724201D01*
X30924201Y-19917114D01*
X30772629Y-20143957D01*
X30668225Y-20396011D01*
X30615000Y-20663589D01*
X30615000Y-20936411D01*
X30668225Y-21203989D01*
X30772629Y-21456043D01*
X30924201Y-21682886D01*
X31117114Y-21875799D01*
X31343957Y-22027371D01*
X31443279Y-22068511D01*
X31401168Y-22083723D01*
X31288137Y-22144140D01*
X31222612Y-22383007D01*
X32000000Y-23160395D01*
X32777388Y-22383007D01*
X32711863Y-22144140D01*
X32553523Y-22069836D01*
X32656043Y-22027371D01*
X32882886Y-21875799D01*
X33075799Y-21682886D01*
X33227371Y-21456043D01*
X33331775Y-21203989D01*
X33385000Y-20936411D01*
X33385000Y-20663589D01*
X33331775Y-20396011D01*
X33227371Y-20143957D01*
X33075799Y-19917114D01*
X32882886Y-19724201D01*
X32766517Y-19646445D01*
X32874482Y-19635812D01*
X32994180Y-19599502D01*
X33104494Y-19540537D01*
X33201185Y-19461185D01*
X33280537Y-19364494D01*
X33339502Y-19254180D01*
X33375812Y-19134482D01*
X33388072Y-19010000D01*
X33388072Y-17510000D01*
X33375812Y-17385518D01*
X33370477Y-17367929D01*
X33588620Y-17291234D01*
X33847573Y-17137962D01*
X34071649Y-16937116D01*
X34252236Y-16696414D01*
X34382394Y-16425107D01*
X34431036Y-16264740D01*
X34310378Y-16027000D01*
X33067000Y-16027000D01*
X33067000Y-16047000D01*
X32813000Y-16047000D01*
X32813000Y-16027000D01*
X32793000Y-16027000D01*
X32793000Y-15773000D01*
X32813000Y-15773000D01*
X32813000Y-14529008D01*
X32575259Y-14408959D01*
X32291380Y-14508766D01*
X32032427Y-14662038D01*
X31897689Y-14782808D01*
X31889502Y-14755820D01*
X31830537Y-14645506D01*
X31751185Y-14548815D01*
X31654494Y-14469463D01*
X31544180Y-14410498D01*
X31424482Y-14374188D01*
X31300000Y-14361928D01*
X29834999Y-14361928D01*
X29834999Y-14238072D01*
X31300000Y-14238072D01*
X31424482Y-14225812D01*
X31544180Y-14189502D01*
X31654494Y-14130537D01*
X31751185Y-14051185D01*
X31830537Y-13954494D01*
X31889502Y-13844180D01*
X31897689Y-13817192D01*
X32032427Y-13937962D01*
X32291380Y-14091234D01*
X32575259Y-14191041D01*
X32813000Y-14070992D01*
X32813000Y-12827000D01*
X32793000Y-12827000D01*
X32793000Y-12573000D01*
X32813000Y-12573000D01*
X32813000Y-12553000D01*
X33067000Y-12553000D01*
X33067000Y-12573000D01*
G36*
X41810498Y-2255820D02*
G01*
X41774188Y-2375518D01*
X41761928Y-2500000D01*
X41761928Y-4900000D01*
X41774188Y-5024482D01*
X41810498Y-5144180D01*
X41869463Y-5254494D01*
X41948815Y-5351185D01*
X42045506Y-5430537D01*
X42065001Y-5440957D01*
X42065000Y-14298353D01*
X41994180Y-14260498D01*
X41874482Y-14224188D01*
X41750000Y-14211928D01*
X40748021Y-14211928D01*
X40789405Y-14203696D01*
X41032359Y-14103061D01*
X41251013Y-13956962D01*
X41436962Y-13771013D01*
X41583061Y-13552359D01*
X41683696Y-13309405D01*
X41735000Y-13051486D01*
X41735000Y-12788514D01*
X41683696Y-12530595D01*
X41583061Y-12287641D01*
X41436962Y-12068987D01*
X41251013Y-11883038D01*
X41032359Y-11736939D01*
X40789405Y-11636304D01*
X40531486Y-11585000D01*
X40268514Y-11585000D01*
X40010595Y-11636304D01*
X39767641Y-11736939D01*
X39548987Y-11883038D01*
X39363038Y-12068987D01*
X39300000Y-12163331D01*
X39236962Y-12068987D01*
X39051013Y-11883038D01*
X38832359Y-11736939D01*
X38589405Y-11636304D01*
X38331486Y-11585000D01*
X38068514Y-11585000D01*
X37810595Y-11636304D01*
X37567641Y-11736939D01*
X37348987Y-11883038D01*
X37163038Y-12068987D01*
X37100000Y-12163331D01*
X37036962Y-12068987D01*
X36851013Y-11883038D01*
X36632359Y-11736939D01*
X36389405Y-11636304D01*
X36131486Y-11585000D01*
X35868514Y-11585000D01*
X35674326Y-11623627D01*
X35653675Y-11555550D01*
X35548283Y-11358374D01*
X35406448Y-11185548D01*
X35363139Y-11150006D01*
X34188072Y-9974939D01*
X34188072Y-9690000D01*
X34175812Y-9565518D01*
X34139502Y-9445820D01*
X34080537Y-9335506D01*
X34001185Y-9238815D01*
X33904494Y-9159463D01*
X33794180Y-9100498D01*
X33674482Y-9064188D01*
X33566517Y-9053555D01*
X33682886Y-8975799D01*
X33875799Y-8782886D01*
X34027371Y-8556043D01*
X34131775Y-8303989D01*
X34185000Y-8036411D01*
X34185000Y-7763589D01*
X34131775Y-7496011D01*
X34027371Y-7243957D01*
X33875799Y-7017114D01*
X33682886Y-6824201D01*
X33456043Y-6672629D01*
X33356721Y-6631489D01*
X33398832Y-6616277D01*
X33511863Y-6555860D01*
X33577388Y-6316993D01*
X32800000Y-5539605D01*
X32022612Y-6316993D01*
X32088137Y-6555860D01*
X32246477Y-6630164D01*
X32143957Y-6672629D01*
X31917114Y-6824201D01*
X31724201Y-7017114D01*
X31572629Y-7243957D01*
X31468225Y-7496011D01*
X31415000Y-7763589D01*
X31415000Y-8036411D01*
X31468225Y-8303989D01*
X31572629Y-8556043D01*
X31724201Y-8782886D01*
X31917114Y-8975799D01*
X32033483Y-9053555D01*
X31925518Y-9064188D01*
X31805820Y-9100498D01*
X31695506Y-9159463D01*
X31598815Y-9238815D01*
X31519463Y-9335506D01*
X31460498Y-9445820D01*
X31424188Y-9565518D01*
X31411928Y-9690000D01*
X31411928Y-11172952D01*
X31300000Y-11161928D01*
X29835001Y-11161928D01*
X29835001Y-9444248D01*
X29818578Y-9277501D01*
X29758375Y-9079041D01*
X29971013Y-8936962D01*
X30156962Y-8751013D01*
X30303061Y-8532359D01*
X30403696Y-8289405D01*
X30455000Y-8031486D01*
X30455000Y-7768514D01*
X30403696Y-7510595D01*
X30303061Y-7267641D01*
X30156962Y-7048987D01*
X29971013Y-6863038D01*
X29752359Y-6716939D01*
X29509405Y-6616304D01*
X29251486Y-6565000D01*
X28988514Y-6565000D01*
X28730595Y-6616304D01*
X28487641Y-6716939D01*
X28268987Y-6863038D01*
X28083038Y-7048987D01*
X28071455Y-7066323D01*
X26955000Y-5949869D01*
X26955000Y-5432492D01*
X31410188Y-5432492D01*
X31451035Y-5702238D01*
X31543723Y-5958832D01*
X31604140Y-6071863D01*
X31843007Y-6137388D01*
X32620395Y-5360000D01*
X32979605Y-5360000D01*
X33756993Y-6137388D01*
X33995860Y-6071863D01*
X34111760Y-5824884D01*
X34177250Y-5560040D01*
X34189812Y-5287508D01*
X34171794Y-5168514D01*
X34665000Y-5168514D01*
X34665000Y-5431486D01*
X34716304Y-5689405D01*
X34816939Y-5932359D01*
X34963038Y-6151013D01*
X35148987Y-6336962D01*
X35367641Y-6483061D01*
X35610595Y-6583696D01*
X35868514Y-6635000D01*
X36131486Y-6635000D01*
X36389405Y-6583696D01*
X36632359Y-6483061D01*
X36851013Y-6336962D01*
X37036962Y-6151013D01*
X37100000Y-6056669D01*
X37163038Y-6151013D01*
X37348987Y-6336962D01*
X37567641Y-6483061D01*
X37810595Y-6583696D01*
X38068514Y-6635000D01*
X38331486Y-6635000D01*
X38589405Y-6583696D01*
X38832359Y-6483061D01*
X39051013Y-6336962D01*
X39236962Y-6151013D01*
X39300000Y-6056669D01*
X39363038Y-6151013D01*
X39548987Y-6336962D01*
X39767641Y-6483061D01*
X40010595Y-6583696D01*
X40268514Y-6635000D01*
X40531486Y-6635000D01*
X40789405Y-6583696D01*
X41032359Y-6483061D01*
X41251013Y-6336962D01*
X41436962Y-6151013D01*
X41583061Y-5932359D01*
X41683696Y-5689405D01*
X41735000Y-5431486D01*
X41735000Y-5168514D01*
X41683696Y-4910595D01*
X41583061Y-4667641D01*
X41436962Y-4448987D01*
X41251013Y-4263038D01*
X41032359Y-4116939D01*
X40789405Y-4016304D01*
X40531486Y-3965000D01*
X40268514Y-3965000D01*
X40010595Y-4016304D01*
X39767641Y-4116939D01*
X39548987Y-4263038D01*
X39363038Y-4448987D01*
X39300000Y-4543331D01*
X39236962Y-4448987D01*
X39051013Y-4263038D01*
X38832359Y-4116939D01*
X38589405Y-4016304D01*
X38331486Y-3965000D01*
X38068514Y-3965000D01*
X37810595Y-4016304D01*
X37567641Y-4116939D01*
X37348987Y-4263038D01*
X37163038Y-4448987D01*
X37100000Y-4543331D01*
X37036962Y-4448987D01*
X36851013Y-4263038D01*
X36632359Y-4116939D01*
X36389405Y-4016304D01*
X36131486Y-3965000D01*
X35868514Y-3965000D01*
X35610595Y-4016304D01*
X35367641Y-4116939D01*
X35148987Y-4263038D01*
X34963038Y-4448987D01*
X34816939Y-4667641D01*
X34716304Y-4910595D01*
X34665000Y-5168514D01*
X34171794Y-5168514D01*
X34148965Y-5017762D01*
X34056277Y-4761168D01*
X33995860Y-4648137D01*
X33756993Y-4582612D01*
X32979605Y-5360000D01*
X32620395Y-5360000D01*
X31843007Y-4582612D01*
X31604140Y-4648137D01*
X31488240Y-4895116D01*
X31422750Y-5159960D01*
X31410188Y-5432492D01*
X26955000Y-5432492D01*
X26955000Y-4510183D01*
X27147502Y-4568578D01*
X27314249Y-4585001D01*
X27314258Y-4585001D01*
X27370000Y-4590491D01*
X27425742Y-4585001D01*
X30794248Y-4585001D01*
X30849999Y-4590492D01*
X30905750Y-4585001D01*
X30905751Y-4585001D01*
X31072498Y-4568578D01*
X31286446Y-4503677D01*
X31474787Y-4403007D01*
X32022612Y-4403007D01*
X32800000Y-5180395D01*
X33577388Y-4403007D01*
X33511863Y-4164140D01*
X33264884Y-4048240D01*
X33000040Y-3982750D01*
X32727508Y-3970188D01*
X32457762Y-4011035D01*
X32201168Y-4103723D01*
X32088137Y-4164140D01*
X32022612Y-4403007D01*
X31474787Y-4403007D01*
X31483622Y-4398285D01*
X31656448Y-4256450D01*
X31691995Y-4213136D01*
X33670132Y-2235000D01*
X41821627Y-2235000D01*
X41810498Y-2255820D01*
G37*
X41810498Y-2255820D02*
X41774188Y-2375518D01*
X41761928Y-2500000D01*
X41761928Y-4900000D01*
X41774188Y-5024482D01*
X41810498Y-5144180D01*
X41869463Y-5254494D01*
X41948815Y-5351185D01*
X42045506Y-5430537D01*
X42065001Y-5440957D01*
X42065000Y-14298353D01*
X41994180Y-14260498D01*
X41874482Y-14224188D01*
X41750000Y-14211928D01*
X40748021Y-14211928D01*
X40789405Y-14203696D01*
X41032359Y-14103061D01*
X41251013Y-13956962D01*
X41436962Y-13771013D01*
X41583061Y-13552359D01*
X41683696Y-13309405D01*
X41735000Y-13051486D01*
X41735000Y-12788514D01*
X41683696Y-12530595D01*
X41583061Y-12287641D01*
X41436962Y-12068987D01*
X41251013Y-11883038D01*
X41032359Y-11736939D01*
X40789405Y-11636304D01*
X40531486Y-11585000D01*
X40268514Y-11585000D01*
X40010595Y-11636304D01*
X39767641Y-11736939D01*
X39548987Y-11883038D01*
X39363038Y-12068987D01*
X39300000Y-12163331D01*
X39236962Y-12068987D01*
X39051013Y-11883038D01*
X38832359Y-11736939D01*
X38589405Y-11636304D01*
X38331486Y-11585000D01*
X38068514Y-11585000D01*
X37810595Y-11636304D01*
X37567641Y-11736939D01*
X37348987Y-11883038D01*
X37163038Y-12068987D01*
X37100000Y-12163331D01*
X37036962Y-12068987D01*
X36851013Y-11883038D01*
X36632359Y-11736939D01*
X36389405Y-11636304D01*
X36131486Y-11585000D01*
X35868514Y-11585000D01*
X35674326Y-11623627D01*
X35653675Y-11555550D01*
X35548283Y-11358374D01*
X35406448Y-11185548D01*
X35363139Y-11150006D01*
X34188072Y-9974939D01*
X34188072Y-9690000D01*
X34175812Y-9565518D01*
X34139502Y-9445820D01*
X34080537Y-9335506D01*
X34001185Y-9238815D01*
X33904494Y-9159463D01*
X33794180Y-9100498D01*
X33674482Y-9064188D01*
X33566517Y-9053555D01*
X33682886Y-8975799D01*
X33875799Y-8782886D01*
X34027371Y-8556043D01*
X34131775Y-8303989D01*
X34185000Y-8036411D01*
X34185000Y-7763589D01*
X34131775Y-7496011D01*
X34027371Y-7243957D01*
X33875799Y-7017114D01*
X33682886Y-6824201D01*
X33456043Y-6672629D01*
X33356721Y-6631489D01*
X33398832Y-6616277D01*
X33511863Y-6555860D01*
X33577388Y-6316993D01*
X32800000Y-5539605D01*
X32022612Y-6316993D01*
X32088137Y-6555860D01*
X32246477Y-6630164D01*
X32143957Y-6672629D01*
X31917114Y-6824201D01*
X31724201Y-7017114D01*
X31572629Y-7243957D01*
X31468225Y-7496011D01*
X31415000Y-7763589D01*
X31415000Y-8036411D01*
X31468225Y-8303989D01*
X31572629Y-8556043D01*
X31724201Y-8782886D01*
X31917114Y-8975799D01*
X32033483Y-9053555D01*
X31925518Y-9064188D01*
X31805820Y-9100498D01*
X31695506Y-9159463D01*
X31598815Y-9238815D01*
X31519463Y-9335506D01*
X31460498Y-9445820D01*
X31424188Y-9565518D01*
X31411928Y-9690000D01*
X31411928Y-11172952D01*
X31300000Y-11161928D01*
X29835001Y-11161928D01*
X29835001Y-9444248D01*
X29818578Y-9277501D01*
X29758375Y-9079041D01*
X29971013Y-8936962D01*
X30156962Y-8751013D01*
X30303061Y-8532359D01*
X30403696Y-8289405D01*
X30455000Y-8031486D01*
X30455000Y-7768514D01*
X30403696Y-7510595D01*
X30303061Y-7267641D01*
X30156962Y-7048987D01*
X29971013Y-6863038D01*
X29752359Y-6716939D01*
X29509405Y-6616304D01*
X29251486Y-6565000D01*
X28988514Y-6565000D01*
X28730595Y-6616304D01*
X28487641Y-6716939D01*
X28268987Y-6863038D01*
X28083038Y-7048987D01*
X28071455Y-7066323D01*
X26955000Y-5949869D01*
X26955000Y-5432492D01*
X31410188Y-5432492D01*
X31451035Y-5702238D01*
X31543723Y-5958832D01*
X31604140Y-6071863D01*
X31843007Y-6137388D01*
X32620395Y-5360000D01*
X32979605Y-5360000D01*
X33756993Y-6137388D01*
X33995860Y-6071863D01*
X34111760Y-5824884D01*
X34177250Y-5560040D01*
X34189812Y-5287508D01*
X34171794Y-5168514D01*
X34665000Y-5168514D01*
X34665000Y-5431486D01*
X34716304Y-5689405D01*
X34816939Y-5932359D01*
X34963038Y-6151013D01*
X35148987Y-6336962D01*
X35367641Y-6483061D01*
X35610595Y-6583696D01*
X35868514Y-6635000D01*
X36131486Y-6635000D01*
X36389405Y-6583696D01*
X36632359Y-6483061D01*
X36851013Y-6336962D01*
X37036962Y-6151013D01*
X37100000Y-6056669D01*
X37163038Y-6151013D01*
X37348987Y-6336962D01*
X37567641Y-6483061D01*
X37810595Y-6583696D01*
X38068514Y-6635000D01*
X38331486Y-6635000D01*
X38589405Y-6583696D01*
X38832359Y-6483061D01*
X39051013Y-6336962D01*
X39236962Y-6151013D01*
X39300000Y-6056669D01*
X39363038Y-6151013D01*
X39548987Y-6336962D01*
X39767641Y-6483061D01*
X40010595Y-6583696D01*
X40268514Y-6635000D01*
X40531486Y-6635000D01*
X40789405Y-6583696D01*
X41032359Y-6483061D01*
X41251013Y-6336962D01*
X41436962Y-6151013D01*
X41583061Y-5932359D01*
X41683696Y-5689405D01*
X41735000Y-5431486D01*
X41735000Y-5168514D01*
X41683696Y-4910595D01*
X41583061Y-4667641D01*
X41436962Y-4448987D01*
X41251013Y-4263038D01*
X41032359Y-4116939D01*
X40789405Y-4016304D01*
X40531486Y-3965000D01*
X40268514Y-3965000D01*
X40010595Y-4016304D01*
X39767641Y-4116939D01*
X39548987Y-4263038D01*
X39363038Y-4448987D01*
X39300000Y-4543331D01*
X39236962Y-4448987D01*
X39051013Y-4263038D01*
X38832359Y-4116939D01*
X38589405Y-4016304D01*
X38331486Y-3965000D01*
X38068514Y-3965000D01*
X37810595Y-4016304D01*
X37567641Y-4116939D01*
X37348987Y-4263038D01*
X37163038Y-4448987D01*
X37100000Y-4543331D01*
X37036962Y-4448987D01*
X36851013Y-4263038D01*
X36632359Y-4116939D01*
X36389405Y-4016304D01*
X36131486Y-3965000D01*
X35868514Y-3965000D01*
X35610595Y-4016304D01*
X35367641Y-4116939D01*
X35148987Y-4263038D01*
X34963038Y-4448987D01*
X34816939Y-4667641D01*
X34716304Y-4910595D01*
X34665000Y-5168514D01*
X34171794Y-5168514D01*
X34148965Y-5017762D01*
X34056277Y-4761168D01*
X33995860Y-4648137D01*
X33756993Y-4582612D01*
X32979605Y-5360000D01*
X32620395Y-5360000D01*
X31843007Y-4582612D01*
X31604140Y-4648137D01*
X31488240Y-4895116D01*
X31422750Y-5159960D01*
X31410188Y-5432492D01*
X26955000Y-5432492D01*
X26955000Y-4510183D01*
X27147502Y-4568578D01*
X27314249Y-4585001D01*
X27314258Y-4585001D01*
X27370000Y-4590491D01*
X27425742Y-4585001D01*
X30794248Y-4585001D01*
X30849999Y-4590492D01*
X30905750Y-4585001D01*
X30905751Y-4585001D01*
X31072498Y-4568578D01*
X31286446Y-4503677D01*
X31474787Y-4403007D01*
X32022612Y-4403007D01*
X32800000Y-5180395D01*
X33577388Y-4403007D01*
X33511863Y-4164140D01*
X33264884Y-4048240D01*
X33000040Y-3982750D01*
X32727508Y-3970188D01*
X32457762Y-4011035D01*
X32201168Y-4103723D01*
X32088137Y-4164140D01*
X32022612Y-4403007D01*
X31474787Y-4403007D01*
X31483622Y-4398285D01*
X31656448Y-4256450D01*
X31691995Y-4213136D01*
X33670132Y-2235000D01*
X41821627Y-2235000D01*
X41810498Y-2255820D01*
G36*
X780000Y-5638072D02*
G01*
X1632941Y-5638072D01*
X3936856Y-7941988D01*
X4066376Y-8048283D01*
X4263552Y-8153675D01*
X4352216Y-8180571D01*
X4475738Y-8304093D01*
X4507366Y-8342632D01*
X4661159Y-8468846D01*
X4824294Y-8556043D01*
X4836619Y-8562631D01*
X5027004Y-8620384D01*
X5224999Y-8639885D01*
X5274607Y-8634999D01*
X5447853Y-8634999D01*
X5529799Y-8773000D01*
X6573000Y-8773000D01*
X6573000Y-8753000D01*
X6827000Y-8753000D01*
X6827000Y-8773000D01*
X7870201Y-8773000D01*
X7952147Y-8634999D01*
X10697525Y-8634999D01*
X10716304Y-8729405D01*
X10816939Y-8972359D01*
X10865000Y-9044288D01*
X10865001Y-9695711D01*
X10816939Y-9767641D01*
X10716304Y-10010595D01*
X10665000Y-10268514D01*
X10665000Y-10531486D01*
X10699530Y-10705076D01*
X10563552Y-10746325D01*
X10366376Y-10851717D01*
X10319802Y-10889939D01*
X10318577Y-10877501D01*
X10253676Y-10663553D01*
X10148284Y-10466377D01*
X10006449Y-10293551D01*
X9833623Y-10151716D01*
X9636447Y-10046324D01*
X9422499Y-9981423D01*
X9200000Y-9959509D01*
X8977502Y-9981423D01*
X8899780Y-10005000D01*
X7439668Y-10005000D01*
X7589670Y-9895351D01*
X7766759Y-9702660D01*
X7902853Y-9479123D01*
X7992722Y-9233330D01*
X7870201Y-9027000D01*
X6827000Y-9027000D01*
X6827000Y-9047000D01*
X6573000Y-9047000D01*
X6573000Y-9027000D01*
X5529799Y-9027000D01*
X5407278Y-9233330D01*
X5497147Y-9479123D01*
X5633241Y-9702660D01*
X5810330Y-9895351D01*
X5960332Y-10005000D01*
X2958728Y-10005000D01*
X3004494Y-9980537D01*
X3101185Y-9901185D01*
X3180537Y-9804494D01*
X3239502Y-9694180D01*
X3275812Y-9574482D01*
X3288072Y-9450000D01*
X3285000Y-8885750D01*
X3126250Y-8727000D01*
X1927000Y-8727000D01*
X1927000Y-8747000D01*
X1673000Y-8747000D01*
X1673000Y-8727000D01*
X1653000Y-8727000D01*
X1653000Y-8473000D01*
X1673000Y-8473000D01*
X1673000Y-7273750D01*
X1927000Y-7273750D01*
X1927000Y-8473000D01*
X3126250Y-8473000D01*
X3285000Y-8314250D01*
X3288072Y-7750000D01*
X3275812Y-7625518D01*
X3239502Y-7505820D01*
X3180537Y-7395506D01*
X3101185Y-7298815D01*
X3004494Y-7219463D01*
X2894180Y-7160498D01*
X2774482Y-7124188D01*
X2650000Y-7111928D01*
X2085750Y-7115000D01*
X1927000Y-7273750D01*
X1673000Y-7273750D01*
X1514250Y-7115000D01*
X950000Y-7111928D01*
X825518Y-7124188D01*
X705820Y-7160498D01*
X685000Y-7171627D01*
X685000Y-5628716D01*
X780000Y-5638072D01*
G37*
X780000Y-5638072D02*
X1632941Y-5638072D01*
X3936856Y-7941988D01*
X4066376Y-8048283D01*
X4263552Y-8153675D01*
X4352216Y-8180571D01*
X4475738Y-8304093D01*
X4507366Y-8342632D01*
X4661159Y-8468846D01*
X4824294Y-8556043D01*
X4836619Y-8562631D01*
X5027004Y-8620384D01*
X5224999Y-8639885D01*
X5274607Y-8634999D01*
X5447853Y-8634999D01*
X5529799Y-8773000D01*
X6573000Y-8773000D01*
X6573000Y-8753000D01*
X6827000Y-8753000D01*
X6827000Y-8773000D01*
X7870201Y-8773000D01*
X7952147Y-8634999D01*
X10697525Y-8634999D01*
X10716304Y-8729405D01*
X10816939Y-8972359D01*
X10865000Y-9044288D01*
X10865001Y-9695711D01*
X10816939Y-9767641D01*
X10716304Y-10010595D01*
X10665000Y-10268514D01*
X10665000Y-10531486D01*
X10699530Y-10705076D01*
X10563552Y-10746325D01*
X10366376Y-10851717D01*
X10319802Y-10889939D01*
X10318577Y-10877501D01*
X10253676Y-10663553D01*
X10148284Y-10466377D01*
X10006449Y-10293551D01*
X9833623Y-10151716D01*
X9636447Y-10046324D01*
X9422499Y-9981423D01*
X9200000Y-9959509D01*
X8977502Y-9981423D01*
X8899780Y-10005000D01*
X7439668Y-10005000D01*
X7589670Y-9895351D01*
X7766759Y-9702660D01*
X7902853Y-9479123D01*
X7992722Y-9233330D01*
X7870201Y-9027000D01*
X6827000Y-9027000D01*
X6827000Y-9047000D01*
X6573000Y-9047000D01*
X6573000Y-9027000D01*
X5529799Y-9027000D01*
X5407278Y-9233330D01*
X5497147Y-9479123D01*
X5633241Y-9702660D01*
X5810330Y-9895351D01*
X5960332Y-10005000D01*
X2958728Y-10005000D01*
X3004494Y-9980537D01*
X3101185Y-9901185D01*
X3180537Y-9804494D01*
X3239502Y-9694180D01*
X3275812Y-9574482D01*
X3288072Y-9450000D01*
X3285000Y-8885750D01*
X3126250Y-8727000D01*
X1927000Y-8727000D01*
X1927000Y-8747000D01*
X1673000Y-8747000D01*
X1673000Y-8727000D01*
X1653000Y-8727000D01*
X1653000Y-8473000D01*
X1673000Y-8473000D01*
X1673000Y-7273750D01*
X1927000Y-7273750D01*
X1927000Y-8473000D01*
X3126250Y-8473000D01*
X3285000Y-8314250D01*
X3288072Y-7750000D01*
X3275812Y-7625518D01*
X3239502Y-7505820D01*
X3180537Y-7395506D01*
X3101185Y-7298815D01*
X3004494Y-7219463D01*
X2894180Y-7160498D01*
X2774482Y-7124188D01*
X2650000Y-7111928D01*
X2085750Y-7115000D01*
X1927000Y-7273750D01*
X1673000Y-7273750D01*
X1514250Y-7115000D01*
X950000Y-7111928D01*
X825518Y-7124188D01*
X705820Y-7160498D01*
X685000Y-7171627D01*
X685000Y-5628716D01*
X780000Y-5638072D01*
G36*
X10665000Y-928514D02*
G01*
X10665000Y-1191486D01*
X10716304Y-1449405D01*
X10816939Y-1692359D01*
X10963038Y-1911013D01*
X11148987Y-2096962D01*
X11367641Y-2243061D01*
X11577530Y-2330000D01*
X11367641Y-2416939D01*
X11148987Y-2563038D01*
X10963038Y-2748987D01*
X10816939Y-2967641D01*
X10716304Y-3210595D01*
X10665000Y-3468514D01*
X10665000Y-3731486D01*
X10716304Y-3989405D01*
X10816939Y-4232359D01*
X10963038Y-4451013D01*
X11148987Y-4636962D01*
X11243331Y-4700000D01*
X11148987Y-4763038D01*
X10963038Y-4948987D01*
X10816939Y-5167641D01*
X10716304Y-5410595D01*
X10665000Y-5668514D01*
X10665000Y-5931486D01*
X10716304Y-6189405D01*
X10776453Y-6334617D01*
X10736160Y-6356154D01*
X10620901Y-6450745D01*
X10456647Y-6614999D01*
X8010431Y-6614999D01*
X8035000Y-6491486D01*
X8035000Y-6228514D01*
X7983696Y-5970595D01*
X7883061Y-5727641D01*
X7736962Y-5508987D01*
X7552169Y-5324194D01*
X7679608Y-5219608D01*
X7858932Y-5001101D01*
X7930000Y-4868142D01*
X8001068Y-5001101D01*
X8180393Y-5219608D01*
X8398900Y-5398932D01*
X8648193Y-5532182D01*
X8918692Y-5614236D01*
X9200000Y-5641943D01*
X9481309Y-5614236D01*
X9751808Y-5532182D01*
X10001101Y-5398932D01*
X10219608Y-5219608D01*
X10398932Y-5001101D01*
X10532182Y-4751808D01*
X10614236Y-4481309D01*
X10635000Y-4270491D01*
X10635000Y-3329508D01*
X10614236Y-3118691D01*
X10532182Y-2848192D01*
X10398932Y-2598899D01*
X10219607Y-2380392D01*
X10001100Y-2201068D01*
X9751807Y-2067818D01*
X9481308Y-1985764D01*
X9200000Y-1958057D01*
X8918691Y-1985764D01*
X8648192Y-2067818D01*
X8398899Y-2201068D01*
X8180392Y-2380393D01*
X8001068Y-2598900D01*
X7930000Y-2731858D01*
X7858932Y-2598899D01*
X7679607Y-2380392D01*
X7461100Y-2201068D01*
X7211807Y-2067818D01*
X6941308Y-1985764D01*
X6660000Y-1958057D01*
X6378691Y-1985764D01*
X6108192Y-2067818D01*
X5858899Y-2201068D01*
X5640392Y-2380393D01*
X5461068Y-2598900D01*
X5390000Y-2731858D01*
X5318932Y-2598899D01*
X5139607Y-2380392D01*
X4921100Y-2201068D01*
X4671807Y-2067818D01*
X4401308Y-1985764D01*
X4120000Y-1958057D01*
X3838691Y-1985764D01*
X3568192Y-2067818D01*
X3318899Y-2201068D01*
X3100392Y-2380393D01*
X3007581Y-2493483D01*
X3005812Y-2475518D01*
X2969502Y-2355820D01*
X2910537Y-2245506D01*
X2831185Y-2148815D01*
X2734494Y-2069463D01*
X2624180Y-2010498D01*
X2504482Y-1974188D01*
X2380000Y-1961928D01*
X780000Y-1961928D01*
X685000Y-1971284D01*
X685000Y-685000D01*
X10713439Y-685000D01*
X10665000Y-928514D01*
G37*
X10665000Y-928514D02*
X10665000Y-1191486D01*
X10716304Y-1449405D01*
X10816939Y-1692359D01*
X10963038Y-1911013D01*
X11148987Y-2096962D01*
X11367641Y-2243061D01*
X11577530Y-2330000D01*
X11367641Y-2416939D01*
X11148987Y-2563038D01*
X10963038Y-2748987D01*
X10816939Y-2967641D01*
X10716304Y-3210595D01*
X10665000Y-3468514D01*
X10665000Y-3731486D01*
X10716304Y-3989405D01*
X10816939Y-4232359D01*
X10963038Y-4451013D01*
X11148987Y-4636962D01*
X11243331Y-4700000D01*
X11148987Y-4763038D01*
X10963038Y-4948987D01*
X10816939Y-5167641D01*
X10716304Y-5410595D01*
X10665000Y-5668514D01*
X10665000Y-5931486D01*
X10716304Y-6189405D01*
X10776453Y-6334617D01*
X10736160Y-6356154D01*
X10620901Y-6450745D01*
X10456647Y-6614999D01*
X8010431Y-6614999D01*
X8035000Y-6491486D01*
X8035000Y-6228514D01*
X7983696Y-5970595D01*
X7883061Y-5727641D01*
X7736962Y-5508987D01*
X7552169Y-5324194D01*
X7679608Y-5219608D01*
X7858932Y-5001101D01*
X7930000Y-4868142D01*
X8001068Y-5001101D01*
X8180393Y-5219608D01*
X8398900Y-5398932D01*
X8648193Y-5532182D01*
X8918692Y-5614236D01*
X9200000Y-5641943D01*
X9481309Y-5614236D01*
X9751808Y-5532182D01*
X10001101Y-5398932D01*
X10219608Y-5219608D01*
X10398932Y-5001101D01*
X10532182Y-4751808D01*
X10614236Y-4481309D01*
X10635000Y-4270491D01*
X10635000Y-3329508D01*
X10614236Y-3118691D01*
X10532182Y-2848192D01*
X10398932Y-2598899D01*
X10219607Y-2380392D01*
X10001100Y-2201068D01*
X9751807Y-2067818D01*
X9481308Y-1985764D01*
X9200000Y-1958057D01*
X8918691Y-1985764D01*
X8648192Y-2067818D01*
X8398899Y-2201068D01*
X8180392Y-2380393D01*
X8001068Y-2598900D01*
X7930000Y-2731858D01*
X7858932Y-2598899D01*
X7679607Y-2380392D01*
X7461100Y-2201068D01*
X7211807Y-2067818D01*
X6941308Y-1985764D01*
X6660000Y-1958057D01*
X6378691Y-1985764D01*
X6108192Y-2067818D01*
X5858899Y-2201068D01*
X5640392Y-2380393D01*
X5461068Y-2598900D01*
X5390000Y-2731858D01*
X5318932Y-2598899D01*
X5139607Y-2380392D01*
X4921100Y-2201068D01*
X4671807Y-2067818D01*
X4401308Y-1985764D01*
X4120000Y-1958057D01*
X3838691Y-1985764D01*
X3568192Y-2067818D01*
X3318899Y-2201068D01*
X3100392Y-2380393D01*
X3007581Y-2493483D01*
X3005812Y-2475518D01*
X2969502Y-2355820D01*
X2910537Y-2245506D01*
X2831185Y-2148815D01*
X2734494Y-2069463D01*
X2624180Y-2010498D01*
X2504482Y-1974188D01*
X2380000Y-1961928D01*
X780000Y-1961928D01*
X685000Y-1971284D01*
X685000Y-685000D01*
X10713439Y-685000D01*
X10665000Y-928514D01*
G36*
X16819463Y-695506D02*
G01*
X16760498Y-805820D01*
X16724188Y-925518D01*
X16711928Y-1050000D01*
X16711928Y-2114599D01*
X16696447Y-2106324D01*
X16482499Y-2041423D01*
X16315752Y-2025000D01*
X16315751Y-2025000D01*
X16260000Y-2019509D01*
X16204249Y-2025000D01*
X15904288Y-2025000D01*
X15832359Y-1976939D01*
X15589405Y-1876304D01*
X15331486Y-1825000D01*
X15068514Y-1825000D01*
X14810595Y-1876304D01*
X14567641Y-1976939D01*
X14348987Y-2123038D01*
X14163038Y-2308987D01*
X14016939Y-2527641D01*
X13916304Y-2770595D01*
X13865000Y-3028514D01*
X13865000Y-3291486D01*
X13916304Y-3549405D01*
X14016939Y-3792359D01*
X14163038Y-4011013D01*
X14348987Y-4196962D01*
X14567641Y-4343061D01*
X14777530Y-4430000D01*
X14567641Y-4516939D01*
X14348987Y-4663038D01*
X14347025Y-4665000D01*
X12809051Y-4665000D01*
X12851013Y-4636962D01*
X13036962Y-4451013D01*
X13183061Y-4232359D01*
X13283696Y-3989405D01*
X13335000Y-3731486D01*
X13335000Y-3468514D01*
X13283696Y-3210595D01*
X13183061Y-2967641D01*
X13036962Y-2748987D01*
X12851013Y-2563038D01*
X12632359Y-2416939D01*
X12422470Y-2330000D01*
X12632359Y-2243061D01*
X12851013Y-2096962D01*
X13036962Y-1911013D01*
X13183061Y-1692359D01*
X13283696Y-1449405D01*
X13335000Y-1191486D01*
X13335000Y-928514D01*
X13286561Y-685000D01*
X16828085Y-685000D01*
X16819463Y-695506D01*
G37*
X16819463Y-695506D02*
X16760498Y-805820D01*
X16724188Y-925518D01*
X16711928Y-1050000D01*
X16711928Y-2114599D01*
X16696447Y-2106324D01*
X16482499Y-2041423D01*
X16315752Y-2025000D01*
X16315751Y-2025000D01*
X16260000Y-2019509D01*
X16204249Y-2025000D01*
X15904288Y-2025000D01*
X15832359Y-1976939D01*
X15589405Y-1876304D01*
X15331486Y-1825000D01*
X15068514Y-1825000D01*
X14810595Y-1876304D01*
X14567641Y-1976939D01*
X14348987Y-2123038D01*
X14163038Y-2308987D01*
X14016939Y-2527641D01*
X13916304Y-2770595D01*
X13865000Y-3028514D01*
X13865000Y-3291486D01*
X13916304Y-3549405D01*
X14016939Y-3792359D01*
X14163038Y-4011013D01*
X14348987Y-4196962D01*
X14567641Y-4343061D01*
X14777530Y-4430000D01*
X14567641Y-4516939D01*
X14348987Y-4663038D01*
X14347025Y-4665000D01*
X12809051Y-4665000D01*
X12851013Y-4636962D01*
X13036962Y-4451013D01*
X13183061Y-4232359D01*
X13283696Y-3989405D01*
X13335000Y-3731486D01*
X13335000Y-3468514D01*
X13283696Y-3210595D01*
X13183061Y-2967641D01*
X13036962Y-2748987D01*
X12851013Y-2563038D01*
X12632359Y-2416939D01*
X12422470Y-2330000D01*
X12632359Y-2243061D01*
X12851013Y-2096962D01*
X13036962Y-1911013D01*
X13183061Y-1692359D01*
X13283696Y-1449405D01*
X13335000Y-1191486D01*
X13335000Y-928514D01*
X13286561Y-685000D01*
X16828085Y-685000D01*
X16819463Y-695506D01*
G36*
X23407000Y-1773000D02*
G01*
X23427000Y-1773000D01*
X23427000Y-2027000D01*
X23407000Y-2027000D01*
X23407000Y-3220155D01*
X23636890Y-3341476D01*
X23784099Y-3296825D01*
X24046920Y-3171641D01*
X24280269Y-2997588D01*
X24475178Y-2781355D01*
X24544805Y-2664466D01*
X24666525Y-2846632D01*
X24685000Y-2865107D01*
X24685000Y-3767881D01*
X24655752Y-3765000D01*
X21970132Y-3765000D01*
X21427650Y-3222519D01*
X21443411Y-3215990D01*
X21686632Y-3053475D01*
X21893475Y-2846632D01*
X22015195Y-2664466D01*
X22084822Y-2781355D01*
X22279731Y-2997588D01*
X22513080Y-3171641D01*
X22775901Y-3296825D01*
X22923110Y-3341476D01*
X23153000Y-3220155D01*
X23153000Y-2027000D01*
X23133000Y-2027000D01*
X23133000Y-1773000D01*
X23153000Y-1773000D01*
X23153000Y-1753000D01*
X23407000Y-1753000D01*
X23407000Y-1773000D01*
G37*
X23407000Y-1773000D02*
X23427000Y-1773000D01*
X23427000Y-2027000D01*
X23407000Y-2027000D01*
X23407000Y-3220155D01*
X23636890Y-3341476D01*
X23784099Y-3296825D01*
X24046920Y-3171641D01*
X24280269Y-2997588D01*
X24475178Y-2781355D01*
X24544805Y-2664466D01*
X24666525Y-2846632D01*
X24685000Y-2865107D01*
X24685000Y-3767881D01*
X24655752Y-3765000D01*
X21970132Y-3765000D01*
X21427650Y-3222519D01*
X21443411Y-3215990D01*
X21686632Y-3053475D01*
X21893475Y-2846632D01*
X22015195Y-2664466D01*
X22084822Y-2781355D01*
X22279731Y-2997588D01*
X22513080Y-3171641D01*
X22775901Y-3296825D01*
X22923110Y-3341476D01*
X23153000Y-3220155D01*
X23153000Y-2027000D01*
X23133000Y-2027000D01*
X23133000Y-1773000D01*
X23153000Y-1773000D01*
X23153000Y-1753000D01*
X23407000Y-1753000D01*
X23407000Y-1773000D01*
G36*
X30379868Y-2315001D02*
G01*
X29791544Y-2315001D01*
X29845000Y-2046260D01*
X29845000Y-1753740D01*
X29787932Y-1466842D01*
X29675990Y-1196589D01*
X29513475Y-953368D01*
X29306632Y-746525D01*
X29214553Y-685000D01*
X32009868Y-685000D01*
X30379868Y-2315001D01*
G37*
X30379868Y-2315001D02*
X29791544Y-2315001D01*
X29845000Y-2046260D01*
X29845000Y-1753740D01*
X29787932Y-1466842D01*
X29675990Y-1196589D01*
X29513475Y-953368D01*
X29306632Y-746525D01*
X29214553Y-685000D01*
X32009868Y-685000D01*
X30379868Y-2315001D01*
M02*
