G04 #@! TF.GenerationSoftware,KiCad,Pcbnew,(5.1.5)-3*
G04 #@! TF.CreationDate,2020-04-19T22:50:58+02:00*
G04 #@! TF.ProjectId,goal_detector,676f616c-5f64-4657-9465-63746f722e6b,rev?*
G04 #@! TF.SameCoordinates,PX101dfa0PY12b1280*
G04 #@! TF.FileFunction,Copper,L1,Top*
G04 #@! TF.FilePolarity,Positive*
%FSLAX46Y46*%
G04 Gerber Fmt 4.6, Leading zero omitted, Abs format (unit mm)*
G04 Created by KiCad (PCBNEW (5.1.5)-3) date 2020-04-19 22:50:58*
%MOMM*%
%LPD*%
G04 APERTURE LIST*
%ADD10O,1.700000X1.700000*%
%ADD11R,1.700000X1.700000*%
%ADD12O,1.600000X2.400000*%
%ADD13R,1.600000X2.400000*%
%ADD14O,1.400000X1.400000*%
%ADD15C,1.400000*%
%ADD16O,1.800000X1.800000*%
%ADD17R,1.800000X1.800000*%
%ADD18R,1.500000X1.500000*%
%ADD19C,1.500000*%
%ADD20C,0.800000*%
%ADD21C,1.000000*%
%ADD22C,0.500000*%
%ADD23C,0.254000*%
G04 APERTURE END LIST*
D10*
X50500000Y-10400000D03*
D11*
X50500000Y-12940000D03*
D12*
X19580000Y-10500000D03*
X27200000Y-18120000D03*
X22120000Y-10500000D03*
X24660000Y-18120000D03*
X24660000Y-10500000D03*
X22120000Y-18120000D03*
X27200000Y-10500000D03*
D13*
X19580000Y-18120000D03*
D14*
X45600000Y-18700000D03*
D15*
X48140000Y-18700000D03*
D14*
X37400000Y-26000000D03*
D15*
X39940000Y-26000000D03*
D14*
X37360000Y-22600000D03*
D15*
X39900000Y-22600000D03*
D14*
X40400000Y-12920000D03*
D15*
X40400000Y-5300000D03*
D14*
X6700000Y-8900000D03*
D15*
X6700000Y-6360000D03*
D14*
X12000000Y-26900000D03*
D15*
X12000000Y-24360000D03*
D14*
X12000000Y-1060000D03*
D15*
X12000000Y-3600000D03*
D14*
X48240000Y-21200000D03*
D15*
X45700000Y-21200000D03*
D11*
X40900000Y-19300000D03*
D16*
X32940000Y-15900000D03*
D17*
X30400000Y-15900000D03*
D16*
X32940000Y-12700000D03*
D17*
X30400000Y-12700000D03*
D14*
X15200000Y-22300000D03*
D15*
X15200000Y-24840000D03*
D14*
X15200000Y-5700000D03*
D15*
X15200000Y-3160000D03*
D14*
X12000000Y-19560000D03*
D15*
X12000000Y-22100000D03*
D14*
X12000000Y-14960000D03*
D15*
X12000000Y-17500000D03*
D14*
X12000000Y-12940000D03*
D15*
X12000000Y-10400000D03*
D14*
X12000000Y-8340000D03*
D15*
X12000000Y-5800000D03*
D12*
X43200000Y-24100000D03*
X50820000Y-31720000D03*
X45740000Y-24100000D03*
X48280000Y-31720000D03*
X48280000Y-24100000D03*
X45740000Y-31720000D03*
X50820000Y-24100000D03*
D13*
X43200000Y-31720000D03*
D12*
X1580000Y-24080000D03*
X9200000Y-31700000D03*
X4120000Y-24080000D03*
X6660000Y-31700000D03*
X6660000Y-24080000D03*
X4120000Y-31700000D03*
X9200000Y-24080000D03*
D13*
X1580000Y-31700000D03*
D12*
X43200000Y3920000D03*
X50820000Y-3700000D03*
X45740000Y3920000D03*
X48280000Y-3700000D03*
X48280000Y3920000D03*
X45740000Y-3700000D03*
X50820000Y3920000D03*
D13*
X43200000Y-3700000D03*
D12*
X1580000Y3820000D03*
X9200000Y-3800000D03*
X4120000Y3820000D03*
X6660000Y-3800000D03*
X6660000Y3820000D03*
X4120000Y-3800000D03*
X9200000Y3820000D03*
D13*
X1580000Y-3800000D03*
D14*
X38200000Y-12920000D03*
D15*
X38200000Y-5300000D03*
D14*
X36000000Y-12920000D03*
D15*
X36000000Y-5300000D03*
D14*
X21500000Y-20800000D03*
D15*
X29120000Y-20800000D03*
D14*
X21500000Y-7900000D03*
D15*
X29120000Y-7900000D03*
D18*
X32000000Y-18260000D03*
D19*
X32000000Y-23340000D03*
X32000000Y-20800000D03*
D18*
X32800000Y-10440000D03*
D19*
X32800000Y-5360000D03*
X32800000Y-7900000D03*
D18*
X15200000Y-15200000D03*
D19*
X15200000Y-20280000D03*
X15200000Y-17740000D03*
D18*
X15200000Y-7720000D03*
D19*
X15200000Y-12800000D03*
X15200000Y-10260000D03*
D11*
X40900000Y-15700000D03*
X37300000Y-19300000D03*
D10*
X1800000Y-18760000D03*
X1800000Y-16220000D03*
X1800000Y-13680000D03*
X1800000Y-11140000D03*
D11*
X1800000Y-8600000D03*
D10*
X28360000Y-1900000D03*
X25820000Y-1900000D03*
X23280000Y-1900000D03*
X20740000Y-1900000D03*
D11*
X18200000Y-1900000D03*
D10*
X28160000Y-26000000D03*
X25620000Y-26000000D03*
X23080000Y-26000000D03*
X20540000Y-26000000D03*
D11*
X18000000Y-26000000D03*
D20*
X10300000Y-6649999D03*
X10000000Y-8900000D03*
X33177818Y-2677818D03*
X31500000Y-1000000D03*
X28472182Y-16272182D03*
X19600000Y-5100000D03*
X27700000Y-22100000D03*
X18079990Y-19020010D03*
X24600000Y-4900000D03*
X9200000Y-11100000D03*
X43200000Y-17200000D03*
X4700000Y-7100000D03*
D21*
X30939340Y-23340000D02*
X32000000Y-23340000D01*
X23080000Y-26000000D02*
X23080000Y-24797919D01*
X24537919Y-23340000D02*
X30939340Y-23340000D01*
X23080000Y-24797919D02*
X24537919Y-23340000D01*
D22*
X10300000Y-6649999D02*
X10300000Y-8600000D01*
X10300000Y-8600000D02*
X10000000Y-8900000D01*
X31700000Y-1200000D02*
X33177818Y-2677818D01*
X31700000Y-1200000D02*
X31500000Y-1000000D01*
D21*
X48280000Y-3080000D02*
X48280000Y-3700000D01*
X31500000Y-1000000D02*
X46200000Y-1000000D01*
X46200000Y-1000000D02*
X48280000Y-3080000D01*
X29120000Y-7900000D02*
X32800000Y-7900000D01*
X29120000Y-11420000D02*
X30400000Y-12700000D01*
X29120000Y-7900000D02*
X29120000Y-11420000D01*
X36000000Y-11100000D02*
X36000000Y-12920000D01*
X32800000Y-7900000D02*
X36000000Y-11100000D01*
X29020000Y-17280000D02*
X30400000Y-15900000D01*
X29020000Y-20800000D02*
X29020000Y-17280000D01*
X29020000Y-20800000D02*
X32000000Y-20800000D01*
X30400000Y-15900000D02*
X30400000Y-15800000D01*
X30400000Y-15800000D02*
X31900000Y-14300000D01*
X37500001Y-13619999D02*
X38200000Y-12920000D01*
X36799999Y-14320001D02*
X37500001Y-13619999D01*
X35327999Y-14320001D02*
X36799999Y-14320001D01*
X31900000Y-14300000D02*
X35307998Y-14300000D01*
X35307998Y-14300000D02*
X35327999Y-14320001D01*
D22*
X28472182Y-16272182D02*
X25949999Y-13749999D01*
X25949999Y-9149999D02*
X25949999Y-8149999D01*
X25949999Y-9149999D02*
X25949999Y-8549999D01*
X25949999Y-13749999D02*
X25949999Y-9149999D01*
X25949999Y-8149999D02*
X23500000Y-5700000D01*
X23500000Y-5700000D02*
X23500000Y-4200000D01*
X23500000Y-4200000D02*
X24400000Y-3300000D01*
X26960000Y-3300000D02*
X28360000Y-1900000D01*
X24400000Y-3300000D02*
X26960000Y-3300000D01*
X10550001Y-2449999D02*
X9200000Y-3800000D01*
X14200001Y-599999D02*
X12350001Y-2449999D01*
X25820000Y-1900000D02*
X24519999Y-599999D01*
X12350001Y-2449999D02*
X10550001Y-2449999D01*
X24519999Y-599999D02*
X14200001Y-599999D01*
D21*
X20740000Y-3102081D02*
X20740000Y-1900000D01*
X19580000Y-4262081D02*
X20740000Y-3102081D01*
X19580000Y-6480000D02*
X19580000Y-10500000D01*
X20540000Y-26000000D02*
X20540000Y-24797919D01*
X18079990Y-22337909D02*
X20540000Y-24797919D01*
X18079990Y-14200010D02*
X18079990Y-19020010D01*
X19580000Y-10500000D02*
X19580000Y-12700000D01*
X19580000Y-12700000D02*
X18079990Y-14200010D01*
X19580000Y-10500000D02*
X19600000Y-5100000D01*
X19600000Y-5100000D02*
X19580000Y-4262081D01*
X20540000Y-24797919D02*
X23237919Y-22100000D01*
X23237919Y-22100000D02*
X24420000Y-22100000D01*
X24420000Y-22100000D02*
X27700000Y-22100000D01*
X18079990Y-19020010D02*
X18079990Y-22337909D01*
X34500000Y-3800000D02*
X36000000Y-5300000D01*
X33700000Y-3800000D02*
X34500000Y-3800000D01*
X36700000Y-3800000D02*
X38200000Y-5300000D01*
X33700000Y-3800000D02*
X36700000Y-3800000D01*
X38900000Y-3800000D02*
X40400000Y-5300000D01*
X36700000Y-3800000D02*
X38900000Y-3800000D01*
X16879980Y-22834969D02*
X16879980Y-8120020D01*
X18000000Y-26000000D02*
X18000000Y-23954989D01*
X18000000Y-23954989D02*
X16879980Y-22834969D01*
X16879980Y-8120020D02*
X18200000Y-6800000D01*
X24600000Y-4900000D02*
X30600000Y-4900000D01*
X31700000Y-3800000D02*
X33700000Y-3800000D01*
X30600000Y-4900000D02*
X31700000Y-3800000D01*
D22*
X18200000Y-3600000D02*
X18200000Y-3500000D01*
D21*
X18200000Y-3600000D02*
X18200000Y-1900000D01*
X18200000Y-6800000D02*
X18200000Y-3600000D01*
D22*
X12200000Y-3400000D02*
X12000000Y-3600000D01*
X18200000Y-1900000D02*
X18200000Y-3250000D01*
X18200000Y-3250000D02*
X18050000Y-3400000D01*
D21*
X18000000Y-1700000D02*
X18200000Y-1900000D01*
X14587998Y-1700000D02*
X18000000Y-1700000D01*
X12000000Y-3600000D02*
X12687998Y-3600000D01*
X12687998Y-3600000D02*
X14587998Y-1700000D01*
D22*
X13028008Y-25730010D02*
X14597999Y-27300001D01*
X3330010Y-25730010D02*
X13028008Y-25730010D01*
X36660001Y-23299999D02*
X37360000Y-22600000D01*
X2869990Y-25269990D02*
X3330010Y-25730010D01*
X1800000Y-19962081D02*
X2869990Y-21032071D01*
X2869990Y-21032071D02*
X2869990Y-25269990D01*
X14597999Y-27300001D02*
X32659999Y-27300001D01*
X1800000Y-18760000D02*
X1800000Y-19962081D01*
X32659999Y-27300001D02*
X36660001Y-23299999D01*
D21*
X1800000Y-11140000D02*
X3002081Y-11140000D01*
X3350001Y-10792080D02*
X3350001Y-6150001D01*
X3002081Y-11140000D02*
X3350001Y-10792080D01*
X3350001Y-6150001D02*
X4000000Y-5500002D01*
X4000000Y-3920000D02*
X4120000Y-3800000D01*
X4000000Y-5500002D02*
X4000000Y-3920000D01*
X9200000Y-11665685D02*
X9200000Y-24080000D01*
X9200000Y-11100000D02*
X9200000Y-11665685D01*
X40400000Y-12920000D02*
X37300000Y-16020000D01*
X37300000Y-16020000D02*
X37300000Y-18700000D01*
X36260000Y-18260000D02*
X37300000Y-19300000D01*
X32000000Y-18260000D02*
X36260000Y-18260000D01*
X39900000Y-20300000D02*
X40900000Y-19300000D01*
X39900000Y-22600000D02*
X39900000Y-20300000D01*
X41500000Y-18700000D02*
X40900000Y-19300000D01*
X45600000Y-18700000D02*
X41500000Y-18700000D01*
X40900000Y-15700000D02*
X42750000Y-15700000D01*
X49297919Y-10400000D02*
X50500000Y-10400000D01*
X48050000Y-10400000D02*
X49297919Y-10400000D01*
X42750000Y-15700000D02*
X48050000Y-10400000D01*
X47460000Y-12940000D02*
X43200000Y-17200000D01*
X50500000Y-12940000D02*
X47460000Y-12940000D01*
X6700000Y-3840000D02*
X6660000Y-3800000D01*
X6700000Y-6360000D02*
X6700000Y-3840000D01*
X7399999Y-7059999D02*
X6700000Y-6360000D01*
X8100001Y-7760001D02*
X7399999Y-7059999D01*
X8100001Y-10502929D02*
X8100001Y-7760001D01*
X6660000Y-24080000D02*
X6660000Y-11942930D01*
X6660000Y-11942930D02*
X8100001Y-10502929D01*
X9400000Y-1060000D02*
X6660000Y-3800000D01*
X12000000Y-1060000D02*
X9400000Y-1060000D01*
X4700000Y-23500000D02*
X4120000Y-24080000D01*
X4700000Y-7100000D02*
X4700000Y-23500000D01*
X19580000Y-15240000D02*
X19580000Y-18120000D01*
X22120000Y-10500000D02*
X22120000Y-12700000D01*
X22120000Y-12700000D02*
X19580000Y-15240000D01*
D23*
G36*
X49119463Y-14144494D02*
G01*
X49198815Y-14241185D01*
X49295506Y-14320537D01*
X49405820Y-14379502D01*
X49525518Y-14415812D01*
X49650000Y-14428072D01*
X51350000Y-14428072D01*
X51474482Y-14415812D01*
X51594180Y-14379502D01*
X51704494Y-14320537D01*
X51715000Y-14311915D01*
X51715000Y-22575094D01*
X51511646Y-22436285D01*
X51251818Y-22325633D01*
X51169039Y-22308096D01*
X50947000Y-22430085D01*
X50947000Y-23973000D01*
X50967000Y-23973000D01*
X50967000Y-24227000D01*
X50947000Y-24227000D01*
X50947000Y-25769915D01*
X51169039Y-25891904D01*
X51251818Y-25874367D01*
X51511646Y-25763715D01*
X51715000Y-25624906D01*
X51715000Y-27215000D01*
X40495252Y-27215000D01*
X40572359Y-27183061D01*
X40791013Y-27036962D01*
X40976962Y-26851013D01*
X41123061Y-26632359D01*
X41223696Y-26389405D01*
X41275000Y-26131486D01*
X41275000Y-25868514D01*
X41223696Y-25610595D01*
X41123061Y-25367641D01*
X40976962Y-25148987D01*
X40791013Y-24963038D01*
X40572359Y-24816939D01*
X40329405Y-24716304D01*
X40071486Y-24665000D01*
X39808514Y-24665000D01*
X39550595Y-24716304D01*
X39307641Y-24816939D01*
X39088987Y-24963038D01*
X38903038Y-25148987D01*
X38756939Y-25367641D01*
X38670000Y-25577530D01*
X38583061Y-25367641D01*
X38436962Y-25148987D01*
X38251013Y-24963038D01*
X38032359Y-24816939D01*
X37789405Y-24716304D01*
X37531486Y-24665000D01*
X37268514Y-24665000D01*
X37010595Y-24716304D01*
X36767641Y-24816939D01*
X36548987Y-24963038D01*
X36363038Y-25148987D01*
X36216939Y-25367641D01*
X36116304Y-25610595D01*
X36065000Y-25868514D01*
X36065000Y-26131486D01*
X36116304Y-26389405D01*
X36216939Y-26632359D01*
X36363038Y-26851013D01*
X36548987Y-27036962D01*
X36767641Y-27183061D01*
X36844748Y-27215000D01*
X33996578Y-27215000D01*
X37276579Y-23935000D01*
X37491486Y-23935000D01*
X37749405Y-23883696D01*
X37992359Y-23783061D01*
X38211013Y-23636962D01*
X38396962Y-23451013D01*
X38543061Y-23232359D01*
X38630000Y-23022470D01*
X38716939Y-23232359D01*
X38863038Y-23451013D01*
X39048987Y-23636962D01*
X39267641Y-23783061D01*
X39510595Y-23883696D01*
X39768514Y-23935000D01*
X40031486Y-23935000D01*
X40289405Y-23883696D01*
X40532359Y-23783061D01*
X40751013Y-23636962D01*
X40936962Y-23451013D01*
X41083061Y-23232359D01*
X41183696Y-22989405D01*
X41235000Y-22731486D01*
X41235000Y-22468514D01*
X41183696Y-22210595D01*
X41083061Y-21967641D01*
X41035000Y-21895712D01*
X41035000Y-20788072D01*
X41750000Y-20788072D01*
X41874482Y-20775812D01*
X41994180Y-20739502D01*
X42104494Y-20680537D01*
X42201185Y-20601185D01*
X42280537Y-20504494D01*
X42339502Y-20394180D01*
X42375812Y-20274482D01*
X42388072Y-20150000D01*
X42388072Y-19835000D01*
X44895712Y-19835000D01*
X44967641Y-19883061D01*
X45179246Y-19970711D01*
X45067641Y-20016939D01*
X44848987Y-20163038D01*
X44663038Y-20348987D01*
X44516939Y-20567641D01*
X44416304Y-20810595D01*
X44365000Y-21068514D01*
X44365000Y-21331486D01*
X44416304Y-21589405D01*
X44516939Y-21832359D01*
X44663038Y-22051013D01*
X44848987Y-22236962D01*
X45067641Y-22383061D01*
X45119493Y-22404539D01*
X44938899Y-22501068D01*
X44720392Y-22680393D01*
X44541068Y-22898900D01*
X44470000Y-23031858D01*
X44398932Y-22898899D01*
X44219607Y-22680392D01*
X44001100Y-22501068D01*
X43751807Y-22367818D01*
X43481308Y-22285764D01*
X43200000Y-22258057D01*
X42918691Y-22285764D01*
X42648192Y-22367818D01*
X42398899Y-22501068D01*
X42180392Y-22680393D01*
X42001068Y-22898900D01*
X41867818Y-23148193D01*
X41785764Y-23418692D01*
X41765000Y-23629509D01*
X41765000Y-24570492D01*
X41785764Y-24781309D01*
X41867818Y-25051808D01*
X42001068Y-25301101D01*
X42180393Y-25519608D01*
X42398900Y-25698932D01*
X42648193Y-25832182D01*
X42918692Y-25914236D01*
X43200000Y-25941943D01*
X43481309Y-25914236D01*
X43751808Y-25832182D01*
X44001101Y-25698932D01*
X44219608Y-25519608D01*
X44398932Y-25301101D01*
X44470000Y-25168142D01*
X44541068Y-25301101D01*
X44720393Y-25519608D01*
X44938900Y-25698932D01*
X45188193Y-25832182D01*
X45458692Y-25914236D01*
X45740000Y-25941943D01*
X46021309Y-25914236D01*
X46291808Y-25832182D01*
X46541101Y-25698932D01*
X46759608Y-25519608D01*
X46938932Y-25301101D01*
X47010000Y-25168142D01*
X47081068Y-25301101D01*
X47260393Y-25519608D01*
X47478900Y-25698932D01*
X47728193Y-25832182D01*
X47998692Y-25914236D01*
X48280000Y-25941943D01*
X48561309Y-25914236D01*
X48831808Y-25832182D01*
X49081101Y-25698932D01*
X49299608Y-25519608D01*
X49478932Y-25301101D01*
X49547265Y-25173259D01*
X49697399Y-25402839D01*
X49895105Y-25604500D01*
X50128354Y-25763715D01*
X50388182Y-25874367D01*
X50470961Y-25891904D01*
X50693000Y-25769915D01*
X50693000Y-24227000D01*
X50673000Y-24227000D01*
X50673000Y-23973000D01*
X50693000Y-23973000D01*
X50693000Y-22430085D01*
X50470961Y-22308096D01*
X50388182Y-22325633D01*
X50128354Y-22436285D01*
X49895105Y-22595500D01*
X49697399Y-22797161D01*
X49547265Y-23026741D01*
X49478932Y-22898899D01*
X49299607Y-22680392D01*
X49081100Y-22501068D01*
X48865579Y-22385869D01*
X48872359Y-22383061D01*
X49091013Y-22236962D01*
X49276962Y-22051013D01*
X49423061Y-21832359D01*
X49523696Y-21589405D01*
X49575000Y-21331486D01*
X49575000Y-21068514D01*
X49523696Y-20810595D01*
X49423061Y-20567641D01*
X49276962Y-20348987D01*
X49091013Y-20163038D01*
X48872359Y-20016939D01*
X48660754Y-19929289D01*
X48772359Y-19883061D01*
X48991013Y-19736962D01*
X49176962Y-19551013D01*
X49323061Y-19332359D01*
X49423696Y-19089405D01*
X49475000Y-18831486D01*
X49475000Y-18568514D01*
X49423696Y-18310595D01*
X49323061Y-18067641D01*
X49176962Y-17848987D01*
X48991013Y-17663038D01*
X48772359Y-17516939D01*
X48529405Y-17416304D01*
X48271486Y-17365000D01*
X48008514Y-17365000D01*
X47750595Y-17416304D01*
X47507641Y-17516939D01*
X47288987Y-17663038D01*
X47103038Y-17848987D01*
X46956939Y-18067641D01*
X46870000Y-18277530D01*
X46783061Y-18067641D01*
X46636962Y-17848987D01*
X46451013Y-17663038D01*
X46232359Y-17516939D01*
X45989405Y-17416304D01*
X45731486Y-17365000D01*
X45468514Y-17365000D01*
X45210595Y-17416304D01*
X44967641Y-17516939D01*
X44895712Y-17565000D01*
X44440131Y-17565000D01*
X47930132Y-14075000D01*
X49082317Y-14075000D01*
X49119463Y-14144494D01*
G37*
X49119463Y-14144494D02*
X49198815Y-14241185D01*
X49295506Y-14320537D01*
X49405820Y-14379502D01*
X49525518Y-14415812D01*
X49650000Y-14428072D01*
X51350000Y-14428072D01*
X51474482Y-14415812D01*
X51594180Y-14379502D01*
X51704494Y-14320537D01*
X51715000Y-14311915D01*
X51715000Y-22575094D01*
X51511646Y-22436285D01*
X51251818Y-22325633D01*
X51169039Y-22308096D01*
X50947000Y-22430085D01*
X50947000Y-23973000D01*
X50967000Y-23973000D01*
X50967000Y-24227000D01*
X50947000Y-24227000D01*
X50947000Y-25769915D01*
X51169039Y-25891904D01*
X51251818Y-25874367D01*
X51511646Y-25763715D01*
X51715000Y-25624906D01*
X51715000Y-27215000D01*
X40495252Y-27215000D01*
X40572359Y-27183061D01*
X40791013Y-27036962D01*
X40976962Y-26851013D01*
X41123061Y-26632359D01*
X41223696Y-26389405D01*
X41275000Y-26131486D01*
X41275000Y-25868514D01*
X41223696Y-25610595D01*
X41123061Y-25367641D01*
X40976962Y-25148987D01*
X40791013Y-24963038D01*
X40572359Y-24816939D01*
X40329405Y-24716304D01*
X40071486Y-24665000D01*
X39808514Y-24665000D01*
X39550595Y-24716304D01*
X39307641Y-24816939D01*
X39088987Y-24963038D01*
X38903038Y-25148987D01*
X38756939Y-25367641D01*
X38670000Y-25577530D01*
X38583061Y-25367641D01*
X38436962Y-25148987D01*
X38251013Y-24963038D01*
X38032359Y-24816939D01*
X37789405Y-24716304D01*
X37531486Y-24665000D01*
X37268514Y-24665000D01*
X37010595Y-24716304D01*
X36767641Y-24816939D01*
X36548987Y-24963038D01*
X36363038Y-25148987D01*
X36216939Y-25367641D01*
X36116304Y-25610595D01*
X36065000Y-25868514D01*
X36065000Y-26131486D01*
X36116304Y-26389405D01*
X36216939Y-26632359D01*
X36363038Y-26851013D01*
X36548987Y-27036962D01*
X36767641Y-27183061D01*
X36844748Y-27215000D01*
X33996578Y-27215000D01*
X37276579Y-23935000D01*
X37491486Y-23935000D01*
X37749405Y-23883696D01*
X37992359Y-23783061D01*
X38211013Y-23636962D01*
X38396962Y-23451013D01*
X38543061Y-23232359D01*
X38630000Y-23022470D01*
X38716939Y-23232359D01*
X38863038Y-23451013D01*
X39048987Y-23636962D01*
X39267641Y-23783061D01*
X39510595Y-23883696D01*
X39768514Y-23935000D01*
X40031486Y-23935000D01*
X40289405Y-23883696D01*
X40532359Y-23783061D01*
X40751013Y-23636962D01*
X40936962Y-23451013D01*
X41083061Y-23232359D01*
X41183696Y-22989405D01*
X41235000Y-22731486D01*
X41235000Y-22468514D01*
X41183696Y-22210595D01*
X41083061Y-21967641D01*
X41035000Y-21895712D01*
X41035000Y-20788072D01*
X41750000Y-20788072D01*
X41874482Y-20775812D01*
X41994180Y-20739502D01*
X42104494Y-20680537D01*
X42201185Y-20601185D01*
X42280537Y-20504494D01*
X42339502Y-20394180D01*
X42375812Y-20274482D01*
X42388072Y-20150000D01*
X42388072Y-19835000D01*
X44895712Y-19835000D01*
X44967641Y-19883061D01*
X45179246Y-19970711D01*
X45067641Y-20016939D01*
X44848987Y-20163038D01*
X44663038Y-20348987D01*
X44516939Y-20567641D01*
X44416304Y-20810595D01*
X44365000Y-21068514D01*
X44365000Y-21331486D01*
X44416304Y-21589405D01*
X44516939Y-21832359D01*
X44663038Y-22051013D01*
X44848987Y-22236962D01*
X45067641Y-22383061D01*
X45119493Y-22404539D01*
X44938899Y-22501068D01*
X44720392Y-22680393D01*
X44541068Y-22898900D01*
X44470000Y-23031858D01*
X44398932Y-22898899D01*
X44219607Y-22680392D01*
X44001100Y-22501068D01*
X43751807Y-22367818D01*
X43481308Y-22285764D01*
X43200000Y-22258057D01*
X42918691Y-22285764D01*
X42648192Y-22367818D01*
X42398899Y-22501068D01*
X42180392Y-22680393D01*
X42001068Y-22898900D01*
X41867818Y-23148193D01*
X41785764Y-23418692D01*
X41765000Y-23629509D01*
X41765000Y-24570492D01*
X41785764Y-24781309D01*
X41867818Y-25051808D01*
X42001068Y-25301101D01*
X42180393Y-25519608D01*
X42398900Y-25698932D01*
X42648193Y-25832182D01*
X42918692Y-25914236D01*
X43200000Y-25941943D01*
X43481309Y-25914236D01*
X43751808Y-25832182D01*
X44001101Y-25698932D01*
X44219608Y-25519608D01*
X44398932Y-25301101D01*
X44470000Y-25168142D01*
X44541068Y-25301101D01*
X44720393Y-25519608D01*
X44938900Y-25698932D01*
X45188193Y-25832182D01*
X45458692Y-25914236D01*
X45740000Y-25941943D01*
X46021309Y-25914236D01*
X46291808Y-25832182D01*
X46541101Y-25698932D01*
X46759608Y-25519608D01*
X46938932Y-25301101D01*
X47010000Y-25168142D01*
X47081068Y-25301101D01*
X47260393Y-25519608D01*
X47478900Y-25698932D01*
X47728193Y-25832182D01*
X47998692Y-25914236D01*
X48280000Y-25941943D01*
X48561309Y-25914236D01*
X48831808Y-25832182D01*
X49081101Y-25698932D01*
X49299608Y-25519608D01*
X49478932Y-25301101D01*
X49547265Y-25173259D01*
X49697399Y-25402839D01*
X49895105Y-25604500D01*
X50128354Y-25763715D01*
X50388182Y-25874367D01*
X50470961Y-25891904D01*
X50693000Y-25769915D01*
X50693000Y-24227000D01*
X50673000Y-24227000D01*
X50673000Y-23973000D01*
X50693000Y-23973000D01*
X50693000Y-22430085D01*
X50470961Y-22308096D01*
X50388182Y-22325633D01*
X50128354Y-22436285D01*
X49895105Y-22595500D01*
X49697399Y-22797161D01*
X49547265Y-23026741D01*
X49478932Y-22898899D01*
X49299607Y-22680392D01*
X49081100Y-22501068D01*
X48865579Y-22385869D01*
X48872359Y-22383061D01*
X49091013Y-22236962D01*
X49276962Y-22051013D01*
X49423061Y-21832359D01*
X49523696Y-21589405D01*
X49575000Y-21331486D01*
X49575000Y-21068514D01*
X49523696Y-20810595D01*
X49423061Y-20567641D01*
X49276962Y-20348987D01*
X49091013Y-20163038D01*
X48872359Y-20016939D01*
X48660754Y-19929289D01*
X48772359Y-19883061D01*
X48991013Y-19736962D01*
X49176962Y-19551013D01*
X49323061Y-19332359D01*
X49423696Y-19089405D01*
X49475000Y-18831486D01*
X49475000Y-18568514D01*
X49423696Y-18310595D01*
X49323061Y-18067641D01*
X49176962Y-17848987D01*
X48991013Y-17663038D01*
X48772359Y-17516939D01*
X48529405Y-17416304D01*
X48271486Y-17365000D01*
X48008514Y-17365000D01*
X47750595Y-17416304D01*
X47507641Y-17516939D01*
X47288987Y-17663038D01*
X47103038Y-17848987D01*
X46956939Y-18067641D01*
X46870000Y-18277530D01*
X46783061Y-18067641D01*
X46636962Y-17848987D01*
X46451013Y-17663038D01*
X46232359Y-17516939D01*
X45989405Y-17416304D01*
X45731486Y-17365000D01*
X45468514Y-17365000D01*
X45210595Y-17416304D01*
X44967641Y-17516939D01*
X44895712Y-17565000D01*
X44440131Y-17565000D01*
X47930132Y-14075000D01*
X49082317Y-14075000D01*
X49119463Y-14144494D01*
G36*
X35811928Y-19417059D02*
G01*
X35811928Y-20150000D01*
X35824188Y-20274482D01*
X35860498Y-20394180D01*
X35919463Y-20504494D01*
X35998815Y-20601185D01*
X36095506Y-20680537D01*
X36205820Y-20739502D01*
X36325518Y-20775812D01*
X36450000Y-20788072D01*
X38150000Y-20788072D01*
X38274482Y-20775812D01*
X38394180Y-20739502D01*
X38504494Y-20680537D01*
X38601185Y-20601185D01*
X38680537Y-20504494D01*
X38739502Y-20394180D01*
X38761608Y-20321308D01*
X38765001Y-20355761D01*
X38765000Y-21895712D01*
X38716939Y-21967641D01*
X38630000Y-22177530D01*
X38543061Y-21967641D01*
X38396962Y-21748987D01*
X38211013Y-21563038D01*
X37992359Y-21416939D01*
X37749405Y-21316304D01*
X37491486Y-21265000D01*
X37228514Y-21265000D01*
X36970595Y-21316304D01*
X36727641Y-21416939D01*
X36508987Y-21563038D01*
X36323038Y-21748987D01*
X36176939Y-21967641D01*
X36076304Y-22210595D01*
X36025000Y-22468514D01*
X36025000Y-22683421D01*
X32293421Y-26415001D01*
X29591544Y-26415001D01*
X29645000Y-26146260D01*
X29645000Y-25853740D01*
X29587932Y-25566842D01*
X29475990Y-25296589D01*
X29313475Y-25053368D01*
X29106632Y-24846525D01*
X28863411Y-24684010D01*
X28593158Y-24572068D01*
X28306260Y-24515000D01*
X28013740Y-24515000D01*
X27726842Y-24572068D01*
X27456589Y-24684010D01*
X27213368Y-24846525D01*
X27006525Y-25053368D01*
X26890000Y-25227760D01*
X26773475Y-25053368D01*
X26566632Y-24846525D01*
X26323411Y-24684010D01*
X26053158Y-24572068D01*
X25766260Y-24515000D01*
X25473740Y-24515000D01*
X25186842Y-24572068D01*
X24916589Y-24684010D01*
X24673368Y-24846525D01*
X24466525Y-25053368D01*
X24344805Y-25235534D01*
X24275178Y-25118645D01*
X24080269Y-24902412D01*
X23846920Y-24728359D01*
X23584099Y-24603175D01*
X23436890Y-24558524D01*
X23207000Y-24679845D01*
X23207000Y-25873000D01*
X23227000Y-25873000D01*
X23227000Y-26127000D01*
X23207000Y-26127000D01*
X23207000Y-26147000D01*
X22953000Y-26147000D01*
X22953000Y-26127000D01*
X22933000Y-26127000D01*
X22933000Y-25873000D01*
X22953000Y-25873000D01*
X22953000Y-24679845D01*
X22723110Y-24558524D01*
X22575901Y-24603175D01*
X22313080Y-24728359D01*
X22079731Y-24902412D01*
X21884822Y-25118645D01*
X21815195Y-25235534D01*
X21772065Y-25170986D01*
X22646058Y-24296993D01*
X31222612Y-24296993D01*
X31288137Y-24535860D01*
X31535116Y-24651760D01*
X31799960Y-24717250D01*
X32072492Y-24729812D01*
X32342238Y-24688965D01*
X32598832Y-24596277D01*
X32711863Y-24535860D01*
X32777388Y-24296993D01*
X32000000Y-23519605D01*
X31222612Y-24296993D01*
X22646058Y-24296993D01*
X23530559Y-23412492D01*
X30610188Y-23412492D01*
X30651035Y-23682238D01*
X30743723Y-23938832D01*
X30804140Y-24051863D01*
X31043007Y-24117388D01*
X31820395Y-23340000D01*
X32179605Y-23340000D01*
X32956993Y-24117388D01*
X33195860Y-24051863D01*
X33311760Y-23804884D01*
X33377250Y-23540040D01*
X33389812Y-23267508D01*
X33348965Y-22997762D01*
X33256277Y-22741168D01*
X33195860Y-22628137D01*
X32956993Y-22562612D01*
X32179605Y-23340000D01*
X31820395Y-23340000D01*
X31043007Y-22562612D01*
X30804140Y-22628137D01*
X30688240Y-22875116D01*
X30622750Y-23139960D01*
X30610188Y-23412492D01*
X23530559Y-23412492D01*
X23708052Y-23235000D01*
X27755752Y-23235000D01*
X27922499Y-23218577D01*
X28136447Y-23153676D01*
X28333623Y-23048284D01*
X28506449Y-22906449D01*
X28648284Y-22733623D01*
X28753676Y-22536447D01*
X28818577Y-22322499D01*
X28839954Y-22105449D01*
X28988514Y-22135000D01*
X29251486Y-22135000D01*
X29509405Y-22083696D01*
X29752359Y-21983061D01*
X29824288Y-21935000D01*
X31205714Y-21935000D01*
X31343957Y-22027371D01*
X31443279Y-22068511D01*
X31401168Y-22083723D01*
X31288137Y-22144140D01*
X31222612Y-22383007D01*
X32000000Y-23160395D01*
X32777388Y-22383007D01*
X32711863Y-22144140D01*
X32553523Y-22069836D01*
X32656043Y-22027371D01*
X32882886Y-21875799D01*
X33075799Y-21682886D01*
X33227371Y-21456043D01*
X33331775Y-21203989D01*
X33385000Y-20936411D01*
X33385000Y-20663589D01*
X33331775Y-20396011D01*
X33227371Y-20143957D01*
X33075799Y-19917114D01*
X32882886Y-19724201D01*
X32766517Y-19646445D01*
X32874482Y-19635812D01*
X32994180Y-19599502D01*
X33104494Y-19540537D01*
X33201185Y-19461185D01*
X33255501Y-19395000D01*
X35789869Y-19395000D01*
X35811928Y-19417059D01*
G37*
X35811928Y-19417059D02*
X35811928Y-20150000D01*
X35824188Y-20274482D01*
X35860498Y-20394180D01*
X35919463Y-20504494D01*
X35998815Y-20601185D01*
X36095506Y-20680537D01*
X36205820Y-20739502D01*
X36325518Y-20775812D01*
X36450000Y-20788072D01*
X38150000Y-20788072D01*
X38274482Y-20775812D01*
X38394180Y-20739502D01*
X38504494Y-20680537D01*
X38601185Y-20601185D01*
X38680537Y-20504494D01*
X38739502Y-20394180D01*
X38761608Y-20321308D01*
X38765001Y-20355761D01*
X38765000Y-21895712D01*
X38716939Y-21967641D01*
X38630000Y-22177530D01*
X38543061Y-21967641D01*
X38396962Y-21748987D01*
X38211013Y-21563038D01*
X37992359Y-21416939D01*
X37749405Y-21316304D01*
X37491486Y-21265000D01*
X37228514Y-21265000D01*
X36970595Y-21316304D01*
X36727641Y-21416939D01*
X36508987Y-21563038D01*
X36323038Y-21748987D01*
X36176939Y-21967641D01*
X36076304Y-22210595D01*
X36025000Y-22468514D01*
X36025000Y-22683421D01*
X32293421Y-26415001D01*
X29591544Y-26415001D01*
X29645000Y-26146260D01*
X29645000Y-25853740D01*
X29587932Y-25566842D01*
X29475990Y-25296589D01*
X29313475Y-25053368D01*
X29106632Y-24846525D01*
X28863411Y-24684010D01*
X28593158Y-24572068D01*
X28306260Y-24515000D01*
X28013740Y-24515000D01*
X27726842Y-24572068D01*
X27456589Y-24684010D01*
X27213368Y-24846525D01*
X27006525Y-25053368D01*
X26890000Y-25227760D01*
X26773475Y-25053368D01*
X26566632Y-24846525D01*
X26323411Y-24684010D01*
X26053158Y-24572068D01*
X25766260Y-24515000D01*
X25473740Y-24515000D01*
X25186842Y-24572068D01*
X24916589Y-24684010D01*
X24673368Y-24846525D01*
X24466525Y-25053368D01*
X24344805Y-25235534D01*
X24275178Y-25118645D01*
X24080269Y-24902412D01*
X23846920Y-24728359D01*
X23584099Y-24603175D01*
X23436890Y-24558524D01*
X23207000Y-24679845D01*
X23207000Y-25873000D01*
X23227000Y-25873000D01*
X23227000Y-26127000D01*
X23207000Y-26127000D01*
X23207000Y-26147000D01*
X22953000Y-26147000D01*
X22953000Y-26127000D01*
X22933000Y-26127000D01*
X22933000Y-25873000D01*
X22953000Y-25873000D01*
X22953000Y-24679845D01*
X22723110Y-24558524D01*
X22575901Y-24603175D01*
X22313080Y-24728359D01*
X22079731Y-24902412D01*
X21884822Y-25118645D01*
X21815195Y-25235534D01*
X21772065Y-25170986D01*
X22646058Y-24296993D01*
X31222612Y-24296993D01*
X31288137Y-24535860D01*
X31535116Y-24651760D01*
X31799960Y-24717250D01*
X32072492Y-24729812D01*
X32342238Y-24688965D01*
X32598832Y-24596277D01*
X32711863Y-24535860D01*
X32777388Y-24296993D01*
X32000000Y-23519605D01*
X31222612Y-24296993D01*
X22646058Y-24296993D01*
X23530559Y-23412492D01*
X30610188Y-23412492D01*
X30651035Y-23682238D01*
X30743723Y-23938832D01*
X30804140Y-24051863D01*
X31043007Y-24117388D01*
X31820395Y-23340000D01*
X32179605Y-23340000D01*
X32956993Y-24117388D01*
X33195860Y-24051863D01*
X33311760Y-23804884D01*
X33377250Y-23540040D01*
X33389812Y-23267508D01*
X33348965Y-22997762D01*
X33256277Y-22741168D01*
X33195860Y-22628137D01*
X32956993Y-22562612D01*
X32179605Y-23340000D01*
X31820395Y-23340000D01*
X31043007Y-22562612D01*
X30804140Y-22628137D01*
X30688240Y-22875116D01*
X30622750Y-23139960D01*
X30610188Y-23412492D01*
X23530559Y-23412492D01*
X23708052Y-23235000D01*
X27755752Y-23235000D01*
X27922499Y-23218577D01*
X28136447Y-23153676D01*
X28333623Y-23048284D01*
X28506449Y-22906449D01*
X28648284Y-22733623D01*
X28753676Y-22536447D01*
X28818577Y-22322499D01*
X28839954Y-22105449D01*
X28988514Y-22135000D01*
X29251486Y-22135000D01*
X29509405Y-22083696D01*
X29752359Y-21983061D01*
X29824288Y-21935000D01*
X31205714Y-21935000D01*
X31343957Y-22027371D01*
X31443279Y-22068511D01*
X31401168Y-22083723D01*
X31288137Y-22144140D01*
X31222612Y-22383007D01*
X32000000Y-23160395D01*
X32777388Y-22383007D01*
X32711863Y-22144140D01*
X32553523Y-22069836D01*
X32656043Y-22027371D01*
X32882886Y-21875799D01*
X33075799Y-21682886D01*
X33227371Y-21456043D01*
X33331775Y-21203989D01*
X33385000Y-20936411D01*
X33385000Y-20663589D01*
X33331775Y-20396011D01*
X33227371Y-20143957D01*
X33075799Y-19917114D01*
X32882886Y-19724201D01*
X32766517Y-19646445D01*
X32874482Y-19635812D01*
X32994180Y-19599502D01*
X33104494Y-19540537D01*
X33201185Y-19461185D01*
X33255501Y-19395000D01*
X35789869Y-19395000D01*
X35811928Y-19417059D01*
G36*
X10665000Y-3731486D02*
G01*
X10716304Y-3989405D01*
X10816939Y-4232359D01*
X10963038Y-4451013D01*
X11148987Y-4636962D01*
X11243331Y-4700000D01*
X11148987Y-4763038D01*
X10963038Y-4948987D01*
X10816939Y-5167641D01*
X10716304Y-5410595D01*
X10665000Y-5668514D01*
X10665000Y-5931486D01*
X10716304Y-6189405D01*
X10816939Y-6432359D01*
X10963038Y-6651013D01*
X11148987Y-6836962D01*
X11367641Y-6983061D01*
X11577530Y-7070000D01*
X11367641Y-7156939D01*
X11148987Y-7303038D01*
X10963038Y-7488987D01*
X10816939Y-7707641D01*
X10716304Y-7950595D01*
X10665000Y-8208514D01*
X10665000Y-8471486D01*
X10716304Y-8729405D01*
X10816939Y-8972359D01*
X10963038Y-9191013D01*
X11142025Y-9370000D01*
X10963038Y-9548987D01*
X10816939Y-9767641D01*
X10716304Y-10010595D01*
X10665000Y-10268514D01*
X10665000Y-10531486D01*
X10716304Y-10789405D01*
X10816939Y-11032359D01*
X10963038Y-11251013D01*
X11148987Y-11436962D01*
X11367641Y-11583061D01*
X11577530Y-11670000D01*
X11367641Y-11756939D01*
X11148987Y-11903038D01*
X10963038Y-12088987D01*
X10816939Y-12307641D01*
X10716304Y-12550595D01*
X10665000Y-12808514D01*
X10665000Y-13071486D01*
X10716304Y-13329405D01*
X10816939Y-13572359D01*
X10963038Y-13791013D01*
X11122025Y-13950000D01*
X10963038Y-14108987D01*
X10816939Y-14327641D01*
X10716304Y-14570595D01*
X10665000Y-14828514D01*
X10665000Y-15091486D01*
X10716304Y-15349405D01*
X10816939Y-15592359D01*
X10963038Y-15811013D01*
X11148987Y-15996962D01*
X11367641Y-16143061D01*
X11577530Y-16230000D01*
X11367641Y-16316939D01*
X11148987Y-16463038D01*
X10963038Y-16648987D01*
X10816939Y-16867641D01*
X10716304Y-17110595D01*
X10665000Y-17368514D01*
X10665000Y-17631486D01*
X10716304Y-17889405D01*
X10816939Y-18132359D01*
X10963038Y-18351013D01*
X11142025Y-18530000D01*
X10963038Y-18708987D01*
X10816939Y-18927641D01*
X10716304Y-19170595D01*
X10665000Y-19428514D01*
X10665000Y-19691486D01*
X10716304Y-19949405D01*
X10816939Y-20192359D01*
X10963038Y-20411013D01*
X11148987Y-20596962D01*
X11367641Y-20743061D01*
X11577530Y-20830000D01*
X11367641Y-20916939D01*
X11148987Y-21063038D01*
X10963038Y-21248987D01*
X10816939Y-21467641D01*
X10716304Y-21710595D01*
X10665000Y-21968514D01*
X10665000Y-22231486D01*
X10716304Y-22489405D01*
X10816939Y-22732359D01*
X10963038Y-22951013D01*
X11148987Y-23136962D01*
X11288229Y-23230000D01*
X11148987Y-23323038D01*
X10963038Y-23508987D01*
X10816939Y-23727641D01*
X10716304Y-23970595D01*
X10665000Y-24228514D01*
X10665000Y-24491486D01*
X10716304Y-24749405D01*
X10755905Y-24845010D01*
X10588846Y-24845010D01*
X10614236Y-24761309D01*
X10635000Y-24550491D01*
X10635000Y-23609508D01*
X10614236Y-23398691D01*
X10532182Y-23128192D01*
X10398932Y-22878899D01*
X10335000Y-22800998D01*
X10335000Y-11044248D01*
X10318577Y-10877501D01*
X10253676Y-10663553D01*
X10148284Y-10466377D01*
X10006449Y-10293551D01*
X9833623Y-10151716D01*
X9636446Y-10046324D01*
X9422498Y-9981423D01*
X9235001Y-9962956D01*
X9235001Y-7815742D01*
X9240491Y-7760000D01*
X9235001Y-7704258D01*
X9235001Y-7704249D01*
X9218578Y-7537502D01*
X9153677Y-7323554D01*
X9048285Y-7126378D01*
X8906450Y-6953552D01*
X8863136Y-6918005D01*
X8000573Y-6055442D01*
X7983696Y-5970595D01*
X7883061Y-5727641D01*
X7835000Y-5655712D01*
X7835000Y-5030262D01*
X7858932Y-5001101D01*
X7930000Y-4868142D01*
X8001068Y-5001101D01*
X8180393Y-5219608D01*
X8398900Y-5398932D01*
X8648193Y-5532182D01*
X8918692Y-5614236D01*
X9200000Y-5641943D01*
X9481309Y-5614236D01*
X9751808Y-5532182D01*
X10001101Y-5398932D01*
X10219608Y-5219608D01*
X10398932Y-5001101D01*
X10532182Y-4751808D01*
X10614236Y-4481309D01*
X10635000Y-4270491D01*
X10635000Y-3616579D01*
X10665000Y-3586579D01*
X10665000Y-3731486D01*
G37*
X10665000Y-3731486D02*
X10716304Y-3989405D01*
X10816939Y-4232359D01*
X10963038Y-4451013D01*
X11148987Y-4636962D01*
X11243331Y-4700000D01*
X11148987Y-4763038D01*
X10963038Y-4948987D01*
X10816939Y-5167641D01*
X10716304Y-5410595D01*
X10665000Y-5668514D01*
X10665000Y-5931486D01*
X10716304Y-6189405D01*
X10816939Y-6432359D01*
X10963038Y-6651013D01*
X11148987Y-6836962D01*
X11367641Y-6983061D01*
X11577530Y-7070000D01*
X11367641Y-7156939D01*
X11148987Y-7303038D01*
X10963038Y-7488987D01*
X10816939Y-7707641D01*
X10716304Y-7950595D01*
X10665000Y-8208514D01*
X10665000Y-8471486D01*
X10716304Y-8729405D01*
X10816939Y-8972359D01*
X10963038Y-9191013D01*
X11142025Y-9370000D01*
X10963038Y-9548987D01*
X10816939Y-9767641D01*
X10716304Y-10010595D01*
X10665000Y-10268514D01*
X10665000Y-10531486D01*
X10716304Y-10789405D01*
X10816939Y-11032359D01*
X10963038Y-11251013D01*
X11148987Y-11436962D01*
X11367641Y-11583061D01*
X11577530Y-11670000D01*
X11367641Y-11756939D01*
X11148987Y-11903038D01*
X10963038Y-12088987D01*
X10816939Y-12307641D01*
X10716304Y-12550595D01*
X10665000Y-12808514D01*
X10665000Y-13071486D01*
X10716304Y-13329405D01*
X10816939Y-13572359D01*
X10963038Y-13791013D01*
X11122025Y-13950000D01*
X10963038Y-14108987D01*
X10816939Y-14327641D01*
X10716304Y-14570595D01*
X10665000Y-14828514D01*
X10665000Y-15091486D01*
X10716304Y-15349405D01*
X10816939Y-15592359D01*
X10963038Y-15811013D01*
X11148987Y-15996962D01*
X11367641Y-16143061D01*
X11577530Y-16230000D01*
X11367641Y-16316939D01*
X11148987Y-16463038D01*
X10963038Y-16648987D01*
X10816939Y-16867641D01*
X10716304Y-17110595D01*
X10665000Y-17368514D01*
X10665000Y-17631486D01*
X10716304Y-17889405D01*
X10816939Y-18132359D01*
X10963038Y-18351013D01*
X11142025Y-18530000D01*
X10963038Y-18708987D01*
X10816939Y-18927641D01*
X10716304Y-19170595D01*
X10665000Y-19428514D01*
X10665000Y-19691486D01*
X10716304Y-19949405D01*
X10816939Y-20192359D01*
X10963038Y-20411013D01*
X11148987Y-20596962D01*
X11367641Y-20743061D01*
X11577530Y-20830000D01*
X11367641Y-20916939D01*
X11148987Y-21063038D01*
X10963038Y-21248987D01*
X10816939Y-21467641D01*
X10716304Y-21710595D01*
X10665000Y-21968514D01*
X10665000Y-22231486D01*
X10716304Y-22489405D01*
X10816939Y-22732359D01*
X10963038Y-22951013D01*
X11148987Y-23136962D01*
X11288229Y-23230000D01*
X11148987Y-23323038D01*
X10963038Y-23508987D01*
X10816939Y-23727641D01*
X10716304Y-23970595D01*
X10665000Y-24228514D01*
X10665000Y-24491486D01*
X10716304Y-24749405D01*
X10755905Y-24845010D01*
X10588846Y-24845010D01*
X10614236Y-24761309D01*
X10635000Y-24550491D01*
X10635000Y-23609508D01*
X10614236Y-23398691D01*
X10532182Y-23128192D01*
X10398932Y-22878899D01*
X10335000Y-22800998D01*
X10335000Y-11044248D01*
X10318577Y-10877501D01*
X10253676Y-10663553D01*
X10148284Y-10466377D01*
X10006449Y-10293551D01*
X9833623Y-10151716D01*
X9636446Y-10046324D01*
X9422498Y-9981423D01*
X9235001Y-9962956D01*
X9235001Y-7815742D01*
X9240491Y-7760000D01*
X9235001Y-7704258D01*
X9235001Y-7704249D01*
X9218578Y-7537502D01*
X9153677Y-7323554D01*
X9048285Y-7126378D01*
X8906450Y-6953552D01*
X8863136Y-6918005D01*
X8000573Y-6055442D01*
X7983696Y-5970595D01*
X7883061Y-5727641D01*
X7835000Y-5655712D01*
X7835000Y-5030262D01*
X7858932Y-5001101D01*
X7930000Y-4868142D01*
X8001068Y-5001101D01*
X8180393Y-5219608D01*
X8398900Y-5398932D01*
X8648193Y-5532182D01*
X8918692Y-5614236D01*
X9200000Y-5641943D01*
X9481309Y-5614236D01*
X9751808Y-5532182D01*
X10001101Y-5398932D01*
X10219608Y-5219608D01*
X10398932Y-5001101D01*
X10532182Y-4751808D01*
X10614236Y-4481309D01*
X10635000Y-4270491D01*
X10635000Y-3616579D01*
X10665000Y-3586579D01*
X10665000Y-3731486D01*
G36*
X35105500Y-15438578D02*
G01*
X35272247Y-15455001D01*
X35272248Y-15455001D01*
X35327999Y-15460492D01*
X35383751Y-15455001D01*
X36315036Y-15455001D01*
X36249559Y-15577501D01*
X36246324Y-15583554D01*
X36181423Y-15797502D01*
X36159509Y-16020000D01*
X36165000Y-16075752D01*
X36165000Y-17125000D01*
X33862034Y-17125000D01*
X34071649Y-16937116D01*
X34252236Y-16696414D01*
X34382394Y-16425107D01*
X34431036Y-16264740D01*
X34310378Y-16027000D01*
X33067000Y-16027000D01*
X33067000Y-16047000D01*
X32813000Y-16047000D01*
X32813000Y-16027000D01*
X32793000Y-16027000D01*
X32793000Y-15773000D01*
X32813000Y-15773000D01*
X32813000Y-15753000D01*
X33067000Y-15753000D01*
X33067000Y-15773000D01*
X34310378Y-15773000D01*
X34431036Y-15535260D01*
X34400625Y-15435000D01*
X35093705Y-15435000D01*
X35105500Y-15438578D01*
G37*
X35105500Y-15438578D02*
X35272247Y-15455001D01*
X35272248Y-15455001D01*
X35327999Y-15460492D01*
X35383751Y-15455001D01*
X36315036Y-15455001D01*
X36249559Y-15577501D01*
X36246324Y-15583554D01*
X36181423Y-15797502D01*
X36159509Y-16020000D01*
X36165000Y-16075752D01*
X36165000Y-17125000D01*
X33862034Y-17125000D01*
X34071649Y-16937116D01*
X34252236Y-16696414D01*
X34382394Y-16425107D01*
X34431036Y-16264740D01*
X34310378Y-16027000D01*
X33067000Y-16027000D01*
X33067000Y-16047000D01*
X32813000Y-16047000D01*
X32813000Y-16027000D01*
X32793000Y-16027000D01*
X32793000Y-15773000D01*
X32813000Y-15773000D01*
X32813000Y-15753000D01*
X33067000Y-15753000D01*
X33067000Y-15773000D01*
X34310378Y-15773000D01*
X34431036Y-15535260D01*
X34400625Y-15435000D01*
X35093705Y-15435000D01*
X35105500Y-15438578D01*
G36*
X51715001Y-2178130D02*
G01*
X51621100Y-2101068D01*
X51371807Y-1967818D01*
X51101308Y-1885764D01*
X50820000Y-1858057D01*
X50538691Y-1885764D01*
X50268192Y-1967818D01*
X50018899Y-2101068D01*
X49800392Y-2280393D01*
X49621068Y-2498900D01*
X49552735Y-2626742D01*
X49402601Y-2397161D01*
X49204895Y-2195500D01*
X48971646Y-2036285D01*
X48711818Y-1925633D01*
X48629039Y-1908096D01*
X48407000Y-2030085D01*
X48407000Y-3573000D01*
X48427000Y-3573000D01*
X48427000Y-3827000D01*
X48407000Y-3827000D01*
X48407000Y-5369915D01*
X48629039Y-5491904D01*
X48711818Y-5474367D01*
X48971646Y-5363715D01*
X49204895Y-5204500D01*
X49402601Y-5002839D01*
X49552735Y-4773259D01*
X49621068Y-4901101D01*
X49800393Y-5119608D01*
X50018900Y-5298932D01*
X50268193Y-5432182D01*
X50538692Y-5514236D01*
X50820000Y-5541943D01*
X51101309Y-5514236D01*
X51371808Y-5432182D01*
X51621101Y-5298932D01*
X51715001Y-5221870D01*
X51715001Y-9545448D01*
X51653475Y-9453368D01*
X51446632Y-9246525D01*
X51203411Y-9084010D01*
X50933158Y-8972068D01*
X50646260Y-8915000D01*
X50353740Y-8915000D01*
X50066842Y-8972068D01*
X49796589Y-9084010D01*
X49553368Y-9246525D01*
X49534893Y-9265000D01*
X48105752Y-9265000D01*
X48050000Y-9259509D01*
X47994248Y-9265000D01*
X47827501Y-9281423D01*
X47613553Y-9346324D01*
X47416377Y-9451716D01*
X47243551Y-9593551D01*
X47208009Y-9636859D01*
X42304511Y-14540358D01*
X42280537Y-14495506D01*
X42201185Y-14398815D01*
X42104494Y-14319463D01*
X41994180Y-14260498D01*
X41874482Y-14224188D01*
X41750000Y-14211928D01*
X40748021Y-14211928D01*
X40789405Y-14203696D01*
X41032359Y-14103061D01*
X41251013Y-13956962D01*
X41436962Y-13771013D01*
X41583061Y-13552359D01*
X41683696Y-13309405D01*
X41735000Y-13051486D01*
X41735000Y-12788514D01*
X41683696Y-12530595D01*
X41583061Y-12287641D01*
X41436962Y-12068987D01*
X41251013Y-11883038D01*
X41032359Y-11736939D01*
X40789405Y-11636304D01*
X40531486Y-11585000D01*
X40268514Y-11585000D01*
X40010595Y-11636304D01*
X39767641Y-11736939D01*
X39548987Y-11883038D01*
X39363038Y-12068987D01*
X39300000Y-12163331D01*
X39236962Y-12068987D01*
X39051013Y-11883038D01*
X38832359Y-11736939D01*
X38589405Y-11636304D01*
X38331486Y-11585000D01*
X38068514Y-11585000D01*
X37810595Y-11636304D01*
X37567641Y-11736939D01*
X37348987Y-11883038D01*
X37163038Y-12068987D01*
X37135000Y-12110949D01*
X37135000Y-11155741D01*
X37140490Y-11099999D01*
X37135000Y-11044257D01*
X37135000Y-11044248D01*
X37118577Y-10877501D01*
X37053676Y-10663553D01*
X36948284Y-10466377D01*
X36806449Y-10293551D01*
X36763141Y-10258009D01*
X34164212Y-7659081D01*
X34131775Y-7496011D01*
X34027371Y-7243957D01*
X33875799Y-7017114D01*
X33682886Y-6824201D01*
X33456043Y-6672629D01*
X33356721Y-6631489D01*
X33398832Y-6616277D01*
X33511863Y-6555860D01*
X33577388Y-6316993D01*
X32800000Y-5539605D01*
X32022612Y-6316993D01*
X32088137Y-6555860D01*
X32246477Y-6630164D01*
X32143957Y-6672629D01*
X32005714Y-6765000D01*
X29824288Y-6765000D01*
X29752359Y-6716939D01*
X29509405Y-6616304D01*
X29251486Y-6565000D01*
X28988514Y-6565000D01*
X28730595Y-6616304D01*
X28487641Y-6716939D01*
X28268987Y-6863038D01*
X28083038Y-7048987D01*
X27936939Y-7267641D01*
X27836304Y-7510595D01*
X27785000Y-7768514D01*
X27785000Y-8031486D01*
X27836304Y-8289405D01*
X27936939Y-8532359D01*
X27985000Y-8604288D01*
X27985000Y-8892463D01*
X27751807Y-8767818D01*
X27481308Y-8685764D01*
X27200000Y-8658057D01*
X26918691Y-8685764D01*
X26834999Y-8711151D01*
X26834999Y-8193468D01*
X26839280Y-8149999D01*
X26834999Y-8106530D01*
X26834999Y-8106522D01*
X26822194Y-7976509D01*
X26771588Y-7809686D01*
X26689410Y-7655940D01*
X26649479Y-7607284D01*
X26606531Y-7554952D01*
X26606529Y-7554950D01*
X26578816Y-7521182D01*
X26545048Y-7493469D01*
X25086578Y-6035000D01*
X30544249Y-6035000D01*
X30600000Y-6040491D01*
X30655751Y-6035000D01*
X30655752Y-6035000D01*
X30822499Y-6018577D01*
X31036447Y-5953676D01*
X31233623Y-5848284D01*
X31406449Y-5706449D01*
X31441996Y-5663136D01*
X31444704Y-5660427D01*
X31451035Y-5702238D01*
X31543723Y-5958832D01*
X31604140Y-6071863D01*
X31843007Y-6137388D01*
X32620395Y-5360000D01*
X32606253Y-5345858D01*
X32785858Y-5166253D01*
X32800000Y-5180395D01*
X32814143Y-5166253D01*
X32993748Y-5345858D01*
X32979605Y-5360000D01*
X33756993Y-6137388D01*
X33995860Y-6071863D01*
X34111760Y-5824884D01*
X34177250Y-5560040D01*
X34189812Y-5287508D01*
X34155449Y-5060580D01*
X34699427Y-5604558D01*
X34716304Y-5689405D01*
X34816939Y-5932359D01*
X34963038Y-6151013D01*
X35148987Y-6336962D01*
X35367641Y-6483061D01*
X35610595Y-6583696D01*
X35868514Y-6635000D01*
X36131486Y-6635000D01*
X36389405Y-6583696D01*
X36632359Y-6483061D01*
X36851013Y-6336962D01*
X37036962Y-6151013D01*
X37100000Y-6056669D01*
X37163038Y-6151013D01*
X37348987Y-6336962D01*
X37567641Y-6483061D01*
X37810595Y-6583696D01*
X38068514Y-6635000D01*
X38331486Y-6635000D01*
X38589405Y-6583696D01*
X38832359Y-6483061D01*
X39051013Y-6336962D01*
X39236962Y-6151013D01*
X39300000Y-6056669D01*
X39363038Y-6151013D01*
X39548987Y-6336962D01*
X39767641Y-6483061D01*
X40010595Y-6583696D01*
X40268514Y-6635000D01*
X40531486Y-6635000D01*
X40789405Y-6583696D01*
X41032359Y-6483061D01*
X41251013Y-6336962D01*
X41436962Y-6151013D01*
X41583061Y-5932359D01*
X41683696Y-5689405D01*
X41735000Y-5431486D01*
X41735000Y-5168514D01*
X41683696Y-4910595D01*
X41583061Y-4667641D01*
X41436962Y-4448987D01*
X41251013Y-4263038D01*
X41032359Y-4116939D01*
X40789405Y-4016304D01*
X40704558Y-3999427D01*
X39741996Y-3036865D01*
X39706449Y-2993551D01*
X39533623Y-2851716D01*
X39336447Y-2746324D01*
X39122499Y-2681423D01*
X38955752Y-2665000D01*
X38955751Y-2665000D01*
X38900000Y-2659509D01*
X38844249Y-2665000D01*
X36755751Y-2665000D01*
X36700000Y-2659509D01*
X36644249Y-2665000D01*
X34555751Y-2665000D01*
X34500000Y-2659509D01*
X34444249Y-2665000D01*
X31755751Y-2665000D01*
X31700000Y-2659509D01*
X31644248Y-2665000D01*
X31477501Y-2681423D01*
X31263553Y-2746324D01*
X31066377Y-2851716D01*
X30893551Y-2993551D01*
X30858011Y-3036857D01*
X30129869Y-3765000D01*
X27746578Y-3765000D01*
X28141040Y-3370539D01*
X28213740Y-3385000D01*
X28506260Y-3385000D01*
X28793158Y-3327932D01*
X29063411Y-3215990D01*
X29306632Y-3053475D01*
X29513475Y-2846632D01*
X29675990Y-2603411D01*
X29718824Y-2500000D01*
X41761928Y-2500000D01*
X41761928Y-4900000D01*
X41774188Y-5024482D01*
X41810498Y-5144180D01*
X41869463Y-5254494D01*
X41948815Y-5351185D01*
X42045506Y-5430537D01*
X42155820Y-5489502D01*
X42275518Y-5525812D01*
X42400000Y-5538072D01*
X44000000Y-5538072D01*
X44124482Y-5525812D01*
X44244180Y-5489502D01*
X44354494Y-5430537D01*
X44451185Y-5351185D01*
X44530537Y-5254494D01*
X44589502Y-5144180D01*
X44625812Y-5024482D01*
X44627581Y-5006517D01*
X44720393Y-5119608D01*
X44938900Y-5298932D01*
X45188193Y-5432182D01*
X45458692Y-5514236D01*
X45740000Y-5541943D01*
X46021309Y-5514236D01*
X46291808Y-5432182D01*
X46541101Y-5298932D01*
X46759608Y-5119608D01*
X46938932Y-4901101D01*
X47007265Y-4773259D01*
X47157399Y-5002839D01*
X47355105Y-5204500D01*
X47588354Y-5363715D01*
X47848182Y-5474367D01*
X47930961Y-5491904D01*
X48153000Y-5369915D01*
X48153000Y-3827000D01*
X48133000Y-3827000D01*
X48133000Y-3573000D01*
X48153000Y-3573000D01*
X48153000Y-2030085D01*
X47930961Y-1908096D01*
X47848182Y-1925633D01*
X47588354Y-2036285D01*
X47355105Y-2195500D01*
X47157399Y-2397161D01*
X47007265Y-2626741D01*
X46938932Y-2498899D01*
X46759607Y-2280392D01*
X46541100Y-2101068D01*
X46291807Y-1967818D01*
X46021308Y-1885764D01*
X45740000Y-1858057D01*
X45458691Y-1885764D01*
X45188192Y-1967818D01*
X44938899Y-2101068D01*
X44720392Y-2280393D01*
X44627581Y-2393483D01*
X44625812Y-2375518D01*
X44589502Y-2255820D01*
X44530537Y-2145506D01*
X44451185Y-2048815D01*
X44354494Y-1969463D01*
X44244180Y-1910498D01*
X44124482Y-1874188D01*
X44000000Y-1861928D01*
X42400000Y-1861928D01*
X42275518Y-1874188D01*
X42155820Y-1910498D01*
X42045506Y-1969463D01*
X41948815Y-2048815D01*
X41869463Y-2145506D01*
X41810498Y-2255820D01*
X41774188Y-2375518D01*
X41761928Y-2500000D01*
X29718824Y-2500000D01*
X29787932Y-2333158D01*
X29845000Y-2046260D01*
X29845000Y-1753740D01*
X29787932Y-1466842D01*
X29675990Y-1196589D01*
X29513475Y-953368D01*
X29306632Y-746525D01*
X29214553Y-685000D01*
X51715001Y-685000D01*
X51715001Y-2178130D01*
G37*
X51715001Y-2178130D02*
X51621100Y-2101068D01*
X51371807Y-1967818D01*
X51101308Y-1885764D01*
X50820000Y-1858057D01*
X50538691Y-1885764D01*
X50268192Y-1967818D01*
X50018899Y-2101068D01*
X49800392Y-2280393D01*
X49621068Y-2498900D01*
X49552735Y-2626742D01*
X49402601Y-2397161D01*
X49204895Y-2195500D01*
X48971646Y-2036285D01*
X48711818Y-1925633D01*
X48629039Y-1908096D01*
X48407000Y-2030085D01*
X48407000Y-3573000D01*
X48427000Y-3573000D01*
X48427000Y-3827000D01*
X48407000Y-3827000D01*
X48407000Y-5369915D01*
X48629039Y-5491904D01*
X48711818Y-5474367D01*
X48971646Y-5363715D01*
X49204895Y-5204500D01*
X49402601Y-5002839D01*
X49552735Y-4773259D01*
X49621068Y-4901101D01*
X49800393Y-5119608D01*
X50018900Y-5298932D01*
X50268193Y-5432182D01*
X50538692Y-5514236D01*
X50820000Y-5541943D01*
X51101309Y-5514236D01*
X51371808Y-5432182D01*
X51621101Y-5298932D01*
X51715001Y-5221870D01*
X51715001Y-9545448D01*
X51653475Y-9453368D01*
X51446632Y-9246525D01*
X51203411Y-9084010D01*
X50933158Y-8972068D01*
X50646260Y-8915000D01*
X50353740Y-8915000D01*
X50066842Y-8972068D01*
X49796589Y-9084010D01*
X49553368Y-9246525D01*
X49534893Y-9265000D01*
X48105752Y-9265000D01*
X48050000Y-9259509D01*
X47994248Y-9265000D01*
X47827501Y-9281423D01*
X47613553Y-9346324D01*
X47416377Y-9451716D01*
X47243551Y-9593551D01*
X47208009Y-9636859D01*
X42304511Y-14540358D01*
X42280537Y-14495506D01*
X42201185Y-14398815D01*
X42104494Y-14319463D01*
X41994180Y-14260498D01*
X41874482Y-14224188D01*
X41750000Y-14211928D01*
X40748021Y-14211928D01*
X40789405Y-14203696D01*
X41032359Y-14103061D01*
X41251013Y-13956962D01*
X41436962Y-13771013D01*
X41583061Y-13552359D01*
X41683696Y-13309405D01*
X41735000Y-13051486D01*
X41735000Y-12788514D01*
X41683696Y-12530595D01*
X41583061Y-12287641D01*
X41436962Y-12068987D01*
X41251013Y-11883038D01*
X41032359Y-11736939D01*
X40789405Y-11636304D01*
X40531486Y-11585000D01*
X40268514Y-11585000D01*
X40010595Y-11636304D01*
X39767641Y-11736939D01*
X39548987Y-11883038D01*
X39363038Y-12068987D01*
X39300000Y-12163331D01*
X39236962Y-12068987D01*
X39051013Y-11883038D01*
X38832359Y-11736939D01*
X38589405Y-11636304D01*
X38331486Y-11585000D01*
X38068514Y-11585000D01*
X37810595Y-11636304D01*
X37567641Y-11736939D01*
X37348987Y-11883038D01*
X37163038Y-12068987D01*
X37135000Y-12110949D01*
X37135000Y-11155741D01*
X37140490Y-11099999D01*
X37135000Y-11044257D01*
X37135000Y-11044248D01*
X37118577Y-10877501D01*
X37053676Y-10663553D01*
X36948284Y-10466377D01*
X36806449Y-10293551D01*
X36763141Y-10258009D01*
X34164212Y-7659081D01*
X34131775Y-7496011D01*
X34027371Y-7243957D01*
X33875799Y-7017114D01*
X33682886Y-6824201D01*
X33456043Y-6672629D01*
X33356721Y-6631489D01*
X33398832Y-6616277D01*
X33511863Y-6555860D01*
X33577388Y-6316993D01*
X32800000Y-5539605D01*
X32022612Y-6316993D01*
X32088137Y-6555860D01*
X32246477Y-6630164D01*
X32143957Y-6672629D01*
X32005714Y-6765000D01*
X29824288Y-6765000D01*
X29752359Y-6716939D01*
X29509405Y-6616304D01*
X29251486Y-6565000D01*
X28988514Y-6565000D01*
X28730595Y-6616304D01*
X28487641Y-6716939D01*
X28268987Y-6863038D01*
X28083038Y-7048987D01*
X27936939Y-7267641D01*
X27836304Y-7510595D01*
X27785000Y-7768514D01*
X27785000Y-8031486D01*
X27836304Y-8289405D01*
X27936939Y-8532359D01*
X27985000Y-8604288D01*
X27985000Y-8892463D01*
X27751807Y-8767818D01*
X27481308Y-8685764D01*
X27200000Y-8658057D01*
X26918691Y-8685764D01*
X26834999Y-8711151D01*
X26834999Y-8193468D01*
X26839280Y-8149999D01*
X26834999Y-8106530D01*
X26834999Y-8106522D01*
X26822194Y-7976509D01*
X26771588Y-7809686D01*
X26689410Y-7655940D01*
X26649479Y-7607284D01*
X26606531Y-7554952D01*
X26606529Y-7554950D01*
X26578816Y-7521182D01*
X26545048Y-7493469D01*
X25086578Y-6035000D01*
X30544249Y-6035000D01*
X30600000Y-6040491D01*
X30655751Y-6035000D01*
X30655752Y-6035000D01*
X30822499Y-6018577D01*
X31036447Y-5953676D01*
X31233623Y-5848284D01*
X31406449Y-5706449D01*
X31441996Y-5663136D01*
X31444704Y-5660427D01*
X31451035Y-5702238D01*
X31543723Y-5958832D01*
X31604140Y-6071863D01*
X31843007Y-6137388D01*
X32620395Y-5360000D01*
X32606253Y-5345858D01*
X32785858Y-5166253D01*
X32800000Y-5180395D01*
X32814143Y-5166253D01*
X32993748Y-5345858D01*
X32979605Y-5360000D01*
X33756993Y-6137388D01*
X33995860Y-6071863D01*
X34111760Y-5824884D01*
X34177250Y-5560040D01*
X34189812Y-5287508D01*
X34155449Y-5060580D01*
X34699427Y-5604558D01*
X34716304Y-5689405D01*
X34816939Y-5932359D01*
X34963038Y-6151013D01*
X35148987Y-6336962D01*
X35367641Y-6483061D01*
X35610595Y-6583696D01*
X35868514Y-6635000D01*
X36131486Y-6635000D01*
X36389405Y-6583696D01*
X36632359Y-6483061D01*
X36851013Y-6336962D01*
X37036962Y-6151013D01*
X37100000Y-6056669D01*
X37163038Y-6151013D01*
X37348987Y-6336962D01*
X37567641Y-6483061D01*
X37810595Y-6583696D01*
X38068514Y-6635000D01*
X38331486Y-6635000D01*
X38589405Y-6583696D01*
X38832359Y-6483061D01*
X39051013Y-6336962D01*
X39236962Y-6151013D01*
X39300000Y-6056669D01*
X39363038Y-6151013D01*
X39548987Y-6336962D01*
X39767641Y-6483061D01*
X40010595Y-6583696D01*
X40268514Y-6635000D01*
X40531486Y-6635000D01*
X40789405Y-6583696D01*
X41032359Y-6483061D01*
X41251013Y-6336962D01*
X41436962Y-6151013D01*
X41583061Y-5932359D01*
X41683696Y-5689405D01*
X41735000Y-5431486D01*
X41735000Y-5168514D01*
X41683696Y-4910595D01*
X41583061Y-4667641D01*
X41436962Y-4448987D01*
X41251013Y-4263038D01*
X41032359Y-4116939D01*
X40789405Y-4016304D01*
X40704558Y-3999427D01*
X39741996Y-3036865D01*
X39706449Y-2993551D01*
X39533623Y-2851716D01*
X39336447Y-2746324D01*
X39122499Y-2681423D01*
X38955752Y-2665000D01*
X38955751Y-2665000D01*
X38900000Y-2659509D01*
X38844249Y-2665000D01*
X36755751Y-2665000D01*
X36700000Y-2659509D01*
X36644249Y-2665000D01*
X34555751Y-2665000D01*
X34500000Y-2659509D01*
X34444249Y-2665000D01*
X31755751Y-2665000D01*
X31700000Y-2659509D01*
X31644248Y-2665000D01*
X31477501Y-2681423D01*
X31263553Y-2746324D01*
X31066377Y-2851716D01*
X30893551Y-2993551D01*
X30858011Y-3036857D01*
X30129869Y-3765000D01*
X27746578Y-3765000D01*
X28141040Y-3370539D01*
X28213740Y-3385000D01*
X28506260Y-3385000D01*
X28793158Y-3327932D01*
X29063411Y-3215990D01*
X29306632Y-3053475D01*
X29513475Y-2846632D01*
X29675990Y-2603411D01*
X29718824Y-2500000D01*
X41761928Y-2500000D01*
X41761928Y-4900000D01*
X41774188Y-5024482D01*
X41810498Y-5144180D01*
X41869463Y-5254494D01*
X41948815Y-5351185D01*
X42045506Y-5430537D01*
X42155820Y-5489502D01*
X42275518Y-5525812D01*
X42400000Y-5538072D01*
X44000000Y-5538072D01*
X44124482Y-5525812D01*
X44244180Y-5489502D01*
X44354494Y-5430537D01*
X44451185Y-5351185D01*
X44530537Y-5254494D01*
X44589502Y-5144180D01*
X44625812Y-5024482D01*
X44627581Y-5006517D01*
X44720393Y-5119608D01*
X44938900Y-5298932D01*
X45188193Y-5432182D01*
X45458692Y-5514236D01*
X45740000Y-5541943D01*
X46021309Y-5514236D01*
X46291808Y-5432182D01*
X46541101Y-5298932D01*
X46759608Y-5119608D01*
X46938932Y-4901101D01*
X47007265Y-4773259D01*
X47157399Y-5002839D01*
X47355105Y-5204500D01*
X47588354Y-5363715D01*
X47848182Y-5474367D01*
X47930961Y-5491904D01*
X48153000Y-5369915D01*
X48153000Y-3827000D01*
X48133000Y-3827000D01*
X48133000Y-3573000D01*
X48153000Y-3573000D01*
X48153000Y-2030085D01*
X47930961Y-1908096D01*
X47848182Y-1925633D01*
X47588354Y-2036285D01*
X47355105Y-2195500D01*
X47157399Y-2397161D01*
X47007265Y-2626741D01*
X46938932Y-2498899D01*
X46759607Y-2280392D01*
X46541100Y-2101068D01*
X46291807Y-1967818D01*
X46021308Y-1885764D01*
X45740000Y-1858057D01*
X45458691Y-1885764D01*
X45188192Y-1967818D01*
X44938899Y-2101068D01*
X44720392Y-2280393D01*
X44627581Y-2393483D01*
X44625812Y-2375518D01*
X44589502Y-2255820D01*
X44530537Y-2145506D01*
X44451185Y-2048815D01*
X44354494Y-1969463D01*
X44244180Y-1910498D01*
X44124482Y-1874188D01*
X44000000Y-1861928D01*
X42400000Y-1861928D01*
X42275518Y-1874188D01*
X42155820Y-1910498D01*
X42045506Y-1969463D01*
X41948815Y-2048815D01*
X41869463Y-2145506D01*
X41810498Y-2255820D01*
X41774188Y-2375518D01*
X41761928Y-2500000D01*
X29718824Y-2500000D01*
X29787932Y-2333158D01*
X29845000Y-2046260D01*
X29845000Y-1753740D01*
X29787932Y-1466842D01*
X29675990Y-1196589D01*
X29513475Y-953368D01*
X29306632Y-746525D01*
X29214553Y-685000D01*
X51715001Y-685000D01*
X51715001Y-2178130D01*
G36*
X34865000Y-11570132D02*
G01*
X34865000Y-12215712D01*
X34816939Y-12287641D01*
X34716304Y-12530595D01*
X34665000Y-12788514D01*
X34665000Y-13051486D01*
X34687580Y-13165000D01*
X34400625Y-13165000D01*
X34431036Y-13064740D01*
X34310378Y-12827000D01*
X33067000Y-12827000D01*
X33067000Y-12847000D01*
X32813000Y-12847000D01*
X32813000Y-12827000D01*
X32793000Y-12827000D01*
X32793000Y-12573000D01*
X32813000Y-12573000D01*
X32813000Y-12553000D01*
X33067000Y-12553000D01*
X33067000Y-12573000D01*
X34310378Y-12573000D01*
X34431036Y-12335260D01*
X34382394Y-12174893D01*
X34252236Y-11903586D01*
X34071649Y-11662884D01*
X34020789Y-11617297D01*
X34080537Y-11544494D01*
X34139502Y-11434180D01*
X34175812Y-11314482D01*
X34188072Y-11190000D01*
X34188072Y-10893204D01*
X34865000Y-11570132D01*
G37*
X34865000Y-11570132D02*
X34865000Y-12215712D01*
X34816939Y-12287641D01*
X34716304Y-12530595D01*
X34665000Y-12788514D01*
X34665000Y-13051486D01*
X34687580Y-13165000D01*
X34400625Y-13165000D01*
X34431036Y-13064740D01*
X34310378Y-12827000D01*
X33067000Y-12827000D01*
X33067000Y-12847000D01*
X32813000Y-12847000D01*
X32813000Y-12827000D01*
X32793000Y-12827000D01*
X32793000Y-12573000D01*
X32813000Y-12573000D01*
X32813000Y-12553000D01*
X33067000Y-12553000D01*
X33067000Y-12573000D01*
X34310378Y-12573000D01*
X34431036Y-12335260D01*
X34382394Y-12174893D01*
X34252236Y-11903586D01*
X34071649Y-11662884D01*
X34020789Y-11617297D01*
X34080537Y-11544494D01*
X34139502Y-11434180D01*
X34175812Y-11314482D01*
X34188072Y-11190000D01*
X34188072Y-10893204D01*
X34865000Y-11570132D01*
G36*
X6827000Y-8773000D02*
G01*
X6847000Y-8773000D01*
X6847000Y-9027000D01*
X6827000Y-9027000D01*
X6827000Y-10069374D01*
X6890478Y-10107321D01*
X5896860Y-11100939D01*
X5853552Y-11136481D01*
X5835000Y-11159087D01*
X5835000Y-9913384D01*
X6021608Y-10049792D01*
X6258956Y-10160047D01*
X6366671Y-10192716D01*
X6573000Y-10069374D01*
X6573000Y-9027000D01*
X6553000Y-9027000D01*
X6553000Y-8773000D01*
X6573000Y-8773000D01*
X6573000Y-8753000D01*
X6827000Y-8753000D01*
X6827000Y-8773000D01*
G37*
X6827000Y-8773000D02*
X6847000Y-8773000D01*
X6847000Y-9027000D01*
X6827000Y-9027000D01*
X6827000Y-10069374D01*
X6890478Y-10107321D01*
X5896860Y-11100939D01*
X5853552Y-11136481D01*
X5835000Y-11159087D01*
X5835000Y-9913384D01*
X6021608Y-10049792D01*
X6258956Y-10160047D01*
X6366671Y-10192716D01*
X6573000Y-10069374D01*
X6573000Y-9027000D01*
X6553000Y-9027000D01*
X6553000Y-8773000D01*
X6573000Y-8773000D01*
X6573000Y-8753000D01*
X6827000Y-8753000D01*
X6827000Y-8773000D01*
G36*
X780000Y-5638072D02*
G01*
X2336672Y-5638072D01*
X2296325Y-5713555D01*
X2231424Y-5927503D01*
X2209510Y-6150001D01*
X2215002Y-6205762D01*
X2215002Y-7114296D01*
X2085750Y-7115000D01*
X1927000Y-7273750D01*
X1927000Y-8473000D01*
X1947000Y-8473000D01*
X1947000Y-8727000D01*
X1927000Y-8727000D01*
X1927000Y-8747000D01*
X1673000Y-8747000D01*
X1673000Y-8727000D01*
X1653000Y-8727000D01*
X1653000Y-8473000D01*
X1673000Y-8473000D01*
X1673000Y-7273750D01*
X1514250Y-7115000D01*
X950000Y-7111928D01*
X825518Y-7124188D01*
X705820Y-7160498D01*
X685000Y-7171627D01*
X685000Y-5628716D01*
X780000Y-5638072D01*
G37*
X780000Y-5638072D02*
X2336672Y-5638072D01*
X2296325Y-5713555D01*
X2231424Y-5927503D01*
X2209510Y-6150001D01*
X2215002Y-6205762D01*
X2215002Y-7114296D01*
X2085750Y-7115000D01*
X1927000Y-7273750D01*
X1927000Y-8473000D01*
X1947000Y-8473000D01*
X1947000Y-8727000D01*
X1927000Y-8727000D01*
X1927000Y-8747000D01*
X1673000Y-8747000D01*
X1673000Y-8727000D01*
X1653000Y-8727000D01*
X1653000Y-8473000D01*
X1673000Y-8473000D01*
X1673000Y-7273750D01*
X1514250Y-7115000D01*
X950000Y-7111928D01*
X825518Y-7124188D01*
X705820Y-7160498D01*
X685000Y-7171627D01*
X685000Y-5628716D01*
X780000Y-5638072D01*
G36*
X23407000Y-1773000D02*
G01*
X23427000Y-1773000D01*
X23427000Y-2027000D01*
X23407000Y-2027000D01*
X23407000Y-2047000D01*
X23153000Y-2047000D01*
X23153000Y-2027000D01*
X23133000Y-2027000D01*
X23133000Y-1773000D01*
X23153000Y-1773000D01*
X23153000Y-1753000D01*
X23407000Y-1753000D01*
X23407000Y-1773000D01*
G37*
X23407000Y-1773000D02*
X23427000Y-1773000D01*
X23427000Y-2027000D01*
X23407000Y-2027000D01*
X23407000Y-2047000D01*
X23153000Y-2047000D01*
X23153000Y-2027000D01*
X23133000Y-2027000D01*
X23133000Y-1773000D01*
X23153000Y-1773000D01*
X23153000Y-1753000D01*
X23407000Y-1753000D01*
X23407000Y-1773000D01*
M02*
