G04 #@! TF.GenerationSoftware,KiCad,Pcbnew,(5.1.5)-3*
G04 #@! TF.CreationDate,2020-04-19T22:50:58+02:00*
G04 #@! TF.ProjectId,goal_detector,676f616c-5f64-4657-9465-63746f722e6b,rev?*
G04 #@! TF.SameCoordinates,PX101dfa0PY12b1280*
G04 #@! TF.FileFunction,Legend,Top*
G04 #@! TF.FilePolarity,Positive*
%FSLAX46Y46*%
G04 Gerber Fmt 4.6, Leading zero omitted, Abs format (unit mm)*
G04 Created by KiCad (PCBNEW (5.1.5)-3) date 2020-04-19 22:50:58*
%MOMM*%
%LPD*%
G04 APERTURE LIST*
%ADD10C,0.150000*%
%ADD11C,0.350000*%
%ADD12C,0.300000*%
%ADD13C,0.120000*%
G04 APERTURE END LIST*
D10*
X46704761Y-13504761D02*
X46752380Y-13361904D01*
X46752380Y-13123809D01*
X46704761Y-13028571D01*
X46657142Y-12980952D01*
X46561904Y-12933333D01*
X46466666Y-12933333D01*
X46371428Y-12980952D01*
X46323809Y-13028571D01*
X46276190Y-13123809D01*
X46228571Y-13314285D01*
X46180952Y-13409523D01*
X46133333Y-13457142D01*
X46038095Y-13504761D01*
X45942857Y-13504761D01*
X45847619Y-13457142D01*
X45800000Y-13409523D01*
X45752380Y-13314285D01*
X45752380Y-13076190D01*
X45800000Y-12933333D01*
X46704761Y-12076190D02*
X46752380Y-12171428D01*
X46752380Y-12361904D01*
X46704761Y-12457142D01*
X46657142Y-12504761D01*
X46561904Y-12552380D01*
X46276190Y-12552380D01*
X46180952Y-12504761D01*
X46133333Y-12457142D01*
X46085714Y-12361904D01*
X46085714Y-12171428D01*
X46133333Y-12076190D01*
X46752380Y-11504761D02*
X46704761Y-11600000D01*
X46657142Y-11647619D01*
X46561904Y-11695238D01*
X46276190Y-11695238D01*
X46180952Y-11647619D01*
X46133333Y-11600000D01*
X46085714Y-11504761D01*
X46085714Y-11361904D01*
X46133333Y-11266666D01*
X46180952Y-11219047D01*
X46276190Y-11171428D01*
X46561904Y-11171428D01*
X46657142Y-11219047D01*
X46704761Y-11266666D01*
X46752380Y-11361904D01*
X46752380Y-11504761D01*
X46752380Y-10742857D02*
X46085714Y-10742857D01*
X46276190Y-10742857D02*
X46180952Y-10695238D01*
X46133333Y-10647619D01*
X46085714Y-10552380D01*
X46085714Y-10457142D01*
X46704761Y-9742857D02*
X46752380Y-9838095D01*
X46752380Y-10028571D01*
X46704761Y-10123809D01*
X46609523Y-10171428D01*
X46228571Y-10171428D01*
X46133333Y-10123809D01*
X46085714Y-10028571D01*
X46085714Y-9838095D01*
X46133333Y-9742857D01*
X46228571Y-9695238D01*
X46323809Y-9695238D01*
X46419047Y-10171428D01*
D11*
X43842857Y-7814285D02*
X43842857Y-6014285D01*
X44528571Y-6014285D01*
X44700000Y-6100000D01*
X44785714Y-6185714D01*
X44871428Y-6357142D01*
X44871428Y-6614285D01*
X44785714Y-6785714D01*
X44700000Y-6871428D01*
X44528571Y-6957142D01*
X43842857Y-6957142D01*
X45985714Y-6014285D02*
X46328571Y-6014285D01*
X46500000Y-6100000D01*
X46671428Y-6271428D01*
X46757142Y-6614285D01*
X46757142Y-7214285D01*
X46671428Y-7557142D01*
X46500000Y-7728571D01*
X46328571Y-7814285D01*
X45985714Y-7814285D01*
X45814285Y-7728571D01*
X45642857Y-7557142D01*
X45557142Y-7214285D01*
X45557142Y-6614285D01*
X45642857Y-6271428D01*
X45814285Y-6100000D01*
X45985714Y-6014285D01*
X47528571Y-7814285D02*
X47528571Y-6014285D01*
X48557142Y-7814285D01*
X48557142Y-6014285D01*
X50357142Y-6100000D02*
X50185714Y-6014285D01*
X49928571Y-6014285D01*
X49671428Y-6100000D01*
X49500000Y-6271428D01*
X49414285Y-6442857D01*
X49328571Y-6785714D01*
X49328571Y-7042857D01*
X49414285Y-7385714D01*
X49500000Y-7557142D01*
X49671428Y-7728571D01*
X49928571Y-7814285D01*
X50100000Y-7814285D01*
X50357142Y-7728571D01*
X50442857Y-7642857D01*
X50442857Y-7042857D01*
X50100000Y-7042857D01*
D10*
X4007023Y-19252380D02*
X3673690Y-18776190D01*
X3435595Y-19252380D02*
X3435595Y-18252380D01*
X3816547Y-18252380D01*
X3911785Y-18300000D01*
X3959404Y-18347619D01*
X4007023Y-18442857D01*
X4007023Y-18585714D01*
X3959404Y-18680952D01*
X3911785Y-18728571D01*
X3816547Y-18776190D01*
X3435595Y-18776190D01*
X4864166Y-19252380D02*
X4864166Y-18728571D01*
X4816547Y-18633333D01*
X4721309Y-18585714D01*
X4530833Y-18585714D01*
X4435595Y-18633333D01*
X4864166Y-19204761D02*
X4768928Y-19252380D01*
X4530833Y-19252380D01*
X4435595Y-19204761D01*
X4387976Y-19109523D01*
X4387976Y-19014285D01*
X4435595Y-18919047D01*
X4530833Y-18871428D01*
X4768928Y-18871428D01*
X4864166Y-18823809D01*
X5340357Y-19252380D02*
X5340357Y-18585714D01*
X5340357Y-18680952D02*
X5387976Y-18633333D01*
X5483214Y-18585714D01*
X5626071Y-18585714D01*
X5721309Y-18633333D01*
X5768928Y-18728571D01*
X5768928Y-19252380D01*
X5768928Y-18728571D02*
X5816547Y-18633333D01*
X5911785Y-18585714D01*
X6054642Y-18585714D01*
X6149880Y-18633333D01*
X6197500Y-18728571D01*
X6197500Y-19252380D01*
X6673690Y-18585714D02*
X6673690Y-19585714D01*
X6673690Y-18633333D02*
X6768928Y-18585714D01*
X6959404Y-18585714D01*
X7054642Y-18633333D01*
X7102261Y-18680952D01*
X7149880Y-18776190D01*
X7149880Y-19061904D01*
X7102261Y-19157142D01*
X7054642Y-19204761D01*
X6959404Y-19252380D01*
X6768928Y-19252380D01*
X6673690Y-19204761D01*
X3435595Y-16752380D02*
X3435595Y-15752380D01*
X3816547Y-15752380D01*
X3911785Y-15800000D01*
X3959404Y-15847619D01*
X4007023Y-15942857D01*
X4007023Y-16085714D01*
X3959404Y-16180952D01*
X3911785Y-16228571D01*
X3816547Y-16276190D01*
X3435595Y-16276190D01*
X4864166Y-16752380D02*
X4864166Y-16228571D01*
X4816547Y-16133333D01*
X4721309Y-16085714D01*
X4530833Y-16085714D01*
X4435595Y-16133333D01*
X4864166Y-16704761D02*
X4768928Y-16752380D01*
X4530833Y-16752380D01*
X4435595Y-16704761D01*
X4387976Y-16609523D01*
X4387976Y-16514285D01*
X4435595Y-16419047D01*
X4530833Y-16371428D01*
X4768928Y-16371428D01*
X4864166Y-16323809D01*
X5768928Y-16752380D02*
X5768928Y-15752380D01*
X5768928Y-16704761D02*
X5673690Y-16752380D01*
X5483214Y-16752380D01*
X5387976Y-16704761D01*
X5340357Y-16657142D01*
X5292738Y-16561904D01*
X5292738Y-16276190D01*
X5340357Y-16180952D01*
X5387976Y-16133333D01*
X5483214Y-16085714D01*
X5673690Y-16085714D01*
X5768928Y-16133333D01*
X3768928Y-13628571D02*
X3911785Y-13676190D01*
X3959404Y-13723809D01*
X4007023Y-13819047D01*
X4007023Y-13961904D01*
X3959404Y-14057142D01*
X3911785Y-14104761D01*
X3816547Y-14152380D01*
X3435595Y-14152380D01*
X3435595Y-13152380D01*
X3768928Y-13152380D01*
X3864166Y-13200000D01*
X3911785Y-13247619D01*
X3959404Y-13342857D01*
X3959404Y-13438095D01*
X3911785Y-13533333D01*
X3864166Y-13580952D01*
X3768928Y-13628571D01*
X3435595Y-13628571D01*
X4864166Y-14152380D02*
X4864166Y-13628571D01*
X4816547Y-13533333D01*
X4721309Y-13485714D01*
X4530833Y-13485714D01*
X4435595Y-13533333D01*
X4864166Y-14104761D02*
X4768928Y-14152380D01*
X4530833Y-14152380D01*
X4435595Y-14104761D01*
X4387976Y-14009523D01*
X4387976Y-13914285D01*
X4435595Y-13819047D01*
X4530833Y-13771428D01*
X4768928Y-13771428D01*
X4864166Y-13723809D01*
X5483214Y-14152380D02*
X5387976Y-14104761D01*
X5340357Y-14009523D01*
X5340357Y-13152380D01*
X6007023Y-14152380D02*
X5911785Y-14104761D01*
X5864166Y-14009523D01*
X5864166Y-13152380D01*
X7340357Y-13676190D02*
X7340357Y-14152380D01*
X7007023Y-13152380D02*
X7340357Y-13676190D01*
X7673690Y-13152380D01*
X3768928Y-11128571D02*
X3911785Y-11176190D01*
X3959404Y-11223809D01*
X4007023Y-11319047D01*
X4007023Y-11461904D01*
X3959404Y-11557142D01*
X3911785Y-11604761D01*
X3816547Y-11652380D01*
X3435595Y-11652380D01*
X3435595Y-10652380D01*
X3768928Y-10652380D01*
X3864166Y-10700000D01*
X3911785Y-10747619D01*
X3959404Y-10842857D01*
X3959404Y-10938095D01*
X3911785Y-11033333D01*
X3864166Y-11080952D01*
X3768928Y-11128571D01*
X3435595Y-11128571D01*
X4864166Y-11652380D02*
X4864166Y-11128571D01*
X4816547Y-11033333D01*
X4721309Y-10985714D01*
X4530833Y-10985714D01*
X4435595Y-11033333D01*
X4864166Y-11604761D02*
X4768928Y-11652380D01*
X4530833Y-11652380D01*
X4435595Y-11604761D01*
X4387976Y-11509523D01*
X4387976Y-11414285D01*
X4435595Y-11319047D01*
X4530833Y-11271428D01*
X4768928Y-11271428D01*
X4864166Y-11223809D01*
X5483214Y-11652380D02*
X5387976Y-11604761D01*
X5340357Y-11509523D01*
X5340357Y-10652380D01*
X6007023Y-11652380D02*
X5911785Y-11604761D01*
X5864166Y-11509523D01*
X5864166Y-10652380D01*
X7054642Y-10652380D02*
X7721309Y-11652380D01*
X7721309Y-10652380D02*
X7054642Y-11652380D01*
X3638095Y-8200000D02*
X3542857Y-8152380D01*
X3400000Y-8152380D01*
X3257142Y-8200000D01*
X3161904Y-8295238D01*
X3114285Y-8390476D01*
X3066666Y-8580952D01*
X3066666Y-8723809D01*
X3114285Y-8914285D01*
X3161904Y-9009523D01*
X3257142Y-9104761D01*
X3400000Y-9152380D01*
X3495238Y-9152380D01*
X3638095Y-9104761D01*
X3685714Y-9057142D01*
X3685714Y-8723809D01*
X3495238Y-8723809D01*
X4114285Y-9152380D02*
X4114285Y-8152380D01*
X4685714Y-9152380D01*
X4685714Y-8152380D01*
X5161904Y-9152380D02*
X5161904Y-8152380D01*
X5400000Y-8152380D01*
X5542857Y-8200000D01*
X5638095Y-8295238D01*
X5685714Y-8390476D01*
X5733333Y-8580952D01*
X5733333Y-8723809D01*
X5685714Y-8914285D01*
X5638095Y-9009523D01*
X5542857Y-9104761D01*
X5400000Y-9152380D01*
X5161904Y-9152380D01*
X22207698Y-23585194D02*
X22106683Y-23618866D01*
X22005668Y-23719881D01*
X21938324Y-23854568D01*
X21938324Y-23989255D01*
X21971996Y-24090270D01*
X22073011Y-24258629D01*
X22174026Y-24359644D01*
X22342385Y-24460660D01*
X22443400Y-24494331D01*
X22578087Y-24494331D01*
X22712774Y-24426988D01*
X22780118Y-24359644D01*
X22847461Y-24224957D01*
X22847461Y-24157614D01*
X22611759Y-23921912D01*
X22477072Y-24056599D01*
X23217851Y-23921912D02*
X22510744Y-23214805D01*
X23621912Y-23517851D01*
X22914805Y-22810744D01*
X23958629Y-23181133D02*
X23251522Y-22474026D01*
X23419881Y-22305668D01*
X23554568Y-22238324D01*
X23689255Y-22238324D01*
X23790270Y-22271996D01*
X23958629Y-22373011D01*
X24059644Y-22474026D01*
X24160660Y-22642385D01*
X24194331Y-22743400D01*
X24194331Y-22878087D01*
X24126988Y-23012774D01*
X23958629Y-23181133D01*
X27341370Y-24359644D02*
X27880118Y-23820896D01*
X28115820Y-22709729D02*
X27779103Y-23046446D01*
X28082148Y-23416835D01*
X28082148Y-23349492D01*
X28115820Y-23248477D01*
X28284179Y-23080118D01*
X28385194Y-23046446D01*
X28452538Y-23046446D01*
X28553553Y-23080118D01*
X28721912Y-23248477D01*
X28755583Y-23349492D01*
X28755583Y-23416835D01*
X28721912Y-23517851D01*
X28553553Y-23686209D01*
X28452538Y-23719881D01*
X28385194Y-23719881D01*
X28351522Y-22474026D02*
X29294331Y-22945431D01*
X28822927Y-22002622D01*
X24404652Y-24696362D02*
X24943400Y-24157614D01*
X25919881Y-23719881D02*
X25515820Y-24123942D01*
X25717851Y-23921912D02*
X25010744Y-23214805D01*
X25044416Y-23383164D01*
X25044416Y-23517851D01*
X25010744Y-23618866D01*
X25852538Y-22373011D02*
X25515820Y-22709729D01*
X25818866Y-23080118D01*
X25818866Y-23012774D01*
X25852538Y-22911759D01*
X26020896Y-22743400D01*
X26121912Y-22709729D01*
X26189255Y-22709729D01*
X26290270Y-22743400D01*
X26458629Y-22911759D01*
X26492301Y-23012774D01*
X26492301Y-23080118D01*
X26458629Y-23181133D01*
X26290270Y-23349492D01*
X26189255Y-23383164D01*
X26121912Y-23383164D01*
X26088240Y-22137309D02*
X27031049Y-22608713D01*
X26559644Y-21665904D01*
X19404652Y-24696362D02*
X19943400Y-24157614D01*
X19943400Y-24696362D02*
X19404652Y-24157614D01*
X20919881Y-23719881D02*
X20515820Y-24123942D01*
X20717851Y-23921912D02*
X20010744Y-23214805D01*
X20044416Y-23383164D01*
X20044416Y-23517851D01*
X20010744Y-23618866D01*
X20852538Y-22373011D02*
X20515820Y-22709729D01*
X20818866Y-23080118D01*
X20818866Y-23012774D01*
X20852538Y-22911759D01*
X21020896Y-22743400D01*
X21121912Y-22709729D01*
X21189255Y-22709729D01*
X21290270Y-22743400D01*
X21458629Y-22911759D01*
X21492301Y-23012774D01*
X21492301Y-23080118D01*
X21458629Y-23181133D01*
X21290270Y-23349492D01*
X21189255Y-23383164D01*
X21121912Y-23383164D01*
X21088240Y-22137309D02*
X22031049Y-22608713D01*
X21559644Y-21665904D01*
X17141370Y-24359644D02*
X17680118Y-23820896D01*
X17680118Y-24359644D02*
X17141370Y-23820896D01*
X17915820Y-22709729D02*
X17579103Y-23046446D01*
X17882148Y-23416835D01*
X17882148Y-23349492D01*
X17915820Y-23248477D01*
X18084179Y-23080118D01*
X18185194Y-23046446D01*
X18252538Y-23046446D01*
X18353553Y-23080118D01*
X18521912Y-23248477D01*
X18555583Y-23349492D01*
X18555583Y-23416835D01*
X18521912Y-23517851D01*
X18353553Y-23686209D01*
X18252538Y-23719881D01*
X18185194Y-23719881D01*
X18151522Y-22474026D02*
X19094331Y-22945431D01*
X18622927Y-22002622D01*
D12*
X47900000Y-12964285D02*
X47900000Y-13678571D01*
X47400000Y-12178571D02*
X47900000Y-12964285D01*
X48400000Y-12178571D01*
X47400000Y-9478571D02*
X48400000Y-10978571D01*
X48400000Y-9478571D02*
X47400000Y-10978571D01*
D13*
X51830000Y-14270000D02*
X50500000Y-14270000D01*
X51830000Y-12940000D02*
X51830000Y-14270000D01*
X51830000Y-11670000D02*
X49170000Y-11670000D01*
X49170000Y-11670000D02*
X49170000Y-9070000D01*
X51830000Y-11670000D02*
X51830000Y-9070000D01*
X51830000Y-9070000D02*
X49170000Y-9070000D01*
X18250000Y-12060000D02*
X18250000Y-13310000D01*
X28530000Y-12060000D02*
X18250000Y-12060000D01*
X28530000Y-16560000D02*
X28530000Y-12060000D01*
X18250000Y-16560000D02*
X28530000Y-16560000D01*
X18250000Y-15310000D02*
X18250000Y-16560000D01*
X18250000Y-13310000D02*
G75*
G02X18250000Y-15310000I0J-1000000D01*
G01*
X47220000Y-18700000D02*
X46600000Y-18700000D01*
X49060000Y-18700000D02*
G75*
G03X49060000Y-18700000I-920000J0D01*
G01*
X39020000Y-26000000D02*
X38400000Y-26000000D01*
X40860000Y-26000000D02*
G75*
G03X40860000Y-26000000I-920000J0D01*
G01*
X38980000Y-22600000D02*
X38360000Y-22600000D01*
X40820000Y-22600000D02*
G75*
G03X40820000Y-22600000I-920000J0D01*
G01*
X40400000Y-11980000D02*
X40400000Y-11030000D01*
X40400000Y-6240000D02*
X40400000Y-7190000D01*
X41320000Y-11030000D02*
X41320000Y-7190000D01*
X39480000Y-11030000D02*
X41320000Y-11030000D01*
X39480000Y-7190000D02*
X39480000Y-11030000D01*
X41320000Y-7190000D02*
X39480000Y-7190000D01*
X6700000Y-7280000D02*
X6700000Y-7900000D01*
X7620000Y-6360000D02*
G75*
G03X7620000Y-6360000I-920000J0D01*
G01*
X12000000Y-25280000D02*
X12000000Y-25900000D01*
X12920000Y-24360000D02*
G75*
G03X12920000Y-24360000I-920000J0D01*
G01*
X12000000Y-2680000D02*
X12000000Y-2060000D01*
X12920000Y-3600000D02*
G75*
G03X12920000Y-3600000I-920000J0D01*
G01*
X46620000Y-21200000D02*
X47240000Y-21200000D01*
X46620000Y-21200000D02*
G75*
G03X46620000Y-21200000I-920000J0D01*
G01*
X39570000Y-17970000D02*
X40900000Y-17970000D01*
X39570000Y-19300000D02*
X39570000Y-17970000D01*
X39570000Y-20570000D02*
X42230000Y-20570000D01*
X42230000Y-20570000D02*
X42230000Y-20630000D01*
X39570000Y-20570000D02*
X39570000Y-20630000D01*
X39570000Y-20630000D02*
X42230000Y-20630000D01*
X31453850Y-16868866D02*
G75*
G02X31513239Y-15000000I-1053850J968866D01*
G01*
X31453850Y-13668866D02*
G75*
G02X31513239Y-11800000I-1053850J968866D01*
G01*
X15200000Y-23920000D02*
X15200000Y-23300000D01*
X16120000Y-24840000D02*
G75*
G03X16120000Y-24840000I-920000J0D01*
G01*
X15200000Y-4080000D02*
X15200000Y-4700000D01*
X16120000Y-3160000D02*
G75*
G03X16120000Y-3160000I-920000J0D01*
G01*
X12000000Y-21180000D02*
X12000000Y-20560000D01*
X12920000Y-22100000D02*
G75*
G03X12920000Y-22100000I-920000J0D01*
G01*
X12000000Y-16580000D02*
X12000000Y-15960000D01*
X12920000Y-17500000D02*
G75*
G03X12920000Y-17500000I-920000J0D01*
G01*
X12000000Y-11320000D02*
X12000000Y-11940000D01*
X12920000Y-10400000D02*
G75*
G03X12920000Y-10400000I-920000J0D01*
G01*
X12000000Y-6720000D02*
X12000000Y-7340000D01*
X12920000Y-5800000D02*
G75*
G03X12920000Y-5800000I-920000J0D01*
G01*
X41870000Y-25660000D02*
X41870000Y-26910000D01*
X52150000Y-25660000D02*
X41870000Y-25660000D01*
X52150000Y-30160000D02*
X52150000Y-25660000D01*
X41870000Y-30160000D02*
X52150000Y-30160000D01*
X41870000Y-28910000D02*
X41870000Y-30160000D01*
X41870000Y-26910000D02*
G75*
G02X41870000Y-28910000I0J-1000000D01*
G01*
X250000Y-25640000D02*
X250000Y-26890000D01*
X10530000Y-25640000D02*
X250000Y-25640000D01*
X10530000Y-30140000D02*
X10530000Y-25640000D01*
X250000Y-30140000D02*
X10530000Y-30140000D01*
X250000Y-28890000D02*
X250000Y-30140000D01*
X250000Y-26890000D02*
G75*
G02X250000Y-28890000I0J-1000000D01*
G01*
X41870000Y2360000D02*
X41870000Y1110000D01*
X52150000Y2360000D02*
X41870000Y2360000D01*
X52150000Y-2140000D02*
X52150000Y2360000D01*
X41870000Y-2140000D02*
X52150000Y-2140000D01*
X41870000Y-890000D02*
X41870000Y-2140000D01*
X41870000Y1110000D02*
G75*
G02X41870000Y-890000I0J-1000000D01*
G01*
X250000Y2260000D02*
X250000Y1010000D01*
X10530000Y2260000D02*
X250000Y2260000D01*
X10530000Y-2240000D02*
X10530000Y2260000D01*
X250000Y-2240000D02*
X10530000Y-2240000D01*
X250000Y-990000D02*
X250000Y-2240000D01*
X250000Y1010000D02*
G75*
G02X250000Y-990000I0J-1000000D01*
G01*
X38200000Y-11980000D02*
X38200000Y-11030000D01*
X38200000Y-6240000D02*
X38200000Y-7190000D01*
X39120000Y-11030000D02*
X39120000Y-7190000D01*
X37280000Y-11030000D02*
X39120000Y-11030000D01*
X37280000Y-7190000D02*
X37280000Y-11030000D01*
X39120000Y-7190000D02*
X37280000Y-7190000D01*
X36000000Y-11980000D02*
X36000000Y-11030000D01*
X36000000Y-6240000D02*
X36000000Y-7190000D01*
X36920000Y-11030000D02*
X36920000Y-7190000D01*
X35080000Y-11030000D02*
X36920000Y-11030000D01*
X35080000Y-7190000D02*
X35080000Y-11030000D01*
X36920000Y-7190000D02*
X35080000Y-7190000D01*
X22440000Y-20800000D02*
X23390000Y-20800000D01*
X28180000Y-20800000D02*
X27230000Y-20800000D01*
X23390000Y-21720000D02*
X27230000Y-21720000D01*
X23390000Y-19880000D02*
X23390000Y-21720000D01*
X27230000Y-19880000D02*
X23390000Y-19880000D01*
X27230000Y-21720000D02*
X27230000Y-19880000D01*
X22440000Y-7900000D02*
X23390000Y-7900000D01*
X28180000Y-7900000D02*
X27230000Y-7900000D01*
X23390000Y-8820000D02*
X27230000Y-8820000D01*
X23390000Y-6980000D02*
X23390000Y-8820000D01*
X27230000Y-6980000D02*
X23390000Y-6980000D01*
X27230000Y-8820000D02*
X27230000Y-6980000D01*
X30877205Y-23124184D02*
G75*
G02X30150000Y-22600000I1122795J2324184D01*
G01*
X33098807Y-23156400D02*
G75*
G03X34600000Y-20800000I-1098807J2356400D01*
G01*
X33098807Y-18443600D02*
G75*
G02X34600000Y-20800000I-1098807J-2356400D01*
G01*
X30877205Y-18475816D02*
G75*
G03X30150000Y-19000000I1122795J-2324184D01*
G01*
X30150000Y-19000000D02*
X30150000Y-22600000D01*
X33922795Y-5575816D02*
G75*
G02X34650000Y-6100000I-1122795J-2324184D01*
G01*
X31701193Y-5543600D02*
G75*
G03X30200000Y-7900000I1098807J-2356400D01*
G01*
X31701193Y-10256400D02*
G75*
G02X30200000Y-7900000I1098807J2356400D01*
G01*
X33922795Y-10224184D02*
G75*
G03X34650000Y-9700000I-1122795J2324184D01*
G01*
X34650000Y-9700000D02*
X34650000Y-6100000D01*
X14077205Y-20064184D02*
G75*
G02X13350000Y-19540000I1122795J2324184D01*
G01*
X16298807Y-20096400D02*
G75*
G03X17800000Y-17740000I-1098807J2356400D01*
G01*
X16298807Y-15383600D02*
G75*
G02X17800000Y-17740000I-1098807J-2356400D01*
G01*
X14077205Y-15415816D02*
G75*
G03X13350000Y-15940000I1122795J-2324184D01*
G01*
X13350000Y-15940000D02*
X13350000Y-19540000D01*
X14077205Y-12584184D02*
G75*
G02X13350000Y-12060000I1122795J2324184D01*
G01*
X16298807Y-12616400D02*
G75*
G03X17800000Y-10260000I-1098807J2356400D01*
G01*
X16298807Y-7903600D02*
G75*
G02X17800000Y-10260000I-1098807J-2356400D01*
G01*
X14077205Y-7935816D02*
G75*
G03X13350000Y-8460000I1122795J-2324184D01*
G01*
X13350000Y-8460000D02*
X13350000Y-12060000D01*
X39570000Y-17030000D02*
X39570000Y-15700000D01*
X40900000Y-17030000D02*
X39570000Y-17030000D01*
X42170000Y-17030000D02*
X42170000Y-14370000D01*
X42170000Y-14370000D02*
X42230000Y-14370000D01*
X42170000Y-17030000D02*
X42230000Y-17030000D01*
X42230000Y-17030000D02*
X42230000Y-14370000D01*
X35970000Y-17970000D02*
X37300000Y-17970000D01*
X35970000Y-19300000D02*
X35970000Y-17970000D01*
X35970000Y-20570000D02*
X38630000Y-20570000D01*
X38630000Y-20570000D02*
X38630000Y-20630000D01*
X35970000Y-20570000D02*
X35970000Y-20630000D01*
X35970000Y-20630000D02*
X38630000Y-20630000D01*
X470000Y-7270000D02*
X1800000Y-7270000D01*
X470000Y-8600000D02*
X470000Y-7270000D01*
X470000Y-9870000D02*
X3130000Y-9870000D01*
X3130000Y-9870000D02*
X3130000Y-20090000D01*
X470000Y-9870000D02*
X470000Y-20090000D01*
X470000Y-20090000D02*
X3130000Y-20090000D01*
X16870000Y-1900000D02*
X16870000Y-570000D01*
X16870000Y-570000D02*
X18200000Y-570000D01*
X19470000Y-570000D02*
X29690000Y-570000D01*
X29690000Y-3230000D02*
X29690000Y-570000D01*
X19470000Y-3230000D02*
X29690000Y-3230000D01*
X19470000Y-3230000D02*
X19470000Y-570000D01*
X16670000Y-26000000D02*
X16670000Y-24670000D01*
X16670000Y-24670000D02*
X18000000Y-24670000D01*
X19270000Y-24670000D02*
X29490000Y-24670000D01*
X29490000Y-27330000D02*
X29490000Y-24670000D01*
X19270000Y-27330000D02*
X29490000Y-27330000D01*
X19270000Y-27330000D02*
X19270000Y-24670000D01*
D10*
X50166666Y-14952380D02*
X50166666Y-15666666D01*
X50119047Y-15809523D01*
X50023809Y-15904761D01*
X49880952Y-15952380D01*
X49785714Y-15952380D01*
X50547619Y-14952380D02*
X51214285Y-14952380D01*
X50785714Y-15952380D01*
X18838095Y-7752380D02*
X18838095Y-8561904D01*
X18885714Y-8657142D01*
X18933333Y-8704761D01*
X19028571Y-8752380D01*
X19219047Y-8752380D01*
X19314285Y-8704761D01*
X19361904Y-8657142D01*
X19409523Y-8561904D01*
X19409523Y-7752380D01*
X19790476Y-7752380D02*
X20409523Y-7752380D01*
X20076190Y-8133333D01*
X20219047Y-8133333D01*
X20314285Y-8180952D01*
X20361904Y-8228571D01*
X20409523Y-8323809D01*
X20409523Y-8561904D01*
X20361904Y-8657142D01*
X20314285Y-8704761D01*
X20219047Y-8752380D01*
X19933333Y-8752380D01*
X19838095Y-8704761D01*
X19790476Y-8657142D01*
X50057142Y-21652380D02*
X49723809Y-21176190D01*
X49485714Y-21652380D02*
X49485714Y-20652380D01*
X49866666Y-20652380D01*
X49961904Y-20700000D01*
X50009523Y-20747619D01*
X50057142Y-20842857D01*
X50057142Y-20985714D01*
X50009523Y-21080952D01*
X49961904Y-21128571D01*
X49866666Y-21176190D01*
X49485714Y-21176190D01*
X51009523Y-21652380D02*
X50438095Y-21652380D01*
X50723809Y-21652380D02*
X50723809Y-20652380D01*
X50628571Y-20795238D01*
X50533333Y-20890476D01*
X50438095Y-20938095D01*
X51580952Y-21080952D02*
X51485714Y-21033333D01*
X51438095Y-20985714D01*
X51390476Y-20890476D01*
X51390476Y-20842857D01*
X51438095Y-20747619D01*
X51485714Y-20700000D01*
X51580952Y-20652380D01*
X51771428Y-20652380D01*
X51866666Y-20700000D01*
X51914285Y-20747619D01*
X51961904Y-20842857D01*
X51961904Y-20890476D01*
X51914285Y-20985714D01*
X51866666Y-21033333D01*
X51771428Y-21080952D01*
X51580952Y-21080952D01*
X51485714Y-21128571D01*
X51438095Y-21176190D01*
X51390476Y-21271428D01*
X51390476Y-21461904D01*
X51438095Y-21557142D01*
X51485714Y-21604761D01*
X51580952Y-21652380D01*
X51771428Y-21652380D01*
X51866666Y-21604761D01*
X51914285Y-21557142D01*
X51961904Y-21461904D01*
X51961904Y-21271428D01*
X51914285Y-21176190D01*
X51866666Y-21128571D01*
X51771428Y-21080952D01*
X34357142Y-26452380D02*
X34023809Y-25976190D01*
X33785714Y-26452380D02*
X33785714Y-25452380D01*
X34166666Y-25452380D01*
X34261904Y-25500000D01*
X34309523Y-25547619D01*
X34357142Y-25642857D01*
X34357142Y-25785714D01*
X34309523Y-25880952D01*
X34261904Y-25928571D01*
X34166666Y-25976190D01*
X33785714Y-25976190D01*
X35309523Y-26452380D02*
X34738095Y-26452380D01*
X35023809Y-26452380D02*
X35023809Y-25452380D01*
X34928571Y-25595238D01*
X34833333Y-25690476D01*
X34738095Y-25738095D01*
X35642857Y-25452380D02*
X36309523Y-25452380D01*
X35880952Y-26452380D01*
X41657142Y-22452380D02*
X41323809Y-21976190D01*
X41085714Y-22452380D02*
X41085714Y-21452380D01*
X41466666Y-21452380D01*
X41561904Y-21500000D01*
X41609523Y-21547619D01*
X41657142Y-21642857D01*
X41657142Y-21785714D01*
X41609523Y-21880952D01*
X41561904Y-21928571D01*
X41466666Y-21976190D01*
X41085714Y-21976190D01*
X42609523Y-22452380D02*
X42038095Y-22452380D01*
X42323809Y-22452380D02*
X42323809Y-21452380D01*
X42228571Y-21595238D01*
X42133333Y-21690476D01*
X42038095Y-21738095D01*
X43514285Y-21452380D02*
X43038095Y-21452380D01*
X42990476Y-21928571D01*
X43038095Y-21880952D01*
X43133333Y-21833333D01*
X43371428Y-21833333D01*
X43466666Y-21880952D01*
X43514285Y-21928571D01*
X43561904Y-22023809D01*
X43561904Y-22261904D01*
X43514285Y-22357142D01*
X43466666Y-22404761D01*
X43371428Y-22452380D01*
X43133333Y-22452380D01*
X43038095Y-22404761D01*
X42990476Y-22357142D01*
X40952380Y-9742857D02*
X40476190Y-10076190D01*
X40952380Y-10314285D02*
X39952380Y-10314285D01*
X39952380Y-9933333D01*
X40000000Y-9838095D01*
X40047619Y-9790476D01*
X40142857Y-9742857D01*
X40285714Y-9742857D01*
X40380952Y-9790476D01*
X40428571Y-9838095D01*
X40476190Y-9933333D01*
X40476190Y-10314285D01*
X40047619Y-9361904D02*
X40000000Y-9314285D01*
X39952380Y-9219047D01*
X39952380Y-8980952D01*
X40000000Y-8885714D01*
X40047619Y-8838095D01*
X40142857Y-8790476D01*
X40238095Y-8790476D01*
X40380952Y-8838095D01*
X40952380Y-9409523D01*
X40952380Y-8790476D01*
X39952380Y-8457142D02*
X39952380Y-7838095D01*
X40333333Y-8171428D01*
X40333333Y-8028571D01*
X40380952Y-7933333D01*
X40428571Y-7885714D01*
X40523809Y-7838095D01*
X40761904Y-7838095D01*
X40857142Y-7885714D01*
X40904761Y-7933333D01*
X40952380Y-8028571D01*
X40952380Y-8314285D01*
X40904761Y-8409523D01*
X40857142Y-8457142D01*
X9072380Y-8272857D02*
X8596190Y-8606190D01*
X9072380Y-8844285D02*
X8072380Y-8844285D01*
X8072380Y-8463333D01*
X8120000Y-8368095D01*
X8167619Y-8320476D01*
X8262857Y-8272857D01*
X8405714Y-8272857D01*
X8500952Y-8320476D01*
X8548571Y-8368095D01*
X8596190Y-8463333D01*
X8596190Y-8844285D01*
X9072380Y-7320476D02*
X9072380Y-7891904D01*
X9072380Y-7606190D02*
X8072380Y-7606190D01*
X8215238Y-7701428D01*
X8310476Y-7796666D01*
X8358095Y-7891904D01*
X8072380Y-6701428D02*
X8072380Y-6606190D01*
X8120000Y-6510952D01*
X8167619Y-6463333D01*
X8262857Y-6415714D01*
X8453333Y-6368095D01*
X8691428Y-6368095D01*
X8881904Y-6415714D01*
X8977142Y-6463333D01*
X9024761Y-6510952D01*
X9072380Y-6606190D01*
X9072380Y-6701428D01*
X9024761Y-6796666D01*
X8977142Y-6844285D01*
X8881904Y-6891904D01*
X8691428Y-6939523D01*
X8453333Y-6939523D01*
X8262857Y-6891904D01*
X8167619Y-6844285D01*
X8120000Y-6796666D01*
X8072380Y-6701428D01*
X13952380Y-25866666D02*
X13476190Y-26200000D01*
X13952380Y-26438095D02*
X12952380Y-26438095D01*
X12952380Y-26057142D01*
X13000000Y-25961904D01*
X13047619Y-25914285D01*
X13142857Y-25866666D01*
X13285714Y-25866666D01*
X13380952Y-25914285D01*
X13428571Y-25961904D01*
X13476190Y-26057142D01*
X13476190Y-26438095D01*
X13380952Y-25295238D02*
X13333333Y-25390476D01*
X13285714Y-25438095D01*
X13190476Y-25485714D01*
X13142857Y-25485714D01*
X13047619Y-25438095D01*
X13000000Y-25390476D01*
X12952380Y-25295238D01*
X12952380Y-25104761D01*
X13000000Y-25009523D01*
X13047619Y-24961904D01*
X13142857Y-24914285D01*
X13190476Y-24914285D01*
X13285714Y-24961904D01*
X13333333Y-25009523D01*
X13380952Y-25104761D01*
X13380952Y-25295238D01*
X13428571Y-25390476D01*
X13476190Y-25438095D01*
X13571428Y-25485714D01*
X13761904Y-25485714D01*
X13857142Y-25438095D01*
X13904761Y-25390476D01*
X13952380Y-25295238D01*
X13952380Y-25104761D01*
X13904761Y-25009523D01*
X13857142Y-24961904D01*
X13761904Y-24914285D01*
X13571428Y-24914285D01*
X13476190Y-24961904D01*
X13428571Y-25009523D01*
X13380952Y-25104761D01*
X13733333Y-1152380D02*
X13400000Y-676190D01*
X13161904Y-1152380D02*
X13161904Y-152380D01*
X13542857Y-152380D01*
X13638095Y-200000D01*
X13685714Y-247619D01*
X13733333Y-342857D01*
X13733333Y-485714D01*
X13685714Y-580952D01*
X13638095Y-628571D01*
X13542857Y-676190D01*
X13161904Y-676190D01*
X14066666Y-152380D02*
X14733333Y-152380D01*
X14304761Y-1152380D01*
X50057142Y-19152380D02*
X49723809Y-18676190D01*
X49485714Y-19152380D02*
X49485714Y-18152380D01*
X49866666Y-18152380D01*
X49961904Y-18200000D01*
X50009523Y-18247619D01*
X50057142Y-18342857D01*
X50057142Y-18485714D01*
X50009523Y-18580952D01*
X49961904Y-18628571D01*
X49866666Y-18676190D01*
X49485714Y-18676190D01*
X50438095Y-18247619D02*
X50485714Y-18200000D01*
X50580952Y-18152380D01*
X50819047Y-18152380D01*
X50914285Y-18200000D01*
X50961904Y-18247619D01*
X51009523Y-18342857D01*
X51009523Y-18438095D01*
X50961904Y-18580952D01*
X50390476Y-19152380D01*
X51009523Y-19152380D01*
X51961904Y-19152380D02*
X51390476Y-19152380D01*
X51676190Y-19152380D02*
X51676190Y-18152380D01*
X51580952Y-18295238D01*
X51485714Y-18390476D01*
X51390476Y-18438095D01*
X42852380Y-19633333D02*
X43566666Y-19633333D01*
X43709523Y-19680952D01*
X43804761Y-19776190D01*
X43852380Y-19919047D01*
X43852380Y-20014285D01*
X42852380Y-18680952D02*
X42852380Y-19157142D01*
X43328571Y-19204761D01*
X43280952Y-19157142D01*
X43233333Y-19061904D01*
X43233333Y-18823809D01*
X43280952Y-18728571D01*
X43328571Y-18680952D01*
X43423809Y-18633333D01*
X43661904Y-18633333D01*
X43757142Y-18680952D01*
X43804761Y-18728571D01*
X43852380Y-18823809D01*
X43852380Y-19061904D01*
X43804761Y-19157142D01*
X43757142Y-19204761D01*
X28861904Y-18652380D02*
X28861904Y-17652380D01*
X29100000Y-17652380D01*
X29242857Y-17700000D01*
X29338095Y-17795238D01*
X29385714Y-17890476D01*
X29433333Y-18080952D01*
X29433333Y-18223809D01*
X29385714Y-18414285D01*
X29338095Y-18509523D01*
X29242857Y-18604761D01*
X29100000Y-18652380D01*
X28861904Y-18652380D01*
X29814285Y-17747619D02*
X29861904Y-17700000D01*
X29957142Y-17652380D01*
X30195238Y-17652380D01*
X30290476Y-17700000D01*
X30338095Y-17747619D01*
X30385714Y-17842857D01*
X30385714Y-17938095D01*
X30338095Y-18080952D01*
X29766666Y-18652380D01*
X30385714Y-18652380D01*
X34261904Y-16066666D02*
X34738095Y-16066666D01*
X34166666Y-16352380D02*
X34500000Y-15352380D01*
X34833333Y-16352380D01*
X29061904Y-10852380D02*
X29061904Y-9852380D01*
X29300000Y-9852380D01*
X29442857Y-9900000D01*
X29538095Y-9995238D01*
X29585714Y-10090476D01*
X29633333Y-10280952D01*
X29633333Y-10423809D01*
X29585714Y-10614285D01*
X29538095Y-10709523D01*
X29442857Y-10804761D01*
X29300000Y-10852380D01*
X29061904Y-10852380D01*
X30585714Y-10852380D02*
X30014285Y-10852380D01*
X30300000Y-10852380D02*
X30300000Y-9852380D01*
X30204761Y-9995238D01*
X30109523Y-10090476D01*
X30014285Y-10138095D01*
X34261904Y-12866666D02*
X34738095Y-12866666D01*
X34166666Y-13152380D02*
X34500000Y-12152380D01*
X34833333Y-13152380D01*
X14452380Y-23566666D02*
X13976190Y-23900000D01*
X14452380Y-24138095D02*
X13452380Y-24138095D01*
X13452380Y-23757142D01*
X13500000Y-23661904D01*
X13547619Y-23614285D01*
X13642857Y-23566666D01*
X13785714Y-23566666D01*
X13880952Y-23614285D01*
X13928571Y-23661904D01*
X13976190Y-23757142D01*
X13976190Y-24138095D01*
X13452380Y-22709523D02*
X13452380Y-22900000D01*
X13500000Y-22995238D01*
X13547619Y-23042857D01*
X13690476Y-23138095D01*
X13880952Y-23185714D01*
X14261904Y-23185714D01*
X14357142Y-23138095D01*
X14404761Y-23090476D01*
X14452380Y-22995238D01*
X14452380Y-22804761D01*
X14404761Y-22709523D01*
X14357142Y-22661904D01*
X14261904Y-22614285D01*
X14023809Y-22614285D01*
X13928571Y-22661904D01*
X13880952Y-22709523D01*
X13833333Y-22804761D01*
X13833333Y-22995238D01*
X13880952Y-23090476D01*
X13928571Y-23138095D01*
X14023809Y-23185714D01*
X17133333Y-6312380D02*
X16800000Y-5836190D01*
X16561904Y-6312380D02*
X16561904Y-5312380D01*
X16942857Y-5312380D01*
X17038095Y-5360000D01*
X17085714Y-5407619D01*
X17133333Y-5502857D01*
X17133333Y-5645714D01*
X17085714Y-5740952D01*
X17038095Y-5788571D01*
X16942857Y-5836190D01*
X16561904Y-5836190D01*
X18038095Y-5312380D02*
X17561904Y-5312380D01*
X17514285Y-5788571D01*
X17561904Y-5740952D01*
X17657142Y-5693333D01*
X17895238Y-5693333D01*
X17990476Y-5740952D01*
X18038095Y-5788571D01*
X18085714Y-5883809D01*
X18085714Y-6121904D01*
X18038095Y-6217142D01*
X17990476Y-6264761D01*
X17895238Y-6312380D01*
X17657142Y-6312380D01*
X17561904Y-6264761D01*
X17514285Y-6217142D01*
X10752380Y-21066666D02*
X10276190Y-21400000D01*
X10752380Y-21638095D02*
X9752380Y-21638095D01*
X9752380Y-21257142D01*
X9800000Y-21161904D01*
X9847619Y-21114285D01*
X9942857Y-21066666D01*
X10085714Y-21066666D01*
X10180952Y-21114285D01*
X10228571Y-21161904D01*
X10276190Y-21257142D01*
X10276190Y-21638095D01*
X10085714Y-20209523D02*
X10752380Y-20209523D01*
X9704761Y-20447619D02*
X10419047Y-20685714D01*
X10419047Y-20066666D01*
X10752380Y-16396666D02*
X10276190Y-16730000D01*
X10752380Y-16968095D02*
X9752380Y-16968095D01*
X9752380Y-16587142D01*
X9800000Y-16491904D01*
X9847619Y-16444285D01*
X9942857Y-16396666D01*
X10085714Y-16396666D01*
X10180952Y-16444285D01*
X10228571Y-16491904D01*
X10276190Y-16587142D01*
X10276190Y-16968095D01*
X9752380Y-16063333D02*
X9752380Y-15444285D01*
X10133333Y-15777619D01*
X10133333Y-15634761D01*
X10180952Y-15539523D01*
X10228571Y-15491904D01*
X10323809Y-15444285D01*
X10561904Y-15444285D01*
X10657142Y-15491904D01*
X10704761Y-15539523D01*
X10752380Y-15634761D01*
X10752380Y-15920476D01*
X10704761Y-16015714D01*
X10657142Y-16063333D01*
X10752380Y-11866666D02*
X10276190Y-12200000D01*
X10752380Y-12438095D02*
X9752380Y-12438095D01*
X9752380Y-12057142D01*
X9800000Y-11961904D01*
X9847619Y-11914285D01*
X9942857Y-11866666D01*
X10085714Y-11866666D01*
X10180952Y-11914285D01*
X10228571Y-11961904D01*
X10276190Y-12057142D01*
X10276190Y-12438095D01*
X9847619Y-11485714D02*
X9800000Y-11438095D01*
X9752380Y-11342857D01*
X9752380Y-11104761D01*
X9800000Y-11009523D01*
X9847619Y-10961904D01*
X9942857Y-10914285D01*
X10038095Y-10914285D01*
X10180952Y-10961904D01*
X10752380Y-11533333D01*
X10752380Y-10914285D01*
X10752380Y-7236666D02*
X10276190Y-7570000D01*
X10752380Y-7808095D02*
X9752380Y-7808095D01*
X9752380Y-7427142D01*
X9800000Y-7331904D01*
X9847619Y-7284285D01*
X9942857Y-7236666D01*
X10085714Y-7236666D01*
X10180952Y-7284285D01*
X10228571Y-7331904D01*
X10276190Y-7427142D01*
X10276190Y-7808095D01*
X10752380Y-6284285D02*
X10752380Y-6855714D01*
X10752380Y-6570000D02*
X9752380Y-6570000D01*
X9895238Y-6665238D01*
X9990476Y-6760476D01*
X10038095Y-6855714D01*
X43438095Y-26152380D02*
X43438095Y-26961904D01*
X43485714Y-27057142D01*
X43533333Y-27104761D01*
X43628571Y-27152380D01*
X43819047Y-27152380D01*
X43914285Y-27104761D01*
X43961904Y-27057142D01*
X44009523Y-26961904D01*
X44009523Y-26152380D01*
X44914285Y-26152380D02*
X44723809Y-26152380D01*
X44628571Y-26200000D01*
X44580952Y-26247619D01*
X44485714Y-26390476D01*
X44438095Y-26580952D01*
X44438095Y-26961904D01*
X44485714Y-27057142D01*
X44533333Y-27104761D01*
X44628571Y-27152380D01*
X44819047Y-27152380D01*
X44914285Y-27104761D01*
X44961904Y-27057142D01*
X45009523Y-26961904D01*
X45009523Y-26723809D01*
X44961904Y-26628571D01*
X44914285Y-26580952D01*
X44819047Y-26533333D01*
X44628571Y-26533333D01*
X44533333Y-26580952D01*
X44485714Y-26628571D01*
X44438095Y-26723809D01*
X1538095Y-26052380D02*
X1538095Y-26861904D01*
X1585714Y-26957142D01*
X1633333Y-27004761D01*
X1728571Y-27052380D01*
X1919047Y-27052380D01*
X2014285Y-27004761D01*
X2061904Y-26957142D01*
X2109523Y-26861904D01*
X2109523Y-26052380D01*
X2538095Y-26147619D02*
X2585714Y-26100000D01*
X2680952Y-26052380D01*
X2919047Y-26052380D01*
X3014285Y-26100000D01*
X3061904Y-26147619D01*
X3109523Y-26242857D01*
X3109523Y-26338095D01*
X3061904Y-26480952D01*
X2490476Y-27052380D01*
X3109523Y-27052380D01*
X43738095Y-552380D02*
X43738095Y-1361904D01*
X43785714Y-1457142D01*
X43833333Y-1504761D01*
X43928571Y-1552380D01*
X44119047Y-1552380D01*
X44214285Y-1504761D01*
X44261904Y-1457142D01*
X44309523Y-1361904D01*
X44309523Y-552380D01*
X45261904Y-552380D02*
X44785714Y-552380D01*
X44738095Y-1028571D01*
X44785714Y-980952D01*
X44880952Y-933333D01*
X45119047Y-933333D01*
X45214285Y-980952D01*
X45261904Y-1028571D01*
X45309523Y-1123809D01*
X45309523Y-1361904D01*
X45261904Y-1457142D01*
X45214285Y-1504761D01*
X45119047Y-1552380D01*
X44880952Y-1552380D01*
X44785714Y-1504761D01*
X44738095Y-1457142D01*
X1838095Y-652380D02*
X1838095Y-1461904D01*
X1885714Y-1557142D01*
X1933333Y-1604761D01*
X2028571Y-1652380D01*
X2219047Y-1652380D01*
X2314285Y-1604761D01*
X2361904Y-1557142D01*
X2409523Y-1461904D01*
X2409523Y-652380D01*
X3409523Y-1652380D02*
X2838095Y-1652380D01*
X3123809Y-1652380D02*
X3123809Y-652380D01*
X3028571Y-795238D01*
X2933333Y-890476D01*
X2838095Y-938095D01*
X38652380Y-9742857D02*
X38176190Y-10076190D01*
X38652380Y-10314285D02*
X37652380Y-10314285D01*
X37652380Y-9933333D01*
X37700000Y-9838095D01*
X37747619Y-9790476D01*
X37842857Y-9742857D01*
X37985714Y-9742857D01*
X38080952Y-9790476D01*
X38128571Y-9838095D01*
X38176190Y-9933333D01*
X38176190Y-10314285D01*
X38652380Y-8790476D02*
X38652380Y-9361904D01*
X38652380Y-9076190D02*
X37652380Y-9076190D01*
X37795238Y-9171428D01*
X37890476Y-9266666D01*
X37938095Y-9361904D01*
X37985714Y-7933333D02*
X38652380Y-7933333D01*
X37604761Y-8171428D02*
X38319047Y-8409523D01*
X38319047Y-7790476D01*
X36452380Y-9742857D02*
X35976190Y-10076190D01*
X36452380Y-10314285D02*
X35452380Y-10314285D01*
X35452380Y-9933333D01*
X35500000Y-9838095D01*
X35547619Y-9790476D01*
X35642857Y-9742857D01*
X35785714Y-9742857D01*
X35880952Y-9790476D01*
X35928571Y-9838095D01*
X35976190Y-9933333D01*
X35976190Y-10314285D01*
X36452380Y-8790476D02*
X36452380Y-9361904D01*
X36452380Y-9076190D02*
X35452380Y-9076190D01*
X35595238Y-9171428D01*
X35690476Y-9266666D01*
X35738095Y-9361904D01*
X35452380Y-8457142D02*
X35452380Y-7838095D01*
X35833333Y-8171428D01*
X35833333Y-8028571D01*
X35880952Y-7933333D01*
X35928571Y-7885714D01*
X36023809Y-7838095D01*
X36261904Y-7838095D01*
X36357142Y-7885714D01*
X36404761Y-7933333D01*
X36452380Y-8028571D01*
X36452380Y-8314285D01*
X36404761Y-8409523D01*
X36357142Y-8457142D01*
X24657142Y-21252380D02*
X24323809Y-20776190D01*
X24085714Y-21252380D02*
X24085714Y-20252380D01*
X24466666Y-20252380D01*
X24561904Y-20300000D01*
X24609523Y-20347619D01*
X24657142Y-20442857D01*
X24657142Y-20585714D01*
X24609523Y-20680952D01*
X24561904Y-20728571D01*
X24466666Y-20776190D01*
X24085714Y-20776190D01*
X25609523Y-21252380D02*
X25038095Y-21252380D01*
X25323809Y-21252380D02*
X25323809Y-20252380D01*
X25228571Y-20395238D01*
X25133333Y-20490476D01*
X25038095Y-20538095D01*
X25990476Y-20347619D02*
X26038095Y-20300000D01*
X26133333Y-20252380D01*
X26371428Y-20252380D01*
X26466666Y-20300000D01*
X26514285Y-20347619D01*
X26561904Y-20442857D01*
X26561904Y-20538095D01*
X26514285Y-20680952D01*
X25942857Y-21252380D01*
X26561904Y-21252380D01*
X24657142Y-8352380D02*
X24323809Y-7876190D01*
X24085714Y-8352380D02*
X24085714Y-7352380D01*
X24466666Y-7352380D01*
X24561904Y-7400000D01*
X24609523Y-7447619D01*
X24657142Y-7542857D01*
X24657142Y-7685714D01*
X24609523Y-7780952D01*
X24561904Y-7828571D01*
X24466666Y-7876190D01*
X24085714Y-7876190D01*
X25609523Y-8352380D02*
X25038095Y-8352380D01*
X25323809Y-8352380D02*
X25323809Y-7352380D01*
X25228571Y-7495238D01*
X25133333Y-7590476D01*
X25038095Y-7638095D01*
X26561904Y-8352380D02*
X25990476Y-8352380D01*
X26276190Y-8352380D02*
X26276190Y-7352380D01*
X26180952Y-7495238D01*
X26085714Y-7590476D01*
X25990476Y-7638095D01*
X31904761Y-25647619D02*
X31809523Y-25600000D01*
X31714285Y-25504761D01*
X31571428Y-25361904D01*
X31476190Y-25314285D01*
X31380952Y-25314285D01*
X31428571Y-25552380D02*
X31333333Y-25504761D01*
X31238095Y-25409523D01*
X31190476Y-25219047D01*
X31190476Y-24885714D01*
X31238095Y-24695238D01*
X31333333Y-24600000D01*
X31428571Y-24552380D01*
X31619047Y-24552380D01*
X31714285Y-24600000D01*
X31809523Y-24695238D01*
X31857142Y-24885714D01*
X31857142Y-25219047D01*
X31809523Y-25409523D01*
X31714285Y-25504761D01*
X31619047Y-25552380D01*
X31428571Y-25552380D01*
X32714285Y-24885714D02*
X32714285Y-25552380D01*
X32476190Y-24504761D02*
X32238095Y-25219047D01*
X32857142Y-25219047D01*
X32704761Y-4147619D02*
X32609523Y-4100000D01*
X32514285Y-4004761D01*
X32371428Y-3861904D01*
X32276190Y-3814285D01*
X32180952Y-3814285D01*
X32228571Y-4052380D02*
X32133333Y-4004761D01*
X32038095Y-3909523D01*
X31990476Y-3719047D01*
X31990476Y-3385714D01*
X32038095Y-3195238D01*
X32133333Y-3100000D01*
X32228571Y-3052380D01*
X32419047Y-3052380D01*
X32514285Y-3100000D01*
X32609523Y-3195238D01*
X32657142Y-3385714D01*
X32657142Y-3719047D01*
X32609523Y-3909523D01*
X32514285Y-4004761D01*
X32419047Y-4052380D01*
X32228571Y-4052380D01*
X32990476Y-3052380D02*
X33609523Y-3052380D01*
X33276190Y-3433333D01*
X33419047Y-3433333D01*
X33514285Y-3480952D01*
X33561904Y-3528571D01*
X33609523Y-3623809D01*
X33609523Y-3861904D01*
X33561904Y-3957142D01*
X33514285Y-4004761D01*
X33419047Y-4052380D01*
X33133333Y-4052380D01*
X33038095Y-4004761D01*
X32990476Y-3957142D01*
X17004761Y-15347619D02*
X16909523Y-15300000D01*
X16814285Y-15204761D01*
X16671428Y-15061904D01*
X16576190Y-15014285D01*
X16480952Y-15014285D01*
X16528571Y-15252380D02*
X16433333Y-15204761D01*
X16338095Y-15109523D01*
X16290476Y-14919047D01*
X16290476Y-14585714D01*
X16338095Y-14395238D01*
X16433333Y-14300000D01*
X16528571Y-14252380D01*
X16719047Y-14252380D01*
X16814285Y-14300000D01*
X16909523Y-14395238D01*
X16957142Y-14585714D01*
X16957142Y-14919047D01*
X16909523Y-15109523D01*
X16814285Y-15204761D01*
X16719047Y-15252380D01*
X16528571Y-15252380D01*
X17338095Y-14347619D02*
X17385714Y-14300000D01*
X17480952Y-14252380D01*
X17719047Y-14252380D01*
X17814285Y-14300000D01*
X17861904Y-14347619D01*
X17909523Y-14442857D01*
X17909523Y-14538095D01*
X17861904Y-14680952D01*
X17290476Y-15252380D01*
X17909523Y-15252380D01*
X17004761Y-13847619D02*
X16909523Y-13800000D01*
X16814285Y-13704761D01*
X16671428Y-13561904D01*
X16576190Y-13514285D01*
X16480952Y-13514285D01*
X16528571Y-13752380D02*
X16433333Y-13704761D01*
X16338095Y-13609523D01*
X16290476Y-13419047D01*
X16290476Y-13085714D01*
X16338095Y-12895238D01*
X16433333Y-12800000D01*
X16528571Y-12752380D01*
X16719047Y-12752380D01*
X16814285Y-12800000D01*
X16909523Y-12895238D01*
X16957142Y-13085714D01*
X16957142Y-13419047D01*
X16909523Y-13609523D01*
X16814285Y-13704761D01*
X16719047Y-13752380D01*
X16528571Y-13752380D01*
X17909523Y-13752380D02*
X17338095Y-13752380D01*
X17623809Y-13752380D02*
X17623809Y-12752380D01*
X17528571Y-12895238D01*
X17433333Y-12990476D01*
X17338095Y-13038095D01*
X42852380Y-16033333D02*
X43566666Y-16033333D01*
X43709523Y-16080952D01*
X43804761Y-16176190D01*
X43852380Y-16319047D01*
X43852380Y-16414285D01*
X42852380Y-15128571D02*
X42852380Y-15319047D01*
X42900000Y-15414285D01*
X42947619Y-15461904D01*
X43090476Y-15557142D01*
X43280952Y-15604761D01*
X43661904Y-15604761D01*
X43757142Y-15557142D01*
X43804761Y-15509523D01*
X43852380Y-15414285D01*
X43852380Y-15223809D01*
X43804761Y-15128571D01*
X43757142Y-15080952D01*
X43661904Y-15033333D01*
X43423809Y-15033333D01*
X43328571Y-15080952D01*
X43280952Y-15128571D01*
X43233333Y-15223809D01*
X43233333Y-15414285D01*
X43280952Y-15509523D01*
X43328571Y-15557142D01*
X43423809Y-15604761D01*
X36966666Y-16352380D02*
X36966666Y-17066666D01*
X36919047Y-17209523D01*
X36823809Y-17304761D01*
X36680952Y-17352380D01*
X36585714Y-17352380D01*
X37871428Y-16685714D02*
X37871428Y-17352380D01*
X37633333Y-16304761D02*
X37395238Y-17019047D01*
X38014285Y-17019047D01*
X1466666Y-5722380D02*
X1466666Y-6436666D01*
X1419047Y-6579523D01*
X1323809Y-6674761D01*
X1180952Y-6722380D01*
X1085714Y-6722380D01*
X1847619Y-5722380D02*
X2466666Y-5722380D01*
X2133333Y-6103333D01*
X2276190Y-6103333D01*
X2371428Y-6150952D01*
X2419047Y-6198571D01*
X2466666Y-6293809D01*
X2466666Y-6531904D01*
X2419047Y-6627142D01*
X2371428Y-6674761D01*
X2276190Y-6722380D01*
X1990476Y-6722380D01*
X1895238Y-6674761D01*
X1847619Y-6627142D01*
X30666666Y-152380D02*
X30666666Y-866666D01*
X30619047Y-1009523D01*
X30523809Y-1104761D01*
X30380952Y-1152380D01*
X30285714Y-1152380D01*
X31095238Y-247619D02*
X31142857Y-200000D01*
X31238095Y-152380D01*
X31476190Y-152380D01*
X31571428Y-200000D01*
X31619047Y-247619D01*
X31666666Y-342857D01*
X31666666Y-438095D01*
X31619047Y-580952D01*
X31047619Y-1152380D01*
X31666666Y-1152380D01*
X30466666Y-26752380D02*
X30466666Y-27466666D01*
X30419047Y-27609523D01*
X30323809Y-27704761D01*
X30180952Y-27752380D01*
X30085714Y-27752380D01*
X31466666Y-27752380D02*
X30895238Y-27752380D01*
X31180952Y-27752380D02*
X31180952Y-26752380D01*
X31085714Y-26895238D01*
X30990476Y-26990476D01*
X30895238Y-27038095D01*
M02*
