M48
INCH,TZ
T10C0.016
T11C0.028
T12C0.032
T13C0.035
T14C0.039
%
T10
X001850Y-02795
X003622Y-04370
X003937Y-03504
X004055Y-02618
X007118Y-07488
X007717Y-02008
X009685Y-01929
X010906Y-08701
X011210Y-06406
X012402Y-00394
X013062Y-01054
X017008Y-06772
T11
X017992Y-08346
X018992Y-08346
X017953Y-07362
X018953Y-07362
X004724Y-07701
X004724Y-08701
X014709Y-08898
X015709Y-08898
X015906Y-02087
X015906Y-05087
X014724Y-10236
X015724Y-10236
X008465Y-08189
X011465Y-08189
X015039Y-02087
X015039Y-05087
X004724Y-00417
X004724Y-01417
X014173Y-02087
X014173Y-05087
X005984Y-01244
X005984Y-02244
X004724Y-04094
X004724Y-05094
X004724Y-02283
X004724Y-03283
X008465Y-03110
X011465Y-03110
X004724Y-09591
X004724Y-10591
X005984Y-08780
X005984Y-09780
X004724Y-05890
X004724Y-06890
X002638Y-02504
X002638Y-03504
T12
X000622Y-01496
X001622Y-01496
X002622Y-01496
X003622Y-01496
X012913Y-02110
X012913Y-03110
X012913Y-04110
X005984Y-03039
X005984Y-04039
X005984Y-05039
X017008Y-01457
X018008Y-01457
X019008Y-01457
X020008Y-01457
X005984Y-05984
X005984Y-06984
X005984Y-07984
X000622Y-09480
X001622Y-09480
X002622Y-09480
X003622Y-09480
X007709Y-04134
X007709Y-07134
X008709Y-04134
X008709Y-07134
X009709Y-04134
X009709Y-07134
X010709Y-04134
X010709Y-07134
X017008Y-09488
X018008Y-09488
X019008Y-09488
X020008Y-09488
X012598Y-07189
X012598Y-08189
X012598Y-09189
T13
X011969Y-05000
X012969Y-05000
X011969Y-06260
X012969Y-06260
T14
X016102Y-07598
X000709Y-03386
X000709Y-04386
X000709Y-05386
X000709Y-06386
X000709Y-07386
X007165Y-00748
X008165Y-00748
X009165Y-00748
X010165Y-00748
X011165Y-00748
X014685Y-07598
X019882Y-04094
X019882Y-05094
X016102Y-06181
X007087Y-10236
X008087Y-10236
X009087Y-10236
X010087Y-10236
X011087Y-10236
M30

