G04 #@! TF.GenerationSoftware,KiCad,Pcbnew,(5.1.5)-3*
G04 #@! TF.CreationDate,2020-04-20T16:34:36+02:00*
G04 #@! TF.ProjectId,goal_detector,676f616c-5f64-4657-9465-63746f722e6b,rev?*
G04 #@! TF.SameCoordinates,PX101dfa0PY12b1280*
G04 #@! TF.FileFunction,Legend,Bot*
G04 #@! TF.FilePolarity,Positive*
%FSLAX46Y46*%
G04 Gerber Fmt 4.6, Leading zero omitted, Abs format (unit mm)*
G04 Created by KiCad (PCBNEW (5.1.5)-3) date 2020-04-20 16:34:36*
%MOMM*%
%LPD*%
G04 APERTURE LIST*
%ADD10C,0.150000*%
%ADD11C,0.250000*%
%ADD12C,0.500000*%
%ADD13C,0.350000*%
G04 APERTURE END LIST*
D10*
X37400000Y-8600000D02*
X36700000Y-7800000D01*
X38200000Y-8100000D02*
X37400000Y-8600000D01*
X39000000Y-8600000D02*
X39700000Y-7800000D01*
X38200000Y-8100000D02*
X39000000Y-8600000D01*
X38200000Y-10600000D02*
X39400000Y-11800000D01*
X38200000Y-10600000D02*
X36800000Y-11900000D01*
X38200000Y-7600000D02*
X38200000Y-10600000D01*
X38738516Y-7000000D02*
G75*
G03X38738516Y-7000000I-538516J0D01*
G01*
X40057748Y-6521741D02*
X39597783Y-6398494D01*
X39428540Y-6846134D01*
X39486861Y-6812462D01*
X39591178Y-6791115D01*
X39821161Y-6852739D01*
X39900829Y-6923385D01*
X39934501Y-6981706D01*
X39955848Y-7086024D01*
X39894224Y-7316006D01*
X39823578Y-7395674D01*
X39765257Y-7429346D01*
X39660939Y-7450693D01*
X39430957Y-7389069D01*
X39351289Y-7318423D01*
X39317617Y-7260102D01*
X40379723Y-6608014D02*
X40442879Y-7660213D01*
X41023674Y-6780560D01*
X40442857Y-10252380D02*
X40442857Y-9252380D01*
X40061904Y-9252380D01*
X39966666Y-9300000D01*
X39919047Y-9347619D01*
X39871428Y-9442857D01*
X39871428Y-9585714D01*
X39919047Y-9680952D01*
X39966666Y-9728571D01*
X40061904Y-9776190D01*
X40442857Y-9776190D01*
X39014285Y-9585714D02*
X39014285Y-10252380D01*
X39442857Y-9585714D02*
X39442857Y-10109523D01*
X39395238Y-10204761D01*
X39300000Y-10252380D01*
X39157142Y-10252380D01*
X39061904Y-10204761D01*
X39014285Y-10157142D01*
X38395238Y-10252380D02*
X38490476Y-10204761D01*
X38538095Y-10109523D01*
X38538095Y-9252380D01*
X37871428Y-10252380D02*
X37966666Y-10204761D01*
X38014285Y-10109523D01*
X38014285Y-9252380D01*
X37061904Y-9585714D02*
X37061904Y-10252380D01*
X37490476Y-9585714D02*
X37490476Y-10109523D01*
X37442857Y-10204761D01*
X37347619Y-10252380D01*
X37204761Y-10252380D01*
X37109523Y-10204761D01*
X37061904Y-10157142D01*
X36585714Y-9585714D02*
X36585714Y-10585714D01*
X36585714Y-9633333D02*
X36490476Y-9585714D01*
X36300000Y-9585714D01*
X36204761Y-9633333D01*
X36157142Y-9680952D01*
X36109523Y-9776190D01*
X36109523Y-10061904D01*
X36157142Y-10157142D01*
X36204761Y-10204761D01*
X36300000Y-10252380D01*
X36490476Y-10252380D01*
X36585714Y-10204761D01*
X48785714Y-14652380D02*
X48785714Y-13985714D01*
X48785714Y-13652380D02*
X48833333Y-13700000D01*
X48785714Y-13747619D01*
X48738095Y-13700000D01*
X48785714Y-13652380D01*
X48785714Y-13747619D01*
X48452380Y-13985714D02*
X48071428Y-13985714D01*
X48309523Y-14652380D02*
X48309523Y-13795238D01*
X48261904Y-13700000D01*
X48166666Y-13652380D01*
X48071428Y-13652380D01*
X45700000Y-22200000D02*
X45700000Y-22600000D01*
X43200000Y-18600000D02*
X45000000Y-20400000D01*
X43200000Y-10900000D02*
X43200000Y-18600000D01*
X43200000Y-9300000D02*
X43200000Y-5200000D01*
X44000000Y-10100000D02*
X45000000Y-10100000D01*
X44000000Y-10100000D02*
G75*
G03X43200000Y-10900000I0J-800000D01*
G01*
X44000000Y-10100000D02*
G75*
G02X43200000Y-9300000I0J800000D01*
G01*
X45000000Y-10100000D02*
G75*
G02X45800000Y-10900000I0J-800000D01*
G01*
X46247619Y-14076190D02*
X47247619Y-14076190D01*
X46295238Y-14076190D02*
X46247619Y-14171428D01*
X46247619Y-14361904D01*
X46295238Y-14457142D01*
X46342857Y-14504761D01*
X46438095Y-14552380D01*
X46723809Y-14552380D01*
X46819047Y-14504761D01*
X46866666Y-14457142D01*
X46914285Y-14361904D01*
X46914285Y-14171428D01*
X46866666Y-14076190D01*
X46247619Y-13600000D02*
X46914285Y-13600000D01*
X47247619Y-13600000D02*
X47200000Y-13647619D01*
X47152380Y-13600000D01*
X47200000Y-13552380D01*
X47247619Y-13600000D01*
X47152380Y-13600000D01*
X46295238Y-13171428D02*
X46247619Y-13076190D01*
X46247619Y-12885714D01*
X46295238Y-12790476D01*
X46390476Y-12742857D01*
X46438095Y-12742857D01*
X46533333Y-12790476D01*
X46580952Y-12885714D01*
X46580952Y-13028571D01*
X46628571Y-13123809D01*
X46723809Y-13171428D01*
X46771428Y-13171428D01*
X46866666Y-13123809D01*
X46914285Y-13028571D01*
X46914285Y-12885714D01*
X46866666Y-12790476D01*
X46914285Y-12314285D02*
X45914285Y-12314285D01*
X46866666Y-12314285D02*
X46914285Y-12219047D01*
X46914285Y-12028571D01*
X46866666Y-11933333D01*
X46819047Y-11885714D01*
X46723809Y-11838095D01*
X46438095Y-11838095D01*
X46342857Y-11885714D01*
X46295238Y-11933333D01*
X46247619Y-12028571D01*
X46247619Y-12219047D01*
X46295238Y-12314285D01*
X46247619Y-11266666D02*
X46295238Y-11361904D01*
X46390476Y-11409523D01*
X47247619Y-11409523D01*
X46247619Y-10457142D02*
X46771428Y-10457142D01*
X46866666Y-10504761D01*
X46914285Y-10600000D01*
X46914285Y-10790476D01*
X46866666Y-10885714D01*
X46295238Y-10457142D02*
X46247619Y-10552380D01*
X46247619Y-10790476D01*
X46295238Y-10885714D01*
X46390476Y-10933333D01*
X46485714Y-10933333D01*
X46580952Y-10885714D01*
X46628571Y-10790476D01*
X46628571Y-10552380D01*
X46676190Y-10457142D01*
X46914285Y-10076190D02*
X46247619Y-9838095D01*
X46914285Y-9600000D02*
X46247619Y-9838095D01*
X46009523Y-9933333D01*
X45961904Y-9980952D01*
X45914285Y-10076190D01*
X45800000Y-14200000D02*
X45800000Y-10900000D01*
X46500000Y-14900000D02*
X50200000Y-14900000D01*
X46500000Y-14900000D02*
G75*
G02X45800000Y-14200000I0J700000D01*
G01*
X50800000Y-18600000D02*
X49400000Y-18600000D01*
X51600000Y-16900000D02*
X51600000Y-17800000D01*
X51600000Y-17800000D02*
G75*
G02X50800000Y-18600000I-800000J0D01*
G01*
X50800000Y-16100000D02*
G75*
G02X51600000Y-16900000I0J-800000D01*
G01*
X44247619Y-14342857D02*
X44914285Y-14342857D01*
X44723809Y-14342857D02*
X44819047Y-14295238D01*
X44866666Y-14247619D01*
X44914285Y-14152380D01*
X44914285Y-14057142D01*
X44247619Y-13295238D02*
X44771428Y-13295238D01*
X44866666Y-13342857D01*
X44914285Y-13438095D01*
X44914285Y-13628571D01*
X44866666Y-13723809D01*
X44295238Y-13295238D02*
X44247619Y-13390476D01*
X44247619Y-13628571D01*
X44295238Y-13723809D01*
X44390476Y-13771428D01*
X44485714Y-13771428D01*
X44580952Y-13723809D01*
X44628571Y-13628571D01*
X44628571Y-13390476D01*
X44676190Y-13295238D01*
X44247619Y-12819047D02*
X44914285Y-12819047D01*
X44819047Y-12819047D02*
X44866666Y-12771428D01*
X44914285Y-12676190D01*
X44914285Y-12533333D01*
X44866666Y-12438095D01*
X44771428Y-12390476D01*
X44247619Y-12390476D01*
X44771428Y-12390476D02*
X44866666Y-12342857D01*
X44914285Y-12247619D01*
X44914285Y-12104761D01*
X44866666Y-12009523D01*
X44771428Y-11961904D01*
X44247619Y-11961904D01*
X44914285Y-11485714D02*
X43914285Y-11485714D01*
X44866666Y-11485714D02*
X44914285Y-11390476D01*
X44914285Y-11200000D01*
X44866666Y-11104761D01*
X44819047Y-11057142D01*
X44723809Y-11009523D01*
X44438095Y-11009523D01*
X44342857Y-11057142D01*
X44295238Y-11104761D01*
X44247619Y-11200000D01*
X44247619Y-11390476D01*
X44295238Y-11485714D01*
X45880952Y-15371428D02*
X45119047Y-15371428D01*
X45500000Y-15752380D02*
X45500000Y-14990476D01*
X50261904Y-16452380D02*
X50357142Y-16404761D01*
X50404761Y-16357142D01*
X50452380Y-16261904D01*
X50452380Y-15976190D01*
X50404761Y-15880952D01*
X50357142Y-15833333D01*
X50261904Y-15785714D01*
X50119047Y-15785714D01*
X50023809Y-15833333D01*
X49976190Y-15880952D01*
X49928571Y-15976190D01*
X49928571Y-16261904D01*
X49976190Y-16357142D01*
X50023809Y-16404761D01*
X50119047Y-16452380D01*
X50261904Y-16452380D01*
X49642857Y-15785714D02*
X49261904Y-15785714D01*
X49500000Y-16452380D02*
X49500000Y-15595238D01*
X49452380Y-15500000D01*
X49357142Y-15452380D01*
X49261904Y-15452380D01*
X49071428Y-15785714D02*
X48690476Y-15785714D01*
X48928571Y-16452380D02*
X48928571Y-15595238D01*
X48880952Y-15500000D01*
X48785714Y-15452380D01*
X48690476Y-15452380D01*
X48404761Y-16404761D02*
X48309523Y-16452380D01*
X48119047Y-16452380D01*
X48023809Y-16404761D01*
X47976190Y-16309523D01*
X47976190Y-16261904D01*
X48023809Y-16166666D01*
X48119047Y-16119047D01*
X48261904Y-16119047D01*
X48357142Y-16071428D01*
X48404761Y-15976190D01*
X48404761Y-15928571D01*
X48357142Y-15833333D01*
X48261904Y-15785714D01*
X48119047Y-15785714D01*
X48023809Y-15833333D01*
X47166666Y-16404761D02*
X47261904Y-16452380D01*
X47452380Y-16452380D01*
X47547619Y-16404761D01*
X47595238Y-16309523D01*
X47595238Y-15928571D01*
X47547619Y-15833333D01*
X47452380Y-15785714D01*
X47261904Y-15785714D01*
X47166666Y-15833333D01*
X47119047Y-15928571D01*
X47119047Y-16023809D01*
X47595238Y-16119047D01*
X46833333Y-15785714D02*
X46452380Y-15785714D01*
X46690476Y-15452380D02*
X46690476Y-16309523D01*
X46642857Y-16404761D01*
X46547619Y-16452380D01*
X46452380Y-16452380D01*
X26996362Y-3104652D02*
X26457614Y-3643400D01*
X26019881Y-4619881D02*
X26423942Y-4215820D01*
X26221912Y-4417851D02*
X25514805Y-3710744D01*
X25683164Y-3744416D01*
X25817851Y-3744416D01*
X25918866Y-3710744D01*
X24673011Y-4552538D02*
X25009729Y-4215820D01*
X25380118Y-4518866D01*
X25312774Y-4518866D01*
X25211759Y-4552538D01*
X25043400Y-4720896D01*
X25009729Y-4821912D01*
X25009729Y-4889255D01*
X25043400Y-4990270D01*
X25211759Y-5158629D01*
X25312774Y-5192301D01*
X25380118Y-5192301D01*
X25481133Y-5158629D01*
X25649492Y-4990270D01*
X25683164Y-4889255D01*
X25683164Y-4821912D01*
X24437309Y-4788240D02*
X24908713Y-5731049D01*
X23965904Y-5259644D01*
X23385194Y-3407698D02*
X23418866Y-3306683D01*
X23519881Y-3205668D01*
X23654568Y-3138324D01*
X23789255Y-3138324D01*
X23890270Y-3171996D01*
X24058629Y-3273011D01*
X24159644Y-3374026D01*
X24260660Y-3542385D01*
X24294331Y-3643400D01*
X24294331Y-3778087D01*
X24226988Y-3912774D01*
X24159644Y-3980118D01*
X24024957Y-4047461D01*
X23957614Y-4047461D01*
X23721912Y-3811759D01*
X23856599Y-3677072D01*
X23721912Y-4417851D02*
X23014805Y-3710744D01*
X23317851Y-4821912D01*
X22610744Y-4114805D01*
X22981133Y-5158629D02*
X22274026Y-4451522D01*
X22105668Y-4619881D01*
X22038324Y-4754568D01*
X22038324Y-4889255D01*
X22071996Y-4990270D01*
X22173011Y-5158629D01*
X22274026Y-5259644D01*
X22442385Y-5360660D01*
X22543400Y-5394331D01*
X22678087Y-5394331D01*
X22812774Y-5326988D01*
X22981133Y-5158629D01*
X19059644Y-3441370D02*
X18520896Y-3980118D01*
X19059644Y-3980118D02*
X18520896Y-3441370D01*
X17409729Y-4215820D02*
X17746446Y-3879103D01*
X18116835Y-4182148D01*
X18049492Y-4182148D01*
X17948477Y-4215820D01*
X17780118Y-4384179D01*
X17746446Y-4485194D01*
X17746446Y-4552538D01*
X17780118Y-4653553D01*
X17948477Y-4821912D01*
X18049492Y-4855583D01*
X18116835Y-4855583D01*
X18217851Y-4821912D01*
X18386209Y-4653553D01*
X18419881Y-4552538D01*
X18419881Y-4485194D01*
X17174026Y-4451522D02*
X17645431Y-5394331D01*
X16702622Y-4922927D01*
X29259644Y-3441370D02*
X28720896Y-3980118D01*
X27609729Y-4215820D02*
X27946446Y-3879103D01*
X28316835Y-4182148D01*
X28249492Y-4182148D01*
X28148477Y-4215820D01*
X27980118Y-4384179D01*
X27946446Y-4485194D01*
X27946446Y-4552538D01*
X27980118Y-4653553D01*
X28148477Y-4821912D01*
X28249492Y-4855583D01*
X28316835Y-4855583D01*
X28417851Y-4821912D01*
X28586209Y-4653553D01*
X28619881Y-4552538D01*
X28619881Y-4485194D01*
X27374026Y-4451522D02*
X27845431Y-5394331D01*
X26902622Y-4922927D01*
X21996362Y-3104652D02*
X21457614Y-3643400D01*
X21996362Y-3643400D02*
X21457614Y-3104652D01*
X21019881Y-4619881D02*
X21423942Y-4215820D01*
X21221912Y-4417851D02*
X20514805Y-3710744D01*
X20683164Y-3744416D01*
X20817851Y-3744416D01*
X20918866Y-3710744D01*
X19673011Y-4552538D02*
X20009729Y-4215820D01*
X20380118Y-4518866D01*
X20312774Y-4518866D01*
X20211759Y-4552538D01*
X20043400Y-4720896D01*
X20009729Y-4821912D01*
X20009729Y-4889255D01*
X20043400Y-4990270D01*
X20211759Y-5158629D01*
X20312774Y-5192301D01*
X20380118Y-5192301D01*
X20481133Y-5158629D01*
X20649492Y-4990270D01*
X20683164Y-4889255D01*
X20683164Y-4821912D01*
X19437309Y-4788240D02*
X19908713Y-5731049D01*
X18965904Y-5259644D01*
X36400000Y-22600000D02*
G75*
G02X35600000Y-21800000I0J800000D01*
G01*
X38042857Y-21452380D02*
X38042857Y-20785714D01*
X38042857Y-20976190D02*
X37995238Y-20880952D01*
X37947619Y-20833333D01*
X37852380Y-20785714D01*
X37757142Y-20785714D01*
X36995238Y-21452380D02*
X36995238Y-20928571D01*
X37042857Y-20833333D01*
X37138095Y-20785714D01*
X37328571Y-20785714D01*
X37423809Y-20833333D01*
X36995238Y-21404761D02*
X37090476Y-21452380D01*
X37328571Y-21452380D01*
X37423809Y-21404761D01*
X37471428Y-21309523D01*
X37471428Y-21214285D01*
X37423809Y-21119047D01*
X37328571Y-21071428D01*
X37090476Y-21071428D01*
X36995238Y-21023809D01*
X36519047Y-21452380D02*
X36519047Y-20785714D01*
X36519047Y-20880952D02*
X36471428Y-20833333D01*
X36376190Y-20785714D01*
X36233333Y-20785714D01*
X36138095Y-20833333D01*
X36090476Y-20928571D01*
X36090476Y-21452380D01*
X36090476Y-20928571D02*
X36042857Y-20833333D01*
X35947619Y-20785714D01*
X35804761Y-20785714D01*
X35709523Y-20833333D01*
X35661904Y-20928571D01*
X35661904Y-21452380D01*
X35185714Y-20785714D02*
X35185714Y-21785714D01*
X35185714Y-20833333D02*
X35090476Y-20785714D01*
X34900000Y-20785714D01*
X34804761Y-20833333D01*
X34757142Y-20880952D01*
X34709523Y-20976190D01*
X34709523Y-21261904D01*
X34757142Y-21357142D01*
X34804761Y-21404761D01*
X34900000Y-21452380D01*
X35090476Y-21452380D01*
X35185714Y-21404761D01*
X36442251Y-6521741D02*
X36902216Y-6398494D01*
X37071459Y-6846134D01*
X37013138Y-6812462D01*
X36908821Y-6791115D01*
X36678838Y-6852739D01*
X36599170Y-6923385D01*
X36565498Y-6981706D01*
X36544151Y-7086024D01*
X36605775Y-7316006D01*
X36676421Y-7395674D01*
X36734742Y-7429346D01*
X36839060Y-7450693D01*
X37069042Y-7389069D01*
X37148710Y-7318423D01*
X37182382Y-7260102D01*
X36120276Y-6608014D02*
X36057120Y-7660213D01*
X35476325Y-6780560D01*
X42100000Y-19300000D02*
G75*
G02X43200000Y-20400000I0J-1100000D01*
G01*
X44276190Y-21452380D02*
X44276190Y-20452380D01*
X44276190Y-21404761D02*
X44371428Y-21452380D01*
X44561904Y-21452380D01*
X44657142Y-21404761D01*
X44704761Y-21357142D01*
X44752380Y-21261904D01*
X44752380Y-20976190D01*
X44704761Y-20880952D01*
X44657142Y-20833333D01*
X44561904Y-20785714D01*
X44371428Y-20785714D01*
X44276190Y-20833333D01*
X43800000Y-21452380D02*
X43800000Y-20785714D01*
X43800000Y-20452380D02*
X43847619Y-20500000D01*
X43800000Y-20547619D01*
X43752380Y-20500000D01*
X43800000Y-20452380D01*
X43800000Y-20547619D01*
X43371428Y-21404761D02*
X43276190Y-21452380D01*
X43085714Y-21452380D01*
X42990476Y-21404761D01*
X42942857Y-21309523D01*
X42942857Y-21261904D01*
X42990476Y-21166666D01*
X43085714Y-21119047D01*
X43228571Y-21119047D01*
X43323809Y-21071428D01*
X43371428Y-20976190D01*
X43371428Y-20928571D01*
X43323809Y-20833333D01*
X43228571Y-20785714D01*
X43085714Y-20785714D01*
X42990476Y-20833333D01*
X42514285Y-20785714D02*
X42514285Y-21785714D01*
X42514285Y-20833333D02*
X42419047Y-20785714D01*
X42228571Y-20785714D01*
X42133333Y-20833333D01*
X42085714Y-20880952D01*
X42038095Y-20976190D01*
X42038095Y-21261904D01*
X42085714Y-21357142D01*
X42133333Y-21404761D01*
X42228571Y-21452380D01*
X42419047Y-21452380D01*
X42514285Y-21404761D01*
X41466666Y-21452380D02*
X41561904Y-21404761D01*
X41609523Y-21309523D01*
X41609523Y-20452380D01*
X40657142Y-21452380D02*
X40657142Y-20928571D01*
X40704761Y-20833333D01*
X40800000Y-20785714D01*
X40990476Y-20785714D01*
X41085714Y-20833333D01*
X40657142Y-21404761D02*
X40752380Y-21452380D01*
X40990476Y-21452380D01*
X41085714Y-21404761D01*
X41133333Y-21309523D01*
X41133333Y-21214285D01*
X41085714Y-21119047D01*
X40990476Y-21071428D01*
X40752380Y-21071428D01*
X40657142Y-21023809D01*
X40276190Y-20785714D02*
X40038095Y-21452380D01*
X39800000Y-20785714D02*
X40038095Y-21452380D01*
X40133333Y-21690476D01*
X40180952Y-21738095D01*
X40276190Y-21785714D01*
X36700000Y-16300000D02*
G75*
G02X37300000Y-16900000I0J-600000D01*
G01*
X37300000Y-18200000D02*
X37300000Y-16900000D01*
X35050173Y-16297927D02*
X36700000Y-16297927D01*
X35050173Y-16297927D02*
G75*
G02X34500000Y-15700000I49827J597927D01*
G01*
X34502073Y-15650173D02*
G75*
G02X35100000Y-15100000I597927J-49827D01*
G01*
X38242857Y-14600000D02*
X38338095Y-14552380D01*
X38480952Y-14552380D01*
X38623809Y-14600000D01*
X38719047Y-14695238D01*
X38766666Y-14790476D01*
X38814285Y-14980952D01*
X38814285Y-15123809D01*
X38766666Y-15314285D01*
X38719047Y-15409523D01*
X38623809Y-15504761D01*
X38480952Y-15552380D01*
X38385714Y-15552380D01*
X38242857Y-15504761D01*
X38195238Y-15457142D01*
X38195238Y-15123809D01*
X38385714Y-15123809D01*
X37623809Y-15552380D02*
X37719047Y-15504761D01*
X37766666Y-15457142D01*
X37814285Y-15361904D01*
X37814285Y-15076190D01*
X37766666Y-14980952D01*
X37719047Y-14933333D01*
X37623809Y-14885714D01*
X37480952Y-14885714D01*
X37385714Y-14933333D01*
X37338095Y-14980952D01*
X37290476Y-15076190D01*
X37290476Y-15361904D01*
X37338095Y-15457142D01*
X37385714Y-15504761D01*
X37480952Y-15552380D01*
X37623809Y-15552380D01*
X36433333Y-15552380D02*
X36433333Y-15028571D01*
X36480952Y-14933333D01*
X36576190Y-14885714D01*
X36766666Y-14885714D01*
X36861904Y-14933333D01*
X36433333Y-15504761D02*
X36528571Y-15552380D01*
X36766666Y-15552380D01*
X36861904Y-15504761D01*
X36909523Y-15409523D01*
X36909523Y-15314285D01*
X36861904Y-15219047D01*
X36766666Y-15171428D01*
X36528571Y-15171428D01*
X36433333Y-15123809D01*
X35814285Y-15552380D02*
X35909523Y-15504761D01*
X35957142Y-15409523D01*
X35957142Y-14552380D01*
X35433333Y-15457142D02*
X35385714Y-15504761D01*
X35433333Y-15552380D01*
X35480952Y-15504761D01*
X35433333Y-15457142D01*
X35433333Y-15552380D01*
X35433333Y-15171428D02*
X35480952Y-14600000D01*
X35433333Y-14552380D01*
X35385714Y-14600000D01*
X35433333Y-15171428D01*
X35433333Y-14552380D01*
X4100000Y-25600000D02*
X4100000Y-26200000D01*
X10057142Y-27152380D02*
X10057142Y-26152380D01*
X10057142Y-26533333D02*
X9961904Y-26485714D01*
X9771428Y-26485714D01*
X9676190Y-26533333D01*
X9628571Y-26580952D01*
X9580952Y-26676190D01*
X9580952Y-26961904D01*
X9628571Y-27057142D01*
X9676190Y-27104761D01*
X9771428Y-27152380D01*
X9961904Y-27152380D01*
X10057142Y-27104761D01*
X8771428Y-27104761D02*
X8866666Y-27152380D01*
X9057142Y-27152380D01*
X9152380Y-27104761D01*
X9200000Y-27009523D01*
X9200000Y-26628571D01*
X9152380Y-26533333D01*
X9057142Y-26485714D01*
X8866666Y-26485714D01*
X8771428Y-26533333D01*
X8723809Y-26628571D01*
X8723809Y-26723809D01*
X9200000Y-26819047D01*
X8438095Y-26485714D02*
X8057142Y-26485714D01*
X8295238Y-27152380D02*
X8295238Y-26295238D01*
X8247619Y-26200000D01*
X8152380Y-26152380D01*
X8057142Y-26152380D01*
X7580952Y-27152380D02*
X7676190Y-27104761D01*
X7723809Y-27057142D01*
X7771428Y-26961904D01*
X7771428Y-26676190D01*
X7723809Y-26580952D01*
X7676190Y-26533333D01*
X7580952Y-26485714D01*
X7438095Y-26485714D01*
X7342857Y-26533333D01*
X7295238Y-26580952D01*
X7247619Y-26676190D01*
X7247619Y-26961904D01*
X7295238Y-27057142D01*
X7342857Y-27104761D01*
X7438095Y-27152380D01*
X7580952Y-27152380D01*
X6819047Y-27152380D02*
X6819047Y-26485714D01*
X6819047Y-26676190D02*
X6771428Y-26580952D01*
X6723809Y-26533333D01*
X6628571Y-26485714D01*
X6533333Y-26485714D01*
X5819047Y-27104761D02*
X5914285Y-27152380D01*
X6104761Y-27152380D01*
X6200000Y-27104761D01*
X6247619Y-27009523D01*
X6247619Y-26628571D01*
X6200000Y-26533333D01*
X6104761Y-26485714D01*
X5914285Y-26485714D01*
X5819047Y-26533333D01*
X5771428Y-26628571D01*
X5771428Y-26723809D01*
X6247619Y-26819047D01*
X4580952Y-26485714D02*
X4580952Y-27485714D01*
X4580952Y-26533333D02*
X4485714Y-26485714D01*
X4295238Y-26485714D01*
X4200000Y-26533333D01*
X4152380Y-26580952D01*
X4104761Y-26676190D01*
X4104761Y-26961904D01*
X4152380Y-27057142D01*
X4200000Y-27104761D01*
X4295238Y-27152380D01*
X4485714Y-27152380D01*
X4580952Y-27104761D01*
X3247619Y-27152380D02*
X3247619Y-26628571D01*
X3295238Y-26533333D01*
X3390476Y-26485714D01*
X3580952Y-26485714D01*
X3676190Y-26533333D01*
X3247619Y-27104761D02*
X3342857Y-27152380D01*
X3580952Y-27152380D01*
X3676190Y-27104761D01*
X3723809Y-27009523D01*
X3723809Y-26914285D01*
X3676190Y-26819047D01*
X3580952Y-26771428D01*
X3342857Y-26771428D01*
X3247619Y-26723809D01*
X2342857Y-27152380D02*
X2342857Y-26152380D01*
X2342857Y-27104761D02*
X2438095Y-27152380D01*
X2628571Y-27152380D01*
X2723809Y-27104761D01*
X2771428Y-27057142D01*
X2819047Y-26961904D01*
X2819047Y-26676190D01*
X2771428Y-26580952D01*
X2723809Y-26533333D01*
X2628571Y-26485714D01*
X2438095Y-26485714D01*
X2342857Y-26533333D01*
X1500000Y-2100000D02*
G75*
G02X2097927Y-1549827I597927J-49827D01*
G01*
X10157142Y-1952380D02*
X10157142Y-952380D01*
X10157142Y-1333333D02*
X10061904Y-1285714D01*
X9871428Y-1285714D01*
X9776190Y-1333333D01*
X9728571Y-1380952D01*
X9680952Y-1476190D01*
X9680952Y-1761904D01*
X9728571Y-1857142D01*
X9776190Y-1904761D01*
X9871428Y-1952380D01*
X10061904Y-1952380D01*
X10157142Y-1904761D01*
X8871428Y-1904761D02*
X8966666Y-1952380D01*
X9157142Y-1952380D01*
X9252380Y-1904761D01*
X9300000Y-1809523D01*
X9300000Y-1428571D01*
X9252380Y-1333333D01*
X9157142Y-1285714D01*
X8966666Y-1285714D01*
X8871428Y-1333333D01*
X8823809Y-1428571D01*
X8823809Y-1523809D01*
X9300000Y-1619047D01*
X8538095Y-1285714D02*
X8157142Y-1285714D01*
X8395238Y-1952380D02*
X8395238Y-1095238D01*
X8347619Y-1000000D01*
X8252380Y-952380D01*
X8157142Y-952380D01*
X7680952Y-1952380D02*
X7776190Y-1904761D01*
X7823809Y-1857142D01*
X7871428Y-1761904D01*
X7871428Y-1476190D01*
X7823809Y-1380952D01*
X7776190Y-1333333D01*
X7680952Y-1285714D01*
X7538095Y-1285714D01*
X7442857Y-1333333D01*
X7395238Y-1380952D01*
X7347619Y-1476190D01*
X7347619Y-1761904D01*
X7395238Y-1857142D01*
X7442857Y-1904761D01*
X7538095Y-1952380D01*
X7680952Y-1952380D01*
X6919047Y-1952380D02*
X6919047Y-1285714D01*
X6919047Y-1476190D02*
X6871428Y-1380952D01*
X6823809Y-1333333D01*
X6728571Y-1285714D01*
X6633333Y-1285714D01*
X5919047Y-1904761D02*
X6014285Y-1952380D01*
X6204761Y-1952380D01*
X6300000Y-1904761D01*
X6347619Y-1809523D01*
X6347619Y-1428571D01*
X6300000Y-1333333D01*
X6204761Y-1285714D01*
X6014285Y-1285714D01*
X5919047Y-1333333D01*
X5871428Y-1428571D01*
X5871428Y-1523809D01*
X6347619Y-1619047D01*
X4680952Y-1285714D02*
X4680952Y-2285714D01*
X4680952Y-1333333D02*
X4585714Y-1285714D01*
X4395238Y-1285714D01*
X4300000Y-1333333D01*
X4252380Y-1380952D01*
X4204761Y-1476190D01*
X4204761Y-1761904D01*
X4252380Y-1857142D01*
X4300000Y-1904761D01*
X4395238Y-1952380D01*
X4585714Y-1952380D01*
X4680952Y-1904761D01*
X3347619Y-1952380D02*
X3347619Y-1428571D01*
X3395238Y-1333333D01*
X3490476Y-1285714D01*
X3680952Y-1285714D01*
X3776190Y-1333333D01*
X3347619Y-1904761D02*
X3442857Y-1952380D01*
X3680952Y-1952380D01*
X3776190Y-1904761D01*
X3823809Y-1809523D01*
X3823809Y-1714285D01*
X3776190Y-1619047D01*
X3680952Y-1571428D01*
X3442857Y-1571428D01*
X3347619Y-1523809D01*
X2442857Y-1952380D02*
X2442857Y-952380D01*
X2442857Y-1904761D02*
X2538095Y-1952380D01*
X2728571Y-1952380D01*
X2823809Y-1904761D01*
X2871428Y-1857142D01*
X2919047Y-1761904D01*
X2919047Y-1476190D01*
X2871428Y-1380952D01*
X2823809Y-1333333D01*
X2728571Y-1285714D01*
X2538095Y-1285714D01*
X2442857Y-1333333D01*
X25400000Y-13300000D02*
X25400000Y-15200000D01*
X24849827Y-12702073D02*
G75*
G02X25400000Y-13300000I-49827J-597927D01*
G01*
X22650173Y-12697927D02*
X24800000Y-12700000D01*
X22650173Y-12697927D02*
G75*
G02X22100000Y-12100000I49827J597927D01*
G01*
X19700000Y-16550173D02*
G75*
G02X20297927Y-16000000I597927J-49827D01*
G01*
X27576190Y-16252380D02*
X27576190Y-15585714D01*
X27576190Y-15252380D02*
X27623809Y-15300000D01*
X27576190Y-15347619D01*
X27528571Y-15300000D01*
X27576190Y-15252380D01*
X27576190Y-15347619D01*
X27100000Y-15585714D02*
X27100000Y-16252380D01*
X27100000Y-15680952D02*
X27052380Y-15633333D01*
X26957142Y-15585714D01*
X26814285Y-15585714D01*
X26719047Y-15633333D01*
X26671428Y-15728571D01*
X26671428Y-16252380D01*
X25528571Y-15585714D02*
X25338095Y-16252380D01*
X25147619Y-15776190D01*
X24957142Y-16252380D01*
X24766666Y-15585714D01*
X24385714Y-16252380D02*
X24385714Y-15585714D01*
X24385714Y-15252380D02*
X24433333Y-15300000D01*
X24385714Y-15347619D01*
X24338095Y-15300000D01*
X24385714Y-15252380D01*
X24385714Y-15347619D01*
X23909523Y-15585714D02*
X23909523Y-16252380D01*
X23909523Y-15680952D02*
X23861904Y-15633333D01*
X23766666Y-15585714D01*
X23623809Y-15585714D01*
X23528571Y-15633333D01*
X23480952Y-15728571D01*
X23480952Y-16252380D01*
X22576190Y-16252380D02*
X22576190Y-15252380D01*
X22576190Y-16204761D02*
X22671428Y-16252380D01*
X22861904Y-16252380D01*
X22957142Y-16204761D01*
X23004761Y-16157142D01*
X23052380Y-16061904D01*
X23052380Y-15776190D01*
X23004761Y-15680952D01*
X22957142Y-15633333D01*
X22861904Y-15585714D01*
X22671428Y-15585714D01*
X22576190Y-15633333D01*
X21957142Y-16252380D02*
X22052380Y-16204761D01*
X22100000Y-16157142D01*
X22147619Y-16061904D01*
X22147619Y-15776190D01*
X22100000Y-15680952D01*
X22052380Y-15633333D01*
X21957142Y-15585714D01*
X21814285Y-15585714D01*
X21719047Y-15633333D01*
X21671428Y-15680952D01*
X21623809Y-15776190D01*
X21623809Y-16061904D01*
X21671428Y-16157142D01*
X21719047Y-16204761D01*
X21814285Y-16252380D01*
X21957142Y-16252380D01*
X21290476Y-15585714D02*
X21100000Y-16252380D01*
X20909523Y-15776190D01*
X20719047Y-16252380D01*
X20528571Y-15585714D01*
X21085714Y-22752380D02*
X21085714Y-21752380D01*
X20704761Y-21752380D01*
X20609523Y-21800000D01*
X20561904Y-21847619D01*
X20514285Y-21942857D01*
X20514285Y-22085714D01*
X20561904Y-22180952D01*
X20609523Y-22228571D01*
X20704761Y-22276190D01*
X21085714Y-22276190D01*
X19657142Y-22752380D02*
X19657142Y-22228571D01*
X19704761Y-22133333D01*
X19800000Y-22085714D01*
X19990476Y-22085714D01*
X20085714Y-22133333D01*
X19657142Y-22704761D02*
X19752380Y-22752380D01*
X19990476Y-22752380D01*
X20085714Y-22704761D01*
X20133333Y-22609523D01*
X20133333Y-22514285D01*
X20085714Y-22419047D01*
X19990476Y-22371428D01*
X19752380Y-22371428D01*
X19657142Y-22323809D01*
X18752380Y-22752380D02*
X18752380Y-21752380D01*
X18752380Y-22704761D02*
X18847619Y-22752380D01*
X19038095Y-22752380D01*
X19133333Y-22704761D01*
X19180952Y-22657142D01*
X19228571Y-22561904D01*
X19228571Y-22276190D01*
X19180952Y-22180952D01*
X19133333Y-22133333D01*
X19038095Y-22085714D01*
X18847619Y-22085714D01*
X18752380Y-22133333D01*
X18276190Y-22371428D02*
X17514285Y-22371428D01*
X25942809Y-9482572D02*
X26649915Y-8775465D01*
X26380541Y-8506091D01*
X26279526Y-8472419D01*
X26212183Y-8472419D01*
X26111167Y-8506091D01*
X26010152Y-8607106D01*
X25976480Y-8708122D01*
X25976480Y-8775465D01*
X26010152Y-8876480D01*
X26279526Y-9145854D01*
X24932656Y-8472419D02*
X25303045Y-8102030D01*
X25404061Y-8068358D01*
X25505076Y-8102030D01*
X25639763Y-8236717D01*
X25673435Y-8337732D01*
X24966328Y-8438748D02*
X25000000Y-8539763D01*
X25168358Y-8708122D01*
X25269374Y-8741793D01*
X25370389Y-8708122D01*
X25437732Y-8640778D01*
X25471404Y-8539763D01*
X25437732Y-8438748D01*
X25269374Y-8270389D01*
X25235702Y-8169374D01*
X24292893Y-7832656D02*
X25000000Y-7125549D01*
X24326564Y-7798984D02*
X24360236Y-7900000D01*
X24494923Y-8034687D01*
X24595938Y-8068358D01*
X24663282Y-8068358D01*
X24764297Y-8034687D01*
X24966328Y-7832656D01*
X25000000Y-7731641D01*
X25000000Y-7664297D01*
X24966328Y-7563282D01*
X24831641Y-7428595D01*
X24730625Y-7394923D01*
X24225549Y-7226564D02*
X23686801Y-6687816D01*
X23686801Y-7226564D02*
X24225549Y-6687816D01*
X13952380Y-12733333D02*
X12952380Y-12733333D01*
X12952380Y-13114285D01*
X13000000Y-13209523D01*
X13047619Y-13257142D01*
X13142857Y-13304761D01*
X13285714Y-13304761D01*
X13380952Y-13257142D01*
X13428571Y-13209523D01*
X13476190Y-13114285D01*
X13476190Y-12733333D01*
X13952380Y-14161904D02*
X13428571Y-14161904D01*
X13333333Y-14114285D01*
X13285714Y-14019047D01*
X13285714Y-13828571D01*
X13333333Y-13733333D01*
X13904761Y-14161904D02*
X13952380Y-14066666D01*
X13952380Y-13828571D01*
X13904761Y-13733333D01*
X13809523Y-13685714D01*
X13714285Y-13685714D01*
X13619047Y-13733333D01*
X13571428Y-13828571D01*
X13571428Y-14066666D01*
X13523809Y-14161904D01*
X13952380Y-15066666D02*
X12952380Y-15066666D01*
X13904761Y-15066666D02*
X13952380Y-14971428D01*
X13952380Y-14780952D01*
X13904761Y-14685714D01*
X13857142Y-14638095D01*
X13761904Y-14590476D01*
X13476190Y-14590476D01*
X13380952Y-14638095D01*
X13333333Y-14685714D01*
X13285714Y-14780952D01*
X13285714Y-14971428D01*
X13333333Y-15066666D01*
X23314285Y-14028571D02*
X23171428Y-14076190D01*
X23123809Y-14123809D01*
X23076190Y-14219047D01*
X23076190Y-14361904D01*
X23123809Y-14457142D01*
X23171428Y-14504761D01*
X23266666Y-14552380D01*
X23647619Y-14552380D01*
X23647619Y-13552380D01*
X23314285Y-13552380D01*
X23219047Y-13600000D01*
X23171428Y-13647619D01*
X23123809Y-13742857D01*
X23123809Y-13838095D01*
X23171428Y-13933333D01*
X23219047Y-13980952D01*
X23314285Y-14028571D01*
X23647619Y-14028571D01*
X22219047Y-14552380D02*
X22219047Y-14028571D01*
X22266666Y-13933333D01*
X22361904Y-13885714D01*
X22552380Y-13885714D01*
X22647619Y-13933333D01*
X22219047Y-14504761D02*
X22314285Y-14552380D01*
X22552380Y-14552380D01*
X22647619Y-14504761D01*
X22695238Y-14409523D01*
X22695238Y-14314285D01*
X22647619Y-14219047D01*
X22552380Y-14171428D01*
X22314285Y-14171428D01*
X22219047Y-14123809D01*
X21600000Y-14552380D02*
X21695238Y-14504761D01*
X21742857Y-14409523D01*
X21742857Y-13552380D01*
X21076190Y-14552380D02*
X21171428Y-14504761D01*
X21219047Y-14409523D01*
X21219047Y-13552380D01*
X19742857Y-14076190D02*
X19742857Y-14552380D01*
X20076190Y-13552380D02*
X19742857Y-14076190D01*
X19409523Y-13552380D01*
X7700000Y-10600000D02*
X7700000Y-10500000D01*
X9200000Y-10600000D02*
X9200000Y-10500000D01*
X10400000Y-10600000D02*
X10400000Y-10500000D01*
X8300000Y-11100000D02*
X8300000Y-10500000D01*
X9800000Y-10600000D02*
X9800000Y-10500000D01*
X8000000Y-10600000D02*
X8000000Y-10500000D01*
X8600000Y-10600000D02*
X8600000Y-10500000D01*
X8900000Y-10600000D02*
X8900000Y-10500000D01*
X10100000Y-10600000D02*
X10100000Y-10500000D01*
X9500000Y-10600000D02*
X9500000Y-10500000D01*
X6800000Y-10500000D02*
X6800000Y-10600000D01*
X6500000Y-10500000D02*
X6500000Y-10600000D01*
X6200000Y-10500000D02*
X6200000Y-10600000D01*
X5900000Y-10500000D02*
X5900000Y-10600000D01*
X5600000Y-10500000D02*
X5600000Y-10600000D01*
X5300000Y-10500000D02*
X5300000Y-10600000D01*
X5000000Y-10500000D02*
X5000000Y-11100000D01*
X4700000Y-10500000D02*
X4700000Y-10600000D01*
X4400000Y-10500000D02*
X4400000Y-10600000D01*
X4100000Y-10500000D02*
X4100000Y-10600000D01*
D11*
X10200000Y-12900000D02*
X10200000Y-11500000D01*
D10*
X3700000Y-17100000D02*
X3700000Y-10100000D01*
X3700000Y-17100000D02*
X10700000Y-17100000D01*
X10700000Y-17100000D02*
X10700000Y-10100000D01*
X3700000Y-10100000D02*
X10700000Y-10100000D01*
D12*
X6473205Y-13400000D02*
G75*
G03X6473205Y-13400000I-173205J0D01*
G01*
D11*
X4300000Y-16100000D02*
X4300000Y-14700000D01*
D10*
X51538095Y-5860714D02*
X51157142Y-5860714D01*
X51395238Y-5527380D02*
X51395238Y-6384523D01*
X51347619Y-6479761D01*
X51252380Y-6527380D01*
X51157142Y-6527380D01*
X50442857Y-6479761D02*
X50538095Y-6527380D01*
X50728571Y-6527380D01*
X50823809Y-6479761D01*
X50871428Y-6384523D01*
X50871428Y-6003571D01*
X50823809Y-5908333D01*
X50728571Y-5860714D01*
X50538095Y-5860714D01*
X50442857Y-5908333D01*
X50395238Y-6003571D01*
X50395238Y-6098809D01*
X50871428Y-6194047D01*
X49823809Y-6527380D02*
X49919047Y-6479761D01*
X49966666Y-6384523D01*
X49966666Y-5527380D01*
X49061904Y-6479761D02*
X49157142Y-6527380D01*
X49347619Y-6527380D01*
X49442857Y-6479761D01*
X49490476Y-6384523D01*
X49490476Y-6003571D01*
X49442857Y-5908333D01*
X49347619Y-5860714D01*
X49157142Y-5860714D01*
X49061904Y-5908333D01*
X49014285Y-6003571D01*
X49014285Y-6098809D01*
X49490476Y-6194047D01*
X48157142Y-6479761D02*
X48252380Y-6527380D01*
X48442857Y-6527380D01*
X48538095Y-6479761D01*
X48585714Y-6432142D01*
X48633333Y-6336904D01*
X48633333Y-6051190D01*
X48585714Y-5955952D01*
X48538095Y-5908333D01*
X48442857Y-5860714D01*
X48252380Y-5860714D01*
X48157142Y-5908333D01*
X51514285Y-7272619D02*
X51466666Y-7225000D01*
X51371428Y-7177380D01*
X51133333Y-7177380D01*
X51038095Y-7225000D01*
X50990476Y-7272619D01*
X50942857Y-7367857D01*
X50942857Y-7463095D01*
X50990476Y-7605952D01*
X51561904Y-8177380D01*
X50942857Y-8177380D01*
X50323809Y-7177380D02*
X50228571Y-7177380D01*
X50133333Y-7225000D01*
X50085714Y-7272619D01*
X50038095Y-7367857D01*
X49990476Y-7558333D01*
X49990476Y-7796428D01*
X50038095Y-7986904D01*
X50085714Y-8082142D01*
X50133333Y-8129761D01*
X50228571Y-8177380D01*
X50323809Y-8177380D01*
X50419047Y-8129761D01*
X50466666Y-8082142D01*
X50514285Y-7986904D01*
X50561904Y-7796428D01*
X50561904Y-7558333D01*
X50514285Y-7367857D01*
X50466666Y-7272619D01*
X50419047Y-7225000D01*
X50323809Y-7177380D01*
X49609523Y-7272619D02*
X49561904Y-7225000D01*
X49466666Y-7177380D01*
X49228571Y-7177380D01*
X49133333Y-7225000D01*
X49085714Y-7272619D01*
X49038095Y-7367857D01*
X49038095Y-7463095D01*
X49085714Y-7605952D01*
X49657142Y-8177380D01*
X49038095Y-8177380D01*
X48419047Y-7177380D02*
X48323809Y-7177380D01*
X48228571Y-7225000D01*
X48180952Y-7272619D01*
X48133333Y-7367857D01*
X48085714Y-7558333D01*
X48085714Y-7796428D01*
X48133333Y-7986904D01*
X48180952Y-8082142D01*
X48228571Y-8129761D01*
X48323809Y-8177380D01*
X48419047Y-8177380D01*
X48514285Y-8129761D01*
X48561904Y-8082142D01*
X48609523Y-7986904D01*
X48657142Y-7796428D01*
X48657142Y-7558333D01*
X48609523Y-7367857D01*
X48561904Y-7272619D01*
X48514285Y-7225000D01*
X48419047Y-7177380D01*
D13*
X10557142Y-19614285D02*
X10557142Y-17814285D01*
X9871428Y-17814285D01*
X9700000Y-17900000D01*
X9614285Y-17985714D01*
X9528571Y-18157142D01*
X9528571Y-18414285D01*
X9614285Y-18585714D01*
X9700000Y-18671428D01*
X9871428Y-18757142D01*
X10557142Y-18757142D01*
X8414285Y-17814285D02*
X8071428Y-17814285D01*
X7900000Y-17900000D01*
X7728571Y-18071428D01*
X7642857Y-18414285D01*
X7642857Y-19014285D01*
X7728571Y-19357142D01*
X7900000Y-19528571D01*
X8071428Y-19614285D01*
X8414285Y-19614285D01*
X8585714Y-19528571D01*
X8757142Y-19357142D01*
X8842857Y-19014285D01*
X8842857Y-18414285D01*
X8757142Y-18071428D01*
X8585714Y-17900000D01*
X8414285Y-17814285D01*
X6871428Y-19614285D02*
X6871428Y-17814285D01*
X5842857Y-19614285D01*
X5842857Y-17814285D01*
X4042857Y-17900000D02*
X4214285Y-17814285D01*
X4471428Y-17814285D01*
X4728571Y-17900000D01*
X4900000Y-18071428D01*
X4985714Y-18242857D01*
X5071428Y-18585714D01*
X5071428Y-18842857D01*
X4985714Y-19185714D01*
X4900000Y-19357142D01*
X4728571Y-19528571D01*
X4471428Y-19614285D01*
X4300000Y-19614285D01*
X4042857Y-19528571D01*
X3957142Y-19442857D01*
X3957142Y-18842857D01*
X4300000Y-18842857D01*
D11*
X38257142Y-200000D02*
X38400000Y-128571D01*
X38614285Y-128571D01*
X38828571Y-200000D01*
X38971428Y-342857D01*
X39042857Y-485714D01*
X39114285Y-771428D01*
X39114285Y-985714D01*
X39042857Y-1271428D01*
X38971428Y-1414285D01*
X38828571Y-1557142D01*
X38614285Y-1628571D01*
X38471428Y-1628571D01*
X38257142Y-1557142D01*
X38185714Y-1485714D01*
X38185714Y-985714D01*
X38471428Y-985714D01*
X37328571Y-1628571D02*
X37471428Y-1557142D01*
X37542857Y-1485714D01*
X37614285Y-1342857D01*
X37614285Y-914285D01*
X37542857Y-771428D01*
X37471428Y-700000D01*
X37328571Y-628571D01*
X37114285Y-628571D01*
X36971428Y-700000D01*
X36900000Y-771428D01*
X36828571Y-914285D01*
X36828571Y-1342857D01*
X36900000Y-1485714D01*
X36971428Y-1557142D01*
X37114285Y-1628571D01*
X37328571Y-1628571D01*
X35542857Y-1628571D02*
X35542857Y-842857D01*
X35614285Y-700000D01*
X35757142Y-628571D01*
X36042857Y-628571D01*
X36185714Y-700000D01*
X35542857Y-1557142D02*
X35685714Y-1628571D01*
X36042857Y-1628571D01*
X36185714Y-1557142D01*
X36257142Y-1414285D01*
X36257142Y-1271428D01*
X36185714Y-1128571D01*
X36042857Y-1057142D01*
X35685714Y-1057142D01*
X35542857Y-985714D01*
X34614285Y-1628571D02*
X34757142Y-1557142D01*
X34828571Y-1414285D01*
X34828571Y-128571D01*
X40507142Y-4128571D02*
X40507142Y-2628571D01*
X40507142Y-4057142D02*
X40650000Y-4128571D01*
X40935714Y-4128571D01*
X41078571Y-4057142D01*
X41150000Y-3985714D01*
X41221428Y-3842857D01*
X41221428Y-3414285D01*
X41150000Y-3271428D01*
X41078571Y-3200000D01*
X40935714Y-3128571D01*
X40650000Y-3128571D01*
X40507142Y-3200000D01*
X39221428Y-4057142D02*
X39364285Y-4128571D01*
X39650000Y-4128571D01*
X39792857Y-4057142D01*
X39864285Y-3914285D01*
X39864285Y-3342857D01*
X39792857Y-3200000D01*
X39650000Y-3128571D01*
X39364285Y-3128571D01*
X39221428Y-3200000D01*
X39150000Y-3342857D01*
X39150000Y-3485714D01*
X39864285Y-3628571D01*
X38721428Y-3128571D02*
X38150000Y-3128571D01*
X38507142Y-2628571D02*
X38507142Y-3914285D01*
X38435714Y-4057142D01*
X38292857Y-4128571D01*
X38150000Y-4128571D01*
X37078571Y-4057142D02*
X37221428Y-4128571D01*
X37507142Y-4128571D01*
X37650000Y-4057142D01*
X37721428Y-3914285D01*
X37721428Y-3342857D01*
X37650000Y-3200000D01*
X37507142Y-3128571D01*
X37221428Y-3128571D01*
X37078571Y-3200000D01*
X37007142Y-3342857D01*
X37007142Y-3485714D01*
X37721428Y-3628571D01*
X35721428Y-4057142D02*
X35864285Y-4128571D01*
X36150000Y-4128571D01*
X36292857Y-4057142D01*
X36364285Y-3985714D01*
X36435714Y-3842857D01*
X36435714Y-3414285D01*
X36364285Y-3271428D01*
X36292857Y-3200000D01*
X36150000Y-3128571D01*
X35864285Y-3128571D01*
X35721428Y-3200000D01*
X35292857Y-3128571D02*
X34721428Y-3128571D01*
X35078571Y-2628571D02*
X35078571Y-3914285D01*
X35007142Y-4057142D01*
X34864285Y-4128571D01*
X34721428Y-4128571D01*
X34007142Y-4128571D02*
X34150000Y-4057142D01*
X34221428Y-3985714D01*
X34292857Y-3842857D01*
X34292857Y-3414285D01*
X34221428Y-3271428D01*
X34150000Y-3200000D01*
X34007142Y-3128571D01*
X33792857Y-3128571D01*
X33650000Y-3200000D01*
X33578571Y-3271428D01*
X33507142Y-3414285D01*
X33507142Y-3842857D01*
X33578571Y-3985714D01*
X33650000Y-4057142D01*
X33792857Y-4128571D01*
X34007142Y-4128571D01*
X32864285Y-4128571D02*
X32864285Y-3128571D01*
X32864285Y-3414285D02*
X32792857Y-3271428D01*
X32721428Y-3200000D01*
X32578571Y-3128571D01*
X32435714Y-3128571D01*
M02*
